# https://github.com/mikedh/trimesh
mtllib material.mtl
usemtl L1_Baked.004
v -0.02680004 3.18000016 -0.03960000
v -0.02680004 3.18000016 -0.03960000
v -0.02680004 3.18000016 -0.03960000
v -0.02680004 3.22400012 -0.03960000
v -0.02680004 3.22400012 -0.03960000
v -0.02680004 3.22400012 -0.03960000
v -0.00093749 3.18000016 -0.03203707
v -0.00093749 3.18000016 -0.03203707
v -0.00093749 3.18000016 -0.03203707
v -0.00093749 3.22400012 -0.03203707
v -0.00093749 3.22400012 -0.03203707
v -0.00093749 3.22400012 -0.03203707
v 0.01504645 3.18000016 -0.01223707
v 0.01504645 3.18000016 -0.01223707
v 0.01504645 3.18000016 -0.01223707
v 0.01504645 3.18000016 -0.01223707
v 0.01504645 3.22400012 -0.01223707
v 0.01504645 3.22400012 -0.01223707
v 0.01504645 3.22400012 -0.01223707
v 0.01504645 3.18000016 0.01223707
v 0.01504645 3.18000016 0.01223707
v 0.01504645 3.18000016 0.01223707
v 0.01504645 3.18000016 0.01223707
v 0.01504645 3.22400012 0.01223707
v 0.01504645 3.22400012 0.01223707
v 0.01504645 3.22400012 0.01223707
v -0.00093749 3.18000016 0.03203707
v -0.00093749 3.18000016 0.03203707
v -0.00093749 3.18000016 0.03203707
v -0.00093749 3.22400012 0.03203707
v -0.00093749 3.22400012 0.03203707
v -0.00093749 3.22400012 0.03203707
v -0.02680004 3.18000016 0.03960000
v -0.02680004 3.18000016 0.03960000
v -0.02680004 3.18000016 0.03960000
v -0.02680004 3.22400012 0.03960000
v -0.02680004 3.22400012 0.03960000
v -0.02680004 3.22400012 0.03960000
v -0.05266259 3.18000016 0.03203707
v -0.05266259 3.18000016 0.03203707
v -0.05266259 3.18000016 0.03203707
v -0.05266259 3.22400012 0.03203707
v -0.05266259 3.22400012 0.03203707
v -0.05266259 3.22400012 0.03203707
v -0.06864652 3.18000016 0.01223707
v -0.06864652 3.18000016 0.01223707
v -0.06864652 3.18000016 0.01223707
v -0.06864652 3.18000016 0.01223707
v -0.06864652 3.22400012 0.01223707
v -0.06864652 3.22400012 0.01223707
v -0.06864652 3.22400012 0.01223707
v -0.06864652 3.18000016 -0.01223707
v -0.06864652 3.18000016 -0.01223707
v -0.06864652 3.18000016 -0.01223707
v -0.06864652 3.18000016 -0.01223707
v -0.06864652 3.22400012 -0.01223707
v -0.06864652 3.22400012 -0.01223707
v -0.06864652 3.22400012 -0.01223707
v -0.05266259 3.18000016 -0.03203707
v -0.05266259 3.18000016 -0.03203707
v -0.05266259 3.18000016 -0.03203707
v -0.05266259 3.22400012 -0.03203707
v -0.05266259 3.22400012 -0.03203707
v -0.05266259 3.22400012 -0.03203707
v -0.06864652 3.22400012 0.00000000
v -0.06864652 3.22400012 0.00000000
v -0.06864652 3.18000016 0.00000000
v -0.06864652 3.18000016 0.00000000
v 0.01504645 3.18000016 0.00000000
v 0.01504645 3.18000016 0.00000000
v 0.01504645 3.22400012 0.00000000
v 0.01504645 3.22400012 0.00000000
v -0.02680004 3.20200025 -0.03960000
v -0.02680004 3.20200025 -0.03960000
v -0.02680004 3.20200025 -0.03960000
v -0.02680004 3.20200025 -0.03960000
v -0.00093749 3.20200025 -0.03203707
v -0.00093749 3.20200025 -0.03203707
v 0.01504645 3.20200025 -0.01223707
v 0.01504645 3.20200025 -0.01223707
v 0.01504645 3.20200025 -0.01223707
v 0.01504645 3.20200025 -0.01223707
v 0.01504645 3.20200025 0.01223707
v 0.01504645 3.20200025 0.01223707
v 0.01504645 3.20200025 0.01223707
v 0.01504645 3.20200025 0.01223707
v -0.00093749 3.20200025 0.03203707
v -0.00093749 3.20200025 0.03203707
v -0.02680004 3.20200025 0.03960000
v -0.02680004 3.20200025 0.03960000
v -0.02680004 3.20200025 0.03960000
v -0.02680004 3.20200025 0.03960000
v -0.05266259 3.20200025 0.03203707
v -0.05266259 3.20200025 0.03203707
v -0.06864652 3.20200025 0.01223707
v -0.06864652 3.20200025 0.01223707
v -0.06864652 3.20200025 0.01223707
v -0.06864652 3.20200025 0.01223707
v -0.06864652 3.20200025 -0.01223707
v -0.06864652 3.20200025 -0.01223707
v -0.06864652 3.20200025 -0.01223707
v -0.06864652 3.20200025 -0.01223707
v -0.05266259 3.20200025 -0.03203707
v -0.05266259 3.20200025 -0.03203707
v -0.06864652 3.20200025 0.00000000
v -0.06864652 3.20200025 0.00000000
v 0.01504645 3.20200025 0.00000000
v 0.01504645 3.20200025 0.00000000
v 0.19104706 2.93802466 -0.01218847
v 0.19104706 2.93802466 -0.01218847
v 0.19104706 2.93802466 -0.01218847
v 0.16904699 2.93802466 -0.01218847
v 0.16904699 2.93802466 -0.01218847
v 0.16904699 2.93802466 -0.01218847
v 0.16904699 2.93802466 0.00004861
v 0.16904699 2.93802466 0.00004861
v 0.16904699 2.93802466 0.01228568
v 0.16904699 2.93802466 0.01228568
v 0.16904699 2.93802466 0.01228568
v 0.19104706 2.93802466 0.01228567
v 0.19104706 2.93802466 0.01228567
v 0.19104706 2.93802466 0.01228567
v 0.19104706 2.93802466 0.00004860
v 0.19104706 2.93802466 0.00004860
v -0.01386876 3.18000016 -0.03581853
v -0.01386876 3.18000016 -0.03581853
v -0.01386876 3.18000016 -0.03581853
v -0.01386876 3.18000016 -0.03581853
v -0.01386876 3.20200025 -0.03581853
v -0.01386876 3.20200025 -0.03581853
v -0.01386876 3.20200025 -0.03581853
v -0.01386876 3.22400012 -0.03581853
v -0.01386876 3.22400012 -0.03581853
v -0.03973131 3.20200025 -0.03581853
v -0.03973131 3.20200025 -0.03581853
v -0.03973131 3.20200025 -0.03581853
v -0.03973131 3.22400012 -0.03581853
v -0.03973131 3.22400012 -0.03581853
v -0.03973131 3.18000016 -0.03581853
v -0.03973131 3.18000016 -0.03581853
v -0.03973131 3.18000016 -0.03581853
v -0.03973131 3.18000016 -0.03581853
v -0.03973123 3.22400012 0.03581856
v -0.03973123 3.22400012 0.03581856
v -0.03973123 3.20200025 0.03581856
v -0.03973123 3.20200025 0.03581856
v -0.03973123 3.20200025 0.03581856
v -0.03973123 3.18000016 0.03581856
v -0.03973123 3.18000016 0.03581856
v -0.03973123 3.18000016 0.03581856
v -0.03973123 3.18000016 0.03581856
v -0.01386884 3.22400012 0.03581856
v -0.01386884 3.22400012 0.03581856
v -0.01386884 3.18000016 0.03581856
v -0.01386884 3.18000016 0.03581856
v -0.01386884 3.18000016 0.03581856
v -0.01386884 3.18000016 0.03581856
v -0.01386884 3.20200025 0.03581856
v -0.01386884 3.20200025 0.03581856
v -0.01386884 3.20200025 0.03581856
v -0.24904684 2.93802507 0.01228567
v -0.24904684 2.93802507 0.01228567
v -0.24904684 2.93802507 0.01228567
v -0.22704681 2.93802507 0.01228568
v -0.22704681 2.93802507 0.01228568
v -0.22704681 2.93802507 0.01228568
v -0.22704681 2.93802507 0.00004861
v -0.22704681 2.93802507 0.00004861
v -0.22704681 2.93802507 -0.01218847
v -0.22704681 2.93802507 -0.01218847
v -0.22704681 2.93802507 -0.01218847
v -0.24904684 2.93802507 -0.01218847
v -0.24904684 2.93802507 -0.01218847
v -0.24904684 2.93802507 -0.01218847
v -0.24904684 2.93802507 0.00004860
v -0.24904684 2.93802507 0.00004860
v -0.04303142 2.94122483 -0.17824045
v -0.04303142 2.94122483 -0.17824045
v -0.04303142 2.94122483 -0.17824045
v -0.03010015 2.93702330 -0.17824045
v -0.03010015 2.93702330 -0.17824045
v -0.03010015 2.93702330 -0.17824045
v -0.03010015 2.93702330 -0.17824045
v -0.03010015 2.93702330 -0.19804045
v -0.03010015 2.93702330 -0.19804045
v -0.03010015 2.93702330 -0.19804045
v -0.03010015 2.93702330 -0.19804045
v -0.04303142 2.94122483 -0.19804045
v -0.04303142 2.94122483 -0.19804045
v -0.04303142 2.94122483 -0.19804045
v -0.01716888 2.94122483 -0.17824045
v -0.01716888 2.94122483 -0.17824045
v -0.01716888 2.94122483 -0.17824045
v -0.01716888 2.94122483 -0.19804045
v -0.01716888 2.94122483 -0.19804045
v -0.01716888 2.94122483 -0.19804045
v -0.01716897 2.94122588 0.17814243
v -0.01716897 2.94122588 0.17814243
v -0.01716897 2.94122588 0.17814243
v -0.03010016 2.93702434 0.17814243
v -0.03010016 2.93702434 0.17814243
v -0.03010016 2.93702434 0.17814243
v -0.03010016 2.93702434 0.17814243
v -0.03010016 2.93702434 0.19794239
v -0.03010016 2.93702434 0.19794239
v -0.03010016 2.93702434 0.19794239
v -0.03010016 2.93702434 0.19794239
v -0.01716897 2.94122588 0.19794239
v -0.01716897 2.94122588 0.19794239
v -0.01716897 2.94122588 0.19794239
v -0.04303136 2.94122588 0.19794239
v -0.04303136 2.94122588 0.19794239
v -0.04303136 2.94122588 0.19794239
v -0.04303136 2.94122588 0.17814243
v -0.04303136 2.94122588 0.17814243
v -0.04303136 2.94122588 0.17814243
v -0.02680002 2.91600042 -0.19799999
v -0.02680002 2.91600042 -0.19799999
v -0.02680002 2.91600042 -0.19799999
v -0.02680002 2.91600042 -0.19799999
v -0.02680002 2.93800051 -0.19799999
v -0.02680002 2.93800051 -0.19799999
v -0.02680002 2.93800051 -0.19799999
v -0.02680002 2.93800051 -0.19799999
v 0.01611985 2.91600042 -0.19419549
v 0.01611985 2.91600042 -0.19419549
v 0.01611985 2.91600042 -0.19419549
v 0.01611985 2.91600042 -0.19419549
v 0.01611985 2.93800051 -0.19419549
v 0.01611985 2.93800051 -0.19419549
v 0.01611985 2.93800051 -0.19419549
v 0.01611985 2.93800051 -0.19419549
v 0.05739034 2.91600042 -0.18292815
v 0.05739034 2.91600042 -0.18292815
v 0.05739034 2.91600042 -0.18292815
v 0.05739034 2.91600042 -0.18292815
v 0.05739034 2.93800051 -0.18292815
v 0.05739034 2.93800051 -0.18292815
v 0.05739034 2.93800051 -0.18292815
v 0.05739034 2.93800051 -0.18292815
v 0.09542543 2.91600042 -0.16463100
v 0.09542543 2.91600042 -0.16463100
v 0.09542543 2.91600042 -0.16463100
v 0.09542543 2.91600042 -0.16463100
v 0.09542543 2.93800051 -0.16463100
v 0.09542543 2.93800051 -0.16463100
v 0.09542543 2.93800051 -0.16463100
v 0.09542543 2.93800051 -0.16463100
v 0.12876349 2.91600042 -0.14000712
v 0.12876349 2.91600042 -0.14000712
v 0.12876349 2.91600042 -0.14000712
v 0.12876349 2.91600042 -0.14000712
v 0.12876349 2.93800051 -0.14000712
v 0.12876349 2.93800051 -0.14000712
v 0.12876349 2.93800051 -0.14000712
v 0.12876349 2.93800051 -0.14000712
v 0.15612329 2.91600042 -0.11000291
v 0.15612329 2.91600042 -0.11000291
v 0.15612329 2.91600042 -0.11000291
v 0.15612329 2.91600042 -0.11000291
v 0.15612329 2.93800051 -0.11000291
v 0.15612329 2.93800051 -0.11000291
v 0.15612329 2.93800051 -0.11000291
v 0.15612329 2.93800051 -0.11000291
v 0.17645347 2.91600042 -0.07577132
v 0.17645347 2.91600042 -0.07577132
v 0.17645347 2.91600042 -0.07577132
v 0.17645347 2.91600042 -0.07577132
v 0.17645347 2.93800051 -0.07577132
v 0.17645347 2.93800051 -0.07577132
v 0.17645347 2.93800051 -0.07577132
v 0.17645347 2.93800051 -0.07577132
v 0.18897273 2.91600042 -0.03862789
v 0.18897273 2.91600042 -0.03862789
v 0.18897273 2.91600042 -0.03862789
v 0.18897273 2.91600042 -0.03862789
v 0.18897273 2.93800051 -0.03862789
v 0.18897273 2.93800051 -0.03862789
v 0.18897273 2.93800051 -0.03862789
v 0.18897273 2.93800051 -0.03862789
v 0.19320006 2.91600042 0.00000000
v 0.19320006 2.91600042 0.00000000
v 0.19320006 2.91600042 0.00000000
v 0.19320006 2.91600042 0.00000000
v 0.19320006 2.93800051 0.00000000
v 0.19320006 2.93800051 0.00000000
v 0.19320006 2.93800051 0.00000000
v 0.19320006 2.93800051 0.00000000
v 0.18897273 2.91600042 0.03862789
v 0.18897273 2.91600042 0.03862789
v 0.18897273 2.91600042 0.03862789
v 0.18897273 2.91600042 0.03862789
v 0.18897273 2.93800051 0.03862789
v 0.18897273 2.93800051 0.03862789
v 0.18897273 2.93800051 0.03862789
v 0.18897273 2.93800051 0.03862789
v 0.17645347 2.91600042 0.07577132
v 0.17645347 2.91600042 0.07577132
v 0.17645347 2.91600042 0.07577132
v 0.17645347 2.91600042 0.07577132
v 0.17645347 2.93800051 0.07577132
v 0.17645347 2.93800051 0.07577132
v 0.17645347 2.93800051 0.07577132
v 0.17645347 2.93800051 0.07577132
v 0.15612329 2.91600042 0.11000291
v 0.15612329 2.91600042 0.11000291
v 0.15612329 2.91600042 0.11000291
v 0.15612329 2.91600042 0.11000291
v 0.15612329 2.93800051 0.11000291
v 0.15612329 2.93800051 0.11000291
v 0.15612329 2.93800051 0.11000291
v 0.15612329 2.93800051 0.11000291
v 0.12876349 2.91600042 0.14000712
v 0.12876349 2.91600042 0.14000712
v 0.12876349 2.91600042 0.14000712
v 0.12876349 2.91600042 0.14000712
v 0.12876349 2.93800051 0.14000712
v 0.12876349 2.93800051 0.14000712
v 0.12876349 2.93800051 0.14000712
v 0.12876349 2.93800051 0.14000712
v 0.09542543 2.91600042 0.16463100
v 0.09542543 2.91600042 0.16463100
v 0.09542543 2.91600042 0.16463100
v 0.09542543 2.91600042 0.16463100
v 0.09542543 2.93800051 0.16463100
v 0.09542543 2.93800051 0.16463100
v 0.09542543 2.93800051 0.16463100
v 0.09542543 2.93800051 0.16463100
v 0.05739034 2.91600042 0.18292815
v 0.05739034 2.91600042 0.18292815
v 0.05739034 2.91600042 0.18292815
v 0.05739034 2.91600042 0.18292815
v 0.05739034 2.93800051 0.18292815
v 0.05739034 2.93800051 0.18292815
v 0.05739034 2.93800051 0.18292815
v 0.05739034 2.93800051 0.18292815
v 0.01611985 2.91600042 0.19419549
v 0.01611985 2.91600042 0.19419549
v 0.01611985 2.91600042 0.19419549
v 0.01611985 2.91600042 0.19419549
v 0.01611985 2.93800051 0.19419549
v 0.01611985 2.93800051 0.19419549
v 0.01611985 2.93800051 0.19419549
v 0.01611985 2.93800051 0.19419549
v -0.02680002 2.91600042 0.19799999
v -0.02680002 2.91600042 0.19799999
v -0.02680002 2.91600042 0.19799999
v -0.02680002 2.91600042 0.19799999
v -0.02680002 2.93800051 0.19799999
v -0.02680002 2.93800051 0.19799999
v -0.02680002 2.93800051 0.19799999
v -0.02680002 2.93800051 0.19799999
v -0.06971989 2.91600042 0.19419549
v -0.06971989 2.91600042 0.19419549
v -0.06971989 2.91600042 0.19419549
v -0.06971989 2.91600042 0.19419549
v -0.06971989 2.93800051 0.19419549
v -0.06971989 2.93800051 0.19419549
v -0.06971989 2.93800051 0.19419549
v -0.06971989 2.93800051 0.19419549
v -0.11099038 2.91600042 0.18292815
v -0.11099038 2.91600042 0.18292815
v -0.11099038 2.91600042 0.18292815
v -0.11099038 2.91600042 0.18292815
v -0.11099038 2.93800051 0.18292815
v -0.11099038 2.93800051 0.18292815
v -0.11099038 2.93800051 0.18292815
v -0.11099038 2.93800051 0.18292815
v -0.14902550 2.91600042 0.16463100
v -0.14902550 2.91600042 0.16463100
v -0.14902550 2.91600042 0.16463100
v -0.14902550 2.91600042 0.16463100
v -0.14902550 2.93800051 0.16463100
v -0.14902550 2.93800051 0.16463100
v -0.14902550 2.93800051 0.16463100
v -0.14902550 2.93800051 0.16463100
v -0.18236352 2.91600042 0.14000712
v -0.18236352 2.91600042 0.14000712
v -0.18236352 2.91600042 0.14000712
v -0.18236352 2.91600042 0.14000712
v -0.18236352 2.93800051 0.14000712
v -0.18236352 2.93800051 0.14000712
v -0.18236352 2.93800051 0.14000712
v -0.18236352 2.93800051 0.14000712
v -0.20972332 2.91600042 0.11000291
v -0.20972332 2.91600042 0.11000291
v -0.20972332 2.91600042 0.11000291
v -0.20972332 2.91600042 0.11000291
v -0.20972332 2.93800051 0.11000291
v -0.20972332 2.93800051 0.11000291
v -0.20972332 2.93800051 0.11000291
v -0.20972332 2.93800051 0.11000291
v -0.23005348 2.91600042 0.07577132
v -0.23005348 2.91600042 0.07577132
v -0.23005348 2.91600042 0.07577132
v -0.23005348 2.91600042 0.07577132
v -0.23005348 2.93800051 0.07577132
v -0.23005348 2.93800051 0.07577132
v -0.23005348 2.93800051 0.07577132
v -0.23005348 2.93800051 0.07577132
v -0.24257281 2.91600042 0.03862789
v -0.24257281 2.91600042 0.03862789
v -0.24257281 2.91600042 0.03862789
v -0.24257281 2.91600042 0.03862789
v -0.24257281 2.93800051 0.03862789
v -0.24257281 2.93800051 0.03862789
v -0.24257281 2.93800051 0.03862789
v -0.24257281 2.93800051 0.03862789
v -0.24680003 2.91600042 0.00000000
v -0.24680003 2.91600042 0.00000000
v -0.24680003 2.91600042 0.00000000
v -0.24680003 2.91600042 0.00000000
v -0.24680003 2.93800051 0.00000000
v -0.24680003 2.93800051 0.00000000
v -0.24680003 2.93800051 0.00000000
v -0.24680003 2.93800051 0.00000000
v -0.24257281 2.91600042 -0.03862789
v -0.24257281 2.91600042 -0.03862789
v -0.24257281 2.91600042 -0.03862789
v -0.24257281 2.91600042 -0.03862789
v -0.24257281 2.93800051 -0.03862789
v -0.24257281 2.93800051 -0.03862789
v -0.24257281 2.93800051 -0.03862789
v -0.24257281 2.93800051 -0.03862789
v -0.23005348 2.91600042 -0.07577132
v -0.23005348 2.91600042 -0.07577132
v -0.23005348 2.91600042 -0.07577132
v -0.23005348 2.91600042 -0.07577132
v -0.23005348 2.93800051 -0.07577132
v -0.23005348 2.93800051 -0.07577132
v -0.23005348 2.93800051 -0.07577132
v -0.23005348 2.93800051 -0.07577132
v -0.20972332 2.91600042 -0.11000291
v -0.20972332 2.91600042 -0.11000291
v -0.20972332 2.91600042 -0.11000291
v -0.20972332 2.91600042 -0.11000291
v -0.20972332 2.93800051 -0.11000291
v -0.20972332 2.93800051 -0.11000291
v -0.20972332 2.93800051 -0.11000291
v -0.20972332 2.93800051 -0.11000291
v -0.18236352 2.91600042 -0.14000712
v -0.18236352 2.91600042 -0.14000712
v -0.18236352 2.91600042 -0.14000712
v -0.18236352 2.91600042 -0.14000712
v -0.18236352 2.93800051 -0.14000712
v -0.18236352 2.93800051 -0.14000712
v -0.18236352 2.93800051 -0.14000712
v -0.18236352 2.93800051 -0.14000712
v -0.14902550 2.91600042 -0.16463100
v -0.14902550 2.91600042 -0.16463100
v -0.14902550 2.91600042 -0.16463100
v -0.14902550 2.91600042 -0.16463100
v -0.14902550 2.93800051 -0.16463100
v -0.14902550 2.93800051 -0.16463100
v -0.14902550 2.93800051 -0.16463100
v -0.14902550 2.93800051 -0.16463100
v -0.11099038 2.91600042 -0.18292815
v -0.11099038 2.91600042 -0.18292815
v -0.11099038 2.91600042 -0.18292815
v -0.11099038 2.91600042 -0.18292815
v -0.11099038 2.93800051 -0.18292815
v -0.11099038 2.93800051 -0.18292815
v -0.11099038 2.93800051 -0.18292815
v -0.11099038 2.93800051 -0.18292815
v -0.06971989 2.91600042 -0.19419549
v -0.06971989 2.91600042 -0.19419549
v -0.06971989 2.91600042 -0.19419549
v -0.06971989 2.91600042 -0.19419549
v -0.06971989 2.93800051 -0.19419549
v -0.06971989 2.93800051 -0.19419549
v -0.06971989 2.93800051 -0.19419549
v -0.06971989 2.93800051 -0.19419549
v -0.02680002 2.91710046 -0.17820000
v -0.02680002 2.91710046 -0.17820000
v -0.02680002 2.91710046 -0.17820000
v -0.02680002 2.91710046 -0.17820000
v 0.01182787 2.91710046 -0.17477595
v 0.01182787 2.91710046 -0.17477595
v 0.01182787 2.91710046 -0.17477595
v 0.01182787 2.91710046 -0.17477595
v 0.01182787 2.93690026 -0.17477595
v 0.01182787 2.93690026 -0.17477595
v 0.01182787 2.93690026 -0.17477595
v 0.01182787 2.93690026 -0.17477595
v -0.02680002 2.93690026 -0.17820000
v -0.02680002 2.93690026 -0.17820000
v -0.02680002 2.93690026 -0.17820000
v -0.02680002 2.93690026 -0.17820000
v 0.04897131 2.91710046 -0.16463534
v 0.04897131 2.91710046 -0.16463534
v 0.04897131 2.91710046 -0.16463534
v 0.04897131 2.91710046 -0.16463534
v 0.04897131 2.93690026 -0.16463534
v 0.04897131 2.93690026 -0.16463534
v 0.04897131 2.93690026 -0.16463534
v 0.04897131 2.93690026 -0.16463534
v 0.08320289 2.91710046 -0.14816791
v 0.08320289 2.91710046 -0.14816791
v 0.08320289 2.91710046 -0.14816791
v 0.08320289 2.91710046 -0.14816791
v 0.08320289 2.93690026 -0.14816791
v 0.08320289 2.93690026 -0.14816791
v 0.08320289 2.93690026 -0.14816791
v 0.08320289 2.93690026 -0.14816791
v 0.11320715 2.91710046 -0.12600642
v 0.11320715 2.91710046 -0.12600642
v 0.11320715 2.91710046 -0.12600642
v 0.11320715 2.91710046 -0.12600642
v 0.11320715 2.93690026 -0.12600642
v 0.11320715 2.93690026 -0.12600642
v 0.11320715 2.93690026 -0.12600642
v 0.11320715 2.93690026 -0.12600642
v 0.13783098 2.91710046 -0.09900262
v 0.13783098 2.91710046 -0.09900262
v 0.13783098 2.91710046 -0.09900262
v 0.13783098 2.91710046 -0.09900262
v 0.13783098 2.93690026 -0.09900262
v 0.13783098 2.93690026 -0.09900262
v 0.13783098 2.93690026 -0.09900262
v 0.13783098 2.93690026 -0.09900262
v 0.15612814 2.91710046 -0.06819419
v 0.15612814 2.91710046 -0.06819419
v 0.15612814 2.91710046 -0.06819419
v 0.15612814 2.91710046 -0.06819419
v 0.15612814 2.93690026 -0.06819419
v 0.15612814 2.93690026 -0.06819419
v 0.15612814 2.93690026 -0.06819419
v 0.15612814 2.93690026 -0.06819419
v 0.16739547 2.91710046 -0.03476510
v 0.16739547 2.91710046 -0.03476510
v 0.16739547 2.91710046 -0.03476510
v 0.16739547 2.91710046 -0.03476510
v 0.16739547 2.93690026 -0.03476510
v 0.16739547 2.93690026 -0.03476510
v 0.16739547 2.93690026 -0.03476510
v 0.16739547 2.93690026 -0.03476510
v 0.17120007 2.91710046 0.00000000
v 0.17120007 2.91710046 0.00000000
v 0.17120007 2.91710046 0.00000000
v 0.17120007 2.91710046 0.00000000
v 0.17120007 2.93690026 0.00000000
v 0.17120007 2.93690026 0.00000000
v 0.17120007 2.93690026 0.00000000
v 0.17120007 2.93690026 0.00000000
v 0.16739547 2.91710046 0.03476510
v 0.16739547 2.91710046 0.03476510
v 0.16739547 2.91710046 0.03476510
v 0.16739547 2.91710046 0.03476510
v 0.16739547 2.93690026 0.03476510
v 0.16739547 2.93690026 0.03476510
v 0.16739547 2.93690026 0.03476510
v 0.16739547 2.93690026 0.03476510
v 0.15612814 2.91710046 0.06819419
v 0.15612814 2.91710046 0.06819419
v 0.15612814 2.91710046 0.06819419
v 0.15612814 2.91710046 0.06819419
v 0.15612814 2.93690026 0.06819419
v 0.15612814 2.93690026 0.06819419
v 0.15612814 2.93690026 0.06819419
v 0.15612814 2.93690026 0.06819419
v 0.13783098 2.91710046 0.09900262
v 0.13783098 2.91710046 0.09900262
v 0.13783098 2.91710046 0.09900262
v 0.13783098 2.91710046 0.09900262
v 0.13783098 2.93690026 0.09900262
v 0.13783098 2.93690026 0.09900262
v 0.13783098 2.93690026 0.09900262
v 0.13783098 2.93690026 0.09900262
v 0.11320715 2.91710046 0.12600642
v 0.11320715 2.91710046 0.12600642
v 0.11320715 2.91710046 0.12600642
v 0.11320715 2.91710046 0.12600642
v 0.11320715 2.93690026 0.12600642
v 0.11320715 2.93690026 0.12600642
v 0.11320715 2.93690026 0.12600642
v 0.11320715 2.93690026 0.12600642
v 0.08320289 2.91710046 0.14816791
v 0.08320289 2.91710046 0.14816791
v 0.08320289 2.91710046 0.14816791
v 0.08320289 2.91710046 0.14816791
v 0.08320289 2.93690026 0.14816791
v 0.08320289 2.93690026 0.14816791
v 0.08320289 2.93690026 0.14816791
v 0.08320289 2.93690026 0.14816791
v 0.04897131 2.91710046 0.16463534
v 0.04897131 2.91710046 0.16463534
v 0.04897131 2.91710046 0.16463534
v 0.04897131 2.91710046 0.16463534
v 0.04897131 2.93690026 0.16463534
v 0.04897131 2.93690026 0.16463534
v 0.04897131 2.93690026 0.16463534
v 0.04897131 2.93690026 0.16463534
v 0.01182787 2.91710046 0.17477595
v 0.01182787 2.91710046 0.17477595
v 0.01182787 2.91710046 0.17477595
v 0.01182787 2.91710046 0.17477595
v 0.01182787 2.93690026 0.17477595
v 0.01182787 2.93690026 0.17477595
v 0.01182787 2.93690026 0.17477595
v 0.01182787 2.93690026 0.17477595
v -0.02680002 2.91710046 0.17820000
v -0.02680002 2.91710046 0.17820000
v -0.02680002 2.91710046 0.17820000
v -0.02680002 2.91710046 0.17820000
v -0.02680002 2.93690026 0.17820000
v -0.02680002 2.93690026 0.17820000
v -0.02680002 2.93690026 0.17820000
v -0.02680002 2.93690026 0.17820000
v -0.06542790 2.91710046 0.17477595
v -0.06542790 2.91710046 0.17477595
v -0.06542790 2.91710046 0.17477595
v -0.06542790 2.91710046 0.17477595
v -0.06542790 2.93690026 0.17477595
v -0.06542790 2.93690026 0.17477595
v -0.06542790 2.93690026 0.17477595
v -0.06542790 2.93690026 0.17477595
v -0.10257136 2.91710046 0.16463534
v -0.10257136 2.91710046 0.16463534
v -0.10257136 2.91710046 0.16463534
v -0.10257136 2.91710046 0.16463534
v -0.10257136 2.93690026 0.16463534
v -0.10257136 2.93690026 0.16463534
v -0.10257136 2.93690026 0.16463534
v -0.10257136 2.93690026 0.16463534
v -0.13680295 2.91710046 0.14816791
v -0.13680295 2.91710046 0.14816791
v -0.13680295 2.91710046 0.14816791
v -0.13680295 2.91710046 0.14816791
v -0.13680295 2.93690026 0.14816791
v -0.13680295 2.93690026 0.14816791
v -0.13680295 2.93690026 0.14816791
v -0.13680295 2.93690026 0.14816791
v -0.16680717 2.91710046 0.12600642
v -0.16680717 2.91710046 0.12600642
v -0.16680717 2.91710046 0.12600642
v -0.16680717 2.91710046 0.12600642
v -0.16680717 2.93690026 0.12600642
v -0.16680717 2.93690026 0.12600642
v -0.16680717 2.93690026 0.12600642
v -0.16680717 2.93690026 0.12600642
v -0.19143099 2.91710046 0.09900262
v -0.19143099 2.91710046 0.09900262
v -0.19143099 2.91710046 0.09900262
v -0.19143099 2.91710046 0.09900262
v -0.19143099 2.93690026 0.09900262
v -0.19143099 2.93690026 0.09900262
v -0.19143099 2.93690026 0.09900262
v -0.19143099 2.93690026 0.09900262
v -0.20972815 2.91710046 0.06819419
v -0.20972815 2.91710046 0.06819419
v -0.20972815 2.91710046 0.06819419
v -0.20972815 2.91710046 0.06819419
v -0.20972815 2.93690026 0.06819419
v -0.20972815 2.93690026 0.06819419
v -0.20972815 2.93690026 0.06819419
v -0.20972815 2.93690026 0.06819419
v -0.22099552 2.91710046 0.03476510
v -0.22099552 2.91710046 0.03476510
v -0.22099552 2.91710046 0.03476510
v -0.22099552 2.91710046 0.03476510
v -0.22099552 2.93690026 0.03476510
v -0.22099552 2.93690026 0.03476510
v -0.22099552 2.93690026 0.03476510
v -0.22099552 2.93690026 0.03476510
v -0.22480000 2.91710046 0.00000000
v -0.22480000 2.91710046 0.00000000
v -0.22480000 2.91710046 0.00000000
v -0.22480000 2.91710046 0.00000000
v -0.22480000 2.93690026 0.00000000
v -0.22480000 2.93690026 0.00000000
v -0.22480000 2.93690026 0.00000000
v -0.22480000 2.93690026 0.00000000
v -0.22099552 2.91710046 -0.03476510
v -0.22099552 2.91710046 -0.03476510
v -0.22099552 2.91710046 -0.03476510
v -0.22099552 2.91710046 -0.03476510
v -0.22099552 2.93690026 -0.03476510
v -0.22099552 2.93690026 -0.03476510
v -0.22099552 2.93690026 -0.03476510
v -0.22099552 2.93690026 -0.03476510
v -0.20972815 2.91710046 -0.06819419
v -0.20972815 2.91710046 -0.06819419
v -0.20972815 2.91710046 -0.06819419
v -0.20972815 2.91710046 -0.06819419
v -0.20972815 2.93690026 -0.06819419
v -0.20972815 2.93690026 -0.06819419
v -0.20972815 2.93690026 -0.06819419
v -0.20972815 2.93690026 -0.06819419
v -0.19143099 2.91710046 -0.09900262
v -0.19143099 2.91710046 -0.09900262
v -0.19143099 2.91710046 -0.09900262
v -0.19143099 2.91710046 -0.09900262
v -0.19143099 2.93690026 -0.09900262
v -0.19143099 2.93690026 -0.09900262
v -0.19143099 2.93690026 -0.09900262
v -0.19143099 2.93690026 -0.09900262
v -0.16680717 2.91710046 -0.12600642
v -0.16680717 2.91710046 -0.12600642
v -0.16680717 2.91710046 -0.12600642
v -0.16680717 2.91710046 -0.12600642
v -0.16680717 2.93690026 -0.12600642
v -0.16680717 2.93690026 -0.12600642
v -0.16680717 2.93690026 -0.12600642
v -0.16680717 2.93690026 -0.12600642
v -0.13680295 2.91710046 -0.14816791
v -0.13680295 2.91710046 -0.14816791
v -0.13680295 2.91710046 -0.14816791
v -0.13680295 2.91710046 -0.14816791
v -0.13680295 2.93690026 -0.14816791
v -0.13680295 2.93690026 -0.14816791
v -0.13680295 2.93690026 -0.14816791
v -0.13680295 2.93690026 -0.14816791
v -0.10257136 2.91710046 -0.16463534
v -0.10257136 2.91710046 -0.16463534
v -0.10257136 2.91710046 -0.16463534
v -0.10257136 2.91710046 -0.16463534
v -0.10257136 2.93690026 -0.16463534
v -0.10257136 2.93690026 -0.16463534
v -0.10257136 2.93690026 -0.16463534
v -0.10257136 2.93690026 -0.16463534
v -0.06542790 2.91710046 -0.17477595
v -0.06542790 2.91710046 -0.17477595
v -0.06542790 2.91710046 -0.17477595
v -0.06542790 2.91710046 -0.17477595
v -0.06542790 2.93690026 -0.17477595
v -0.06542790 2.93690026 -0.17477595
v -0.06542790 2.93690026 -0.17477595
v -0.06542790 2.93690026 -0.17477595
v -0.03110578 3.27210293 -0.01578175
v -0.03110578 3.27210293 -0.01578175
v -0.01868527 3.27210293 -0.01420400
v -0.01061075 3.22400054 -0.00040281
v -0.01061075 3.22400054 -0.00040281
v -0.01101829 3.27210293 -0.00430574
v -0.01101829 3.27210293 -0.00430574
v -0.01259604 3.27210293 0.00811477
v -0.01471976 3.22400054 0.01137923
v -0.01471976 3.22400054 0.01137923
v -0.02639723 3.22400054 0.01618929
v -0.02639723 3.22400054 0.01618929
v -0.02639723 3.22400054 0.01618929
v -0.02405433 3.27222451 0.01634050
v -0.02405433 3.27222451 0.01634050
v -0.03817927 3.22400054 0.01208028
v -0.03817927 3.22400054 0.01208028
v -0.03817927 3.22400054 0.01208028
v -0.04252879 3.22400054 -0.00777369
v -0.04252879 3.22400054 -0.00777369
v -0.04252879 3.22400054 -0.00777369
v -0.04258179 3.27210293 0.00430574
v -0.04258179 3.27210293 0.00430574
v -0.04100404 3.27210293 -0.00811477
v -0.01902635 3.22400054 -0.01572875
v -0.01902635 3.22400054 -0.01572875
v -0.01902635 3.22400054 -0.01572875
v -0.02382927 3.29317432 -0.01100435
v -0.01573895 3.29294615 -0.00239170
v -0.01573895 3.29294615 -0.00239170
v -0.02046210 3.29413237 0.00932680
v -0.02046210 3.29413237 0.00932680
v -0.03484795 3.28115262 0.01286917
v -0.03822143 3.29280833 0.00135497
v -0.03822143 3.29280833 0.00135497
v -0.03425386 3.29228205 -0.00857784
v -0.03425386 3.29228205 -0.00857784
v -0.02799624 3.31224840 -0.00223795
v -0.02799624 3.31224840 -0.00223795
v -0.02426797 3.31263957 0.00059023
v -0.02426797 3.31263957 0.00059023
v -0.02426797 3.31263957 0.00059023
v -0.02426797 3.31263957 0.00059023
v -0.02854437 3.31212474 0.00174433
v -0.02854437 3.31212474 0.00174433
v -0.02456730 3.61200033 0.00138925
v -0.02456730 3.61200033 0.00138925
v -0.02456730 3.61200033 0.00138925
v -0.02934629 3.61200033 0.00086389
v -0.02934629 3.61200033 0.00086389
v -0.02934629 3.61200033 0.00086389
v -0.02638955 3.61200033 -0.00247747
v -0.02638955 3.61200033 -0.00247747
v -0.02638955 3.61200033 -0.00247747
v -0.02638955 3.61200033 -0.00247747
v -0.01226593 2.90356986 -0.24855248
v -0.04133387 2.90356986 -0.24855248
v -0.02679989 2.91600126 -0.23800453
v -0.01893417 2.90356986 -0.25140406
v -0.02679990 2.90356986 -0.25240542
v -0.01337226 2.90832724 -0.24736756
v -0.02040877 2.90844632 -0.25014989
v -0.02679990 2.90819900 -0.25099532
v -0.02679989 2.91074715 -0.24927201
v -0.02679989 2.91074715 -0.24927201
v -0.04022753 2.90832724 -0.24736756
v -0.04022753 2.90832724 -0.24736756
v -0.03707696 2.91236015 -0.24494687
v -0.03707696 2.91236015 -0.24494687
v -0.03466563 2.90356986 -0.25140406
v -0.03319103 2.90844632 -0.25014989
v -0.03092586 2.91172811 -0.24800093
v -0.03092586 2.91172811 -0.24800093
v -0.02123799 2.91505507 -0.24165905
v -0.01652283 2.91236015 -0.24494687
v -0.01652283 2.91236015 -0.24494687
v -0.03236180 2.91505507 -0.24165905
v -0.02679989 2.91391298 -0.24551156
v -0.02267393 2.91172811 -0.24800093
v -0.02267393 2.91172811 -0.24800093
v 0.19015475 2.90356986 -0.13635953
v 0.18790633 2.91600126 -0.11900224
v 0.20468873 2.90356986 -0.11219290
v 0.18963897 2.90832724 -0.13484727
v 0.18963897 2.90832724 -0.13484727
v 0.18903054 2.91236015 -0.13101760
v 0.18903054 2.91236015 -0.13101760
v 0.19606129 2.90356986 -0.13224144
v 0.19566717 2.90844632 -0.13038840
v 0.19566717 2.90844632 -0.13038840
v 0.19486117 2.91172811 -0.12743070
v 0.19807079 2.91074715 -0.12463597
v 0.19398402 2.91505507 -0.11620540
v 0.19930763 2.91236015 -0.11392920
v 0.18842212 2.91505507 -0.12545358
v 0.19467849 2.91391298 -0.12275574
v 0.19898714 2.91172811 -0.12057018
v 0.20392704 2.90356986 -0.11916254
v 0.20089747 2.90356986 -0.12620267
v 0.20089747 2.90356986 -0.12620267
v 0.20306660 2.90832724 -0.11252021
v 0.20306660 2.90832724 -0.11252021
v 0.20205832 2.90844632 -0.11976142
v 0.20205832 2.90844632 -0.11976142
v 0.19962545 2.90819900 -0.12549762
v 0.19962545 2.90819900 -0.12549762
v 0.19962545 2.90819900 -0.12549762
v 0.20468875 2.90356986 0.11219296
v 0.18790633 2.91600126 0.11900231
v 0.19015475 2.90356986 0.13635960
v 0.20306662 2.90832724 0.11252026
v 0.20306662 2.90832724 0.11252026
v 0.19930766 2.91236015 0.11392928
v 0.19930766 2.91236015 0.11392928
v 0.20392707 2.90356986 0.11916262
v 0.20205835 2.90844632 0.11976148
v 0.19898716 2.91172811 0.12057023
v 0.19898716 2.91172811 0.12057023
v 0.19807082 2.91074715 0.12463602
v 0.19807082 2.91074715 0.12463602
v 0.18842212 2.91505507 0.12545364
v 0.18903054 2.91236015 0.13101767
v 0.18903054 2.91236015 0.13101767
v 0.19398405 2.91505507 0.11620546
v 0.19467852 2.91391298 0.12275579
v 0.19486120 2.91172811 0.12743075
v 0.19486120 2.91172811 0.12743075
v 0.19606132 2.90356986 0.13224150
v 0.20089749 2.90356986 0.12620272
v 0.18963897 2.90832724 0.13484732
v 0.18963897 2.90832724 0.13484732
v 0.19566720 2.90844632 0.13038846
v 0.19962547 2.90819900 0.12549770
v -0.01226596 2.90356986 0.24855253
v -0.02679993 2.91600126 0.23800461
v -0.04133392 2.90356986 0.24855253
v -0.01337229 2.90832724 0.24736761
v -0.01337229 2.90832724 0.24736761
v -0.01652286 2.91236015 0.24494695
v -0.01893421 2.90356986 0.25140414
v -0.01893421 2.90356986 0.25140414
v -0.02040881 2.90844632 0.25014994
v -0.02040881 2.90844632 0.25014994
v -0.02040881 2.90844632 0.25014994
v -0.02267397 2.91172811 0.24800101
v -0.02267397 2.91172811 0.24800101
v -0.02679994 2.91074715 0.24927204
v -0.02679994 2.91074715 0.24927204
v -0.03236185 2.91505507 0.24165910
v -0.03707701 2.91236015 0.24494695
v -0.03707701 2.91236015 0.24494695
v -0.02123802 2.91505507 0.24165910
v -0.02679994 2.91391298 0.24551161
v -0.03092590 2.91172811 0.24800101
v -0.03092590 2.91172811 0.24800101
v -0.03466567 2.90356986 0.25140411
v -0.02679994 2.90356986 0.25240544
v -0.04022758 2.90832724 0.24736761
v -0.03319107 2.90844632 0.25014994
v -0.02679994 2.90819900 0.25099540
v -0.24375445 2.90356986 0.13635961
v -0.24150603 2.91600126 0.11900231
v -0.25828844 2.90356986 0.11219296
v -0.24323868 2.90832724 0.13484735
v -0.24263024 2.91236015 0.13101769
v -0.24263024 2.91236015 0.13101769
v -0.24966100 2.90356986 0.13224153
v -0.24926689 2.90844632 0.13038849
v -0.24846088 2.91172811 0.12743076
v -0.24846088 2.91172811 0.12743076
v -0.25167051 2.91074715 0.12463603
v -0.25167051 2.91074715 0.12463603
v -0.25167051 2.91074715 0.12463603
v -0.24758373 2.91505507 0.11620546
v -0.25290734 2.91236015 0.11392928
v -0.24202183 2.91505507 0.12545364
v -0.24827820 2.91391298 0.12275581
v -0.25258687 2.91172811 0.12057024
v -0.25258687 2.91172811 0.12057024
v -0.25752675 2.90356986 0.11916265
v -0.25449718 2.90356986 0.12620275
v -0.25449718 2.90356986 0.12620275
v -0.25666628 2.90832724 0.11252028
v -0.25666628 2.90832724 0.11252028
v -0.25565803 2.90844632 0.11976150
v -0.25565803 2.90844632 0.11976150
v -0.25322516 2.90819900 0.12549771
v -0.25322516 2.90819900 0.12549771
v -0.25828847 2.90356986 -0.11219290
v -0.24150603 2.91600126 -0.11900224
v -0.24375445 2.90356986 -0.13635953
v -0.25666631 2.90832724 -0.11252019
v -0.25666631 2.90832724 -0.11252019
v -0.25290737 2.91236015 -0.11392919
v -0.25290737 2.91236015 -0.11392919
v -0.25752678 2.90356986 -0.11916254
v -0.25565806 2.90844632 -0.11976140
v -0.25258690 2.91172811 -0.12057015
v -0.25258690 2.91172811 -0.12057015
v -0.25167053 2.91074715 -0.12463594
v -0.25167053 2.91074715 -0.12463594
v -0.24202183 2.91505507 -0.12545355
v -0.24263024 2.91236015 -0.13101757
v -0.24758376 2.91505507 -0.11620538
v -0.24827823 2.91391298 -0.12275573
v -0.24846091 2.91172811 -0.12743068
v -0.24846091 2.91172811 -0.12743068
v -0.24966103 2.90356986 -0.13224144
v -0.24966103 2.90356986 -0.13224144
v -0.25449721 2.90356986 -0.12620264
v -0.24323868 2.90832724 -0.13484724
v -0.24323868 2.90832724 -0.13484724
v -0.24926691 2.90844632 -0.13038838
v -0.24926691 2.90844632 -0.13038838
v -0.24926691 2.90844632 -0.13038838
v -0.25322519 2.90819900 -0.12549761
vt 0.94428241 0.00125450
vt 0.10748553 0.95287997
vt 0.10748553 0.95287997
vt 0.08543141 0.96168989
vt 0.37643513 0.81804872
vt 0.37643513 0.81804872
vt 0.94729507 0.00000006
vt 0.37966910 0.82336247
vt 0.37966910 0.82336247
vt 0.08729324 0.95901012
vt 0.37962931 0.81803507
vt 0.37962931 0.81803507
vt 0.95030773 0.00064993
vt 0.38178596 0.82338083
vt 0.38178596 0.82338083
vt 0.72883511 0.95029861
vt 0.08729324 0.95592874
vt 0.38174617 0.81805348
vt 0.23227584 0.92721826
vt 0.95216972 0.00295597
vt 0.23621593 0.93169749
vt 0.08891850 0.92367166
vt 0.72596049 0.94996405
vt 0.08543141 0.95362264
vt 0.23487699 0.92654032
vt 0.23487699 0.92654032
vt 0.95216972 0.00603735
vt 0.90516680 0.56191093
vt 0.23911111 0.93094784
vt 0.08241890 0.95297271
vt 0.89983773 0.56190217
vt 0.23777217 0.92579067
vt 0.95030773 0.00871706
vt 0.11754167 0.94851816
vt 0.11754167 0.94851816
vt 0.07940640 0.95422721
vt 0.89982742 0.55943960
vt 0.89982742 0.55943960
vt 0.94729507 0.00997156
vt 0.90515864 0.55622041
vt 0.90515864 0.55622041
vt 0.07754456 0.95690691
vt 0.89982957 0.55621165
vt 0.89982957 0.55621165
vt 0.94428241 0.00932169
vt 0.90517235 0.55346006
vt 0.98337930 0.64686310
vt 0.90517235 0.55346006
vt 0.07754456 0.95998836
vt 0.89984328 0.55345130
vt 0.06033642 0.94602394
vt 0.94242048 0.00701559
vt 0.98078722 0.64615136
vt 0.94284362 0.04509330
vt 0.06394985 0.95082855
vt 0.07940640 0.96229440
vt 0.06319427 0.94556773
vt 0.06319427 0.94556773
vt 0.94242048 0.00393420
vt 0.37342349 0.82341647
vt 0.06669651 0.95053208
vt 0.08241890 0.96294433
vt 0.37338373 0.81808913
vt 0.06594093 0.94527125
vt 0.07847548 0.96114135
vt 0.06176535 0.94579583
vt 0.94335145 0.00816864
vt 0.98208326 0.64650726
vt 0.95123869 0.00180298
vt 0.72739780 0.95013130
vt 0.08636232 0.95477569
vt 0.23357642 0.92687929
vt 0.37645501 0.82071239
vt 0.37645501 0.82071239
vt 0.37645501 0.82071239
vt 0.37645501 0.82071239
vt 0.37964919 0.82069874
vt 0.37964919 0.82069874
vt 0.38176605 0.82071716
vt 0.38176605 0.82071716
vt 0.23294532 0.92979681
vt 0.23294532 0.92979681
vt 0.23554645 0.92911893
vt 0.23554645 0.92911893
vt 0.23554645 0.92911893
vt 0.08892668 0.92100769
vt 0.90250224 0.56190658
vt 0.23844165 0.92836922
vt 0.90249193 0.55944395
vt 0.90249193 0.55944395
vt 0.90249193 0.55944395
vt 0.90249193 0.55944395
vt 0.90249407 0.55621600
vt 0.90249407 0.55621600
vt 0.90250778 0.55345565
vt 0.90250778 0.55345565
vt 0.06071421 0.94865435
vt 0.06071421 0.94865435
vt 0.94284678 0.04242957
vt 0.06357206 0.94819814
vt 0.06357206 0.94819814
vt 0.06357206 0.94819814
vt 0.37340361 0.82075280
vt 0.06631872 0.94790167
vt 0.06214314 0.94842625
vt 0.06214314 0.94842625
vt 0.23424590 0.92945784
vt 0.23424590 0.92945784
vt 0.72753233 0.37943417
vt 0.40325648 0.85249454
vt 0.23227584 0.96295118
vt 0.72486782 0.37943417
vt 0.40060005 0.85251755
vt 0.72883511 0.98108071
vt 0.72486782 0.38091600
vt 0.72739780 0.98091346
vt 0.72486782 0.38239783
vt 0.07188031 0.95297265
vt 0.72596049 0.98074621
vt 0.72753233 0.38239783
vt 0.23487699 0.96227324
vt 0.06945949 0.95297265
vt 0.72753233 0.38091600
vt 0.23357642 0.96261221
vt 0.94578874 0.00062728
vt 0.37807199 0.82336926
vt 0.05913457 0.92431068
vt 0.10592311 0.95247412
vt 0.37805212 0.82070559
vt 0.37805212 0.82070559
vt 0.05913735 0.92164660
vt 0.08636232 0.96035004
vt 0.37803224 0.81804192
vt 0.37492931 0.82073259
vt 0.37492931 0.82073259
vt 0.92806381 0.92739171
vt 0.08392516 0.96231711
vt 0.37490943 0.81806892
vt 0.94335145 0.00259435
vt 0.10867897 0.95318383
vt 0.37494919 0.82339627
vt 0.92667562 0.92965788
vt 0.07847549 0.95556706
vt 0.89982849 0.55782562
vt 0.90249300 0.55783004
vt 0.90249300 0.55783004
vt 0.10867897 0.92100769
vt 0.94880140 0.00934434
vt 0.11594559 0.94846147
vt 0.90515757 0.55783439
vt 0.10863721 0.92366481
vt 0.08091264 0.95359999
vt 0.89983261 0.56067085
vt 0.95123869 0.00737727
vt 0.90516168 0.56067961
vt 0.97002310 0.79179972
vt 0.11906698 0.94855857
vt 0.90249711 0.56067526
vt 0.90249711 0.56067526
vt 0.97134161 0.78948468
vt 0.72753227 0.38239777
vt 0.93445057 0.53366405
vt 0.06033642 0.97939759
vt 0.73019677 0.38239777
vt 0.93445402 0.53608441
vt 0.98337930 0.67729843
vt 0.73019677 0.38091600
vt 0.98208326 0.67694259
vt 0.73019677 0.37943411
vt 0.98078722 0.67658675
vt 0.92368203 0.07439154
vt 0.72753227 0.37943411
vt 0.92102551 0.07439154
vt 0.06319427 0.97894138
vt 0.72753227 0.38091600
vt 0.06176534 0.97916949
vt 0.10867897 0.98317236
vt 0.73259503 0.38256586
vt 0.92604816 0.96275204
vt 0.10717259 0.98330975
vt 0.73259509 0.38100398
vt 0.10717259 0.98330975
vt 0.73259509 0.38100398
vt 0.37480071 0.85251755
vt 0.73019695 0.38100398
vt 0.37480071 0.85251755
vt 0.73019695 0.38100398
vt 0.37323552 0.85202235
vt 0.73019689 0.38256586
vt 0.92806381 0.96394312
vt 0.73259503 0.37943417
vt 0.04363023 0.95322561
vt 0.10592311 0.98246264
vt 0.37635833 0.85199535
vt 0.73019689 0.37943417
vt 0.04145554 0.95322561
vt 0.73259509 0.37943417
vt 0.96945071 0.82472926
vt 0.11906698 0.97774714
vt 0.11748985 0.97820705
vt 0.73259515 0.38100398
vt 0.11748985 0.97820705
vt 0.73259515 0.38100398
vt 0.93445402 0.56714600
vt 0.73499328 0.38100398
vt 0.93445402 0.56714600
vt 0.73499328 0.38100398
vt 0.93394721 0.56856775
vt 0.73499322 0.37943417
vt 0.97134161 0.82580322
vt 0.93394315 0.56572253
vt 0.73499322 0.38256586
vt 0.08892667 0.95247394
vt 0.11594559 0.97765005
vt 0.73259509 0.38256586
vt 0.09126800 0.95247394
vt 0.92616367 0.33992016
vt 0.98068398 0.55695009
vt 0.92616367 0.33992016
vt 0.98068398 0.55695009
vt 0.47757050 0.89541745
vt 0.97801942 0.55694878
vt 0.47757050 0.89541745
vt 0.97801942 0.55694878
vt 0.98069328 0.56186444
vt 0.98069328 0.56186444
vt 0.92616367 0.33470273
vt 0.92616367 0.33470273
vt 0.97802871 0.56186306
vt 0.97802871 0.56186306
vt 0.47757050 0.89019990
vt 0.47757050 0.89019990
vt 0.98069644 0.56697494
vt 0.98069644 0.56697494
vt 0.92524570 0.32960439
vt 0.92524570 0.32960439
vt 0.97803187 0.56697357
vt 0.97803187 0.56697357
vt 0.47848850 0.88510150
vt 0.47848850 0.88510150
vt 0.98069328 0.57208520
vt 0.98069328 0.57208520
vt 0.92344499 0.32482111
vt 0.92344499 0.32482111
vt 0.97802871 0.57208383
vt 0.97802871 0.57208383
vt 0.48028919 0.88031822
vt 0.48028919 0.88031822
vt 0.98068404 0.57699889
vt 0.98068404 0.57699889
vt 0.92083091 0.32053661
vt 0.92083091 0.32053661
vt 0.97801948 0.57699752
vt 0.97801948 0.57699752
vt 0.48290342 0.87603378
vt 0.48290342 0.87603378
vt 0.98066890 0.58152711
vt 0.98066890 0.58152711
vt 0.91750365 0.31691563
vt 0.91750365 0.31691563
vt 0.97800434 0.58152574
vt 0.97800434 0.58152574
vt 0.48623067 0.87241292
vt 0.48623067 0.87241292
vt 0.98064858 0.58549589
vt 0.97464871 0.66651529
vt 0.91359133 0.31409729
vt 0.91359133 0.31409729
vt 0.97798401 0.58549458
vt 0.97199082 0.66651505
vt 0.49014312 0.86959469
vt 0.49014312 0.86959469
vt 0.97482216 0.67057729
vt 0.97482216 0.67057729
vt 0.90924406 0.31218994
vt 0.90924406 0.31218994
vt 0.97216421 0.67057705
vt 0.97216421 0.67057705
vt 0.49449041 0.86768752
vt 0.49449041 0.86768752
vt 0.97492892 0.67503250
vt 0.97492892 0.67503250
vt 0.90462911 0.31126678
vt 0.90462911 0.31126678
vt 0.97227097 0.67503232
vt 0.97227097 0.67503232
vt 0.49910542 0.86676461
vt 0.49910542 0.86676461
vt 0.97496492 0.67970979
vt 0.97496492 0.67970979
vt 0.89992374 0.31136334
vt 0.89992374 0.31136334
vt 0.97230703 0.67970961
vt 0.97230703 0.67970961
vt 0.50381088 0.86686146
vt 0.50381088 0.86686146
vt 0.97492892 0.68442935
vt 0.97492892 0.68442935
vt 0.89530879 0.31247598
vt 0.89530879 0.31247598
vt 0.97227097 0.68442917
vt 0.97227097 0.68442917
vt 0.50842595 0.86797434
vt 0.50842595 0.86797434
vt 0.97482216 0.68900985
vt 0.97482216 0.68900985
vt 0.89096159 0.31456184
vt 0.89096159 0.31456184
vt 0.97216421 0.68900967
vt 0.97216421 0.68900967
vt 0.51277322 0.87006050
vt 0.51277322 0.87006050
vt 0.33420241 0.99200010
vt 0.97464871 0.69327527
vt 0.88704920 0.31754076
vt 0.88704920 0.31754076
vt 0.33686665 0.99199605
vt 0.97199082 0.69327503
vt 0.51668561 0.87303972
vt 0.51668561 0.87303972
vt 0.33414644 0.98820740
vt 0.33414644 0.98820740
vt 0.88372201 0.32129836
vt 0.88372201 0.32129836
vt 0.33681074 0.98820335
vt 0.33681074 0.98820335
vt 0.52001292 0.87679756
vt 0.52001292 0.87679756
vt 0.33410057 0.98378801
vt 0.33410057 0.98378801
vt 0.88110787 0.32569009
vt 0.88110787 0.32569009
vt 0.33676484 0.98378396
vt 0.33676484 0.98378396
vt 0.52262712 0.88118964
vt 0.52262712 0.88118964
vt 0.33406648 0.97891182
vt 0.33406648 0.97891182
vt 0.87930721 0.33054733
vt 0.87930721 0.33054733
vt 0.33673072 0.97890776
vt 0.33673072 0.97890776
vt 0.52442783 0.88604707
vt 0.52442783 0.88604707
vt 0.87838924 0.33568335
vt 0.33404547 0.97376609
vt 0.87838924 0.33568335
vt 0.33404547 0.97376609
vt 0.52534580 0.89118326
vt 0.33670974 0.97376204
vt 0.52534580 0.89118326
vt 0.33670974 0.97376204
vt 0.87838924 0.34090072
vt 0.87838924 0.34090072
vt 0.33403838 0.96854872
vt 0.33403838 0.96854872
vt 0.52534580 0.89640081
vt 0.52534580 0.89640081
vt 0.33670264 0.96854466
vt 0.33670264 0.96854466
vt 0.87930721 0.34599906
vt 0.87930721 0.34599906
vt 0.33404547 0.96346003
vt 0.33404547 0.96346003
vt 0.52442783 0.90149921
vt 0.52442783 0.90149921
vt 0.33670974 0.96345603
vt 0.33670974 0.96345603
vt 0.88110787 0.35078239
vt 0.88110787 0.35078239
vt 0.33406648 0.95869577
vt 0.33406648 0.95869577
vt 0.52262712 0.90628254
vt 0.52262712 0.90628254
vt 0.33673072 0.95869172
vt 0.33673072 0.95869172
vt 0.88372201 0.35506678
vt 0.88372201 0.35506678
vt 0.33410057 0.95443892
vt 0.33410057 0.95443892
vt 0.52001286 0.91056693
vt 0.52001286 0.91056693
vt 0.33676484 0.95443487
vt 0.33676484 0.95443487
vt 0.88704920 0.35868776
vt 0.88704920 0.35868776
vt 0.33414647 0.95085305
vt 0.33414647 0.95085305
vt 0.51668561 0.91418785
vt 0.51668561 0.91418785
vt 0.33681077 0.95084900
vt 0.33681077 0.95084900
vt 0.89096159 0.36150610
vt 0.89096159 0.36150610
vt 0.33420241 0.94807607
vt 0.98155677 0.19066364
vt 0.51277316 0.91700602
vt 0.51277316 0.91700602
vt 0.33686668 0.94807202
vt 0.97889221 0.19066358
vt 0.89530885 0.36341351
vt 0.89530885 0.36341351
vt 0.98156404 0.19410336
vt 0.98156404 0.19410336
vt 0.50842595 0.91891319
vt 0.50842595 0.91891319
vt 0.97889942 0.19410336
vt 0.97889942 0.19410336
vt 0.89992374 0.36433661
vt 0.89992374 0.36433661
vt 0.98156941 0.19812942
vt 0.98156941 0.19812942
vt 0.50381082 0.91983610
vt 0.50381082 0.91983610
vt 0.97890484 0.19812942
vt 0.97890484 0.19812942
vt 0.90462917 0.36424005
vt 0.90462917 0.36424005
vt 0.98157275 0.20258695
vt 0.98157275 0.20258695
vt 0.49910539 0.91973925
vt 0.49910539 0.91973925
vt 0.97890818 0.20258689
vt 0.97890818 0.20258689
vt 0.90924412 0.36312747
vt 0.90924412 0.36312747
vt 0.98157388 0.20730472
vt 0.98157388 0.20730472
vt 0.49449039 0.91862637
vt 0.49449039 0.91862637
vt 0.97890925 0.20730472
vt 0.97890925 0.20730472
vt 0.91359133 0.36104167
vt 0.91359133 0.36104167
vt 0.98157275 0.21210140
vt 0.98157275 0.21210140
vt 0.49014309 0.91654021
vt 0.49014309 0.91654021
vt 0.97890818 0.21210134
vt 0.97890818 0.21210134
vt 0.91750371 0.35806268
vt 0.91750371 0.35806268
vt 0.98156941 0.21679264
vt 0.98156941 0.21679264
vt 0.48623067 0.91356099
vt 0.48623067 0.91356099
vt 0.97890484 0.21679264
vt 0.97890484 0.21679264
vt 0.92083091 0.35430515
vt 0.92083091 0.35430515
vt 0.98156399 0.22119826
vt 0.98156399 0.22119826
vt 0.48290339 0.90980315
vt 0.48290339 0.90980315
vt 0.97889942 0.22119820
vt 0.97889942 0.22119820
vt 0.92344505 0.34991336
vt 0.92344505 0.34991336
vt 0.98064858 0.54845059
vt 0.98155677 0.22514880
vt 0.48028919 0.90541112
vt 0.48028919 0.90541112
vt 0.97798401 0.54844928
vt 0.97889221 0.22514880
vt 0.92524570 0.34505612
vt 0.92524570 0.34505612
vt 0.98066890 0.55242079
vt 0.98066890 0.55242079
vt 0.47848850 0.90055364
vt 0.47848850 0.90055364
vt 0.97800434 0.55241948
vt 0.97800434 0.55241948
vt 0.92377573 0.33970690
vt 0.94673824 0.77149004
vt 0.92377573 0.33970690
vt 0.94673824 0.77149004
vt 0.92377573 0.33501118
vt 0.92377573 0.33501118
vt 0.94674462 0.77618569
vt 0.94674462 0.77618569
vt 0.47995937 0.89051104
vt 0.47995937 0.89051104
vt 0.94914246 0.77618206
vt 0.94914246 0.77618206
vt 0.47995937 0.89520681
vt 0.94913608 0.77148640
vt 0.47995937 0.89520681
vt 0.94913608 0.77148640
vt 0.92294961 0.33042270
vt 0.92294961 0.33042270
vt 0.94673824 0.78076547
vt 0.94673824 0.78076547
vt 0.48078558 0.88592243
vt 0.48078558 0.88592243
vt 0.94913608 0.78076184
vt 0.94913608 0.78076184
vt 0.92132896 0.32611775
vt 0.92132896 0.32611775
vt 0.94671929 0.78505331
vt 0.94671929 0.78505331
vt 0.48240623 0.88161749
vt 0.48240623 0.88161749
vt 0.94911712 0.78504968
vt 0.94911712 0.78504968
vt 0.91897619 0.32226169
vt 0.91897619 0.32226169
vt 0.94668859 0.78888452
vt 0.94668859 0.78888452
vt 0.48475900 0.87776148
vt 0.48475900 0.87776148
vt 0.94908643 0.78888088
vt 0.94908643 0.78888088
vt 0.91598171 0.31900287
vt 0.91598171 0.31900287
vt 0.94664729 0.79211175
vt 0.94664729 0.79211175
vt 0.48775354 0.87450266
vt 0.48775354 0.87450266
vt 0.94904512 0.79210812
vt 0.94904512 0.79210812
vt 0.91246057 0.31646633
vt 0.91246057 0.31646633
vt 0.94659698 0.79461110
vt 0.70487940 0.97945553
vt 0.49127471 0.87196630
vt 0.49127471 0.87196630
vt 0.94899482 0.79460746
vt 0.70248127 0.97945547
vt 0.90854812 0.31474972
vt 0.90854812 0.31474972
vt 0.70487285 0.97635972
vt 0.70487285 0.97635972
vt 0.49518725 0.87024987
vt 0.49518725 0.87024987
vt 0.70247477 0.97635967
vt 0.70247477 0.97635967
vt 0.90439463 0.31391883
vt 0.90439463 0.31391883
vt 0.70486802 0.97273630
vt 0.70486802 0.97273630
vt 0.49934080 0.86941922
vt 0.49934080 0.86941922
vt 0.70246989 0.97273630
vt 0.70246989 0.97273630
vt 0.90015984 0.31400579
vt 0.90015984 0.31400579
vt 0.70486498 0.96872449
vt 0.70486498 0.96872449
vt 0.50357574 0.86950642
vt 0.50357574 0.86950642
vt 0.70246691 0.96872449
vt 0.70246691 0.96872449
vt 0.89600635 0.31500709
vt 0.89600635 0.31500709
vt 0.70486403 0.96447855
vt 0.70486403 0.96447855
vt 0.50772923 0.87050796
vt 0.50772923 0.87050796
vt 0.70246589 0.96447849
vt 0.70246589 0.96447849
vt 0.89209384 0.31688440
vt 0.89209384 0.31688440
vt 0.70486498 0.96016151
vt 0.70486498 0.96016151
vt 0.51164180 0.87238550
vt 0.51164180 0.87238550
vt 0.70246691 0.96016151
vt 0.70246691 0.96016151
vt 0.88857269 0.31956542
vt 0.88857269 0.31956542
vt 0.70486796 0.95593935
vt 0.70486796 0.95593935
vt 0.51516300 0.87506682
vt 0.51516300 0.87506682
vt 0.70246989 0.95593935
vt 0.70246989 0.95593935
vt 0.88557827 0.32294726
vt 0.88557827 0.32294726
vt 0.70487285 0.95197433
vt 0.70487285 0.95197433
vt 0.51815754 0.87844890
vt 0.51815754 0.87844890
vt 0.70247477 0.95197433
vt 0.70247477 0.95197433
vt 0.88322550 0.32689989
vt 0.88322550 0.32689989
vt 0.98379505 0.44859922
vt 0.70487940 0.94841880
vt 0.52051032 0.88240170
vt 0.52051032 0.88240170
vt 0.98139697 0.44859803
vt 0.70248127 0.94841880
vt 0.88160491 0.33127135
vt 0.88160491 0.33127135
vt 0.98377669 0.44502604
vt 0.98377669 0.44502604
vt 0.52213091 0.88677341
vt 0.52213091 0.88677341
vt 0.98137873 0.44502485
vt 0.98137873 0.44502485
vt 0.88077873 0.33589375
vt 0.98376316 0.44094968
vt 0.88077873 0.33589375
vt 0.98376316 0.44094968
vt 0.52295715 0.89139599
vt 0.98136508 0.44094849
vt 0.52295715 0.89139599
vt 0.98136508 0.44094849
vt 0.88077873 0.34058940
vt 0.88077873 0.34058940
vt 0.98375475 0.43652678
vt 0.98375475 0.43652678
vt 0.52295715 0.89609182
vt 0.52295715 0.89609182
vt 0.98135674 0.43652558
vt 0.98135674 0.43652558
vt 0.88160491 0.34517789
vt 0.88160491 0.34517789
vt 0.98375195 0.43192732
vt 0.98375195 0.43192732
vt 0.52213091 0.90068036
vt 0.52213091 0.90068036
vt 0.98135388 0.43192613
vt 0.98135388 0.43192613
vt 0.88322556 0.34948289
vt 0.88322556 0.34948289
vt 0.98375475 0.42732805
vt 0.98375475 0.42732805
vt 0.52051032 0.90498537
vt 0.52051032 0.90498537
vt 0.98135674 0.42732686
vt 0.98135674 0.42732686
vt 0.88557827 0.35333890
vt 0.88557827 0.35333890
vt 0.98376310 0.42290574
vt 0.98376310 0.42290574
vt 0.51815748 0.90884131
vt 0.51815748 0.90884131
vt 0.98136508 0.42290455
vt 0.98136508 0.42290455
vt 0.88857275 0.35659778
vt 0.88857275 0.35659778
vt 0.98377669 0.41883034
vt 0.98377669 0.41883034
vt 0.51516300 0.91210014
vt 0.51516300 0.91210014
vt 0.98137867 0.41882914
vt 0.98137867 0.41882914
vt 0.89209390 0.35913426
vt 0.89209390 0.35913426
vt 0.98379505 0.41525841
vt 0.01755550 0.97852576
vt 0.51164174 0.91463649
vt 0.51164174 0.91463649
vt 0.98139697 0.41525722
vt 0.01516342 0.97852558
vt 0.89600635 0.36085093
vt 0.89600635 0.36085093
vt 0.01739945 0.97486997
vt 0.01739945 0.97486997
vt 0.50772923 0.91635299
vt 0.50772923 0.91635299
vt 0.01500737 0.97486979
vt 0.01500737 0.97486979
vt 0.90015984 0.36168170
vt 0.90015984 0.36168170
vt 0.01730337 0.97086024
vt 0.01730337 0.97086024
vt 0.50357574 0.91718358
vt 0.50357574 0.91718358
vt 0.01491129 0.97086006
vt 0.01491129 0.97086006
vt 0.90439469 0.36159480
vt 0.90439469 0.36159480
vt 0.01727091 0.96665072
vt 0.01727091 0.96665072
vt 0.49934080 0.91709644
vt 0.49934080 0.91709644
vt 0.01487883 0.96665055
vt 0.01487883 0.96665055
vt 0.90854812 0.36059350
vt 0.90854812 0.36059350
vt 0.01730334 0.96240306
vt 0.01730334 0.96240306
vt 0.49518725 0.91609484
vt 0.49518725 0.91609484
vt 0.01491126 0.96240288
vt 0.01491126 0.96240288
vt 0.91246063 0.35871625
vt 0.91246063 0.35871625
vt 0.01739945 0.95828062
vt 0.01739945 0.95828062
vt 0.49127468 0.91421729
vt 0.49127468 0.91421729
vt 0.01500737 0.95828044
vt 0.01500737 0.95828044
vt 0.91598171 0.35603517
vt 0.91598171 0.35603517
vt 0.94659698 0.75507945
vt 0.01755550 0.95444179
vt 0.48775351 0.91153598
vt 0.48775351 0.91153598
vt 0.94899482 0.75507581
vt 0.01516342 0.95444161
vt 0.91897619 0.35265338
vt 0.91897619 0.35265338
vt 0.94664729 0.75849283
vt 0.94664729 0.75849283
vt 0.48475897 0.90815389
vt 0.48475897 0.90815389
vt 0.94904512 0.75848919
vt 0.94904512 0.75848919
vt 0.92132896 0.34870076
vt 0.92132896 0.34870076
vt 0.94668859 0.76247030
vt 0.94668859 0.76247030
vt 0.48240620 0.90420109
vt 0.48240620 0.90420109
vt 0.94908643 0.76246667
vt 0.94908643 0.76246667
vt 0.92294961 0.34432924
vt 0.92294961 0.34432924
vt 0.94671929 0.76685894
vt 0.94671929 0.76685894
vt 0.48078558 0.89982939
vt 0.48078558 0.89982939
vt 0.94911712 0.76685524
vt 0.94911712 0.76685524
vt 0.44373041 0.98331845
vt 0.87210518 0.98713773
vt 0.44524375 0.98325521
vt 0.22383316 0.45569754
vt 0.71848983 0.37943417
vt 0.22342807 0.44987303
vt 0.44626263 0.98322904
vt 0.22487280 0.44987273
vt 0.22533698 0.45569795
vt 0.71968198 0.38036287
vt 0.22646144 0.45570076
vt 0.29588771 0.99470681
vt 0.71978033 0.38188899
vt 0.22636120 0.44986057
vt 0.29580423 0.98886257
vt 0.29739141 0.99475271
vt 0.71885139 0.38308084
vt 0.86882007 0.99305320
vt 0.44267604 0.98920923
vt 0.71640480 0.38280892
vt 0.87104952 0.99290568
vt 0.29845020 0.98896235
vt 0.86942822 0.98716813
vt 0.87093699 0.98710805
vt 0.22257949 0.45570076
vt 0.44543570 0.98907375
vt 0.71640480 0.37980437
vt 0.44454509 0.98073798
vt 0.22388048 0.44735020
vt 0.44560403 0.98073530
vt 0.22540875 0.44720709
vt 0.29584637 0.98621619
vt 0.29720065 0.98782331
vt 0.29819790 0.98644966
vt 0.86980915 0.98468405
vt 0.44331515 0.98090440
vt 0.87108970 0.98471975
vt 0.44402745 0.97846520
vt 0.87042671 0.98239291
vt 0.22464454 0.44496757
vt 0.29677653 0.98400813
vt 0.44450206 0.97840226
vt 0.45664582 0.44788754
vt 0.29718661 0.98408097
vt 0.86994237 0.98242676
vt 0.29789799 0.94777489
vt 0.45697749 0.41163826
vt 0.45788977 0.45571697
vt 0.29845020 0.94779086
vt 0.45788977 0.45629907
vt 0.86882007 0.94621360
vt 0.44267604 0.94219530
vt 0.45664582 0.41163707
vt 0.45833117 0.45598745
vt 0.86929309 0.94621640
vt 0.33448929 0.85577267
vt 0.33097929 0.85577685
vt 0.91816431 0.73853397
vt 0.33365721 0.85576838
vt 0.33269799 0.85576767
vt 0.33436686 0.85519898
vt 0.33349097 0.85518050
vt 0.33271128 0.85520977
vt 0.33272752 0.85490441
vt 0.91936183 0.73918176
vt 0.33112407 0.85520291
vt 0.91838920 0.74050933
vt 0.33152732 0.85471857
vt 0.91831517 0.74003106
vt 0.33175761 0.85577065
vt 0.33194751 0.85518229
vt 0.33224130 0.85478860
vt 0.91899168 0.73954898
vt 0.91887105 0.73814940
vt 0.33400923 0.85471559
vt 0.91948819 0.73783588
vt 0.91823620 0.73933738
vt 0.91896379 0.73896426
vt 0.33323771 0.85478741
vt 0.91946268 0.73866767
vt 0.35998902 0.85595024
vt 0.91770566 0.70881224
vt 0.86732870 0.75724745
vt 0.35994101 0.85537714
vt 0.91948819 0.70953840
vt 0.35990360 0.85489595
vt 0.91904908 0.70938116
vt 0.36074105 0.85595703
vt 0.36071092 0.85537004
vt 0.91935611 0.70864004
vt 0.91899788 0.70855433
vt 0.91888142 0.70805293
vt 0.91775262 0.70800442
vt 0.91781020 0.70730835
vt 0.91842318 0.70912617
vt 0.91849065 0.70830506
vt 0.91850054 0.70772219
vt 0.86660212 0.75724846
vt 0.36138192 0.85596740
vt 0.86598349 0.75725001
vt 0.86737555 0.75667179
vt 0.91786951 0.70683014
vt 0.86663175 0.75665849
vt 0.91858560 0.70735097
vt 0.36123496 0.85540843
vt 0.86612588 0.75668967
vt 0.91905928 0.70793837
vt 0.89197367 0.75722194
vt 0.89228141 0.69522977
vt 0.89536995 0.75722277
vt 0.89209241 0.75664622
vt 0.89383006 0.69398749
vt 0.89243907 0.75615859
vt 0.89346975 0.69430488
vt 0.89277804 0.75722134
vt 0.89293921 0.75663120
vt 0.89274126 0.69396073
vt 0.89318484 0.75623453
vt 0.89225358 0.69382745
vt 0.89367813 0.75635302
vt 0.89162058 0.69480735
vt 0.89105779 0.69442731
vt 0.89484060 0.75615919
vt 0.89292592 0.69474113
vt 0.89226449 0.69429415
vt 0.89177299 0.69400984
vt 0.89414901 0.75623471
vt 0.89461613 0.75722176
vt 0.89370596 0.75722128
vt 0.89067870 0.69414741
vt 0.89523017 0.75664699
vt 0.89443266 0.75663161
vt 0.89369339 0.75666112
vt 0.91802621 0.75725955
vt 0.86731577 0.71136898
vt 0.90302598 0.47165585
vt 0.86707300 0.70940751
vt 0.91795254 0.75668383
vt 0.86715645 0.70987850
vt 0.90041691 0.47166139
vt 0.91867983 0.75726086
vt 0.86637431 0.71000016
vt 0.90064269 0.47107130
vt 0.91861737 0.75667083
vt 0.86647844 0.71036172
vt 0.90100068 0.47067475
vt 0.86610603 0.71073073
vt 0.90139031 0.47079116
vt 0.86660689 0.71175528
vt 0.86598337 0.71207368
vt 0.90274012 0.47059560
vt 0.86724174 0.71056730
vt 0.86651140 0.71094245
vt 0.86600751 0.71124303
vt 0.90190870 0.47067189
vt 0.90214795 0.47165602
vt 0.90123171 0.47165799
vt 0.90296423 0.47108102
vt 0.90204912 0.47106695
vt 0.90130311 0.47109842
vt 0.93097788 0.47166997
vt 0.86777443 0.74109071
vt 0.37479237 0.75615084
vt 0.93099767 0.47109514
vt 0.86642253 0.74052835
vt 0.93112457 0.47060984
vt 0.93183625 0.47167099
vt 0.93188661 0.47108197
vt 0.86647218 0.74135637
vt 0.93194765 0.47068703
vt 0.37349504 0.75536233
vt 0.86658639 0.74185950
vt 0.93244225 0.47080684
vt 0.86772525 0.74190027
vt 0.86766148 0.74260116
vt 0.86705476 0.74077851
vt 0.86698461 0.74160165
vt 0.37395167 0.75522864
vt 0.86696959 0.74218851
vt 0.37398833 0.75617015
vt 0.37323552 0.75620854
vt 0.93267405 0.47167379
vt 0.37479630 0.75559032
vt 0.86759275 0.74308670
vt 0.37396663 0.75559783
vt 0.86687690 0.74256563
vt 0.37335232 0.75565869
vt 0.93256974 0.47111416
vt 0.40132260 0.75573403
vt 0.89319873 0.75467312
vt 0.30759427 0.85601264
vt 0.40140390 0.75517231
vt 0.89163220 0.75592929
vt 0.40166926 0.75471395
vt 0.89200187 0.75560457
vt 0.40216666 0.75572741
vt 0.40228656 0.75515288
vt 0.40246287 0.75478065
vt 0.89272881 0.75594991
vt 0.40296763 0.75489926
vt 0.89321434 0.75608498
vt 0.89385736 0.75509727
vt 0.89441383 0.75548220
vt 0.89255202 0.75516349
vt 0.89321077 0.75561249
vt 0.40338239 0.75480241
vt 0.89369714 0.75590080
vt 0.30691987 0.85602111
vt 0.40391964 0.75576890
vt 0.40307862 0.75573969
vt 0.30767080 0.85543936
vt 0.89478350 0.75576937
vt 0.30698490 0.85543400
vt 0.40371093 0.75518662
vt 0.89396328 0.75615859
vt 0.40302870 0.75519246
f 74/74 5/5 133/133
f 74/74 133/133 130/130
f 78/78 12/12 18/18
f 78/78 18/18 80/80
f 82/82 19/19 72/72
f 82/82 72/72 108/108
f 83/83 25/25 32/32
f 83/83 32/32 88/88
f 87/87 31/31 153/153
f 87/87 153/153 159/159
f 92/92 38/38 144/144
f 92/92 144/144 146/146
f 94/94 44/44 50/50
f 94/94 50/50 96/96
f 98/98 51/51 66/66
f 98/98 66/66 106/106
f 17/17 10/10 132/132
f 132/132 4/4 137/137
f 137/137 62/62 56/56
f 65/65 49/49 42/42
f 137/137 56/56 65/65
f 17/17 132/132 137/137
f 30/30 24/24 71/71
f 71/71 17/17 137/137
f 137/137 65/65 42/42
f 42/42 143/143 36/36
f 152/152 30/30 71/71
f 42/42 36/36 152/152
f 71/71 137/137 42/42
f 42/42 152/152 71/71
f 100/100 57/57 64/64
f 100/100 64/64 104/104
f 103/103 63/63 138/138
f 103/103 138/138 135/135
f 139/139 1/1 125/125
f 125/125 7/7 13/13
f 69/69 20/20 27/27
f 125/125 13/13 69/69
f 59/59 139/139 125/125
f 67/67 52/52 59/59
f 39/39 45/45 67/67
f 154/154 33/33 148/148
f 148/148 39/39 67/67
f 67/67 59/59 125/125
f 125/125 69/69 27/27
f 27/27 154/154 148/148
f 148/148 67/67 125/125
f 125/125 27/27 148/148
f 106/106 66/66 58/58
f 106/106 58/58 102/102
f 108/108 72/72 26/26
f 108/108 26/26 85/85
f 107/107 84/84 121/121
f 107/107 121/121 124/124
f 105/105 101/101 174/174
f 105/105 174/174 176/176
f 60/60 103/103 135/135
f 60/60 135/135 141/141
f 55/55 100/100 104/104
f 55/55 104/104 61/61
f 68/68 47/47 166/166
f 68/68 166/166 168/168
f 41/41 94/94 96/96
f 41/41 96/96 48/48
f 147/147 151/151 216/216
f 147/147 216/216 213/213
f 28/28 87/87 159/159
f 28/28 159/159 155/155
f 21/21 83/83 88/88
f 21/21 88/88 29/29
f 14/14 79/79 110/110
f 14/14 110/110 113/113
f 9/9 78/78 80/80
f 9/9 80/80 15/15
f 134/134 75/75 186/186
f 134/134 186/186 188/188
f 115/115 123/123 120/120
f 115/115 120/120 117/117
f 112/112 109/109 123/123
f 112/112 123/123 115/115
f 81/81 107/107 124/124
f 81/81 124/124 111/111
f 70/70 16/16 114/114
f 70/70 114/114 116/116
f 86/86 22/22 118/118
f 86/86 118/118 122/122
f 23/23 70/70 116/116
f 23/23 116/116 119/119
f 167/167 175/175 172/172
f 167/167 172/172 169/169
f 130/130 133/133 11/11
f 130/130 11/11 77/77
f 126/126 130/130 77/77
f 126/126 77/77 8/8
f 2/2 140/140 177/177
f 2/2 177/177 180/180
f 135/135 138/138 6/6
f 135/135 6/6 76/76
f 150/150 146/146 93/93
f 150/150 93/93 40/40
f 146/146 144/144 43/43
f 146/146 43/43 93/93
f 149/149 34/34 200/200
f 149/149 200/200 214/214
f 159/159 153/153 37/37
f 159/159 37/37 90/90
f 164/164 161/161 175/175
f 164/164 175/175 167/167
f 46/46 95/95 162/162
f 46/46 162/162 165/165
f 97/97 105/105 176/176
f 97/97 176/176 163/163
f 99/99 54/54 171/171
f 99/99 171/171 173/173
f 53/53 68/68 168/168
f 53/53 168/168 170/170
f 181/181 185/185 195/195
f 181/181 195/195 191/191
f 178/178 189/189 187/187
f 178/178 187/187 183/183
f 128/128 3/3 182/182
f 128/128 182/182 193/193
f 73/73 129/129 194/194
f 73/73 194/194 184/184
f 142/142 136/136 190/190
f 142/142 190/190 179/179
f 131/131 127/127 192/192
f 131/131 192/192 196/196
f 203/203 207/207 212/212
f 203/203 212/212 215/215
f 197/197 209/209 205/205
f 197/197 205/205 201/201
f 91/91 145/145 211/211
f 91/91 211/211 206/206
f 156/156 160/160 210/210
f 156/156 210/210 198/198
f 35/35 157/157 199/199
f 35/35 199/199 202/202
f 158/158 89/89 204/204
f 158/158 204/204 208/208
f 218/218 222/222 229/229
f 218/218 229/229 225/225
f 226/226 230/230 237/237
f 226/226 237/237 233/233
f 234/234 238/238 245/245
f 234/234 245/245 241/241
f 242/242 246/246 253/253
f 242/242 253/253 249/249
f 250/250 254/254 261/261
f 250/250 261/261 257/257
f 258/258 262/262 269/269
f 258/258 269/269 265/265
f 266/266 270/270 277/277
f 266/266 277/277 273/273
f 274/274 278/278 286/286
f 274/274 286/286 282/282
f 281/281 285/285 294/294
f 281/281 294/294 290/290
f 289/289 293/293 302/302
f 289/289 302/302 298/298
f 297/297 301/301 310/310
f 297/297 310/310 306/306
f 305/305 309/309 318/318
f 305/305 318/318 314/314
f 313/313 317/317 326/326
f 313/313 326/326 322/322
f 321/321 325/325 334/334
f 321/321 334/334 330/330
f 329/329 333/333 342/342
f 329/329 342/342 338/338
f 337/337 341/341 350/350
f 337/337 350/350 346/346
f 348/348 352/352 359/359
f 348/348 359/359 355/355
f 356/356 360/360 367/367
f 356/356 367/367 363/363
f 364/364 368/368 375/375
f 364/364 375/375 371/371
f 372/372 376/376 383/383
f 372/372 383/383 379/379
f 380/380 384/384 391/391
f 380/380 391/391 387/387
f 388/388 392/392 399/399
f 388/388 399/399 395/395
f 396/396 400/400 407/407
f 396/396 407/407 403/403
f 404/404 408/408 415/415
f 404/404 415/415 411/411
f 412/412 416/416 424/424
f 412/412 424/424 420/420
f 419/419 423/423 432/432
f 419/419 432/432 428/428
f 427/427 431/431 440/440
f 427/427 440/440 436/436
f 435/435 439/439 448/448
f 435/435 448/448 444/444
f 443/443 447/447 456/456
f 443/443 456/456 452/452
f 451/451 455/455 464/464
f 451/451 464/464 460/460
f 476/476 479/479 483/483
f 476/476 483/483 488/488
f 459/459 463/463 472/472
f 459/459 472/472 468/468
f 467/467 471/471 224/224
f 467/467 224/224 220/220
f 480/480 491/491 495/495
f 480/480 495/495 484/484
f 492/492 499/499 503/503
f 492/492 503/503 496/496
f 500/500 507/507 511/511
f 500/500 511/511 504/504
f 508/508 515/515 519/519
f 508/508 519/519 512/512
f 516/516 523/523 527/527
f 516/516 527/527 520/520
f 524/524 531/531 535/535
f 524/524 535/535 528/528
f 532/532 539/539 543/543
f 532/532 543/543 536/536
f 540/540 548/548 552/552
f 540/540 552/552 544/544
f 547/547 556/556 560/560
f 547/547 560/560 551/551
f 555/555 564/564 568/568
f 555/555 568/568 559/559
f 563/563 572/572 576/576
f 563/563 576/576 567/567
f 571/571 580/580 584/584
f 571/571 584/584 575/575
f 579/579 588/588 592/592
f 579/579 592/592 583/583
f 587/587 596/596 600/600
f 587/587 600/600 591/591
f 595/595 604/604 608/608
f 595/595 608/608 599/599
f 602/602 611/611 615/615
f 602/602 615/615 606/606
f 612/612 619/619 623/623
f 612/612 623/623 616/616
f 620/620 627/627 631/631
f 620/620 631/631 624/624
f 628/628 635/635 639/639
f 628/628 639/639 632/632
f 636/636 643/643 647/647
f 636/636 647/647 640/640
f 644/644 651/651 655/655
f 644/644 655/655 648/648
f 652/652 659/659 663/663
f 652/652 663/663 656/656
f 660/660 668/668 672/672
f 660/660 672/672 664/664
f 667/667 676/676 680/680
f 667/667 680/680 671/671
f 675/675 684/684 688/688
f 675/675 688/688 679/679
f 683/683 692/692 696/696
f 683/683 696/696 687/687
f 691/691 700/700 704/704
f 691/691 704/704 695/695
f 699/699 708/708 712/712
f 699/699 712/712 703/703
f 707/707 716/716 720/720
f 707/707 720/720 711/711
f 715/715 724/724 728/728
f 715/715 728/728 719/719
f 723/723 474/474 486/486
f 723/723 486/486 727/727
f 421/421 677/677 686/686
f 421/421 686/686 430/430
f 292/292 546/546 538/538
f 292/292 538/538 284/284
f 361/361 617/617 610/610
f 361/361 610/610 354/354
f 287/287 541/541 550/550
f 287/287 550/550 296/296
f 227/227 477/477 475/475
f 227/227 475/475 219/219
f 434/434 690/690 681/681
f 434/434 681/681 425/425
f 358/358 614/614 621/621
f 358/358 621/621 365/365
f 223/223 487/487 481/481
f 223/223 481/481 231/231
f 429/429 685/685 694/694
f 429/429 694/694 438/438
f 300/300 554/554 545/545
f 300/300 545/545 291/291
f 369/369 625/625 618/618
f 369/369 618/618 362/362
f 295/295 549/549 558/558
f 295/295 558/558 304/304
f 442/442 698/698 689/689
f 442/442 689/689 433/433
f 366/366 622/622 629/629
f 366/366 629/629 373/373
f 235/235 489/489 478/478
f 235/235 478/478 228/228
f 437/437 693/693 702/702
f 437/437 702/702 446/446
f 308/308 562/562 553/553
f 308/308 553/553 299/299
f 232/232 482/482 493/493
f 232/232 493/493 239/239
f 377/377 633/633 626/626
f 377/377 626/626 370/370
f 303/303 557/557 566/566
f 303/303 566/566 312/312
f 450/450 706/706 697/697
f 450/450 697/697 441/441
f 374/374 630/630 637/637
f 374/374 637/637 381/381
f 243/243 497/497 490/490
f 243/243 490/490 236/236
f 445/445 701/701 710/710
f 445/445 710/710 454/454
f 316/316 570/570 561/561
f 316/316 561/561 307/307
f 240/240 494/494 501/501
f 240/240 501/501 247/247
f 385/385 641/641 634/634
f 385/385 634/634 378/378
f 311/311 565/565 574/574
f 311/311 574/574 320/320
f 458/458 714/714 705/705
f 458/458 705/705 449/449
f 382/382 638/638 645/645
f 382/382 645/645 389/389
f 251/251 505/505 498/498
f 251/251 498/498 244/244
f 453/453 709/709 718/718
f 453/453 718/718 462/462
f 324/324 578/578 569/569
f 324/324 569/569 315/315
f 248/248 502/502 509/509
f 248/248 509/509 255/255
f 393/393 649/649 642/642
f 393/393 642/642 386/386
f 319/319 573/573 582/582
f 319/319 582/582 328/328
f 466/466 722/722 713/713
f 466/466 713/713 457/457
f 390/390 646/646 653/653
f 390/390 653/653 397/397
f 259/259 513/513 506/506
f 259/259 506/506 252/252
f 461/461 717/717 726/726
f 461/461 726/726 470/470
f 332/332 586/586 577/577
f 332/332 577/577 323/323
f 256/256 510/510 517/517
f 256/256 517/517 263/263
f 401/401 657/657 650/650
f 401/401 650/650 394/394
f 327/327 581/581 590/590
f 327/327 590/590 336/336
f 217/217 473/473 721/721
f 217/217 721/721 465/465
f 398/398 654/654 661/661
f 398/398 661/661 405/405
f 267/267 521/521 514/514
f 267/267 514/514 260/260
f 469/469 725/725 485/485
f 469/469 485/485 221/221
f 340/340 594/594 585/585
f 340/340 585/585 331/331
f 264/264 518/518 525/525
f 264/264 525/525 271/271
f 410/410 666/666 658/658
f 410/410 658/658 402/402
f 335/335 589/589 598/598
f 335/335 598/598 344/344
f 406/406 662/662 670/670
f 406/406 670/670 414/414
f 275/275 529/529 522/522
f 275/275 522/522 268/268
f 347/347 603/603 593/593
f 347/347 593/593 339/339
f 272/272 526/526 533/533
f 272/272 533/533 279/279
f 418/418 674/674 665/665
f 418/418 665/665 409/409
f 343/343 597/597 607/607
f 343/343 607/607 351/351
f 413/413 669/669 678/678
f 413/413 678/678 422/422
f 283/283 537/537 530/530
f 283/283 530/530 276/276
f 353/353 609/609 601/601
f 353/353 601/601 345/345
f 280/280 534/534 542/542
f 280/280 542/542 288/288
f 426/426 682/682 673/673
f 426/426 673/673 417/417
f 349/349 605/605 613/613
f 349/349 613/613 357/357
f 734/734 732/732 753/753
f 736/736 737/737 732/732
f 742/742 739/739 737/737
f 751/751 749/749 746/746
f 744/744 740/740 743/743
f 744/744 743/743 761/761
f 729/729 754/754 747/747
f 738/738 741/741 745/745
f 745/745 748/748 755/755
f 755/755 733/733 738/738
f 745/745 755/755 738/738
f 752/752 765/765 730/730
f 751/751 763/763 752/752
f 761/761 762/762 750/750
f 736/736 759/759 742/742
f 734/734 757/757 736/736
f 729/729 756/756 731/731
f 760/760 769/769 772/772
f 756/756 766/766 770/770
f 760/760 772/772 761/761
f 761/761 772/772 762/762
f 757/757 768/768 759/759
f 778/778 776/776 782/782
f 769/769 774/774 772/772
f 766/766 780/780 770/770
f 729/729 731/731 754/754
f 731/731 735/735 754/754
f 734/734 736/736 732/732
f 736/736 742/742 737/737
f 758/758 735/735 731/731
f 758/758 731/731 756/756
f 761/761 750/750 744/744
f 751/751 752/752 749/749
f 752/752 730/730 749/749
f 743/743 760/760 761/761
f 729/729 764/764 756/756
f 752/752 763/763 765/765
f 736/736 757/757 759/759
f 756/756 764/764 766/766
f 758/758 756/756 770/770
f 763/763 773/773 767/767
f 765/765 763/763 767/767
f 771/771 781/781 775/775
f 767/767 773/773 779/779
f 767/767 779/779 783/783
f 772/772 774/774 777/777
f 837/837 810/810 786/786
f 786/786 918/918 890/890
f 890/890 863/863 837/837
f 786/786 890/890 837/837
f 784/784 787/787 790/790
f 784/784 790/790 789/789
f 787/787 788/788 791/791
f 787/787 791/791 790/790
f 789/789 790/790 807/807
f 789/789 807/807 803/803
f 790/790 791/791 792/792
f 790/790 792/792 807/807
f 785/785 794/794 799/799
f 785/785 799/799 798/798
f 794/794 796/796 800/800
f 794/794 800/800 799/799
f 798/798 799/799 791/791
f 798/798 791/791 788/788
f 799/799 800/800 792/792
f 799/799 792/792 791/791
f 786/786 802/802 806/806
f 786/786 806/806 805/805
f 802/802 804/804 808/808
f 802/802 808/808 806/806
f 805/805 806/806 801/801
f 805/805 801/801 797/797
f 806/806 808/808 793/793
f 806/806 793/793 801/801
f 809/809 812/812 817/817
f 809/809 817/817 816/816
f 813/813 815/815 819/819
f 813/813 819/819 818/818
f 816/816 817/817 833/833
f 816/816 833/833 827/827
f 818/818 819/819 820/820
f 818/818 820/820 835/835
f 810/810 821/821 824/824
f 810/810 824/824 823/823
f 821/821 822/822 825/825
f 821/821 825/825 824/824
f 823/823 824/824 819/819
f 823/823 819/819 815/815
f 824/824 825/825 820/820
f 824/824 820/820 819/819
f 811/811 826/826 831/831
f 811/811 831/831 829/829
f 826/826 828/828 834/834
f 826/826 834/834 831/831
f 830/830 832/832 825/825
f 830/830 825/825 822/822
f 832/832 835/835 820/820
f 832/832 820/820 825/825
f 836/836 839/839 844/844
f 836/836 844/844 843/843
f 839/839 841/841 846/846
f 839/839 846/846 844/844
f 843/843 844/844 861/861
f 843/843 861/861 857/857
f 844/844 846/846 848/848
f 844/844 848/848 861/861
f 837/837 849/849 853/853
f 837/837 853/853 852/852
f 849/849 850/850 854/854
f 849/849 854/854 853/853
f 852/852 853/853 845/845
f 852/852 845/845 842/842
f 853/853 854/854 847/847
f 853/853 847/847 845/845
f 838/838 856/856 860/860
f 838/838 860/860 859/859
f 856/856 857/857 861/861
f 856/856 861/861 860/860
f 859/859 860/860 855/855
f 859/859 855/855 851/851
f 860/860 861/861 848/848
f 860/860 848/848 855/855
f 862/862 866/866 872/872
f 862/862 872/872 869/869
f 865/865 867/867 873/873
f 865/865 873/873 870/870
f 868/868 871/871 888/888
f 868/868 888/888 885/885
f 871/871 874/874 876/876
f 871/871 876/876 888/888
f 863/863 877/877 881/881
f 863/863 881/881 880/880
f 877/877 878/878 882/882
f 877/877 882/882 881/881
f 880/880 881/881 873/873
f 880/880 873/873 867/867
f 881/881 882/882 875/875
f 881/881 875/875 873/873
f 864/864 884/884 887/887
f 864/864 887/887 886/886
f 884/884 885/885 888/888
f 884/884 888/888 887/887
f 886/886 887/887 883/883
f 886/886 883/883 879/879
f 887/887 888/888 876/876
f 887/887 876/876 883/883
f 889/889 892/892 896/896
f 889/889 896/896 895/895
f 892/892 894/894 898/898
f 892/892 898/898 896/896
f 895/895 896/896 916/916
f 895/895 916/916 910/910
f 896/896 898/898 901/901
f 896/896 901/901 916/916
f 890/890 902/902 905/905
f 890/890 905/905 904/904
f 902/902 903/903 907/907
f 902/902 907/907 905/905
f 904/904 905/905 897/897
f 904/904 897/897 893/893
f 905/905 907/907 900/900
f 905/905 900/900 897/897
f 891/891 908/908 913/913
f 891/891 913/913 911/911
f 908/908 909/909 915/915
f 908/908 915/915 913/913
f 912/912 914/914 907/907
f 912/912 907/907 903/903
f 913/913 915/915 899/899
f 913/913 899/899 906/906
f 917/917 920/920 925/925
f 917/917 925/925 924/924
f 920/920 922/922 926/926
f 920/920 926/926 925/925
f 924/924 925/925 944/944
f 924/924 944/944 938/938
f 925/925 926/926 928/928
f 925/925 928/928 944/944
f 918/918 930/930 933/933
f 918/918 933/933 932/932
f 930/930 931/931 935/935
f 930/930 935/935 933/933
f 932/932 933/933 927/927
f 932/932 927/927 923/923
f 933/933 935/935 929/929
f 933/933 929/929 927/927
f 919/919 936/936 941/941
f 919/919 941/941 939/939
f 937/937 938/938 944/944
f 937/937 944/944 942/942
f 940/940 943/943 935/935
f 940/940 935/935 931/931
f 942/942 944/944 928/928
f 942/942 928/928 934/934
f 809/809 784/784 789/789
f 809/809 789/789 812/812
f 812/812 789/789 803/803
f 812/812 803/803 814/814
f 815/815 804/804 802/802
f 815/815 802/802 823/823
f 823/823 802/802 786/786
f 823/823 786/786 810/810
f 836/836 811/811 829/829
f 836/836 829/829 839/839
f 840/840 830/830 822/822
f 840/840 822/822 842/842
f 842/842 822/822 821/821
f 842/842 821/821 852/852
f 852/852 821/821 810/810
f 852/852 810/810 837/837
f 862/862 838/838 859/859
f 862/862 859/859 866/866
f 865/865 858/858 850/850
f 865/865 850/850 867/867
f 867/867 850/850 849/849
f 867/867 849/849 880/880
f 880/880 849/849 837/837
f 880/880 837/837 863/863
f 889/889 864/864 886/886
f 889/889 886/886 892/892
f 892/892 886/886 879/879
f 892/892 879/879 894/894
f 893/893 878/878 877/877
f 893/893 877/877 904/904
f 904/904 877/877 863/863
f 904/904 863/863 890/890
f 917/917 891/891 911/911
f 917/917 911/911 920/920
f 921/921 912/912 903/903
f 921/921 903/903 923/923
f 923/923 903/903 902/902
f 923/923 902/902 932/932
f 932/932 902/902 890/890
f 932/932 890/890 918/918
f 785/785 919/919 939/939
f 785/785 939/939 794/794
f 795/795 940/940 931/931
f 795/795 931/931 797/797
f 797/797 931/931 930/930
f 797/797 930/930 805/805
f 805/805 930/930 918/918
f 805/805 918/918 786/786

