# https://github.com/mikedh/trimesh
mtllib material.mtl
usemtl L1_Baked.004
v 0.00500000 3.95000034 1.30399958
v 0.00500000 3.95000034 1.30399958
v 0.00500000 3.95000034 1.30399958
v 0.00500038 0.77970003 1.30399958
v 0.00500038 0.77970003 1.30399958
v 0.00500038 0.77970003 1.30399958
v 0.00499964 3.56000013 0.89399960
v 0.00499964 3.56000013 0.89399960
v 0.00499964 3.56000013 0.89399960
v 0.00500003 0.94670003 0.89399960
v 0.00500003 0.94670003 0.89399960
v 0.00500003 0.94670003 0.89399960
v 0.00500015 3.95000034 1.71399965
v 0.00500015 3.95000034 1.71399965
v 0.00500053 0.77970003 1.71399965
v 0.00500053 0.77970003 1.71399965
v 0.00500053 0.77970003 1.71399965
v 0.00500018 3.95000034 1.90399964
v 0.00500018 3.95000034 1.90399964
v 0.00500018 3.95000034 1.90399964
v -0.00500036 3.56000013 0.89399960
v -0.00500036 3.56000013 0.89399960
v -0.00500036 3.56000013 0.89399960
v 0.00500035 0.94669983 1.30399958
v 0.00500049 0.94669983 1.71399965
v 0.00500049 0.94669983 1.71399965
v 0.00500049 0.94669983 1.71399965
v 0.00500052 0.94669983 1.90399964
v 0.00500052 0.94669983 1.90399964
v 0.00500052 0.94669983 1.90399964
v -0.00500000 3.95000034 1.30399958
v -0.00500000 3.95000034 1.30399958
v -0.00500000 3.95000034 1.30399958
v -0.00499965 0.94669983 1.30399958
v -0.00499961 0.77970003 1.30399958
v -0.00499961 0.77970003 1.30399958
v -0.00499961 0.77970003 1.30399958
v -0.00499997 0.94670003 0.89399960
v -0.00499997 0.94670003 0.89399960
v -0.00499997 0.94670003 0.89399960
v -0.00499951 0.94669983 1.71399965
v -0.00499951 0.94669983 1.71399965
v -0.00499951 0.94669983 1.71399965
v -0.00499947 0.77970003 1.71399965
v -0.00499947 0.77970003 1.71399965
v -0.00499947 0.77970003 1.71399965
v -0.00499985 3.95000034 1.71399965
v -0.00499985 3.95000034 1.71399965
v -0.00499982 3.95000034 1.90399964
v -0.00499982 3.95000034 1.90399964
v -0.00499982 3.95000034 1.90399964
v -0.00499948 0.94669983 1.90399964
v -0.00499948 0.94669983 1.90399964
v -0.00499948 0.94669983 1.90399964
v -0.00400008 3.53999943 0.84949949
v -0.00400008 3.53999943 0.84949949
v -0.00400008 3.53999943 0.84949949
v -0.00399969 0.98000036 0.84949949
v -0.00399969 0.98000036 0.84949949
v -0.00399969 0.98000036 0.84949949
v -0.00400033 2.36000001 0.64949952
v -0.00400033 2.36000001 0.64949952
v -0.00400033 2.36000001 0.64949952
v -0.00399995 2.16000009 0.64949952
v -0.00399995 2.16000009 0.64949952
v -0.00399995 2.16000009 0.64949952
v -0.00400008 3.54099954 0.88049950
v -0.00400008 3.54099954 0.88049950
v -0.00400008 3.54099954 0.88049950
v -0.00399969 0.98100036 0.88049950
v -0.00399969 0.98100036 0.88049950
v -0.00399969 0.98100036 0.88049950
v -0.00400008 3.53999943 0.89949947
v -0.00400008 3.53999943 0.89949947
v -0.00400008 3.53999943 0.89949947
v -0.00399969 0.98000036 0.89949947
v -0.00399969 0.98000036 0.89949947
v -0.00399969 0.98000036 0.89949947
v 0.00399992 3.53999943 0.84949949
v 0.00399992 3.53999943 0.84949949
v 0.00399992 3.53999943 0.84949949
v 0.00400031 0.98000036 0.84949949
v 0.00400031 0.98000036 0.84949949
v 0.00400031 0.98000036 0.84949949
v 0.00399967 2.36000001 0.64949952
v 0.00399967 2.36000001 0.64949952
v 0.00399967 2.36000001 0.64949952
v 0.00400005 2.16000009 0.64949952
v 0.00400005 2.16000009 0.64949952
v 0.00400005 2.16000009 0.64949952
v 0.00399992 3.54099954 0.88049950
v 0.00399992 3.54099954 0.88049950
v 0.00399992 3.54099954 0.88049950
v 0.00400031 0.98100036 0.88049950
v 0.00400031 0.98100036 0.88049950
v 0.00400031 0.98100036 0.88049950
v 0.00399992 3.53999943 0.89949947
v 0.00399992 3.53999943 0.89949947
v 0.00399992 3.53999943 0.89949947
v 0.00400031 0.98000036 0.89949947
v 0.00400031 0.98000036 0.89949947
v 0.00400031 0.98000036 0.89949947
v 0.00242696 2.29003201 0.50750024
v 0.00242696 2.29003201 0.50750024
v 0.00242696 2.29003201 0.50750024
v 0.00347850 2.28992834 0.64750019
v 0.00347850 2.28992834 0.64750019
v 0.00347850 2.28992834 0.64750019
v 0.00347850 2.28992834 0.64750019
v 0.00347850 2.28992834 0.64750019
v 0.01373493 2.28681705 0.50750024
v 0.01373493 2.28681705 0.50750024
v 0.01373493 2.28681705 0.50750024
v 0.01466677 2.28631908 0.64750019
v 0.01466677 2.28631908 0.64750019
v 0.01466677 2.28631908 0.64750019
v 0.01466677 2.28631908 0.64750019
v 0.01466677 2.28631908 0.64750019
v 0.02295187 2.27951964 0.50750029
v 0.02295187 2.27951964 0.50750029
v 0.02295187 2.27951964 0.50750029
v 0.02962432 2.26666272 0.50750029
v 0.02962432 2.26666272 0.50750029
v 0.02962432 2.26666272 0.50750029
v 0.02962432 2.26666272 0.50750029
v 0.02565868 2.27623640 0.64750003
v 0.02565868 2.27623640 0.64750003
v 0.02565868 2.27623640 0.64750003
v 0.02565868 2.27623640 0.64750003
v 0.02565868 2.27623640 0.64750003
v 0.02565868 2.27623640 0.64750003
v 0.02833332 2.24908151 0.50750029
v 0.02833332 2.24908151 0.50750029
v 0.02833332 2.24908151 0.50750029
v 0.02833332 2.24908151 0.50750029
v 0.03035481 2.25924518 0.64750185
v 0.03035481 2.25924518 0.64750185
v 0.03035481 2.25924518 0.64750185
v 0.03035481 2.25924518 0.64750185
v 0.03035481 2.25924518 0.64750185
v 0.03035481 2.25924518 0.64750185
v 0.02631915 2.24533371 0.64749935
v 0.02631915 2.24533371 0.64749935
v 0.02631915 2.24533371 0.64749935
v 0.02631915 2.24533371 0.64749935
v 0.02631915 2.24533371 0.64749935
v 0.01951965 2.23704816 0.50750029
v 0.01951965 2.23704816 0.50750029
v 0.01951965 2.23704816 0.50750029
v 0.01870316 2.23637823 0.64749935
v 0.01870316 2.23637823 0.64749935
v 0.01870316 2.23637823 0.64749935
v 0.01870316 2.23637823 0.64749935
v 0.01870316 2.23637823 0.64749935
v 0.00876203 2.23111559 0.50750024
v 0.00876203 2.23111559 0.50750024
v 0.00876203 2.23111559 0.50750024
v -0.00887645 2.23073826 0.50750024
v -0.00887645 2.23073826 0.50750024
v -0.00887645 2.23073826 0.50750024
v -0.00887645 2.23073826 0.50750024
v -0.00887645 2.23073826 0.50750024
v 0.00518167 2.23008113 0.64749748
v 0.00518167 2.23008113 0.64749748
v 0.00518167 2.23008113 0.64749748
v 0.00518167 2.23008113 0.64749748
v 0.00518167 2.23008113 0.64749748
v 0.00518167 2.23008113 0.64749748
v -0.00925040 2.23132543 0.64750123
v -0.00925040 2.23132543 0.64750123
v -0.00925040 2.23132543 0.64750123
v -0.00925040 2.23132543 0.64750123
v -0.00925040 2.23132543 0.64750123
v -0.02295185 2.24048046 0.50750018
v -0.02295185 2.24048046 0.50750018
v -0.02295185 2.24048046 0.50750018
v -0.02295185 2.24048046 0.50750018
v -0.01951925 2.23704774 0.64749935
v -0.01951925 2.23704774 0.64749935
v -0.01951925 2.23704774 0.64749935
v -0.01951925 2.23704774 0.64749935
v -0.01951925 2.23704774 0.64749935
v -0.01951925 2.23704774 0.64749935
v -0.02962430 2.25333738 0.50750018
v -0.02962430 2.25333738 0.50750018
v -0.02962430 2.25333738 0.50750018
v -0.02962430 2.25333738 0.50750018
v -0.02681700 2.24626470 0.64749868
v -0.02681700 2.24626470 0.64749868
v -0.02681700 2.24626470 0.64749868
v -0.02681700 2.24626470 0.64749868
v -0.02681700 2.24626470 0.64749868
v -0.03003200 2.25757306 0.64750014
v -0.03003200 2.25757306 0.64750014
v -0.03003200 2.25757306 0.64750014
v -0.03003200 2.25757306 0.64750014
v -0.02833331 2.27091859 0.50750018
v -0.02833331 2.27091859 0.50750018
v -0.02833331 2.27091859 0.50750018
v -0.02775537 2.27231424 0.64749998
v -0.02775537 2.27231424 0.64749998
v -0.02775537 2.27231424 0.64749998
v -0.02775537 2.27231424 0.64749998
v -0.02775537 2.27231424 0.64749998
v -0.01522617 2.28665176 0.50750018
v -0.01522617 2.28665176 0.50750018
v -0.01522617 2.28665176 0.50750018
v -0.01522617 2.28665176 0.50750018
v -0.01870286 2.28362229 0.64750019
v -0.01870286 2.28362229 0.64750019
v -0.01870286 2.28362229 0.64750019
v -0.01870286 2.28362229 0.64750019
v -0.01870286 2.28362229 0.64750019
v -0.00823937 2.28898132 0.64750019
v -0.00823937 2.28898132 0.64750019
v -0.00823937 2.28898132 0.64750019
v -0.00823937 2.28898132 0.64750019
v -0.00823937 2.28898132 0.64750019
v -0.00518227 2.28991897 0.69750168
v -0.00518227 2.28991897 0.69750168
v -0.00518227 2.28991897 0.69750168
v -0.00518227 2.28991897 0.69750168
v -0.00518227 2.28991897 0.69750168
v -0.00518227 2.28991897 0.69750168
v 0.00924972 2.28867487 0.69750116
v 0.00924972 2.28867487 0.69750116
v 0.00924972 2.28867487 0.69750116
v 0.00924972 2.28867487 0.69750116
v 0.00924972 2.28867487 0.69750116
v 0.02199742 2.28093091 0.69750173
v 0.02199742 2.28093091 0.69750173
v 0.02199742 2.28093091 0.69750173
v 0.02199742 2.28093091 0.69750173
v 0.02199742 2.28093091 0.69750173
v 0.02991868 2.26518212 0.69750173
v 0.02991868 2.26518212 0.69750173
v 0.02991868 2.26518212 0.69750173
v 0.02991868 2.26518212 0.69750173
v 0.02991868 2.26518212 0.69750173
v 0.02775535 2.24768648 0.69750303
v 0.02775535 2.24768648 0.69750303
v 0.02775535 2.24768648 0.69750303
v 0.02775535 2.24768648 0.69750303
v 0.02775535 2.24768648 0.69750303
v 0.02775535 2.24768648 0.69750303
v 0.01870260 2.23637781 0.69750032
v 0.01870260 2.23637781 0.69750032
v 0.01870260 2.23637781 0.69750032
v 0.01870260 2.23637781 0.69750032
v 0.01870260 2.23637781 0.69750032
v 0.01870260 2.23637781 0.69750032
v 0.00518102 2.23008102 0.69750043
v 0.00518102 2.23008102 0.69750043
v 0.00518102 2.23008102 0.69750043
v 0.00518102 2.23008102 0.69750043
v 0.00518102 2.23008102 0.69750043
v 0.00518102 2.23008102 0.69750043
v -0.00925066 2.23132543 0.69750027
v -0.00925066 2.23132543 0.69750027
v -0.00925066 2.23132543 0.69750027
v -0.00925066 2.23132543 0.69750027
v -0.02199813 2.23906971 0.69749861
v -0.02199813 2.23906971 0.69749861
v -0.02199813 2.23906971 0.69749861
v -0.02199813 2.23906971 0.69749861
v -0.02199813 2.23906971 0.69749861
v -0.02199813 2.23906971 0.69749861
v -0.02991905 2.25481818 0.69750298
v -0.02991905 2.25481818 0.69750298
v -0.02991905 2.25481818 0.69750298
v -0.02991905 2.25481818 0.69750298
v -0.02991905 2.25481818 0.69750298
v -0.02991905 2.25481818 0.69750298
v -0.02775555 2.27231383 0.69749861
v -0.02775555 2.27231383 0.69749861
v -0.02775555 2.27231383 0.69749861
v -0.02775555 2.27231383 0.69749861
v -0.02775555 2.27231383 0.69749861
v -0.02775555 2.27231383 0.69749861
v -0.01870343 2.28362187 0.69750110
v -0.01870343 2.28362187 0.69750110
v -0.01870343 2.28362187 0.69750110
v -0.01870343 2.28362187 0.69750110
v 0.00590753 2.28970059 0.84750021
v 0.00590753 2.28970059 0.84750021
v 0.00590753 2.28970059 0.84750021
v 0.00590753 2.28970059 0.84750021
v 0.02092983 2.28199826 0.84750026
v 0.02092983 2.28199826 0.84750026
v 0.02092983 2.28199826 0.84750026
v 0.02962402 2.26666272 0.84750026
v 0.02962402 2.26666272 0.84750026
v 0.02962402 2.26666272 0.84750026
v 0.02898107 2.25176082 0.84750026
v 0.02898107 2.25176082 0.84750026
v 0.02898107 2.25176082 0.84750026
v 0.02362197 2.24129737 0.84750026
v 0.02362197 2.24129737 0.84750026
v 0.02362197 2.24129737 0.84750026
v 0.02362197 2.24129737 0.84750026
v 0.01231382 2.23224477 0.84750021
v 0.01231382 2.23224477 0.84750021
v 0.01231382 2.23224477 0.84750021
v 0.01231382 2.23224477 0.84750021
v -0.00518146 2.23008102 0.84750021
v -0.00518146 2.23008102 0.84750021
v -0.00518146 2.23008102 0.84750021
v -0.00518146 2.23008102 0.84750021
v -0.01870304 2.23637781 0.84750021
v -0.01870304 2.23637781 0.84750021
v -0.01870304 2.23637781 0.84750021
v -0.02775555 2.24768607 0.84750021
v -0.02775555 2.24768607 0.84750021
v -0.02775555 2.24768607 0.84750021
v -0.02775555 2.24768607 0.84750021
v -0.03003218 2.26242704 0.84750021
v -0.03003218 2.26242704 0.84750021
v -0.03003218 2.26242704 0.84750021
v -0.03003218 2.26242704 0.84750021
v -0.02681738 2.27373509 0.84750021
v -0.02681738 2.27373509 0.84750021
v -0.02681738 2.27373509 0.84750021
v -0.01951993 2.28295194 0.84750021
v -0.01951993 2.28295194 0.84750021
v -0.01951993 2.28295194 0.84750021
v -0.00876230 2.28888451 0.84750021
v -0.00876230 2.28888451 0.84750021
v -0.00876230 2.28888451 0.84750021
v -0.00339876 2.30204455 0.64779903
v -0.00339876 2.30204455 0.64779903
v -0.00339876 2.30204455 0.64779903
v -0.00339876 2.30204455 0.64779903
v -0.00339876 2.30204455 0.64779903
v -0.00339876 2.30204455 0.64779903
v 0.01294970 2.30014489 0.64779903
v 0.01294970 2.30014489 0.64779903
v 0.01294970 2.30014489 0.64779903
v 0.01294970 2.30014489 0.64779903
v 0.01294970 2.30014489 0.64779903
v 0.01294970 2.30014489 0.64779903
v 0.02732667 2.29213320 0.64779909
v 0.02732667 2.29213320 0.64779909
v 0.02732667 2.29213320 0.64779909
v 0.02732667 2.29213320 0.64779909
v 0.02732667 2.29213320 0.64779909
v 0.02732667 2.29213320 0.64779909
v 0.03754339 2.27922985 0.64779909
v 0.03754339 2.27922985 0.64779909
v 0.03754339 2.27922985 0.64779909
v 0.03754339 2.27922985 0.64779909
v 0.04204445 2.26339863 0.64779914
v 0.04204445 2.26339863 0.64779914
v 0.04204445 2.26339863 0.64779914
v 0.04204445 2.26339863 0.64779914
v 0.04014451 2.24704986 0.64779820
v 0.04014451 2.24704986 0.64779820
v 0.04014451 2.24704986 0.64779820
v 0.04014451 2.24704986 0.64779820
v 0.04014451 2.24704986 0.64779820
v 0.04014451 2.24704986 0.64779820
v 0.03213249 2.23267258 0.64780028
v 0.03213249 2.23267258 0.64780028
v 0.03213249 2.23267258 0.64780028
v 0.03213249 2.23267258 0.64780028
v 0.03213249 2.23267258 0.64780028
v 0.01922877 2.22245614 0.64780028
v 0.01922877 2.22245614 0.64780028
v 0.01922877 2.22245614 0.64780028
v 0.01922877 2.22245614 0.64780028
v 0.01922877 2.22245614 0.64780028
v -0.00105749 2.21750317 0.64780002
v -0.00105749 2.21750317 0.64780002
v -0.00105749 2.21750317 0.64780002
v -0.00105749 2.21750317 0.64780002
v -0.00105749 2.21750317 0.64780002
v -0.00105749 2.21750317 0.64780002
v -0.02053377 2.22315355 0.64780023
v -0.02053377 2.22315355 0.64780023
v -0.02053377 2.22315355 0.64780023
v -0.02053377 2.22315355 0.64780023
v -0.02053377 2.22315355 0.64780023
v -0.03592218 2.23726883 0.64780257
v -0.03592218 2.23726883 0.64780257
v -0.03592218 2.23726883 0.64780257
v -0.03592218 2.23726883 0.64780257
v -0.03592218 2.23726883 0.64780257
v -0.04249705 2.26105616 0.64779825
v -0.04249705 2.26105616 0.64779825
v -0.04249705 2.26105616 0.64779825
v -0.04249705 2.26105616 0.64779825
v -0.04249705 2.26105616 0.64779825
v -0.03474831 2.28448812 0.64779830
v -0.03474831 2.28448812 0.64779830
v -0.03474831 2.28448812 0.64779830
v -0.03474831 2.28448812 0.64779830
v -0.03474831 2.28448812 0.64779830
v -0.03474831 2.28448812 0.64779830
v -0.01922982 2.29754365 0.64779903
v -0.01922982 2.29754365 0.64779903
v -0.01922982 2.29754365 0.64779903
v -0.01922982 2.29754365 0.64779903
v -0.01922982 2.29754365 0.64779903
v -0.01922982 2.29754365 0.64779903
v 0.00339848 2.30204455 0.69720163
v 0.00339848 2.30204455 0.69720163
v 0.00339848 2.30204455 0.69720163
v 0.00339848 2.30204455 0.69720163
v 0.00339848 2.30204455 0.69720163
v 0.00339848 2.30204455 0.69720163
v 0.01922955 2.29754365 0.69720163
v 0.01922955 2.29754365 0.69720163
v 0.01922955 2.29754365 0.69720163
v 0.01922955 2.29754365 0.69720163
v 0.01922955 2.29754365 0.69720163
v 0.01922955 2.29754365 0.69720163
v 0.03474803 2.28448812 0.69720236
v 0.03474803 2.28448812 0.69720236
v 0.03474803 2.28448812 0.69720236
v 0.03474803 2.28448812 0.69720236
v 0.03474803 2.28448812 0.69720236
v 0.03474803 2.28448812 0.69720236
v 0.04249677 2.26105616 0.69720236
v 0.04249677 2.26105616 0.69720236
v 0.04249677 2.26105616 0.69720236
v 0.04249677 2.26105616 0.69720236
v 0.04249677 2.26105616 0.69720236
v 0.04249677 2.26105616 0.69720236
v 0.03592190 2.23726883 0.69719815
v 0.03592190 2.23726883 0.69719815
v 0.03592190 2.23726883 0.69719815
v 0.03592190 2.23726883 0.69719815
v 0.03592190 2.23726883 0.69719815
v 0.03592190 2.23726883 0.69719815
v 0.02053349 2.22315355 0.69720044
v 0.02053349 2.22315355 0.69720044
v 0.02053349 2.22315355 0.69720044
v 0.02053349 2.22315355 0.69720044
v 0.02053349 2.22315355 0.69720044
v 0.00486988 2.21810044 0.69720038
v 0.00486988 2.21810044 0.69720038
v 0.00486988 2.21810044 0.69720038
v 0.00486988 2.21810044 0.69720038
v -0.01528614 2.22033341 0.69720070
v -0.01528614 2.22033341 0.69720070
v -0.01528614 2.22033341 0.69720070
v -0.01528614 2.22033341 0.69720070
v -0.01528614 2.22033341 0.69720070
v -0.01528614 2.22033341 0.69720070
v -0.03474808 2.23551156 0.69720424
v -0.03474808 2.23551156 0.69720424
v -0.03474808 2.23551156 0.69720424
v -0.03474808 2.23551156 0.69720424
v -0.03474808 2.23551156 0.69720424
v -0.04249708 2.25894394 0.69720236
v -0.04249708 2.25894394 0.69720236
v -0.04249708 2.25894394 0.69720236
v -0.04249708 2.25894394 0.69720236
v -0.04249708 2.25894394 0.69720236
v -0.03754367 2.27922985 0.69720158
v -0.03754367 2.27922985 0.69720158
v -0.03754367 2.27922985 0.69720158
v -0.03754367 2.27922985 0.69720158
v -0.02732696 2.29213320 0.69720158
v -0.02732696 2.29213320 0.69720158
v -0.02732696 2.29213320 0.69720158
v -0.02732696 2.29213320 0.69720158
v -0.02732696 2.29213320 0.69720158
v -0.01294998 2.30014489 0.69720158
v -0.01294998 2.30014489 0.69720158
v -0.01294998 2.30014489 0.69720158
v -0.01294998 2.30014489 0.69720158
v -0.01294998 2.30014489 0.69720158
v -0.02000007 2.23000004 0.89750050
v -0.02000007 2.23000004 0.89750050
v -0.02000007 2.23000004 0.89750050
v -0.02000007 2.28999995 0.89750050
v -0.02000007 2.28999995 0.89750050
v -0.02000007 2.28999995 0.89750050
v -0.02000003 2.23000004 0.84750047
v -0.02000003 2.23000004 0.84750047
v -0.02000003 2.23000004 0.84750047
v -0.02000003 2.28999995 0.84750047
v -0.02000003 2.28999995 0.84750047
v -0.02000003 2.28999995 0.84750047
v 0.01999996 2.23000004 0.89750050
v 0.01999996 2.23000004 0.89750050
v 0.01999996 2.23000004 0.89750050
v 0.01999996 2.28999995 0.89750050
v 0.01999996 2.28999995 0.89750050
v 0.01999996 2.28999995 0.89750050
v 0.01999999 2.23000004 0.84750052
v 0.01999999 2.23000004 0.84750052
v 0.01999999 2.23000004 0.84750052
v 0.01999999 2.28999995 0.84750052
v 0.01999999 2.28999995 0.84750052
v 0.01999999 2.28999995 0.84750052
v -0.02000007 2.33999993 0.89750050
v -0.02000007 2.33999993 0.89750050
v -0.02000004 2.33999993 0.84750047
v -0.02000004 2.33999993 0.84750047
v 0.01999996 2.33999993 0.89750050
v 0.01999996 2.33999993 0.89750050
v 0.01999999 2.33999993 0.84750047
v 0.01999999 2.33999993 0.84750047
v -0.02000007 2.17999996 0.89750050
v -0.02000007 2.17999996 0.89750050
v -0.02000003 2.17999996 0.84750047
v -0.02000003 2.17999996 0.84750047
v 0.01999996 2.17999996 0.89750050
v 0.01999996 2.17999996 0.89750050
v 0.01999999 2.17999996 0.84750047
v 0.01999999 2.17999996 0.84750047
v -0.03000007 2.28999995 0.89750050
v -0.03000007 2.28999995 0.89750050
v -0.03000007 2.28999995 0.89750050
v -0.03000004 2.28999995 0.84750047
v -0.03000004 2.28999995 0.84750047
v -0.03000004 2.28999995 0.84750047
v -0.03000007 2.33999993 0.89750050
v -0.03000007 2.33999993 0.89750050
v -0.03000007 2.33999993 0.89750050
v -0.03000004 2.33999993 0.84750047
v -0.03000004 2.33999993 0.84750047
v -0.03000004 2.33999993 0.84750047
v 0.02999999 2.28999995 0.84750052
v 0.02999999 2.28999995 0.84750052
v 0.02999999 2.28999995 0.84750052
v 0.02999996 2.28999995 0.89750050
v 0.02999996 2.28999995 0.89750050
v 0.02999996 2.28999995 0.89750050
v 0.02999999 2.33999993 0.84750052
v 0.02999999 2.33999993 0.84750052
v 0.02999999 2.33999993 0.84750052
v 0.02999996 2.33999993 0.89750050
v 0.02999996 2.33999993 0.89750050
v 0.02999996 2.33999993 0.89750050
v -0.03000004 2.23000004 0.84750047
v -0.03000004 2.23000004 0.84750047
v -0.03000004 2.23000004 0.84750047
v -0.03000007 2.23000004 0.89750050
v -0.03000007 2.23000004 0.89750050
v -0.03000007 2.23000004 0.89750050
v -0.03000004 2.17999996 0.84750047
v -0.03000004 2.17999996 0.84750047
v -0.03000004 2.17999996 0.84750047
v -0.03000007 2.17999996 0.89750050
v -0.03000007 2.17999996 0.89750050
v -0.03000007 2.17999996 0.89750050
v 0.02999996 2.23000004 0.89750050
v 0.02999996 2.23000004 0.89750050
v 0.02999996 2.23000004 0.89750050
v 0.02999999 2.23000004 0.84750052
v 0.02999999 2.23000004 0.84750052
v 0.02999999 2.23000004 0.84750052
v 0.02999996 2.17999996 0.89750050
v 0.02999996 2.17999996 0.89750050
v 0.02999996 2.17999996 0.89750050
v 0.02999999 2.17999996 0.84750047
v 0.02999999 2.17999996 0.84750047
v 0.02999999 2.17999996 0.84750047
v 0.05000002 2.20310008 0.63450076
v 0.05000002 2.20310008 0.63450076
v 0.05000002 2.26340008 0.63450076
v 0.05000002 2.26340008 0.63450076
v 0.02999998 2.20310008 0.63450076
v 0.02999998 2.20310008 0.63450076
v 0.02999998 2.20310008 0.63450076
v 0.02999998 2.26340008 0.63450076
v 0.02999998 2.26340008 0.63450076
v 0.05000002 2.20310008 0.53450070
v 0.05000002 2.20310008 0.53450070
v 0.05000002 2.26340008 0.53450075
v 0.05000002 2.26340008 0.53450075
v 0.02999999 2.20310008 0.53450075
v 0.02999999 2.20310008 0.53450075
v 0.02999999 2.20310008 0.53450075
v 0.02999999 2.26340008 0.53450075
v 0.02999999 2.26340008 0.53450075
v 0.05000002 2.28140015 0.63450076
v 0.05000002 2.28140015 0.63450076
v 0.05000002 2.28140015 0.63450076
v 0.02999998 2.28140015 0.63450076
v 0.02999998 2.28140015 0.63450076
v 0.02999998 2.28140015 0.63450076
v 0.05000002 2.28140015 0.53450075
v 0.05000002 2.28140015 0.53450075
v 0.05000002 2.28140015 0.53450075
v 0.02999999 2.28140015 0.53450080
v 0.02999999 2.28140015 0.53450080
v 0.02999999 2.28140015 0.53450080
v -0.04000000 2.36600024 0.63450076
v -0.04000000 2.36600024 0.63450076
v -0.04000000 2.36600024 0.63450076
v -0.04000000 2.34800017 0.63450076
v -0.04000000 2.34800017 0.63450076
v -0.04000000 2.34800017 0.63450076
v -0.04000001 2.36600003 0.53450075
v -0.04000001 2.36600003 0.53450075
v -0.04000001 2.36600003 0.53450075
v -0.04000000 2.34800017 0.53450075
v -0.04000000 2.34800017 0.53450075
v -0.04000000 2.34800017 0.53450075
v 0.05000002 2.18510001 0.63450076
v 0.05000002 2.18510001 0.63450076
v 0.05000002 2.18510001 0.63450076
v 0.02999998 2.18510001 0.63450076
v 0.02999998 2.18510001 0.63450076
v 0.05000002 2.18510001 0.53450075
v 0.05000002 2.18510001 0.53450075
v 0.05000002 2.18510001 0.53450075
v 0.02999999 2.18510001 0.53450075
v 0.02999999 2.18510001 0.53450075
v -0.04000003 2.20310008 0.63450076
v -0.04000003 2.20310008 0.63450076
v -0.04000003 2.20310008 0.63450076
v -0.04000002 2.20310008 0.53450075
v -0.04000002 2.20310008 0.53450075
v -0.04000002 2.20310008 0.53450075
v -0.04000003 2.18510011 0.63450076
v -0.04000003 2.18510011 0.63450076
v -0.04000002 2.18510011 0.53450075
v -0.04000002 2.18510011 0.53450075
v -0.05000002 2.20310008 0.53450080
v -0.05000002 2.20310008 0.53450080
v -0.05000003 2.20310008 0.63450076
v -0.05000003 2.20310008 0.63450076
v -0.05000002 2.18510011 0.53450080
v -0.05000002 2.18510011 0.53450080
v -0.05000002 2.18510011 0.53450080
v -0.05000003 2.18510011 0.63450076
v -0.05000003 2.18510011 0.63450076
v -0.05000003 2.18510011 0.63450076
v -0.04000002 2.28140015 0.53450075
v -0.04000002 2.28140015 0.53450075
v -0.04000002 2.28140015 0.53450075
v -0.04000003 2.28140015 0.63450076
v -0.04000003 2.28140015 0.63450076
v -0.04000003 2.28140015 0.63450076
v -0.05000002 2.28140015 0.53450080
v -0.05000002 2.28140015 0.53450080
v -0.05000002 2.28140015 0.53450080
v -0.05000002 2.28140015 0.63450076
v -0.05000002 2.28140015 0.63450076
v -0.05000002 2.28140015 0.63450076
v -0.09915193 2.21836952 0.49809503
v -0.09915193 2.21836952 0.49809503
v -0.09915193 2.21836952 0.49809503
v -0.09369711 2.21996399 0.49509887
v 0.09801050 2.20033781 0.51558656
v 0.09801050 2.20033781 0.51558656
v 0.09801050 2.20033781 0.51558656
v 0.09416154 2.20488253 0.51750111
v 0.09416154 2.20488253 0.51750111
v 0.09764728 2.21953503 0.49696522
v 0.09764728 2.21953503 0.49696522
v 0.09764728 2.21953503 0.49696522
v 0.10089216 2.20850886 0.50794528
v 0.09417680 2.30435038 0.49732194
v -0.09883919 2.30456064 0.51542537
v -0.09883919 2.30456064 0.51542537
v -0.09883919 2.30456064 0.51542537
v -0.09431201 2.30469971 0.49732590
v -0.09431201 2.30469971 0.49732590
v -0.09917095 2.30575248 0.49978609
v -0.09917095 2.30575248 0.49978609
v 0.09896920 2.30532030 0.51504029
v 0.09896920 2.30532030 0.51504029
v 0.09896920 2.30532030 0.51504029
v 0.09920306 2.30569107 0.49984178
v 0.09920306 2.30569107 0.49984178
v -0.09666940 2.39644815 0.42899297
v -0.09666940 2.39644815 0.42899297
v -0.09666940 2.39644815 0.42899297
v -0.09892191 2.38168719 0.42913745
v -0.09892191 2.38168719 0.42913745
v 0.09632505 2.39660887 0.42886577
v 0.09632505 2.39660887 0.42886577
v 0.09632505 2.39660887 0.42886577
v 0.09904397 2.38139948 0.42925632
v 0.09904397 2.38139948 0.42925632
v -0.09416002 2.20487389 0.51750131
v -0.09755610 2.20008882 0.51468622
v -0.09755610 2.20008882 0.51468622
v -0.09755610 2.20008882 0.51468622
v -0.10012338 2.20521458 0.51127807
v -0.10012338 2.20521458 0.51127807
v -0.09724761 2.21784063 0.42879728
v -0.09724761 2.21784063 0.42879728
v -0.09724761 2.21784063 0.42879728
v -0.09881577 2.19888241 0.45761772
v -0.09881577 2.19888241 0.45761772
v -0.09881577 2.19888241 0.45761772
v 0.09881240 2.19887450 0.45762574
v 0.09881240 2.19887450 0.45762574
v 0.09881240 2.19887450 0.45762574
v 0.10017569 2.21259975 0.43388837
v 0.09784499 2.21766857 0.42937863
v 0.09784499 2.21766857 0.42937863
v 0.09784499 2.21766857 0.42937863
v -0.10017576 2.21260984 0.43388910
v 0.09785882 2.15114121 0.45563369
v 0.09785882 2.15114121 0.45563369
v 0.09785882 2.15114121 0.45563369
v -0.09807106 2.15092896 0.45528728
v -0.09807106 2.15092896 0.45528728
v -0.09807106 2.15092896 0.45528728
v 0.09769236 2.15120553 0.42871036
v 0.09769236 2.15120553 0.42871036
v 0.09769236 2.15120553 0.42871036
v -0.09805945 2.15129058 0.42925460
v -0.09805945 2.15129058 0.42925460
v -0.09805945 2.15129058 0.42925460
vt 0.99364138 0.72772664
vt 0.99364138 0.72772664
vt 0.66792846 0.00000000
vt 0.59418517 0.92490953
vt 0.59418517 0.92490953
vt 0.66792846 0.38294208
vt 0.97688377 0.58549923
vt 0.99342120 0.67808288
vt 0.71640474 0.04634666
vt 0.97688377 0.90194637
vt 0.59407294 0.87516105
vt 0.71640474 0.36200845
vt 0.99349093 0.77737480
vt 0.61945218 0.00076163
vt 0.04145554 0.96672267
vt 0.59407294 0.97455722
vt 0.61945218 0.38370371
vt 0.46656778 0.23863918
vt 0.99342120 0.80038249
vt 0.59698766 0.00111461
vt 0.97798407 0.58549583
vt 0.99220997 0.67807919
vt 0.59698766 0.43104494
vt 0.66792846 0.36277008
vt 0.04145554 0.94650239
vt 0.40351763 0.86893654
vt 0.61945218 0.36353171
vt 0.46656778 0.60227776
vt 0.40351763 0.89194405
vt 0.59698766 0.36388469
vt 0.99243027 0.72772294
vt 0.99243027 0.72772294
vt 0.64201915 0.38377184
vt 0.64201915 0.74745184
vt 0.59539628 0.92491221
vt 0.59539628 0.92491221
vt 0.64201915 0.76767439
vt 0.97798407 0.90194297
vt 0.59528404 0.87516373
vt 0.59698766 0.74749845
vt 0.04024803 0.94650382
vt 0.40472874 0.86893648
vt 0.68705070 0.74740523
vt 0.04024803 0.96672410
vt 0.59528404 0.97455990
vt 0.68705070 0.76762778
vt 0.99227977 0.77737111
vt 0.68705070 0.38372523
vt 0.46536028 0.23864061
vt 0.99221003 0.80037880
vt 0.70791894 0.38370359
vt 0.46536028 0.60227919
vt 0.40472874 0.89194399
vt 0.70791894 0.74738359
vt 0.23733613 0.23920673
vt 0.59693980 0.51090413
vt 0.81237495 0.00006324
vt 0.23733613 0.54917049
vt 0.59596962 0.51695883
vt 0.81237489 0.30928671
vt 0.23545122 0.38171220
vt 0.23545122 0.38171220
vt 0.83602184 0.14222443
vt 0.23545127 0.40592813
vt 0.23545127 0.40592813
vt 0.83602184 0.16638249
vt 0.59693849 0.51465738
vt 0.59693849 0.51465738
vt 0.80870962 0.00000006
vt 0.59597057 0.52071273
vt 0.59597057 0.52071273
vt 0.80870956 0.30922353
vt 0.23918241 0.23920560
vt 0.59693980 0.51695877
vt 0.80646318 0.00015610
vt 0.23918241 0.54919845
vt 0.59596962 0.52301353
vt 0.80646312 0.30937964
vt 0.23830214 0.23920560
vt 0.59597093 0.51090419
vt 0.84001660 0.38382828
vt 0.23830214 0.54916936
vt 0.59693849 0.51695883
vt 0.84001660 0.69382739
vt 0.23641723 0.38171107
vt 0.23641723 0.38171107
vt 0.81805003 0.52674121
vt 0.23641728 0.40592694
vt 0.23641728 0.40592694
vt 0.81805003 0.55095989
vt 0.59596962 0.51465744
vt 0.59596962 0.51465744
vt 0.84342152 0.38370365
vt 0.59693944 0.52071273
vt 0.59693944 0.52071273
vt 0.84342152 0.69370276
vt 0.23830211 0.23920828
vt 0.59597093 0.51695877
vt 0.84550834 0.38382262
vt 0.23830211 0.54920119
vt 0.59693849 0.52301353
vt 0.84550834 0.69382167
vt 0.78751022 0.37578124
vt 0.41659218 0.95810282
vt 0.41659218 0.95810282
vt 0.94416755 0.95421994
vt 0.94416755 0.95421994
vt 0.41645008 0.97505569
vt 0.94416755 0.95421994
vt 0.41645008 0.97505569
vt 0.78882104 0.37523681
vt 0.41522700 0.95810360
vt 0.41522700 0.95810360
vt 0.94535422 0.95499867
vt 0.94535422 0.95499867
vt 0.94535422 0.95499867
vt 0.41509992 0.97505671
vt 0.41509992 0.97505671
vt 0.79024136 0.37523681
vt 0.41412053 0.95810711
vt 0.37312815 0.96009958
vt 0.79183942 0.37595540
vt 0.37157115 0.95976561
vt 0.37157115 0.95976561
vt 0.37157115 0.95976561
vt 0.94630963 0.95652676
vt 0.94630963 0.95652676
vt 0.94630963 0.95652676
vt 0.41378224 0.97506166
vt 0.37281173 0.97533649
vt 0.37281173 0.97533649
vt 0.79304022 0.37772042
vt 0.36944178 0.95984054
vt 0.36944178 0.95984054
vt 0.36944178 0.95984054
vt 0.94630957 0.95866007
vt 0.94630957 0.95866007
vt 0.94630957 0.95866007
vt 0.37075394 0.97510570
vt 0.37075394 0.97510570
vt 0.37075394 0.97510570
vt 0.94539189 0.96015495
vt 0.94539189 0.96015495
vt 0.94539189 0.96015495
vt 0.36906895 0.97531855
vt 0.36906895 0.97531855
vt 0.79311252 0.37952417
vt 0.60747981 0.95974398
vt 0.36798409 0.96029663
vt 0.94421679 0.96095693
vt 0.94421679 0.96095693
vt 0.94421679 0.96095693
vt 0.60738051 0.97669703
vt 0.36798409 0.97571188
vt 0.79254198 0.38089514
vt 0.60617131 0.95974410
vt 0.60617131 0.95974410
vt 0.79090297 0.38225591
vt 0.60403466 0.95974410
vt 0.60403466 0.95974410
vt 0.60403466 0.95974410
vt 0.60403466 0.95974410
vt 0.94243956 0.96125996
vt 0.94243956 0.96125996
vt 0.60573691 0.97669691
vt 0.60573691 0.97669691
vt 0.94243956 0.96125996
vt 0.60573691 0.97669691
vt 0.94079912 0.96065366
vt 0.94079912 0.96065366
vt 0.94079912 0.96065366
vt 0.60399014 0.97669733
vt 0.60399014 0.97669733
vt 0.78883940 0.38238889
vt 0.60233915 0.95974398
vt 0.05671739 0.95362598
vt 0.05671739 0.95362598
vt 0.93978745 0.95965767
vt 0.93978745 0.95965767
vt 0.93978745 0.95965767
vt 0.60275191 0.97669703
vt 0.60275191 0.97669703
vt 0.05683031 0.97009999
vt 0.78724134 0.38167036
vt 0.05510302 0.95374346
vt 0.05510302 0.95374346
vt 0.05510302 0.95374346
vt 0.93923438 0.95834863
vt 0.93923438 0.95834863
vt 0.05564963 0.97024935
vt 0.05564963 0.97024935
vt 0.05564963 0.97024935
vt 0.93922400 0.95692599
vt 0.93922400 0.95692599
vt 0.05425438 0.97028393
vt 0.05425438 0.97028393
vt 0.78604060 0.37990534
vt 0.05299235 0.95363384
vt 0.05299235 0.95363384
vt 0.93996358 0.95527804
vt 0.93996358 0.95527804
vt 0.93996358 0.95527804
vt 0.05249576 0.97016102
vt 0.05249576 0.97016102
vt 0.78609580 0.37742805
vt 0.41873467 0.95810658
vt 0.41873467 0.95810658
vt 0.05121465 0.95322561
vt 0.94138169 0.95424730
vt 0.94138169 0.95424730
vt 0.94138169 0.95424730
vt 0.41914496 0.97506166
vt 0.05121465 0.96987718
vt 0.94277257 0.95395613
vt 0.94277257 0.95395613
vt 0.94277257 0.95395613
vt 0.41787049 0.97505742
vt 0.41787049 0.97505742
vt 0.40876007 0.95954126
vt 0.97472382 0.40362293
vt 0.40876007 0.95954126
vt 0.40876007 0.95954126
vt 0.97472382 0.40362293
vt 0.97472382 0.40362293
vt 0.40728384 0.96014673
vt 0.40728384 0.96014673
vt 0.40728384 0.96014673
vt 0.97297770 0.40361416
vt 0.97297770 0.40361416
vt 0.40621126 0.96145225
vt 0.40621126 0.96145225
vt 0.40621126 0.96145225
vt 0.97144425 0.40361053
vt 0.96604609 0.42137885
vt 0.40592563 0.96353185
vt 0.40592563 0.96353185
vt 0.40592563 0.96353185
vt 0.96794796 0.42180002
vt 0.96794796 0.42180002
vt 0.40676260 0.96549189
vt 0.40676260 0.96549189
vt 0.40676260 0.96549189
vt 0.97006840 0.42170817
vt 0.97006840 0.42170817
vt 0.97006840 0.42170817
vt 0.40810972 0.96651411
vt 0.40810972 0.96651411
vt 0.40810972 0.96651411
vt 0.12268753 0.97196287
vt 0.12268753 0.97196287
vt 0.97144437 0.42125857
vt 0.40975270 0.96681225
vt 0.40975270 0.96681225
vt 0.12433078 0.97199863
vt 0.12433078 0.97199863
vt 0.40975270 0.96681225
vt 0.12433078 0.97199863
vt 0.41122892 0.96620679
vt 0.41122892 0.96620679
vt 0.12607707 0.97203678
vt 0.12607707 0.97203678
vt 0.41230154 0.96490121
vt 0.41230154 0.96490121
vt 0.41230154 0.96490121
vt 0.12761323 0.97207063
vt 0.23497191 0.38315713
vt 0.23497191 0.38315713
vt 0.41258693 0.96282172
vt 0.41258693 0.96282172
vt 0.41258693 0.96282172
vt 0.23299927 0.38332653
vt 0.23299927 0.38332653
vt 0.23299927 0.38332653
vt 0.41175005 0.96086168
vt 0.41175005 0.96086168
vt 0.41175005 0.96086168
vt 0.23090518 0.38322759
vt 0.23090518 0.38322759
vt 0.23090518 0.38322759
vt 0.41040307 0.95983946
vt 0.41040307 0.95983946
vt 0.97636980 0.40363562
vt 0.22961970 0.38296461
vt 0.46124372 0.88773501
vt 0.97328132 0.42177916
vt 0.97328132 0.42177916
vt 0.97328132 0.42177916
vt 0.45972887 0.88888252
vt 0.97147232 0.42177397
vt 0.96604609 0.40485221
vt 0.45902589 0.89085239
vt 0.96789736 0.40531236
vt 0.96789736 0.40531236
vt 0.45933399 0.89263153
vt 0.96970266 0.40529549
vt 0.96970266 0.40529549
vt 0.46008542 0.89380795
vt 0.12248363 0.95379013
vt 0.97097361 0.40503317
vt 0.97097361 0.40503317
vt 0.46146297 0.89472669
vt 0.12386147 0.95382005
vt 0.12386147 0.95382005
vt 0.12386147 0.95382005
vt 0.46340501 0.89472669
vt 0.12598196 0.95386630
vt 0.12598196 0.95386630
vt 0.12598196 0.95386630
vt 0.46477872 0.89377016
vt 0.12761323 0.95390201
vt 0.23525266 0.40081155
vt 0.46558511 0.89227843
vt 0.23380631 0.40102065
vt 0.23380631 0.40102065
vt 0.23380631 0.40102065
vt 0.46559787 0.89047521
vt 0.23200551 0.40104467
vt 0.23200551 0.40104467
vt 0.23200551 0.40104467
vt 0.46506673 0.88916558
vt 0.23066819 0.40093362
vt 0.23066819 0.40093362
vt 0.46412387 0.88816762
vt 0.97636980 0.42180002
vt 0.22961970 0.40072113
vt 0.46285623 0.88761520
vt 0.97505903 0.42178929
vt 0.97505903 0.42178929
vt 0.94375932 0.95258725
vt 0.79910380 0.37983608
vt 0.94375932 0.95258725
vt 0.94375932 0.95258725
vt 0.79910380 0.37983608
vt 0.79910380 0.37983608
vt 0.94560188 0.95333129
vt 0.94560188 0.95333129
vt 0.94560188 0.95333129
vt 0.79910380 0.37785906
vt 0.79910380 0.37785906
vt 0.79910380 0.37785906
vt 0.94701809 0.95472574
vt 0.94701809 0.95472574
vt 0.94701809 0.95472574
vt 0.79909998 0.37612897
vt 0.79909998 0.37612897
vt 0.26044244 0.96079004
vt 0.94779247 0.95655829
vt 0.94779247 0.95655829
vt 0.25993738 0.96235549
vt 0.25993738 0.96235549
vt 0.94780707 0.95855004
vt 0.94780707 0.95855004
vt 0.25972784 0.96427375
vt 0.25972784 0.96427375
vt 0.94705963 0.96039760
vt 0.94705963 0.96039760
vt 0.94705963 0.96039760
vt 0.25984564 0.96625280
vt 0.25984564 0.96625280
vt 0.25984564 0.96625280
vt 0.94566387 0.96181983
vt 0.94566387 0.96181983
vt 0.94566387 0.96181983
vt 0.88792938 0.30215108
vt 0.26027328 0.96799135
vt 0.94383246 0.96260005
vt 0.94383246 0.96260005
vt 0.94383246 0.96260005
vt 0.88792944 0.30372328
vt 0.88792944 0.30372328
vt 0.94131082 0.96253008
vt 0.88792938 0.30618441
vt 0.94131082 0.96253008
vt 0.94131082 0.96253008
vt 0.88792938 0.30618441
vt 0.88792938 0.30618441
vt 0.93922472 0.96124834
vt 0.93922472 0.96124834
vt 0.93922472 0.96124834
vt 0.88792920 0.30853748
vt 0.88792920 0.30853748
vt 0.93788713 0.95910907
vt 0.93788713 0.95910907
vt 0.93788713 0.95910907
vt 0.88792920 0.31038743
vt 0.89018285 0.82564712
vt 0.93788713 0.95612246
vt 0.93788713 0.95612246
vt 0.93788713 0.95612246
vt 0.88999450 0.82271981
vt 0.88999450 0.82271981
vt 0.93954372 0.95363492
vt 0.93954372 0.95363492
vt 0.93954372 0.95363492
vt 0.79909116 0.38365567
vt 0.89018285 0.81995320
vt 0.89018285 0.81995320
vt 0.94177097 0.95260680
vt 0.94177097 0.95260680
vt 0.94177097 0.95260680
vt 0.79909998 0.38175905
vt 0.79909998 0.38175905
vt 0.79909998 0.38175905
vt 0.40744895 0.95840502
vt 0.40744895 0.95840502
vt 0.79312086 0.37900925
vt 0.79312086 0.37900925
vt 0.40744895 0.95840502
vt 0.79312086 0.37900925
vt 0.40593877 0.95943290
vt 0.40593877 0.95943290
vt 0.40593877 0.95943290
vt 0.79311925 0.37709832
vt 0.79311925 0.37709832
vt 0.79311925 0.37709832
vt 0.40475941 0.96144301
vt 0.40475941 0.96144301
vt 0.40475941 0.96144301
vt 0.79311240 0.37523687
vt 0.26549911 0.96165508
vt 0.26549911 0.96165508
vt 0.40475953 0.96440822
vt 0.40475953 0.96440822
vt 0.40475953 0.96440822
vt 0.26513347 0.96449465
vt 0.26513347 0.96449465
vt 0.26513347 0.96449465
vt 0.40628034 0.96695685
vt 0.40628034 0.96695685
vt 0.40628034 0.96695685
vt 0.89391232 0.30168808
vt 0.26549911 0.96737301
vt 0.26549911 0.96737301
vt 0.40839207 0.96810216
vt 0.40839207 0.96810216
vt 0.40839207 0.96810216
vt 0.89391267 0.30356491
vt 0.89391267 0.30356491
vt 0.41021729 0.96818769
vt 0.89391267 0.30546641
vt 0.41021729 0.96818769
vt 0.89391267 0.30546641
vt 0.41226178 0.96728456
vt 0.41226178 0.96728456
vt 0.41226178 0.96728456
vt 0.89391255 0.30790496
vt 0.89391255 0.30790496
vt 0.89391255 0.30790496
vt 0.41378224 0.96490240
vt 0.41378224 0.96490240
vt 0.41378224 0.96490240
vt 0.89391267 0.31024718
vt 0.88437456 0.82599294
vt 0.41378224 0.96193707
vt 0.41378224 0.96193707
vt 0.41378224 0.96193707
vt 0.88415527 0.82309890
vt 0.88415527 0.82309890
vt 0.41255432 0.95974267
vt 0.41255432 0.95974267
vt 0.88427216 0.82068926
vt 0.88427216 0.82068926
vt 0.41102925 0.95857263
vt 0.41102925 0.95857263
vt 0.79311275 0.38274300
vt 0.79311275 0.38274300
vt 0.88453245 0.81921464
vt 0.40923646 0.95810288
vt 0.40923646 0.95810288
vt 0.79311860 0.38099134
vt 0.79311860 0.38099134
vt 0.79311860 0.38099134
vt 0.36688372 0.96141368
vt 0.26549909 0.96684462
vt 0.14472921 0.96810007
vt 0.36688372 0.95414823
vt 0.31782037 0.96628612
vt 0.14472921 0.96085262
vt 0.52164519 0.95983440
vt 0.26549909 0.96079004
vt 0.15064096 0.96800715
vt 0.52164519 0.95256960
vt 0.31782037 0.96023142
vt 0.15064096 0.96075976
vt 0.36248228 0.96142721
vt 0.38661200 0.96877068
vt 0.34254289 0.96908224
vt 0.36248228 0.95416176
vt 0.80374843 0.95426083
vt 0.34254289 0.96181661
vt 0.52647519 0.95982867
vt 0.38661200 0.96271604
vt 0.33705127 0.96908790
vt 0.52647519 0.95256388
vt 0.80374843 0.94820619
vt 0.33705127 0.96182227
vt 0.36688372 0.94809365
vt 0.13867337 0.96681422
vt 0.52164519 0.94651562
vt 0.14472918 0.96681452
vt 0.36248228 0.94810724
vt 0.13867337 0.96197075
vt 0.52647519 0.94650990
vt 0.14472918 0.96197110
vt 0.36688372 0.96746826
vt 0.22872187 0.96680349
vt 0.52164519 0.96588844
vt 0.22266597 0.96680349
vt 0.36248228 0.96748179
vt 0.22872187 0.96195990
vt 0.52647519 0.96588266
vt 0.22266597 0.96195990
vt 0.36798409 0.95414484
vt 0.31660923 0.96628612
vt 0.24515791 0.96836847
vt 0.52043766 0.95257103
vt 0.31660923 0.96023142
vt 0.25106966 0.96827561
vt 0.36798409 0.94809031
vt 0.13867337 0.96802509
vt 0.24515791 0.96232897
vt 0.52043766 0.94651711
vt 0.14472918 0.96802539
vt 0.25106966 0.96223611
vt 0.52768272 0.95256245
vt 0.80495960 0.94820619
vt 0.08303624 0.96900469
vt 0.36138192 0.95416516
vt 0.80495960 0.95426083
vt 0.08852788 0.96899897
vt 0.52768272 0.94650847
vt 0.14472917 0.96076024
vt 0.08303624 0.96294999
vt 0.36138192 0.94811058
vt 0.13867337 0.96075988
vt 0.08852788 0.96294433
vt 0.52043766 0.95983583
vt 0.26671019 0.96078992
vt 0.79510200 0.30943525
vt 0.36798409 0.96141028
vt 0.26671019 0.96684456
vt 0.78919023 0.30952811
vt 0.52043766 0.96588987
vt 0.22266597 0.96801442
vt 0.79510200 0.31547475
vt 0.36798409 0.96746486
vt 0.22872187 0.96801442
vt 0.78919023 0.31556761
vt 0.36138192 0.96143061
vt 0.38540089 0.96877074
vt 0.80059367 0.30943525
vt 0.52768272 0.95982724
vt 0.38540089 0.96271616
vt 0.79510206 0.30944097
vt 0.36138192 0.96748519
vt 0.22872187 0.96074897
vt 0.80059367 0.31548995
vt 0.52768272 0.96588123
vt 0.22266597 0.96074897
vt 0.79510200 0.31549561
vt 0.42066878 0.96195167
vt 0.22257952 0.45444930
vt 0.42066878 0.95464987
vt 0.22257952 0.44714731
vt 0.42286947 0.96194488
vt 0.09743098 0.96458364
vt 0.44767269 0.95750737
vt 0.42286947 0.95464307
vt 0.44840935 0.95026106
vt 0.83012509 0.96048552
vt 0.21159622 0.45446062
vt 0.83012509 0.95318443
vt 0.21159622 0.44715869
vt 0.82771009 0.96048838
vt 0.09743098 0.95247442
vt 0.45945436 0.95851791
vt 0.82771009 0.95318729
vt 0.46019101 0.95127153
vt 0.42066878 0.95247024
vt 0.32325235 0.96023262
vt 0.22257952 0.44496763
vt 0.42286947 0.95246345
vt 0.44862923 0.94809794
vt 0.44862923 0.94809794
vt 0.83012509 0.95100498
vt 0.32325235 0.94812340
vt 0.21159622 0.44497901
vt 0.82771009 0.95100784
vt 0.46041092 0.94910848
vt 0.46041092 0.94910848
vt 0.43057200 0.94219542
vt 0.33403844 0.96018124
vt 0.44789258 0.93716323
vt 0.43057200 0.94437504
vt 0.44767269 0.93932635
vt 0.44767269 0.93932635
vt 0.81925756 0.94077462
vt 0.33403841 0.94807202
vt 0.45967427 0.93817383
vt 0.81925756 0.94295400
vt 0.45945436 0.94033688
vt 0.45945436 0.94033688
vt 0.42066878 0.96413130
vt 0.91176248 0.69302136
vt 0.22257952 0.45662892
vt 0.42286947 0.96412456
vt 0.90934020 0.69302136
vt 0.83012509 0.96266496
vt 0.91176248 0.68091196
vt 0.21159622 0.45664036
vt 0.82771009 0.96266782
vt 0.90934020 0.68091196
vt 0.43057200 0.96192116
vt 0.10590870 0.96458316
vt 0.71740240 0.94997400
vt 0.81925756 0.96049845
vt 0.10590869 0.95247394
vt 0.71740240 0.96095508
vt 0.43057200 0.96410078
vt 0.90086222 0.69302136
vt 0.81925756 0.96267790
vt 0.90086222 0.68091196
vt 0.81805003 0.96049988
vt 0.28781825 0.94792348
vt 0.43167236 0.96191776
vt 0.28781825 0.95974606
vt 0.81805003 0.96267933
vt 0.89965105 0.68091196
vt 0.28999263 0.94795763
vt 0.43167236 0.96409738
vt 0.89965105 0.69302136
vt 0.28999260 0.95978028
vt 0.81925756 0.95101792
vt 0.39515224 0.94809031
vt 0.70791894 0.96094531
vt 0.43057200 0.95243973
vt 0.39515221 0.96019953
vt 0.70791894 0.94996417
vt 0.81805003 0.95101935
vt 0.39636332 0.94809026
vt 0.27835962 0.94777489
vt 0.43167236 0.95243633
vt 0.39636332 0.96019948
vt 0.27835962 0.95959747
vt 0.35158372 0.96955055
vt 0.64618760 0.94250393
vt 0.72961462 0.94948584
vt 0.35194924 0.96888888
vt 0.92530113 0.95115155
vt 0.95176816 0.30914843
vt 0.96984106 0.00431758
vt 0.92570812 0.95060205
vt 0.95121557 0.30882090
vt 0.35178235 0.94571978
vt 0.72961462 0.92573696
vt 0.92327523 0.94882846
vt 0.92431509 0.95016193
vt 0.71934158 0.92607838
vt 0.64415061 0.93212694
vt 0.93911427 0.28746313
vt 0.95229816 0.02817506
vt 0.64640951 0.93211514
vt 0.71916205 0.94883329
vt 0.64599103 0.93195182
vt 0.71903569 0.94939578
vt 0.92519635 0.93843865
vt 0.93905383 0.30920529
vt 0.95229816 0.00422210
vt 0.71918768 0.92544675
vt 0.92351508 0.93839484
vt 0.65443105 0.92088914
vt 0.70791900 0.94968057
vt 0.96282095 0.02776855
vt 0.65435416 0.92265356
vt 0.70970517 0.94996405
vt 0.70803982 0.92638248
vt 0.91587007 0.92739159
vt 0.96279049 0.00439936
vt 0.70988435 0.92606390
vt 0.91577363 0.92923266
vt 0.95118684 0.28810281
vt 0.64426708 0.94475549
vt 0.95176816 0.28758770
vt 0.96973300 0.02799898
vt 0.64460284 0.94410872
vt 0.95114976 0.28713179
vt 0.35997704 0.96934265
vt 0.65443105 0.94245803
vt 0.96139032 0.82570738
vt 0.65098143 0.94478714
vt 0.96115410 0.67050314
vt 0.96282101 0.02815294
vt 0.91889411 0.95133305
vt 0.96115410 0.69224560
vt 0.96282101 0.00422215
vt 0.91621792 0.94967252
vt 0.35996708 0.94571978
vt 0.91584182 0.94905967
vt 0.96139032 0.80214900
vt 0.65375191 0.94307458
vt 0.06009118 0.95322567
vt 0.91872221 0.95711362
vt 0.96693712 0.69205797
vt 0.06006239 0.97695106
vt 0.65127438 0.95058149
vt 0.96696407 0.67048532
vt 0.05683030 0.95324761
vt 0.91577363 0.95710802
vt 0.96943808 0.80217582
vt 0.05690936 0.97695106
vt 0.65435272 0.95049071
vt 0.96945071 0.82580316
f 3/3 24/24 12/12
f 3/3 12/12 9/9
f 6/6 24/24 27/27
f 6/6 27/27 17/17
f 33/33 23/23 40/40
f 33/33 40/40 34/34
f 37/37 46/46 43/43
f 37/37 43/43 34/34
f 30/30 27/27 14/14
f 30/30 14/14 20/20
f 12/12 24/24 6/6
f 27/27 24/24 3/3
f 27/27 3/3 14/14
f 54/54 51/51 48/48
f 54/54 48/48 43/43
f 40/40 37/37 34/34
f 43/43 48/48 33/33
f 43/43 33/33 34/34
f 25/25 41/41 44/44
f 25/25 44/44 15/15
f 13/13 47/47 50/50
f 13/13 50/50 19/19
f 2/2 32/32 47/47
f 2/2 47/47 13/13
f 18/18 49/49 52/52
f 18/18 52/52 28/28
f 4/4 35/35 39/39
f 4/4 39/39 11/11
f 16/16 45/45 36/36
f 16/16 36/36 5/5
f 29/29 53/53 42/42
f 29/29 42/42 26/26
f 10/10 38/38 21/21
f 10/10 21/21 7/7
f 8/8 22/22 31/31
f 8/8 31/31 1/1
f 57/57 63/63 66/66
f 57/57 66/66 60/60
f 60/60 72/72 69/69
f 60/60 69/69 57/57
f 72/72 78/78 75/75
f 72/72 75/75 69/69
f 81/81 84/84 90/90
f 81/81 90/90 87/87
f 84/84 81/81 93/93
f 84/84 93/93 96/96
f 96/96 93/93 99/99
f 96/96 99/99 102/102
f 77/77 70/70 94/94
f 77/77 94/94 101/101
f 56/56 68/68 92/92
f 56/56 92/92 80/80
f 58/58 65/65 89/89
f 58/58 89/89 82/82
f 62/62 55/55 79/79
f 62/62 79/79 86/86
f 67/67 74/74 98/98
f 67/67 98/98 91/91
f 73/73 76/76 100/100
f 73/73 100/100 97/97
f 71/71 59/59 83/83
f 71/71 83/83 95/95
f 64/64 61/61 85/85
f 64/64 85/85 88/88
f 130/130 123/123 121/121
f 141/141 135/135 125/125
f 156/156 165/165 159/159
f 182/182 175/175 162/162
f 191/191 185/185 177/177
f 112/112 104/104 108/108
f 112/112 108/108 117/117
f 230/230 411/411 227/227
f 163/163 366/366 371/371
f 225/225 404/404 219/219
f 214/214 331/331 109/109
f 268/268 450/450 264/264
f 151/151 361/361 368/368
f 116/116 342/342 126/126
f 209/209 399/399 216/216
f 263/263 449/449 445/445
f 288/288 284/284 326/326
f 326/326 323/323 320/320
f 320/320 316/316 312/312
f 312/312 309/309 305/305
f 305/305 301/301 297/297
f 297/297 294/294 291/291
f 291/291 288/288 326/326
f 326/326 320/320 312/312
f 312/312 305/305 297/297
f 297/297 291/291 326/326
f 326/326 312/312 297/297
f 257/257 307/307 260/260
f 223/223 327/327 287/287
f 267/267 314/314 271/271
f 273/273 319/319 279/279
f 243/243 299/299 251/251
f 249/249 303/303 255/255
f 220/220 285/285 228/228
f 358/358 432/432 365/365
f 395/395 466/466 403/403
f 340/340 414/414 344/344
f 401/401 471/471 334/334
f 354/354 427/427 360/360
f 376/376 447/447 380/380
f 346/346 420/420 349/349
f 330/330 406/406 338/338
f 193/193 387/387 201/201
f 235/235 417/417 232/232
f 167/167 373/373 169/169
f 241/241 422/422 236/236
f 170/170 374/374 377/377
f 248/248 436/436 429/429
f 200/200 393/393 211/211
f 107/107 336/336 114/114
f 252/252 439/439 434/434
f 144/144 356/356 363/363
f 180/180 379/379 383/383
f 120/120 113/113 118/118
f 120/120 118/118 129/129
f 149/149 133/133 145/145
f 149/149 145/145 154/154
f 131/131 140/140 124/124
f 139/139 146/146 134/134
f 157/157 148/148 153/153
f 157/157 153/153 166/166
f 199/199 187/187 196/196
f 199/199 196/196 204/204
f 168/168 172/172 160/160
f 173/173 181/181 161/161
f 183/183 190/190 176/176
f 192/192 195/195 186/186
f 208/208 198/198 203/203
f 208/208 203/203 213/213
f 105/105 206/206 217/217
f 105/105 217/217 110/110
f 212/212 218/218 207/207
f 231/231 416/416 412/412
f 103/103 111/111 119/119
f 119/119 122/122 132/132
f 132/132 147/147 155/155
f 155/155 158/158 174/174
f 174/174 184/184 197/197
f 197/197 205/205 103/103
f 103/103 119/119 132/132
f 132/132 155/155 174/174
f 174/174 197/197 103/103
f 132/132 174/174 103/103
f 463/463 280/280 222/222
f 463/463 222/222 469/469
f 351/351 137/137 128/128
f 351/351 128/128 348/348
f 459/459 274/274 281/281
f 459/459 281/281 464/464
f 226/226 410/410 405/405
f 388/388 194/194 189/189
f 388/388 189/189 384/384
f 276/276 460/460 455/455
f 269/269 275/275 454/454
f 164/164 150/150 367/367
f 127/127 343/343 347/347
f 215/215 398/398 332/332
f 270/270 456/456 451/451
f 188/188 179/179 382/382
f 259/259 262/262 444/444
f 152/152 142/142 362/362
f 289/289 233/233 229/229
f 289/289 229/229 286/286
f 254/254 302/302 306/306
f 328/328 224/224 282/282
f 328/328 282/282 324/324
f 310/310 265/265 261/261
f 310/310 261/261 308/308
f 292/292 238/238 234/234
f 292/292 234/234 290/290
f 296/296 245/245 239/239
f 296/296 239/239 293/293
f 266/266 311/311 313/313
f 325/325 283/283 277/277
f 325/325 277/277 321/321
f 272/272 315/315 318/318
f 244/244 295/295 300/300
f 278/278 317/317 322/322
f 250/250 298/298 304/304
f 440/440 372/372 369/369
f 440/440 369/369 437/437
f 452/452 385/385 381/381
f 452/452 381/381 448/448
f 339/339 407/407 413/413
f 425/425 353/353 350/350
f 425/425 350/350 421/421
f 462/462 397/397 391/391
f 462/462 391/391 458/458
f 402/402 465/465 472/472
f 375/375 442/442 446/446
f 438/438 370/370 364/364
f 438/438 364/364 431/431
f 345/345 415/415 419/419
f 457/457 390/390 386/386
f 457/457 386/386 453/453
f 443/443 441/441 256/256
f 443/443 256/256 258/258
f 333/333 470/470 409/409
f 359/359 426/426 433/433
f 396/396 461/461 467/467
f 221/221 408/408 468/468
f 237/237 423/423 418/418
f 202/202 389/389 394/394
f 138/138 352/352 357/357
f 242/242 430/430 424/424
f 106/106 329/329 335/335
f 240/240 247/247 428/428
f 143/143 136/136 355/355
f 178/178 171/171 378/378
f 246/246 253/253 435/435
f 210/210 392/392 400/400
f 115/115 337/337 341/341
f 475/475 478/478 484/484
f 475/475 484/484 481/481
f 479/479 482/482 494/494
f 479/479 494/494 491/491
f 493/493 496/496 490/490
f 493/493 490/490 487/487
f 485/485 488/488 476/476
f 485/485 476/476 473/473
f 485/485 473/473 505/505
f 485/485 505/505 509/509
f 494/494 503/503 531/531
f 494/494 531/531 525/525
f 504/504 500/500 498/498
f 504/504 498/498 502/502
f 498/498 500/500 523/523
f 498/498 523/523 520/520
f 476/476 488/488 501/501
f 476/476 501/501 497/497
f 494/494 482/482 499/499
f 494/494 499/499 503/503
f 508/508 512/512 510/510
f 508/508 510/510 506/506
f 479/479 491/491 511/511
f 479/479 511/511 507/507
f 479/479 507/507 543/543
f 479/479 543/543 537/537
f 485/485 509/509 555/555
f 485/485 555/555 549/549
f 518/518 515/515 521/521
f 518/518 521/521 524/524
f 499/499 482/482 516/516
f 499/499 516/516 522/522
f 483/483 477/477 514/514
f 483/483 514/514 517/517
f 476/476 497/497 519/519
f 476/476 519/519 513/513
f 530/530 527/527 533/533
f 530/530 533/533 536/536
f 504/504 502/502 535/535
f 504/504 535/535 532/532
f 489/489 495/495 526/526
f 489/489 526/526 529/529
f 501/501 488/488 528/528
f 501/501 528/528 534/534
f 542/542 539/539 545/545
f 542/542 545/545 548/548
f 505/505 473/473 540/540
f 505/505 540/540 546/546
f 474/474 480/480 538/538
f 474/474 538/538 541/541
f 508/508 506/506 547/547
f 508/508 547/547 544/544
f 554/554 551/551 557/557
f 554/554 557/557 560/560
f 511/511 491/491 552/552
f 511/511 552/552 558/558
f 510/510 512/512 559/559
f 510/510 559/559 556/556
f 492/492 486/486 550/550
f 492/492 550/550 553/553
f 561/561 563/563 568/568
f 561/561 568/568 565/565
f 567/567 569/569 578/578
f 567/567 578/578 576/576
f 574/574 577/577 572/572
f 574/574 572/572 570/570
f 571/571 573/573 564/564
f 571/571 564/564 562/562
f 571/571 562/562 605/605
f 571/571 605/605 610/610
f 578/578 569/569 584/584
f 578/578 584/584 590/590
f 585/585 588/588 600/600
f 585/585 600/600 597/597
f 572/572 577/577 588/588
f 572/572 588/588 585/585
f 568/568 563/563 579/579
f 568/568 579/579 582/582
f 564/564 573/573 587/587
f 564/564 587/587 581/581
f 602/602 596/596 593/593
f 602/602 593/593 599/599
f 582/582 579/579 591/591
f 582/582 591/591 594/594
f 580/580 586/586 598/598
f 580/580 598/598 592/592
f 589/589 583/583 595/595
f 589/589 595/595 601/601
f 607/607 612/612 609/609
f 607/607 609/609 604/604
f 574/574 611/611 621/621
f 574/574 621/621 616/616
f 561/561 565/565 606/606
f 561/561 606/606 603/603
f 574/574 570/570 608/608
f 574/574 608/608 611/611
f 616/616 621/621 627/627
f 616/616 627/627 623/623
f 566/566 575/575 617/617
f 566/566 617/617 614/614
f 606/606 565/565 613/613
f 606/606 613/613 619/619
f 612/612 607/607 620/620
f 612/612 620/620 622/622
f 626/626 624/624 629/629
f 626/626 629/629 632/632
f 616/616 623/623 639/639
f 616/616 639/639 633/633
f 619/619 613/613 625/625
f 619/619 625/625 630/630
f 622/622 620/620 631/631
f 622/622 631/631 628/628
f 637/637 634/634 640/640
f 637/637 640/640 643/643
f 615/615 618/618 635/635
f 615/615 635/635 638/638
f 625/625 613/613 636/636
f 625/625 636/636 642/642
f 624/624 626/626 644/644
f 624/624 644/644 641/641
f 659/659 674/674 664/664
f 709/709 712/712 689/689
f 647/647 665/665 663/663
f 655/655 658/658 669/669
f 679/679 669/669 658/658
f 666/666 680/680 677/677
f 683/683 681/681 660/660
f 693/693 657/657 649/649
f 646/646 688/688 700/700
f 708/708 698/698 696/696
f 676/676 679/679 675/675
f 676/676 675/675 672/672
f 660/660 681/681 653/653
f 660/660 653/653 667/667
f 657/657 693/693 696/696
f 655/655 647/647 663/663
f 655/655 663/663 658/658
f 673/673 661/661 668/668
f 673/673 668/668 678/678
f 679/679 658/658 663/663
f 679/679 663/663 675/675
f 692/692 695/695 651/651
f 692/692 651/651 684/684
f 666/666 670/670 680/680
f 646/646 685/685 659/659
f 646/646 659/659 664/664
f 703/703 694/694 691/691
f 703/703 691/691 706/706
f 670/670 666/666 657/657
f 690/690 685/685 646/646
f 690/690 646/646 700/700
f 708/708 696/696 693/693
f 708/708 693/693 702/702
f 707/707 701/701 704/704
f 707/707 704/704 710/710
f 705/705 690/690 700/700
f 705/705 700/700 711/711
f 681/681 683/683 650/650
f 681/681 650/650 653/653
f 699/699 709/709 689/689
f 648/648 645/645 654/654
f 657/657 656/656 670/670
f 649/649 657/657 666/666
f 652/652 649/649 666/666
f 659/659 671/671 674/674
f 674/674 662/662 664/664
f 657/657 696/696 698/698
f 657/657 698/698 656/656
f 686/686 683/683 660/660
f 687/687 645/645 648/648
f 690/690 682/682 685/685
f 700/700 688/688 711/711
f 687/687 648/648 654/654
f 687/687 654/654 697/697

