# https://github.com/mikedh/trimesh
mtllib material.mtl
usemtl L1_Baked.004
v -0.00500066 3.95000034 -1.30200040
v -0.00500066 3.95000034 -1.30200040
v -0.00500066 3.95000034 -1.30200040
v -0.00499981 0.77970003 -1.30200040
v -0.00499981 0.77970003 -1.30200040
v -0.00499981 0.77970003 -1.30200040
v -0.00500021 3.56000013 -0.89200043
v -0.00500021 3.56000013 -0.89200043
v -0.00500021 3.56000013 -0.89200043
v -0.00499958 0.94670003 -0.89200043
v -0.00499958 0.94670003 -0.89200043
v -0.00499958 0.94670003 -0.89200043
v -0.00500074 3.95000034 -1.71200048
v -0.00500074 3.95000034 -1.71200048
v -0.00499989 0.77970003 -1.71200048
v -0.00499989 0.77970003 -1.71200048
v -0.00499989 0.77970003 -1.71200048
v -0.00500074 3.95000034 -1.90200046
v -0.00500074 3.95000034 -1.90200046
v -0.00500074 3.95000034 -1.90200046
v 0.00499979 3.56000013 -0.89200043
v 0.00499979 3.56000013 -0.89200043
v 0.00499979 3.56000013 -0.89200043
v -0.00499984 0.94669983 -1.30200040
v -0.00499992 0.94669983 -1.71200048
v -0.00499992 0.94669983 -1.71200048
v -0.00499992 0.94669983 -1.71200048
v -0.00499992 0.94669983 -1.90200046
v -0.00499992 0.94669983 -1.90200046
v -0.00499992 0.94669983 -1.90200046
v 0.00499934 3.95000034 -1.30200040
v 0.00499934 3.95000034 -1.30200040
v 0.00499934 3.95000034 -1.30200040
v 0.00500016 0.94669983 -1.30200040
v 0.00500019 0.77970003 -1.30200040
v 0.00500019 0.77970003 -1.30200040
v 0.00500019 0.77970003 -1.30200040
v 0.00500042 0.94670003 -0.89200043
v 0.00500042 0.94670003 -0.89200043
v 0.00500042 0.94670003 -0.89200043
v 0.00500008 0.94669983 -1.71200048
v 0.00500008 0.94669983 -1.71200048
v 0.00500008 0.94669983 -1.71200048
v 0.00500011 0.77970003 -1.71200048
v 0.00500011 0.77970003 -1.71200048
v 0.00500011 0.77970003 -1.71200048
v 0.00499926 3.95000034 -1.71200048
v 0.00499926 3.95000034 -1.71200048
v 0.00499926 3.95000034 -1.90200046
v 0.00499926 3.95000034 -1.90200046
v 0.00499926 3.95000034 -1.90200046
v 0.00500008 0.94669983 -1.90200046
v 0.00500008 0.94669983 -1.90200046
v 0.00500008 0.94669983 -1.90200046
v 0.00399951 3.53999943 -0.84750031
v 0.00399951 3.53999943 -0.84750031
v 0.00399951 3.53999943 -0.84750031
v 0.00400012 0.98000036 -0.84750031
v 0.00400012 0.98000036 -0.84750031
v 0.00400012 0.98000036 -0.84750031
v 0.00400020 2.36000001 -0.64750034
v 0.00400020 2.36000001 -0.64750034
v 0.00400020 2.36000001 -0.64750034
v 0.00399989 2.16000009 -0.64750034
v 0.00399989 2.16000009 -0.64750034
v 0.00399989 2.16000009 -0.64750034
v 0.00399952 3.54099954 -0.87850032
v 0.00399952 3.54099954 -0.87850032
v 0.00399952 3.54099954 -0.87850032
v 0.00400013 0.98100036 -0.87850032
v 0.00400013 0.98100036 -0.87850032
v 0.00400013 0.98100036 -0.87850032
v 0.00399952 3.53999943 -0.89750029
v 0.00399952 3.53999943 -0.89750029
v 0.00399952 3.53999943 -0.89750029
v 0.00400013 0.98000036 -0.89750029
v 0.00400013 0.98000036 -0.89750029
v 0.00400013 0.98000036 -0.89750029
v -0.00400049 3.53999943 -0.84750031
v -0.00400049 3.53999943 -0.84750031
v -0.00400049 3.53999943 -0.84750031
v -0.00399988 0.98000036 -0.84750031
v -0.00399988 0.98000036 -0.84750031
v -0.00399988 0.98000036 -0.84750031
v -0.00399980 2.36000001 -0.64750034
v -0.00399980 2.36000001 -0.64750034
v -0.00399980 2.36000001 -0.64750034
v -0.00400011 2.16000009 -0.64750034
v -0.00400011 2.16000009 -0.64750034
v -0.00400011 2.16000009 -0.64750034
v -0.00400048 3.54099954 -0.87850032
v -0.00400048 3.54099954 -0.87850032
v -0.00400048 3.54099954 -0.87850032
v -0.00399987 0.98100036 -0.87850032
v -0.00399987 0.98100036 -0.87850032
v -0.00399987 0.98100036 -0.87850032
v -0.00400048 3.53999943 -0.89750029
v -0.00400048 3.53999943 -0.89750029
v -0.00400048 3.53999943 -0.89750029
v -0.00399987 0.98000036 -0.89750029
v -0.00399987 0.98000036 -0.89750029
v -0.00399987 0.98000036 -0.89750029
v -0.00242709 2.29003201 -0.50550106
v -0.00242709 2.29003201 -0.50550106
v -0.00242709 2.29003201 -0.50550106
v -0.00347860 2.28992834 -0.64550101
v -0.00347860 2.28992834 -0.64550101
v -0.00347860 2.28992834 -0.64550101
v -0.00347860 2.28992834 -0.64550101
v -0.00347860 2.28992834 -0.64550101
v -0.01373505 2.28681705 -0.50550106
v -0.01373505 2.28681705 -0.50550106
v -0.01373505 2.28681705 -0.50550106
v -0.01466688 2.28631908 -0.64550101
v -0.01466688 2.28631908 -0.64550101
v -0.01466688 2.28631908 -0.64550101
v -0.01466688 2.28631908 -0.64550101
v -0.01466688 2.28631908 -0.64550101
v -0.02295200 2.27951964 -0.50550111
v -0.02295200 2.27951964 -0.50550111
v -0.02295200 2.27951964 -0.50550111
v -0.02962444 2.26666272 -0.50550111
v -0.02962444 2.26666272 -0.50550111
v -0.02962444 2.26666272 -0.50550111
v -0.02962444 2.26666272 -0.50550111
v -0.02565878 2.27623640 -0.64550086
v -0.02565878 2.27623640 -0.64550086
v -0.02565878 2.27623640 -0.64550086
v -0.02565878 2.27623640 -0.64550086
v -0.02565878 2.27623640 -0.64550086
v -0.02565878 2.27623640 -0.64550086
v -0.02833344 2.24908151 -0.50550111
v -0.02833344 2.24908151 -0.50550111
v -0.02833344 2.24908151 -0.50550111
v -0.02833344 2.24908151 -0.50550111
v -0.03035491 2.25924518 -0.64550268
v -0.03035491 2.25924518 -0.64550268
v -0.03035491 2.25924518 -0.64550268
v -0.03035491 2.25924518 -0.64550268
v -0.03035491 2.25924518 -0.64550268
v -0.03035491 2.25924518 -0.64550268
v -0.02631925 2.24533371 -0.64550018
v -0.02631925 2.24533371 -0.64550018
v -0.02631925 2.24533371 -0.64550018
v -0.02631925 2.24533371 -0.64550018
v -0.02631925 2.24533371 -0.64550018
v -0.01951976 2.23704816 -0.50550111
v -0.01951976 2.23704816 -0.50550111
v -0.01951976 2.23704816 -0.50550111
v -0.01870325 2.23637823 -0.64550018
v -0.01870325 2.23637823 -0.64550018
v -0.01870325 2.23637823 -0.64550018
v -0.01870325 2.23637823 -0.64550018
v -0.01870325 2.23637823 -0.64550018
v -0.00876214 2.23111559 -0.50550106
v -0.00876214 2.23111559 -0.50550106
v -0.00876214 2.23111559 -0.50550106
v 0.00887634 2.23073826 -0.50550106
v 0.00887634 2.23073826 -0.50550106
v 0.00887634 2.23073826 -0.50550106
v 0.00887634 2.23073826 -0.50550106
v 0.00887634 2.23073826 -0.50550106
v -0.00518176 2.23008113 -0.64549831
v -0.00518176 2.23008113 -0.64549831
v -0.00518176 2.23008113 -0.64549831
v -0.00518176 2.23008113 -0.64549831
v -0.00518176 2.23008113 -0.64549831
v -0.00518176 2.23008113 -0.64549831
v 0.00925031 2.23132543 -0.64550205
v 0.00925031 2.23132543 -0.64550205
v 0.00925031 2.23132543 -0.64550205
v 0.00925031 2.23132543 -0.64550205
v 0.00925031 2.23132543 -0.64550205
v 0.02295174 2.24048046 -0.50550101
v 0.02295174 2.24048046 -0.50550101
v 0.02295174 2.24048046 -0.50550101
v 0.02295174 2.24048046 -0.50550101
v 0.01951917 2.23704774 -0.64550018
v 0.01951917 2.23704774 -0.64550018
v 0.01951917 2.23704774 -0.64550018
v 0.01951917 2.23704774 -0.64550018
v 0.01951917 2.23704774 -0.64550018
v 0.01951917 2.23704774 -0.64550018
v 0.02962419 2.25333738 -0.50550101
v 0.02962419 2.25333738 -0.50550101
v 0.02962419 2.25333738 -0.50550101
v 0.02962419 2.25333738 -0.50550101
v 0.02681691 2.24626470 -0.64549950
v 0.02681691 2.24626470 -0.64549950
v 0.02681691 2.24626470 -0.64549950
v 0.02681691 2.24626470 -0.64549950
v 0.02681691 2.24626470 -0.64549950
v 0.03003190 2.25757306 -0.64550096
v 0.03003190 2.25757306 -0.64550096
v 0.03003190 2.25757306 -0.64550096
v 0.03003190 2.25757306 -0.64550096
v 0.02833318 2.27091859 -0.50550101
v 0.02833318 2.27091859 -0.50550101
v 0.02833318 2.27091859 -0.50550101
v 0.02775527 2.27231424 -0.64550080
v 0.02775527 2.27231424 -0.64550080
v 0.02775527 2.27231424 -0.64550080
v 0.02775527 2.27231424 -0.64550080
v 0.02775527 2.27231424 -0.64550080
v 0.01522604 2.28665176 -0.50550101
v 0.01522604 2.28665176 -0.50550101
v 0.01522604 2.28665176 -0.50550101
v 0.01522604 2.28665176 -0.50550101
v 0.01870276 2.28362229 -0.64550101
v 0.01870276 2.28362229 -0.64550101
v 0.01870276 2.28362229 -0.64550101
v 0.01870276 2.28362229 -0.64550101
v 0.01870276 2.28362229 -0.64550101
v 0.00823926 2.28898132 -0.64550101
v 0.00823926 2.28898132 -0.64550101
v 0.00823926 2.28898132 -0.64550101
v 0.00823926 2.28898132 -0.64550101
v 0.00823926 2.28898132 -0.64550101
v 0.00518217 2.28991897 -0.69550250
v 0.00518217 2.28991897 -0.69550250
v 0.00518217 2.28991897 -0.69550250
v 0.00518217 2.28991897 -0.69550250
v 0.00518217 2.28991897 -0.69550250
v 0.00518217 2.28991897 -0.69550250
v -0.00924982 2.28867487 -0.69550198
v -0.00924982 2.28867487 -0.69550198
v -0.00924982 2.28867487 -0.69550198
v -0.00924982 2.28867487 -0.69550198
v -0.00924982 2.28867487 -0.69550198
v -0.02199752 2.28093091 -0.69550255
v -0.02199752 2.28093091 -0.69550255
v -0.02199752 2.28093091 -0.69550255
v -0.02199752 2.28093091 -0.69550255
v -0.02199752 2.28093091 -0.69550255
v -0.02991878 2.26518212 -0.69550255
v -0.02991878 2.26518212 -0.69550255
v -0.02991878 2.26518212 -0.69550255
v -0.02991878 2.26518212 -0.69550255
v -0.02991878 2.26518212 -0.69550255
v -0.02775544 2.24768648 -0.69550391
v -0.02775544 2.24768648 -0.69550391
v -0.02775544 2.24768648 -0.69550391
v -0.02775544 2.24768648 -0.69550391
v -0.02775544 2.24768648 -0.69550391
v -0.02775544 2.24768648 -0.69550391
v -0.01870268 2.23637781 -0.69550115
v -0.01870268 2.23637781 -0.69550115
v -0.01870268 2.23637781 -0.69550115
v -0.01870268 2.23637781 -0.69550115
v -0.01870268 2.23637781 -0.69550115
v -0.01870268 2.23637781 -0.69550115
v -0.00518110 2.23008102 -0.69550125
v -0.00518110 2.23008102 -0.69550125
v -0.00518110 2.23008102 -0.69550125
v -0.00518110 2.23008102 -0.69550125
v -0.00518110 2.23008102 -0.69550125
v -0.00518110 2.23008102 -0.69550125
v 0.00925058 2.23132543 -0.69550110
v 0.00925058 2.23132543 -0.69550110
v 0.00925058 2.23132543 -0.69550110
v 0.00925058 2.23132543 -0.69550110
v 0.02199805 2.23906971 -0.69549943
v 0.02199805 2.23906971 -0.69549943
v 0.02199805 2.23906971 -0.69549943
v 0.02199805 2.23906971 -0.69549943
v 0.02199805 2.23906971 -0.69549943
v 0.02199805 2.23906971 -0.69549943
v 0.02991896 2.25481818 -0.69550380
v 0.02991896 2.25481818 -0.69550380
v 0.02991896 2.25481818 -0.69550380
v 0.02991896 2.25481818 -0.69550380
v 0.02991896 2.25481818 -0.69550380
v 0.02991896 2.25481818 -0.69550380
v 0.02775545 2.27231383 -0.69549943
v 0.02775545 2.27231383 -0.69549943
v 0.02775545 2.27231383 -0.69549943
v 0.02775545 2.27231383 -0.69549943
v 0.02775545 2.27231383 -0.69549943
v 0.02775545 2.27231383 -0.69549943
v 0.01870333 2.28362187 -0.69550193
v 0.01870333 2.28362187 -0.69550193
v 0.01870333 2.28362187 -0.69550193
v 0.01870333 2.28362187 -0.69550193
v -0.00590761 2.28970059 -0.84550103
v -0.00590761 2.28970059 -0.84550103
v -0.00590761 2.28970059 -0.84550103
v -0.00590761 2.28970059 -0.84550103
v -0.02092990 2.28199826 -0.84550109
v -0.02092990 2.28199826 -0.84550109
v -0.02092990 2.28199826 -0.84550109
v -0.02962410 2.26666272 -0.84550109
v -0.02962410 2.26666272 -0.84550109
v -0.02962410 2.26666272 -0.84550109
v -0.02898113 2.25176082 -0.84550109
v -0.02898113 2.25176082 -0.84550109
v -0.02898113 2.25176082 -0.84550109
v -0.02362203 2.24129726 -0.84550109
v -0.02362203 2.24129726 -0.84550109
v -0.02362203 2.24129726 -0.84550109
v -0.02362203 2.24129726 -0.84550109
v -0.01231388 2.23224477 -0.84550103
v -0.01231388 2.23224477 -0.84550103
v -0.01231388 2.23224477 -0.84550103
v -0.01231388 2.23224477 -0.84550103
v 0.00518141 2.23008102 -0.84550103
v 0.00518141 2.23008102 -0.84550103
v 0.00518141 2.23008102 -0.84550103
v 0.00518141 2.23008102 -0.84550103
v 0.01870298 2.23637781 -0.84550103
v 0.01870298 2.23637781 -0.84550103
v 0.01870298 2.23637781 -0.84550103
v 0.02775548 2.24768607 -0.84550103
v 0.02775548 2.24768607 -0.84550103
v 0.02775548 2.24768607 -0.84550103
v 0.02775548 2.24768607 -0.84550103
v 0.03003211 2.26242704 -0.84550103
v 0.03003211 2.26242704 -0.84550103
v 0.03003211 2.26242704 -0.84550103
v 0.03003211 2.26242704 -0.84550103
v 0.02681730 2.27373509 -0.84550103
v 0.02681730 2.27373509 -0.84550103
v 0.02681730 2.27373509 -0.84550103
v 0.01951985 2.28295194 -0.84550103
v 0.01951985 2.28295194 -0.84550103
v 0.01951985 2.28295194 -0.84550103
v 0.00876223 2.28888451 -0.84550103
v 0.00876223 2.28888451 -0.84550103
v 0.00876223 2.28888451 -0.84550103
v 0.00339865 2.30204455 -0.64579986
v 0.00339865 2.30204455 -0.64579986
v 0.00339865 2.30204455 -0.64579986
v 0.00339865 2.30204455 -0.64579986
v 0.00339865 2.30204455 -0.64579986
v 0.00339865 2.30204455 -0.64579986
v -0.01294981 2.30014489 -0.64579986
v -0.01294981 2.30014489 -0.64579986
v -0.01294981 2.30014489 -0.64579986
v -0.01294981 2.30014489 -0.64579986
v -0.01294981 2.30014489 -0.64579986
v -0.01294981 2.30014489 -0.64579986
v -0.02732678 2.29213320 -0.64579991
v -0.02732678 2.29213320 -0.64579991
v -0.02732678 2.29213320 -0.64579991
v -0.02732678 2.29213320 -0.64579991
v -0.02732678 2.29213320 -0.64579991
v -0.02732678 2.29213320 -0.64579991
v -0.03754350 2.27922964 -0.64579991
v -0.03754350 2.27922964 -0.64579991
v -0.03754350 2.27922964 -0.64579991
v -0.03754350 2.27922964 -0.64579991
v -0.04204456 2.26339863 -0.64579996
v -0.04204456 2.26339863 -0.64579996
v -0.04204456 2.26339863 -0.64579996
v -0.04204456 2.26339863 -0.64579996
v -0.04014461 2.24704986 -0.64579903
v -0.04014461 2.24704986 -0.64579903
v -0.04014461 2.24704986 -0.64579903
v -0.04014461 2.24704986 -0.64579903
v -0.04014461 2.24704986 -0.64579903
v -0.04014461 2.24704986 -0.64579903
v -0.03213258 2.23267258 -0.64580111
v -0.03213258 2.23267258 -0.64580111
v -0.03213258 2.23267258 -0.64580111
v -0.03213258 2.23267258 -0.64580111
v -0.03213258 2.23267258 -0.64580111
v -0.01922885 2.22245614 -0.64580111
v -0.01922885 2.22245614 -0.64580111
v -0.01922885 2.22245614 -0.64580111
v -0.01922885 2.22245614 -0.64580111
v -0.01922885 2.22245614 -0.64580111
v 0.00105741 2.21750317 -0.64580085
v 0.00105741 2.21750317 -0.64580085
v 0.00105741 2.21750317 -0.64580085
v 0.00105741 2.21750317 -0.64580085
v 0.00105741 2.21750317 -0.64580085
v 0.00105741 2.21750317 -0.64580085
v 0.02053369 2.22315355 -0.64580106
v 0.02053369 2.22315355 -0.64580106
v 0.02053369 2.22315355 -0.64580106
v 0.02053369 2.22315355 -0.64580106
v 0.02053369 2.22315355 -0.64580106
v 0.03592209 2.23726883 -0.64580340
v 0.03592209 2.23726883 -0.64580340
v 0.03592209 2.23726883 -0.64580340
v 0.03592209 2.23726883 -0.64580340
v 0.03592209 2.23726883 -0.64580340
v 0.04249695 2.26105616 -0.64579908
v 0.04249695 2.26105616 -0.64579908
v 0.04249695 2.26105616 -0.64579908
v 0.04249695 2.26105616 -0.64579908
v 0.04249695 2.26105616 -0.64579908
v 0.03474820 2.28448812 -0.64579913
v 0.03474820 2.28448812 -0.64579913
v 0.03474820 2.28448812 -0.64579913
v 0.03474820 2.28448812 -0.64579913
v 0.03474820 2.28448812 -0.64579913
v 0.03474820 2.28448812 -0.64579913
v 0.01922971 2.29754365 -0.64579986
v 0.01922971 2.29754365 -0.64579986
v 0.01922971 2.29754365 -0.64579986
v 0.01922971 2.29754365 -0.64579986
v 0.01922971 2.29754365 -0.64579986
v 0.01922971 2.29754365 -0.64579986
v -0.00339859 2.30204455 -0.69520246
v -0.00339859 2.30204455 -0.69520246
v -0.00339859 2.30204455 -0.69520246
v -0.00339859 2.30204455 -0.69520246
v -0.00339859 2.30204455 -0.69520246
v -0.00339859 2.30204455 -0.69520246
v -0.01922965 2.29754365 -0.69520246
v -0.01922965 2.29754365 -0.69520246
v -0.01922965 2.29754365 -0.69520246
v -0.01922965 2.29754365 -0.69520246
v -0.01922965 2.29754365 -0.69520246
v -0.01922965 2.29754365 -0.69520246
v -0.03474813 2.28448812 -0.69520319
v -0.03474813 2.28448812 -0.69520319
v -0.03474813 2.28448812 -0.69520319
v -0.03474813 2.28448812 -0.69520319
v -0.03474813 2.28448812 -0.69520319
v -0.03474813 2.28448812 -0.69520319
v -0.04249686 2.26105616 -0.69520319
v -0.04249686 2.26105616 -0.69520319
v -0.04249686 2.26105616 -0.69520319
v -0.04249686 2.26105616 -0.69520319
v -0.04249686 2.26105616 -0.69520319
v -0.04249686 2.26105616 -0.69520319
v -0.03592199 2.23726883 -0.69519897
v -0.03592199 2.23726883 -0.69519897
v -0.03592199 2.23726883 -0.69519897
v -0.03592199 2.23726883 -0.69519897
v -0.03592199 2.23726883 -0.69519897
v -0.03592199 2.23726883 -0.69519897
v -0.02053356 2.22315355 -0.69520126
v -0.02053356 2.22315355 -0.69520126
v -0.02053356 2.22315355 -0.69520126
v -0.02053356 2.22315355 -0.69520126
v -0.02053356 2.22315355 -0.69520126
v -0.00486996 2.21810044 -0.69520121
v -0.00486996 2.21810044 -0.69520121
v -0.00486996 2.21810044 -0.69520121
v -0.00486996 2.21810044 -0.69520121
v 0.01528606 2.22033341 -0.69520152
v 0.01528606 2.22033341 -0.69520152
v 0.01528606 2.22033341 -0.69520152
v 0.01528606 2.22033341 -0.69520152
v 0.01528606 2.22033341 -0.69520152
v 0.01528606 2.22033341 -0.69520152
v 0.03474800 2.23551156 -0.69520506
v 0.03474800 2.23551156 -0.69520506
v 0.03474800 2.23551156 -0.69520506
v 0.03474800 2.23551156 -0.69520506
v 0.03474800 2.23551156 -0.69520506
v 0.04249699 2.25894394 -0.69520313
v 0.04249699 2.25894394 -0.69520313
v 0.04249699 2.25894394 -0.69520313
v 0.04249699 2.25894394 -0.69520313
v 0.04249699 2.25894394 -0.69520313
v 0.03754357 2.27922985 -0.69520241
v 0.03754357 2.27922985 -0.69520241
v 0.03754357 2.27922985 -0.69520241
v 0.03754357 2.27922985 -0.69520241
v 0.02732686 2.29213320 -0.69520241
v 0.02732686 2.29213320 -0.69520241
v 0.02732686 2.29213320 -0.69520241
v 0.02732686 2.29213320 -0.69520241
v 0.02732686 2.29213320 -0.69520241
v 0.01294987 2.30014489 -0.69520241
v 0.01294987 2.30014489 -0.69520241
v 0.01294987 2.30014489 -0.69520241
v 0.01294987 2.30014489 -0.69520241
v 0.01294987 2.30014489 -0.69520241
v 0.02000002 2.23000004 -0.89550132
v 0.02000002 2.23000004 -0.89550132
v 0.02000002 2.23000004 -0.89550132
v 0.02000000 2.28999995 -0.89550132
v 0.02000000 2.28999995 -0.89550132
v 0.02000000 2.28999995 -0.89550132
v 0.01999998 2.23000004 -0.84550129
v 0.01999998 2.23000004 -0.84550129
v 0.01999998 2.23000004 -0.84550129
v 0.01999996 2.28999995 -0.84550129
v 0.01999996 2.28999995 -0.84550129
v 0.01999996 2.28999995 -0.84550129
v -0.02000000 2.23000004 -0.89550132
v -0.02000000 2.23000004 -0.89550132
v -0.02000000 2.23000004 -0.89550132
v -0.02000003 2.28999995 -0.89550132
v -0.02000003 2.28999995 -0.89550132
v -0.02000003 2.28999995 -0.89550132
v -0.02000005 2.23000004 -0.84550135
v -0.02000005 2.23000004 -0.84550135
v -0.02000005 2.23000004 -0.84550135
v -0.02000007 2.28999995 -0.84550135
v -0.02000007 2.28999995 -0.84550135
v -0.02000007 2.28999995 -0.84550135
v 0.01999998 2.34000014 -0.89550132
v 0.01999998 2.34000014 -0.89550132
v 0.01999994 2.34000014 -0.84550129
v 0.01999994 2.34000014 -0.84550129
v -0.02000005 2.33999993 -0.89550132
v -0.02000005 2.33999993 -0.89550132
v -0.02000009 2.33999993 -0.84550135
v -0.02000009 2.33999993 -0.84550135
v 0.02000004 2.18000006 -0.89550132
v 0.02000004 2.18000006 -0.89550132
v 0.02000000 2.18000006 -0.84550129
v 0.02000000 2.18000006 -0.84550129
v -0.01999999 2.17999996 -0.89550132
v -0.01999999 2.17999996 -0.89550132
v -0.02000003 2.17999996 -0.84550135
v -0.02000003 2.17999996 -0.84550135
v 0.03000000 2.28999995 -0.89550132
v 0.03000000 2.28999995 -0.89550132
v 0.03000000 2.28999995 -0.89550132
v 0.02999996 2.28999995 -0.84550129
v 0.02999996 2.28999995 -0.84550129
v 0.02999996 2.28999995 -0.84550129
v 0.02999998 2.34000014 -0.89550132
v 0.02999998 2.34000014 -0.89550132
v 0.02999998 2.34000014 -0.89550132
v 0.02999994 2.34000014 -0.84550129
v 0.02999994 2.34000014 -0.84550129
v 0.02999994 2.34000014 -0.84550129
v -0.03000007 2.28999995 -0.84550135
v -0.03000007 2.28999995 -0.84550135
v -0.03000007 2.28999995 -0.84550135
v -0.03000003 2.28999995 -0.89550132
v -0.03000003 2.28999995 -0.89550132
v -0.03000003 2.28999995 -0.89550132
v -0.03000009 2.33999993 -0.84550135
v -0.03000009 2.33999993 -0.84550135
v -0.03000009 2.33999993 -0.84550135
v -0.03000005 2.33999993 -0.89550132
v -0.03000005 2.33999993 -0.89550132
v -0.03000005 2.33999993 -0.89550132
v 0.02999998 2.23000004 -0.84550129
v 0.02999998 2.23000004 -0.84550129
v 0.02999998 2.23000004 -0.84550129
v 0.03000002 2.23000004 -0.89550132
v 0.03000002 2.23000004 -0.89550132
v 0.03000002 2.23000004 -0.89550132
v 0.03000000 2.18000006 -0.84550124
v 0.03000000 2.18000006 -0.84550124
v 0.03000000 2.18000006 -0.84550124
v 0.03000004 2.18000006 -0.89550132
v 0.03000004 2.18000006 -0.89550132
v 0.03000004 2.18000006 -0.89550132
v -0.03000001 2.23000004 -0.89550132
v -0.03000001 2.23000004 -0.89550132
v -0.03000001 2.23000004 -0.89550132
v -0.03000005 2.23000004 -0.84550135
v -0.03000005 2.23000004 -0.84550135
v -0.03000005 2.23000004 -0.84550135
v -0.02999999 2.17999996 -0.89550132
v -0.02999999 2.17999996 -0.89550132
v -0.02999999 2.17999996 -0.89550132
v -0.03000003 2.17999996 -0.84550135
v -0.03000003 2.17999996 -0.84550135
v -0.03000003 2.17999996 -0.84550135
v -0.05000010 2.20310008 -0.63250159
v -0.05000010 2.20310008 -0.63250159
v -0.05000012 2.26340008 -0.63250159
v -0.05000012 2.26340008 -0.63250159
v -0.03000006 2.20310008 -0.63250159
v -0.03000006 2.20310008 -0.63250159
v -0.03000006 2.20310008 -0.63250159
v -0.03000008 2.26340008 -0.63250159
v -0.03000008 2.26340008 -0.63250159
v -0.05000012 2.20310008 -0.53250158
v -0.05000012 2.20310008 -0.53250158
v -0.05000014 2.26340008 -0.53250163
v -0.05000014 2.26340008 -0.53250163
v -0.03000008 2.20310008 -0.53250158
v -0.03000008 2.20310008 -0.53250158
v -0.03000008 2.20310008 -0.53250158
v -0.03000011 2.26340008 -0.53250158
v -0.03000011 2.26340008 -0.53250158
v -0.05000013 2.28140015 -0.63250159
v -0.05000013 2.28140015 -0.63250159
v -0.05000013 2.28140015 -0.63250159
v -0.03000009 2.28140015 -0.63250159
v -0.03000009 2.28140015 -0.63250159
v -0.03000009 2.28140015 -0.63250159
v -0.05000015 2.28140015 -0.53250163
v -0.05000015 2.28140015 -0.53250163
v -0.05000015 2.28140015 -0.53250163
v -0.03000011 2.28140015 -0.53250163
v -0.03000011 2.28140015 -0.53250163
v -0.03000011 2.28140015 -0.53250163
v 0.03999986 2.36600024 -0.63250159
v 0.03999986 2.36600024 -0.63250159
v 0.03999986 2.36600024 -0.63250159
v 0.03999987 2.34800017 -0.63250159
v 0.03999987 2.34800017 -0.63250159
v 0.03999987 2.34800017 -0.63250159
v 0.03999985 2.36600024 -0.53250158
v 0.03999985 2.36600024 -0.53250158
v 0.03999985 2.36600024 -0.53250158
v 0.03999985 2.34800017 -0.53250158
v 0.03999985 2.34800017 -0.53250158
v 0.03999985 2.34800017 -0.53250158
v -0.05000009 2.18510001 -0.63250159
v -0.05000009 2.18510001 -0.63250159
v -0.05000009 2.18510001 -0.63250159
v -0.03000005 2.18510001 -0.63250159
v -0.03000005 2.18510001 -0.63250159
v -0.05000011 2.18510001 -0.53250163
v -0.05000011 2.18510001 -0.53250163
v -0.05000011 2.18510001 -0.53250163
v -0.03000008 2.18510001 -0.53250158
v -0.03000008 2.18510001 -0.53250158
v 0.03999995 2.20310008 -0.63250159
v 0.03999995 2.20310008 -0.63250159
v 0.03999995 2.20310008 -0.63250159
v 0.03999993 2.20310008 -0.53250158
v 0.03999993 2.20310008 -0.53250158
v 0.03999993 2.20310008 -0.53250158
v 0.03999996 2.18510011 -0.63250159
v 0.03999996 2.18510011 -0.63250159
v 0.03999994 2.18510011 -0.53250158
v 0.03999994 2.18510011 -0.53250158
v 0.04999992 2.20310008 -0.53250158
v 0.04999992 2.20310008 -0.53250158
v 0.04999995 2.20310008 -0.63250159
v 0.04999995 2.20310008 -0.63250159
v 0.04999993 2.18510011 -0.53250158
v 0.04999993 2.18510011 -0.53250158
v 0.04999993 2.18510011 -0.53250158
v 0.04999996 2.18510011 -0.63250159
v 0.04999996 2.18510011 -0.63250159
v 0.04999996 2.18510011 -0.63250159
v 0.03999990 2.28140015 -0.53250158
v 0.03999990 2.28140015 -0.53250158
v 0.03999990 2.28140015 -0.53250158
v 0.03999992 2.28140015 -0.63250159
v 0.03999992 2.28140015 -0.63250159
v 0.03999992 2.28140015 -0.63250159
v 0.04999989 2.28140015 -0.53250158
v 0.04999989 2.28140015 -0.53250158
v 0.04999989 2.28140015 -0.53250158
v 0.04999992 2.28140015 -0.63250159
v 0.04999992 2.28140015 -0.63250159
v 0.04999992 2.28140015 -0.63250159
v 0.09915182 2.21836952 -0.49609585
v 0.09915182 2.21836952 -0.49609585
v 0.09915182 2.21836952 -0.49609585
v 0.09369700 2.21996409 -0.49309969
v -0.09801059 2.20033781 -0.51358738
v -0.09801059 2.20033781 -0.51358738
v -0.09801059 2.20033781 -0.51358738
v -0.09416163 2.20488243 -0.51550193
v -0.09764739 2.21953492 -0.49496605
v -0.09764739 2.21953492 -0.49496605
v -0.09764739 2.21953492 -0.49496605
v -0.10089225 2.20850886 -0.50594610
v -0.09417694 2.30435038 -0.49532277
v 0.09883906 2.30456085 -0.51342620
v 0.09883906 2.30456085 -0.51342620
v 0.09431187 2.30469971 -0.49532672
v 0.09431187 2.30469971 -0.49532672
v 0.09917081 2.30575248 -0.49778692
v -0.09896934 2.30532030 -0.51304111
v -0.09896934 2.30532030 -0.51304111
v -0.09920319 2.30569086 -0.49784261
v -0.09920319 2.30569086 -0.49784261
v 0.09666922 2.39644815 -0.42699374
v 0.09666922 2.39644815 -0.42699374
v 0.09666922 2.39644815 -0.42699374
v 0.09892173 2.38168719 -0.42713822
v 0.09892173 2.38168719 -0.42713822
v -0.09632523 2.39660887 -0.42686665
v -0.09632523 2.39660887 -0.42686665
v -0.09632523 2.39660887 -0.42686665
v -0.09904415 2.38139928 -0.42725720
v -0.09904415 2.38139928 -0.42725720
v 0.09415992 2.20487400 -0.51550214
v 0.09755601 2.20008893 -0.51268705
v 0.09755601 2.20008893 -0.51268705
v 0.09755601 2.20008893 -0.51268705
v 0.10012329 2.20521469 -0.50927889
v 0.10012329 2.20521469 -0.50927889
v 0.09724750 2.21784063 -0.42679805
v 0.09724750 2.21784063 -0.42679805
v 0.09724750 2.21784063 -0.42679805
v 0.09881567 2.19888241 -0.45561855
v 0.09881567 2.19888241 -0.45561855
v 0.09881567 2.19888241 -0.45561855
v -0.09881250 2.19887439 -0.45562656
v -0.09881250 2.19887439 -0.45562656
v -0.09881250 2.19887439 -0.45562656
v -0.10017580 2.21259975 -0.43188925
v -0.10017580 2.21259975 -0.43188925
v -0.09784510 2.21766857 -0.42737950
v -0.09784510 2.21766857 -0.42737950
v -0.09784510 2.21766857 -0.42737950
v 0.10017565 2.21260995 -0.43188988
v -0.09785891 2.15114121 -0.45363457
v -0.09785891 2.15114121 -0.45363457
v -0.09785891 2.15114121 -0.45363457
v 0.09807097 2.15092896 -0.45328805
v 0.09807097 2.15092896 -0.45328805
v 0.09807097 2.15092896 -0.45328805
v -0.09769245 2.15120543 -0.42671124
v -0.09769245 2.15120543 -0.42671124
v -0.09769245 2.15120543 -0.42671124
v 0.09805936 2.15129068 -0.42725537
v 0.09805936 2.15129068 -0.42725537
v 0.09805936 2.15129068 -0.42725537
vt 0.81680542 0.71317929
vt 0.81680542 0.71317929
vt 0.54347032 0.38405663
vt 0.99907112 0.39676815
vt 0.99907112 0.39676815
vt 0.54347032 0.76795918
vt 0.97670627 0.22611493
vt 0.81658536 0.76283407
vt 0.58850175 0.43123651
vt 0.97670627 0.54253232
vt 0.99895865 0.44631612
vt 0.58850175 0.74769002
vt 0.81665504 0.66353106
vt 0.49843878 0.38410324
vt 0.06023771 0.94186878
vt 0.99895865 0.34712052
vt 0.49843878 0.76800579
vt 0.59652239 0.60210818
vt 0.81658530 0.64052337
vt 0.47757050 0.38412488
vt 0.97791374 0.22611350
vt 0.81779647 0.76283044
vt 0.47757050 0.04898447
vt 0.54347032 0.74773663
vt 0.06023771 0.92164660
vt 0.40472877 0.86893648
vt 0.49843878 0.74778324
vt 0.59652239 0.96578091
vt 0.40472877 0.84592897
vt 0.47757047 0.74780488
vt 0.81801659 0.71317559
vt 0.81801659 0.71317559
vt 0.52604675 0.00111455
vt 0.52604675 0.36388469
vt 0.99786001 0.39677095
vt 0.99786001 0.39677095
vt 0.52604675 0.38405663
vt 0.97791374 0.54253089
vt 0.99774754 0.44631892
vt 0.47757050 0.36464626
vt 0.05913735 0.92164999
vt 0.40351766 0.86893660
vt 0.57452303 0.36312306
vt 0.05913734 0.94187218
vt 0.99774754 0.34712327
vt 0.57452303 0.38329500
vt 0.81786615 0.66352737
vt 0.57452303 0.00035298
vt 0.59542197 0.60211158
vt 0.81779647 0.64051968
vt 0.59698766 0.00000000
vt 0.59542197 0.96578425
vt 0.40351766 0.84592903
vt 0.59698766 0.36277008
vt 0.47669023 0.23864186
vt 0.59597099 0.51090413
vt 0.84151328 0.00011760
vt 0.47669026 0.54863477
vt 0.59693849 0.52906823
vt 0.84151328 0.31011671
vt 0.46656775 0.38138187
vt 0.46656775 0.38138187
vt 0.86347985 0.14298505
vt 0.46656781 0.40560007
vt 0.46656781 0.40560007
vt 0.86347985 0.16720372
vt 0.59596962 0.50714970
vt 0.59596962 0.50714970
vt 0.83810848 0.00000000
vt 0.59693944 0.52531427
vt 0.59693944 0.52531427
vt 0.83810848 0.30999911
vt 0.97887981 0.22611350
vt 0.59597099 0.50484949
vt 0.83602166 0.00012326
vt 0.97887981 0.53607726
vt 0.59693849 0.52301353
vt 0.83602166 0.31012237
vt 0.47757050 0.23863918
vt 0.59693980 0.51090407
vt 0.80055130 0.00017840
vt 0.47757050 0.54863209
vt 0.59596956 0.52906823
vt 0.80055130 0.30940187
vt 0.46744806 0.38137913
vt 0.46744806 0.38137913
vt 0.77690440 0.14308262
vt 0.46744809 0.40559733
vt 0.46744809 0.40559733
vt 0.77690440 0.16724068
vt 0.59693849 0.50714964
vt 0.59693849 0.50714964
vt 0.80421656 0.00000000
vt 0.59597051 0.52531427
vt 0.59597051 0.52531427
vt 0.80421662 0.30922353
vt 0.97791386 0.22611463
vt 0.59693980 0.50484949
vt 0.80646306 0.00008553
vt 0.97791386 0.53607845
vt 0.59596956 0.52301353
vt 0.80646306 0.30930901
vt 0.94647795 0.81888241
vt 0.97240609 0.02117509
vt 0.97240609 0.02117509
vt 0.45345503 0.96012157
vt 0.97251886 0.00422210
vt 0.45345503 0.96012157
vt 0.45345503 0.96012157
vt 0.97251886 0.00422210
vt 0.94770324 0.81844038
vt 0.97377992 0.02117574
vt 0.97377992 0.02117574
vt 0.45453852 0.96084911
vt 0.45453852 0.96084911
vt 0.45453852 0.96084911
vt 0.97387880 0.00422299
vt 0.97387880 0.00422299
vt 0.94904333 0.81853205
vt 0.97490603 0.02117908
vt 0.60747987 0.97635233
vt 0.95056623 0.81933028
vt 0.60897553 0.97654313
vt 0.60897553 0.97654313
vt 0.60897553 0.97654313
vt 0.45540479 0.96233022
vt 0.45540479 0.96233022
vt 0.45540479 0.96233022
vt 0.97522354 0.00422788
vt 0.60776520 0.95987594
vt 0.60776520 0.95987594
vt 0.95173633 0.82111520
vt 0.61111063 0.97653145
vt 0.61111063 0.97653145
vt 0.61111063 0.97653145
vt 0.45539051 0.96445000
vt 0.45539051 0.96445000
vt 0.45539051 0.96445000
vt 0.60977733 0.96002001
vt 0.60977733 0.96002001
vt 0.60977733 0.96002001
vt 0.45453843 0.96597111
vt 0.45453843 0.96597111
vt 0.45453843 0.96597111
vt 0.61149281 0.95993209
vt 0.61149281 0.95993209
vt 0.95184237 0.82286471
vt 0.96223867 0.22609913
vt 0.61264050 0.97631586
vt 0.45345491 0.96681380
vt 0.45345491 0.96681380
vt 0.45345491 0.96681380
vt 0.96233684 0.20914614
vt 0.61264050 0.95974404
vt 0.95133299 0.82415414
vt 0.96353590 0.22609925
vt 0.96353590 0.22609925
vt 0.94981521 0.82536471
vt 0.96567178 0.22609925
vt 0.96567178 0.22609925
vt 0.96567178 0.22609925
vt 0.96567178 0.22609925
vt 0.45182234 0.96718419
vt 0.96396852 0.20914650
vt 0.45182234 0.96718419
vt 0.45182234 0.96718419
vt 0.96396852 0.20914650
vt 0.96396852 0.20914650
vt 0.45032150 0.96664572
vt 0.45032150 0.96664572
vt 0.45032150 0.96664572
vt 0.96571767 0.20914602
vt 0.96571767 0.20914602
vt 0.94787103 0.82536024
vt 0.96738577 0.22609913
vt 0.53842139 0.95770639
vt 0.53842139 0.95770639
vt 0.44940001 0.96569544
vt 0.44940001 0.96569544
vt 0.44940001 0.96569544
vt 0.96696675 0.20914614
vt 0.96696675 0.20914614
vt 0.53848052 0.97291070
vt 0.94634813 0.82456195
vt 0.53685468 0.95800859
vt 0.53685468 0.95800859
vt 0.53685468 0.95800859
vt 0.44890130 0.96441627
vt 0.44890130 0.96441627
vt 0.53735363 0.97325557
vt 0.53735363 0.97325557
vt 0.53735363 0.97325557
vt 0.44890139 0.96300310
vt 0.44890139 0.96300310
vt 0.53597957 0.97338617
vt 0.53597957 0.97338617
vt 0.94517803 0.82277703
vt 0.53472787 0.95789045
vt 0.53472787 0.95789045
vt 0.44959098 0.96133679
vt 0.44959098 0.96133679
vt 0.44959098 0.96133679
vt 0.53419811 0.97322613
vt 0.53419811 0.97322613
vt 0.94517803 0.82038420
vt 0.97027266 0.02117908
vt 0.97027266 0.02117908
vt 0.53284252 0.95717496
vt 0.45089895 0.96025741
vt 0.45089895 0.96025741
vt 0.45089895 0.96025741
vt 0.96984100 0.00422835
vt 0.53284252 0.97273070
vt 0.45217699 0.95991379
vt 0.45217699 0.95991379
vt 0.45217699 0.95991379
vt 0.97110099 0.00422394
vt 0.97110099 0.00422394
vt 0.93243271 0.95405823
vt 0.93243271 0.95405823
vt 0.12931351 0.97594035
vt 0.12931351 0.97594035
vt 0.93243271 0.95405823
vt 0.12931351 0.97594035
vt 0.93082547 0.95474869
vt 0.93082547 0.95474869
vt 0.93082547 0.95474869
vt 0.13106301 0.97595048
vt 0.13106301 0.97595048
vt 0.92965764 0.95612270
vt 0.92965764 0.95612270
vt 0.92965764 0.95612270
vt 0.13261728 0.97596335
vt 0.49937117 0.96676648
vt 0.92934662 0.95823413
vt 0.92934662 0.95823413
vt 0.92934662 0.95823413
vt 0.50120252 0.96701568
vt 0.50120252 0.96701568
vt 0.93025786 0.96016401
vt 0.93025786 0.96016401
vt 0.93025786 0.96016401
vt 0.50333506 0.96700656
vt 0.50333506 0.96700656
vt 0.50333506 0.96700656
vt 0.93172437 0.96112108
vt 0.93172437 0.96112108
vt 0.93172437 0.96112108
vt 0.01468942 0.95455080
vt 0.01468942 0.95455080
vt 0.50478202 0.96680152
vt 0.93351316 0.96133232
vt 0.01305815 0.95451468
vt 0.93351316 0.96133232
vt 0.93351316 0.96133232
vt 0.01305815 0.95451468
vt 0.01305815 0.95451468
vt 0.93512034 0.96064186
vt 0.93512034 0.96064186
vt 0.01130952 0.95447600
vt 0.01130952 0.95447600
vt 0.93628812 0.95926785
vt 0.93628812 0.95926785
vt 0.93628812 0.95926785
vt 0.00975864 0.95444167
vt 0.76597863 0.95030862
vt 0.76597863 0.95030862
vt 0.93659914 0.95715642
vt 0.93659914 0.95715642
vt 0.93659914 0.95715642
vt 0.76406687 0.95070207
vt 0.76406687 0.95070207
vt 0.76406687 0.95070207
vt 0.93568790 0.95522660
vt 0.93568790 0.95522660
vt 0.93568790 0.95522660
vt 0.76194906 0.95057857
vt 0.76194906 0.95057857
vt 0.76194906 0.95057857
vt 0.93422145 0.95426953
vt 0.93422145 0.95426953
vt 0.12768443 0.97593546
vt 0.76058447 0.95010871
vt 0.77894115 0.37787753
vt 0.13075486 0.95778424
vt 0.13075486 0.95778424
vt 0.13075486 0.95778424
vt 0.77894831 0.37991786
vt 0.13258451 0.95779860
vt 0.49937117 0.94900244
vt 0.78012556 0.38169801
vt 0.50114560 0.94927067
vt 0.50114560 0.94927067
vt 0.78176779 0.38244981
vt 0.50295126 0.94929427
vt 0.50295126 0.94929427
vt 0.78318995 0.38244981
vt 0.01487886 0.97272354
vt 0.50426310 0.94918293
vt 0.50426310 0.94918293
vt 0.78478605 0.38173211
vt 0.01351823 0.97269338
vt 0.01351823 0.97269338
vt 0.01351823 0.97269338
vt 0.78597844 0.37996936
vt 0.01140188 0.97264653
vt 0.01140188 0.97264653
vt 0.01140188 0.97264653
vt 0.78604054 0.37816799
vt 0.00975864 0.97261029
vt 0.76622570 0.96661407
vt 0.78531730 0.37657118
vt 0.76485121 0.96706796
vt 0.76485121 0.96706796
vt 0.76485121 0.96706796
vt 0.78385246 0.37551415
vt 0.76306456 0.96717358
vt 0.76306456 0.96717358
vt 0.76306456 0.96717358
vt 0.78245670 0.37523693
vt 0.76169676 0.96700138
vt 0.76169676 0.96700138
vt 0.78106278 0.37551415
vt 0.12768443 0.95777190
vt 0.76058447 0.96662229
vt 0.77983332 0.37634444
vt 0.12897931 0.95777524
vt 0.12897931 0.95777524
vt 0.45310369 0.95851803
vt 0.45310369 0.95851803
vt 0.79911238 0.37900925
vt 0.79911238 0.37900925
vt 0.45310369 0.95851803
vt 0.79911238 0.37900925
vt 0.45478913 0.95918554
vt 0.45478913 0.95918554
vt 0.45478913 0.95918554
vt 0.79911005 0.38099134
vt 0.79911005 0.38099134
vt 0.79911005 0.38099134
vt 0.45607916 0.96051592
vt 0.45607916 0.96051592
vt 0.45607916 0.96051592
vt 0.79910427 0.38274300
vt 0.79910427 0.38274300
vt 0.25407743 0.96079004
vt 0.45677724 0.96230668
vt 0.45677724 0.96230668
vt 0.25381717 0.96226472
vt 0.25381717 0.96226472
vt 0.45677724 0.96428514
vt 0.45677724 0.96428514
vt 0.25370926 0.96413994
vt 0.25370926 0.96413994
vt 0.45607907 0.96615005
vt 0.45607907 0.96615005
vt 0.45607907 0.96615005
vt 0.25377002 0.96613032
vt 0.25377002 0.96613032
vt 0.25377002 0.96613032
vt 0.45478910 0.96761769
vt 0.45478910 0.96761769
vt 0.45478910 0.96761769
vt 0.88792861 0.30993319
vt 0.25399065 0.96793276
vt 0.45310363 0.96846431
vt 0.45310363 0.96846431
vt 0.45310363 0.96846431
vt 0.88792884 0.30838037
vt 0.88792884 0.30838037
vt 0.45079058 0.96849310
vt 0.45079058 0.96849310
vt 0.88792914 0.30592859
vt 0.88792914 0.30592859
vt 0.45079058 0.96849310
vt 0.88792914 0.30592859
vt 0.44888535 0.96730077
vt 0.44888535 0.96730077
vt 0.44888535 0.96730077
vt 0.88792926 0.30356485
vt 0.88792926 0.30356485
vt 0.44767267 0.96522731
vt 0.44767267 0.96522731
vt 0.44767267 0.96522731
vt 0.88792890 0.30168808
vt 0.34833169 0.96839958
vt 0.44769251 0.96225959
vt 0.44769251 0.96225959
vt 0.44769251 0.96225959
vt 0.34796607 0.96552122
vt 0.34796607 0.96552122
vt 0.44922900 0.95972329
vt 0.44922900 0.95972329
vt 0.44922900 0.95972329
vt 0.79910392 0.37523687
vt 0.34833169 0.96268159
vt 0.34833169 0.96268159
vt 0.45127937 0.95861495
vt 0.45127937 0.95861495
vt 0.45127937 0.95861495
vt 0.79911077 0.37709838
vt 0.79911077 0.37709838
vt 0.79911077 0.37709838
vt 0.93099225 0.95298892
vt 0.80509531 0.37983608
vt 0.93099225 0.95298892
vt 0.93099225 0.95298892
vt 0.80509531 0.37983608
vt 0.80509531 0.37983608
vt 0.92934805 0.95410699
vt 0.92934805 0.95410699
vt 0.92934805 0.95410699
vt 0.80509150 0.38175905
vt 0.80509150 0.38175905
vt 0.80509150 0.38175905
vt 0.92806399 0.95619684
vt 0.92806399 0.95619684
vt 0.92806399 0.95619684
vt 0.80508262 0.38365573
vt 0.25972781 0.96152866
vt 0.25972781 0.96152866
vt 0.92806399 0.95918530
vt 0.92806399 0.95918530
vt 0.92806399 0.95918530
vt 0.25953951 0.96429527
vt 0.25953951 0.96429527
vt 0.25953951 0.96429527
vt 0.92971951 0.96167135
vt 0.92971951 0.96167135
vt 0.92971951 0.96167135
vt 0.88194549 0.31038713
vt 0.25972781 0.96722251
vt 0.25972781 0.96722251
vt 0.93201870 0.96271086
vt 0.93201870 0.96271086
vt 0.93201870 0.96271086
vt 0.88194561 0.30853719
vt 0.88194561 0.30853719
vt 0.93400586 0.96269786
vt 0.88194585 0.30664527
vt 0.93400586 0.96269786
vt 0.88194585 0.30664527
vt 0.93623185 0.96167660
vt 0.93623185 0.96167660
vt 0.93623185 0.96167660
vt 0.88194597 0.30420244
vt 0.88194597 0.30420244
vt 0.88194597 0.30420244
vt 0.93788743 0.95919305
vt 0.93788743 0.95919305
vt 0.93788743 0.95919305
vt 0.88194549 0.30183136
vt 0.34296831 0.96867496
vt 0.93788749 0.95620453
vt 0.93788749 0.95620453
vt 0.93788749 0.95620453
vt 0.34254295 0.96583986
vt 0.34254295 0.96583986
vt 0.93655062 0.95405966
vt 0.93655062 0.95405966
vt 0.34276998 0.96338207
vt 0.34276998 0.96338207
vt 0.93489021 0.95296335
vt 0.93489021 0.95296335
vt 0.80509150 0.37612903
vt 0.80509150 0.37612903
vt 0.34327504 0.96181661
vt 0.93293840 0.95258737
vt 0.93293840 0.95258737
vt 0.80509531 0.37785912
vt 0.80509531 0.37785912
vt 0.80509531 0.37785912
vt 0.03844847 0.95982260
vt 0.71535629 0.96095508
vt 0.86309958 0.96794623
vt 0.03844847 0.95255780
vt 0.76622564 0.96011889
vt 0.86309958 0.96068060
vt 0.61442286 0.96140832
vt 0.71535629 0.96700972
vt 0.86859119 0.96794051
vt 0.61442286 0.95414287
vt 0.76622564 0.96617359
vt 0.86859119 0.96067494
vt 0.03361844 0.95982832
vt 0.35028625 0.96181667
vt 0.15655269 0.96800721
vt 0.03361844 0.95256352
vt 0.27762672 0.95978010
vt 0.15655269 0.96075976
vt 0.61882430 0.96139479
vt 0.35028625 0.96787125
vt 0.15064095 0.96810007
vt 0.61882430 0.95412934
vt 0.27762672 0.96583480
vt 0.15064095 0.96085268
vt 0.03844847 0.94650376
vt 0.96603954 0.39673275
vt 0.61442286 0.94808829
vt 0.95998377 0.39673245
vt 0.03361844 0.94650954
vt 0.96603954 0.40157622
vt 0.61882436 0.94807476
vt 0.95998377 0.40157592
vt 0.03844847 0.96587658
vt 0.13261752 0.96197087
vt 0.61442286 0.96746290
vt 0.13867339 0.96197087
vt 0.03361844 0.96588230
vt 0.13261752 0.96681446
vt 0.61882430 0.96744937
vt 0.13867339 0.96681446
vt 0.03965598 0.95255637
vt 0.76743674 0.96011889
vt 0.93739426 0.46994436
vt 0.61332256 0.95414627
vt 0.76743674 0.96617359
vt 0.94288588 0.46993876
vt 0.03965598 0.94650233
vt 0.96603954 0.39552188
vt 0.93739426 0.46388972
vt 0.61332256 0.94809169
vt 0.95998377 0.39552158
vt 0.94288588 0.46388400
vt 0.61992472 0.95412594
vt 0.27641559 0.96583480
vt 0.23924620 0.96836853
vt 0.03241094 0.95256495
vt 0.27641559 0.95978010
vt 0.24515794 0.96827567
vt 0.61992472 0.94807136
vt 0.95998377 0.40278673
vt 0.23924620 0.96232903
vt 0.03241094 0.94651097
vt 0.96603954 0.40278709
vt 0.24515794 0.96223611
vt 0.61332256 0.96141171
vt 0.71414512 0.96700978
vt 0.08303623 0.96294427
vt 0.03965598 0.95982116
vt 0.71414512 0.96095514
vt 0.07754458 0.96294993
vt 0.61332256 0.96746629
vt 0.13867339 0.96075994
vt 0.08303623 0.96899891
vt 0.03965598 0.96587509
vt 0.13261752 0.96075994
vt 0.07754457 0.96900457
vt 0.03241094 0.95982975
vt 0.35149732 0.96181661
vt 0.95523483 0.96209103
vt 0.61992472 0.96139139
vt 0.35149732 0.96787119
vt 0.94932306 0.96218389
vt 0.03241094 0.96588373
vt 0.13261752 0.96802539
vt 0.95523483 0.96813053
vt 0.61992472 0.96744597
vt 0.13867339 0.96802533
vt 0.94932306 0.96822345
vt 0.21651086 0.62001318
vt 0.27618524 0.94792348
vt 0.21651086 0.61271209
vt 0.26890099 0.94780904
vt 0.21892586 0.62001032
vt 0.74757576 0.94983804
vt 0.73909813 0.96082890
vt 0.21892588 0.61270922
vt 0.73179477 0.96082139
vt 0.44267604 0.96189064
vt 0.27618524 0.95974612
vt 0.44267604 0.95458883
vt 0.26890099 0.95963168
vt 0.44047529 0.96189743
vt 0.74757576 0.96194726
vt 0.73909813 0.94984782
vt 0.44047529 0.95459563
vt 0.73179477 0.94984025
vt 0.21651086 0.61053264
vt 0.31793362 0.94812220
vt 0.26672661 0.94777489
vt 0.21892588 0.61052978
vt 0.90638483 0.95066190
vt 0.72961468 0.96081913
vt 0.44267604 0.95240921
vt 0.31793362 0.96023142
vt 0.26672664 0.95959747
vt 0.44047529 0.95241600
vt 0.90638483 0.96277124
vt 0.72961468 0.94983798
vt 0.22737840 0.60027635
vt 0.95117015 0.41945601
vt 0.30691981 0.94807202
vt 0.22737840 0.60245579
vt 0.91492611 0.95066094
vt 0.95335025 0.41945827
vt 0.43277279 0.94219542
vt 0.95117015 0.40847486
vt 0.30691981 0.96018124
vt 0.43277279 0.94437504
vt 0.91492611 0.96277028
vt 0.95335025 0.40847707
vt 0.21651086 0.62219262
vt 0.91176236 0.68091190
vt 0.27835962 0.94795763
vt 0.21892586 0.62218976
vt 0.91418469 0.68091190
vt 0.44267604 0.96407026
vt 0.91176242 0.69302130
vt 0.27835962 0.95978028
vt 0.44047529 0.96407706
vt 0.91418469 0.69302130
vt 0.22737840 0.62000024
vt 0.73909807 0.94983852
vt 0.79828328 0.94835454
vt 0.43277279 0.96192116
vt 0.73909807 0.96194774
vt 0.79828328 0.96017712
vt 0.22737840 0.62217969
vt 0.92266268 0.68091190
vt 0.43277279 0.96410078
vt 0.92266273 0.69302130
vt 0.43167242 0.96192455
vt 0.61332250 0.95755297
vt 0.22858591 0.61999881
vt 0.60233915 0.95756429
vt 0.43167242 0.96410418
vt 0.92387384 0.69302130
vt 0.61332250 0.95973265
vt 0.22858591 0.62217826
vt 0.92387384 0.68091190
vt 0.60233915 0.95974398
vt 0.43277279 0.95243973
vt 0.96113336 0.69302106
vt 0.78882462 0.96002853
vt 0.22737840 0.61051971
vt 0.96113336 0.68091184
vt 0.78882462 0.94820595
vt 0.43167242 0.95244306
vt 0.95992225 0.69302112
vt 0.61332250 0.94807130
vt 0.22858591 0.61051828
vt 0.95992225 0.68091190
vt 0.60233915 0.94808269
vt 0.57057267 0.94909006
vt 0.64225942 0.94565552
vt 0.95499104 0.79461104
vt 0.95462716 0.79526830
vt 0.29954258 0.96938199
vt 0.59698772 0.92375612
vt 0.75784612 0.94896865
vt 0.59754217 0.92420268
vt 0.64225942 0.92406100
vt 0.75565159 0.94668972
vt 0.95478398 0.81843865
vt 0.75686592 0.94797277
vt 0.63198543 0.92432547
vt 0.56868136 0.93865556
vt 0.60964119 0.94752067
vt 0.57090038 0.93863702
vt 0.63180655 0.94506097
vt 0.57038200 0.93850881
vt 0.60970032 0.92364353
vt 0.75774306 0.93628091
vt 0.63182980 0.92364347
vt 0.75593990 0.93626428
vt 0.57828110 0.92751575
vt 0.62060952 0.94867009
vt 0.62060958 0.94807142
vt 0.57815087 0.92930275
vt 0.62239575 0.94892788
vt 0.62059742 0.92477304
vt 0.62072963 0.92744458
vt 0.74761242 0.92544687
vt 0.62257421 0.92714351
vt 0.74758911 0.92726058
vt 0.59757185 0.94693810
vt 0.29965064 0.94570106
vt 0.56883270 0.95130664
vt 0.59698772 0.94737470
vt 0.56907576 0.95068485
vt 0.59760261 0.94771665
vt 0.57828110 0.94914383
vt 0.68565947 0.96784770
vt 0.94659698 0.79481691
vt 0.28999257 0.94777489
vt 0.30656266 0.94554937
vt 0.57503647 0.95144361
vt 0.28999257 0.97163391
vt 0.30656266 0.96948016
vt 0.75097239 0.94925356
vt 0.68627691 0.94587195
vt 0.74812824 0.94763136
vt 0.68565947 0.94635528
vt 0.74765569 0.94704741
vt 0.94659698 0.81844032
vt 0.57757258 0.94977736
vt 0.29577696 0.97150713
vt 0.75076789 0.95503116
vt 0.97522378 0.02794713
vt 0.29580423 0.94784993
vt 0.57533258 0.95725030
vt 0.97525775 0.00422215
vt 0.69370860 0.94642270
vt 0.74758911 0.95507812
vt 0.97848469 0.02792579
vt 0.57819241 0.95720249
vt 0.69372010 0.96793067
vt 0.97841078 0.00422215
f 3/3 24/24 12/12
f 3/3 12/12 9/9
f 6/6 24/24 27/27
f 6/6 27/27 17/17
f 33/33 23/23 40/40
f 33/33 40/40 34/34
f 37/37 46/46 43/43
f 37/37 43/43 34/34
f 30/30 27/27 14/14
f 30/30 14/14 20/20
f 12/12 24/24 6/6
f 27/27 24/24 3/3
f 27/27 3/3 14/14
f 54/54 51/51 48/48
f 54/54 48/48 43/43
f 40/40 37/37 34/34
f 43/43 48/48 33/33
f 43/43 33/33 34/34
f 25/25 41/41 44/44
f 25/25 44/44 15/15
f 13/13 47/47 50/50
f 13/13 50/50 19/19
f 2/2 32/32 47/47
f 2/2 47/47 13/13
f 18/18 49/49 52/52
f 18/18 52/52 28/28
f 4/4 35/35 39/39
f 4/4 39/39 11/11
f 16/16 45/45 36/36
f 16/16 36/36 5/5
f 29/29 53/53 42/42
f 29/29 42/42 26/26
f 10/10 38/38 21/21
f 10/10 21/21 7/7
f 8/8 22/22 31/31
f 8/8 31/31 1/1
f 57/57 63/63 66/66
f 57/57 66/66 60/60
f 60/60 72/72 69/69
f 60/60 69/69 57/57
f 72/72 78/78 75/75
f 72/72 75/75 69/69
f 81/81 84/84 90/90
f 81/81 90/90 87/87
f 84/84 81/81 93/93
f 84/84 93/93 96/96
f 96/96 93/93 99/99
f 96/96 99/99 102/102
f 77/77 70/70 94/94
f 77/77 94/94 101/101
f 56/56 68/68 92/92
f 56/56 92/92 80/80
f 58/58 65/65 89/89
f 58/58 89/89 82/82
f 62/62 55/55 79/79
f 62/62 79/79 86/86
f 67/67 74/74 98/98
f 67/67 98/98 91/91
f 73/73 76/76 100/100
f 73/73 100/100 97/97
f 71/71 59/59 83/83
f 71/71 83/83 95/95
f 64/64 61/61 85/85
f 64/64 85/85 88/88
f 130/130 123/123 121/121
f 141/141 135/135 125/125
f 156/156 167/167 162/162
f 182/182 175/175 161/161
f 191/191 185/185 177/177
f 112/112 105/105 110/110
f 112/112 110/110 117/117
f 230/230 411/411 227/227
f 165/165 366/366 375/375
f 225/225 406/406 223/223
f 214/214 329/329 106/106
f 268/268 450/450 264/264
f 151/151 361/361 368/368
f 116/116 342/342 126/126
f 209/209 399/399 216/216
f 263/263 449/449 445/445
f 288/288 284/284 326/326
f 326/326 323/323 320/320
f 320/320 316/316 312/312
f 312/312 309/309 305/305
f 305/305 301/301 297/297
f 297/297 294/294 291/291
f 291/291 288/288 326/326
f 326/326 320/320 312/312
f 312/312 305/305 297/297
f 297/297 291/291 326/326
f 326/326 312/312 297/297
f 253/253 306/306 260/260
f 221/221 327/327 285/285
f 267/267 314/314 271/271
f 273/273 319/319 279/279
f 243/243 299/299 251/251
f 249/249 303/303 257/257
f 224/224 286/286 228/228
f 358/358 432/432 365/365
f 395/395 466/466 403/403
f 340/340 414/414 344/344
f 401/401 471/471 332/332
f 354/354 427/427 360/360
f 374/374 447/447 380/380
f 346/346 420/420 349/349
f 334/334 408/408 338/338
f 193/193 387/387 201/201
f 235/235 417/417 232/232
f 163/163 371/371 169/169
f 241/241 422/422 236/236
f 170/170 372/372 377/377
f 248/248 436/436 429/429
f 200/200 393/393 211/211
f 109/109 336/336 114/114
f 254/254 441/441 434/434
f 144/144 356/356 363/363
f 180/180 379/379 383/383
f 120/120 113/113 118/118
f 120/120 118/118 129/129
f 149/149 133/133 145/145
f 149/149 145/145 154/154
f 131/131 140/140 124/124
f 139/139 146/146 134/134
f 157/157 148/148 153/153
f 157/157 153/153 168/168
f 199/199 187/187 196/196
f 199/199 196/196 204/204
f 164/164 172/172 159/159
f 173/173 181/181 160/160
f 183/183 190/190 176/176
f 192/192 195/195 186/186
f 208/208 198/198 203/203
f 208/208 203/203 213/213
f 104/104 206/206 217/217
f 104/104 217/217 107/107
f 212/212 218/218 207/207
f 231/231 416/416 412/412
f 103/103 111/111 119/119
f 119/119 122/122 132/132
f 132/132 147/147 155/155
f 155/155 158/158 174/174
f 174/174 184/184 197/197
f 197/197 205/205 103/103
f 103/103 119/119 132/132
f 132/132 155/155 174/174
f 174/174 197/197 103/103
f 132/132 174/174 103/103
f 463/463 280/280 220/220
f 463/463 220/220 469/469
f 351/351 137/137 128/128
f 351/351 128/128 348/348
f 459/459 274/274 281/281
f 459/459 281/281 464/464
f 226/226 410/410 407/407
f 388/388 194/194 189/189
f 388/388 189/189 384/384
f 276/276 460/460 455/455
f 269/269 275/275 454/454
f 166/166 150/150 367/367
f 127/127 343/343 347/347
f 215/215 398/398 330/330
f 270/270 456/456 451/451
f 188/188 179/179 382/382
f 259/259 262/262 444/444
f 152/152 142/142 362/362
f 289/289 233/233 229/229
f 289/289 229/229 287/287
f 256/256 302/302 308/308
f 328/328 222/222 282/282
f 328/328 282/282 324/324
f 310/310 265/265 261/261
f 310/310 261/261 307/307
f 292/292 238/238 234/234
f 292/292 234/234 290/290
f 296/296 245/245 239/239
f 296/296 239/239 293/293
f 266/266 311/311 313/313
f 325/325 283/283 277/277
f 325/325 277/277 321/321
f 272/272 315/315 318/318
f 244/244 295/295 300/300
f 278/278 317/317 322/322
f 250/250 298/298 304/304
f 442/442 376/376 369/369
f 442/442 369/369 437/437
f 452/452 385/385 381/381
f 452/452 381/381 448/448
f 339/339 409/409 413/413
f 425/425 353/353 350/350
f 425/425 350/350 421/421
f 462/462 397/397 391/391
f 462/462 391/391 458/458
f 402/402 465/465 472/472
f 373/373 440/440 446/446
f 438/438 370/370 364/364
f 438/438 364/364 431/431
f 345/345 415/415 419/419
f 457/457 390/390 386/386
f 457/457 386/386 453/453
f 443/443 439/439 252/252
f 443/443 252/252 258/258
f 331/331 470/470 405/405
f 359/359 426/426 433/433
f 396/396 461/461 467/467
f 219/219 404/404 468/468
f 237/237 423/423 418/418
f 202/202 389/389 394/394
f 138/138 352/352 357/357
f 242/242 430/430 424/424
f 108/108 333/333 335/335
f 240/240 247/247 428/428
f 143/143 136/136 355/355
f 178/178 171/171 378/378
f 246/246 255/255 435/435
f 210/210 392/392 400/400
f 115/115 337/337 341/341
f 475/475 478/478 484/484
f 475/475 484/484 481/481
f 479/479 482/482 494/494
f 479/479 494/494 491/491
f 493/493 496/496 490/490
f 493/493 490/490 487/487
f 485/485 488/488 476/476
f 485/485 476/476 473/473
f 485/485 473/473 505/505
f 485/485 505/505 509/509
f 494/494 503/503 531/531
f 494/494 531/531 525/525
f 504/504 500/500 498/498
f 504/504 498/498 502/502
f 498/498 500/500 523/523
f 498/498 523/523 520/520
f 476/476 488/488 501/501
f 476/476 501/501 497/497
f 494/494 482/482 499/499
f 494/494 499/499 503/503
f 508/508 512/512 510/510
f 508/508 510/510 506/506
f 479/479 491/491 511/511
f 479/479 511/511 507/507
f 479/479 507/507 543/543
f 479/479 543/543 537/537
f 485/485 509/509 555/555
f 485/485 555/555 549/549
f 518/518 515/515 521/521
f 518/518 521/521 524/524
f 499/499 482/482 516/516
f 499/499 516/516 522/522
f 483/483 477/477 514/514
f 483/483 514/514 517/517
f 476/476 497/497 519/519
f 476/476 519/519 513/513
f 530/530 527/527 533/533
f 530/530 533/533 536/536
f 504/504 502/502 535/535
f 504/504 535/535 532/532
f 489/489 495/495 526/526
f 489/489 526/526 529/529
f 501/501 488/488 528/528
f 501/501 528/528 534/534
f 542/542 539/539 545/545
f 542/542 545/545 548/548
f 505/505 473/473 540/540
f 505/505 540/540 546/546
f 474/474 480/480 538/538
f 474/474 538/538 541/541
f 508/508 506/506 547/547
f 508/508 547/547 544/544
f 554/554 551/551 557/557
f 554/554 557/557 560/560
f 511/511 491/491 552/552
f 511/511 552/552 558/558
f 510/510 512/512 559/559
f 510/510 559/559 556/556
f 492/492 486/486 550/550
f 492/492 550/550 553/553
f 561/561 563/563 568/568
f 561/561 568/568 565/565
f 567/567 569/569 578/578
f 567/567 578/578 576/576
f 574/574 577/577 572/572
f 574/574 572/572 570/570
f 571/571 573/573 564/564
f 571/571 564/564 562/562
f 571/571 562/562 605/605
f 571/571 605/605 610/610
f 578/578 569/569 584/584
f 578/578 584/584 590/590
f 585/585 588/588 600/600
f 585/585 600/600 597/597
f 572/572 577/577 588/588
f 572/572 588/588 585/585
f 568/568 563/563 579/579
f 568/568 579/579 582/582
f 564/564 573/573 587/587
f 564/564 587/587 581/581
f 602/602 596/596 592/592
f 602/602 592/592 598/598
f 582/582 579/579 591/591
f 582/582 591/591 594/594
f 580/580 586/586 599/599
f 580/580 599/599 593/593
f 589/589 583/583 595/595
f 589/589 595/595 601/601
f 607/607 612/612 609/609
f 607/607 609/609 604/604
f 574/574 611/611 621/621
f 574/574 621/621 616/616
f 561/561 565/565 606/606
f 561/561 606/606 603/603
f 574/574 570/570 608/608
f 574/574 608/608 611/611
f 616/616 621/621 627/627
f 616/616 627/627 623/623
f 566/566 575/575 617/617
f 566/566 617/617 614/614
f 606/606 565/565 613/613
f 606/606 613/613 619/619
f 612/612 607/607 620/620
f 612/612 620/620 622/622
f 626/626 624/624 629/629
f 626/626 629/629 632/632
f 616/616 623/623 639/639
f 616/616 639/639 633/633
f 619/619 613/613 625/625
f 619/619 625/625 630/630
f 622/622 620/620 631/631
f 622/622 631/631 628/628
f 637/637 634/634 640/640
f 637/637 640/640 643/643
f 615/615 618/618 635/635
f 615/615 635/635 638/638
f 625/625 613/613 636/636
f 625/625 636/636 642/642
f 624/624 626/626 644/644
f 624/624 644/644 641/641
f 658/658 670/670 662/662
f 704/704 708/708 684/684
f 645/645 662/662 660/660
f 653/653 657/657 665/665
f 675/675 665/665 657/657
f 664/664 676/676 674/674
f 680/680 677/677 659/659
f 691/691 656/656 651/651
f 645/645 683/683 697/697
f 704/704 694/694 692/692
f 673/673 675/675 671/671
f 673/673 671/671 668/668
f 659/659 677/677 652/652
f 659/659 652/652 663/663
f 656/656 691/691 693/693
f 653/653 646/646 661/661
f 653/653 661/661 657/657
f 669/669 659/659 663/663
f 669/669 663/663 672/672
f 675/675 657/657 661/661
f 675/675 661/661 671/671
f 687/687 690/690 649/649
f 687/687 649/649 678/678
f 664/664 666/666 676/676
f 645/645 681/681 658/658
f 645/645 658/658 662/662
f 698/698 689/689 686/686
f 698/698 686/686 701/701
f 666/666 664/664 656/656
f 688/688 681/681 645/645
f 688/688 645/645 697/697
f 705/705 693/693 691/691
f 705/705 691/691 699/699
f 706/706 700/700 703/703
f 706/706 703/703 709/709
f 702/702 688/688 697/697
f 702/702 697/697 707/707
f 677/677 680/680 650/650
f 677/677 650/650 652/652
f 694/694 704/704 684/684
f 648/648 647/647 655/655
f 656/656 654/654 666/666
f 651/651 656/656 664/664
f 652/652 650/650 663/663
f 658/658 667/667 670/670
f 670/670 660/660 662/662
f 656/656 693/693 695/695
f 656/656 695/695 654/654
f 682/682 680/680 659/659
f 685/685 647/647 648/648
f 688/688 679/679 681/681
f 697/697 683/683 707/707
f 685/685 648/648 655/655
f 685/685 655/655 696/696

