# Rover separado para OpenGL
# Punto de giro original: 4.236000 8.538000 -1.100000
mtllib RoverSeparado.mtl
o Brazo_02_Central
v 0.127567 -0.126543 0.539998
v 0.000517 -0.179812 0.539998
v -0.126989 -0.127640 0.539998
v -0.180258 -0.000589 0.539998
v -0.128086 0.126915 0.539998
v -0.001036 0.180184 0.539998
v 0.126470 0.128013 0.539998
v 0.179739 0.000963 0.539998
v 0.127567 -0.126543 0.472958
v 0.127567 -0.126543 0.331838
v 0.000517 -0.179812 0.472958
v 0.000517 -0.179812 0.331838
v -0.126989 -0.127640 0.331838
v -0.126989 -0.127640 0.472958
v -0.180258 -0.000589 0.331838
v -0.180258 -0.000589 0.472958
v -0.128086 0.126915 0.472958
v -0.128086 0.126915 0.331838
v -0.001036 0.180184 0.472958
v -0.001036 0.180184 0.331838
v 0.126470 0.128013 0.331838
v 0.126470 0.128013 0.472958
v 0.179739 0.000963 0.331838
v 0.179739 0.000963 0.472958
v -0.128086 0.126915 0.299998
v -0.126989 -0.127640 0.299998
v 0.000517 -0.179812 0.299998
v -0.180258 -0.000589 0.299998
v -0.001036 0.180184 0.299998
v 0.127567 -0.126543 0.299998
v 0.126470 0.128013 0.299998
v 0.179739 0.000963 0.299998
v -2.310022 2.523472 -0.064596
v -2.242935 2.592325 -0.056932
v -2.245047 2.588270 -0.002026
v -2.293491 2.538082 0.006153
v -2.335611 2.493518 0.040397
v -2.364993 2.461363 0.095491
v -2.377165 2.446512 0.163047
v -2.370274 2.451225 0.232782
v -2.345368 2.474786 0.294078
v -2.306240 2.513608 0.337603
v -2.258846 2.561780 0.356732
v -2.210402 2.611968 0.348552
v -2.168283 2.656532 0.314309
v -2.138900 2.688687 0.259215
v -2.126728 2.703538 0.191658
v -2.133620 2.698824 0.121924
v -2.158525 2.675264 0.060628
v -2.197654 2.636441 0.017102
v -2.366895 2.465102 -0.071094
v -2.410211 2.415897 0.062746
v -2.427252 2.395105 0.157325
v -2.417605 2.401705 0.254953
v -2.384918 2.430504 0.397476
v -2.328045 2.488874 0.403973
v -2.260958 2.557725 0.411638
v -2.193872 2.626577 0.419302
v -2.136998 2.684947 0.425799
v -2.093682 2.734151 0.291960
v -2.076640 2.754943 0.197381
v -2.086289 2.748344 0.099752
v -2.118976 2.719545 -0.042770
v -2.175849 2.661176 -0.049268
v -2.341354 2.935400 -0.035385
v -2.398228 2.877030 -0.041883
v -2.465314 2.808179 -0.049547
v -2.308667 2.964198 0.107137
v -2.299019 2.970798 0.204766
v -2.316060 2.950007 0.299345
v -2.359377 2.900802 0.433185
v -2.416250 2.842432 0.426687
v -2.483337 2.773580 0.419023
v -2.550423 2.704728 0.411358
v -2.607297 2.646359 0.404861
v -2.639983 2.617560 0.262338
v -2.649631 2.610960 0.164710
v -2.632590 2.631752 0.070131
v -2.589274 2.680957 -0.063709
v -2.532401 2.739327 -0.057211
v -2.579596 2.688957 0.008596
v -2.356986 2.917425 0.034028
v -2.576836 2.694255 -0.063156
v -2.354226 2.922724 -0.037724
v -2.594928 2.659523 0.407217
v -2.372318 2.887992 0.432649
v -2.592168 2.664822 0.335465
v -2.369558 2.893290 0.360897
v -2.839401 2.949117 -0.054436
v -2.841873 3.109858 -0.042663
v -2.873992 3.029070 -0.049863
v -2.777844 3.175573 -0.035348
v -2.616791 3.177585 -0.029004
v -2.697830 3.209869 -0.029737
v -2.844633 3.104560 0.029089
v -2.842161 2.943818 0.017315
v -2.876752 3.023771 0.021888
v -2.619550 3.172287 0.042747
v -2.780604 3.170274 0.036404
v -2.700589 3.204571 0.042014
v -2.854733 2.919683 0.344184
v -2.857205 3.080424 0.355958
v -2.889324 2.999637 0.348758
v -2.793176 3.146138 0.363273
v -2.632123 3.148152 0.369617
v -2.713162 3.180435 0.368883
v -2.859965 3.075127 0.427710
v -2.857493 2.914385 0.415936
v -2.892084 2.994339 0.420509
v -2.634883 3.142853 0.441368
v -2.795936 3.140841 0.435025
v -2.715921 3.175138 0.440635
v 0.753960 0.023625 -0.169327
v 0.748551 0.013241 -0.028694
v 0.417374 -0.321819 -0.207781
v 0.411965 -0.332204 -0.067147
v 0.401858 -0.351606 0.195624
v 0.396449 -0.361990 0.336257
v 0.738444 -0.006162 0.234077
v 0.733035 -0.016546 0.374710
v 0.490655 -0.056872 -0.185399
v 0.427171 -0.154740 -0.195067
v 0.586901 0.009194 -0.176818
v 0.406116 -0.269510 -0.204351
v 0.701258 0.033400 -0.170633
v 0.485246 -0.067257 -0.044765
v 0.421762 -0.165125 -0.054433
v 0.581492 -0.001190 -0.036185
v 0.400707 -0.279894 -0.063718
v 0.695849 0.023015 -0.029999
v 0.475139 -0.086659 0.218006
v 0.411655 -0.184526 0.208337
v 0.571385 -0.020594 0.226586
v 0.390600 -0.299297 0.199053
v 0.685742 0.003613 0.232772
v 0.469730 -0.097044 0.358639
v 0.406246 -0.194911 0.348971
v 0.565976 -0.030977 0.367219
v 0.680333 -0.006772 0.373405
v 0.385191 -0.309681 0.339687
v -1.487387 2.154367 0.307996
v -1.492796 2.143982 0.448629
v -1.471870 2.184153 -0.095409
v -1.477279 2.173769 0.045225
v -1.808457 1.838709 -0.133862
v -1.813866 1.828324 0.006771
v -1.823973 1.808922 0.269542
v -1.829382 1.798536 0.410176
v -2.410037 2.748418 0.003453
v -2.458481 2.698230 0.011633
v -2.500600 2.653666 0.045876
v -2.529982 2.621510 0.100970
v -2.542154 2.606659 0.168527
v -2.535262 2.611372 0.238261
v -2.510357 2.634934 0.299557
v -2.471229 2.673756 0.343082
v -2.423836 2.721928 0.362211
v -2.375391 2.772116 0.354032
v -2.333272 2.816680 0.319788
v -2.303890 2.848835 0.264694
v -2.291718 2.863686 0.197138
v -2.298610 2.858973 0.127403
v -2.323515 2.835411 0.066107
v -2.362643 2.796589 0.022582
v -2.084024 2.334759 -0.000803
v -2.035580 2.384947 -0.008983
v -2.126143 2.290195 0.033441
v -2.155526 2.258040 0.088534
v -2.167698 2.243188 0.156091
v -2.160806 2.247902 0.225825
v -2.135901 2.271464 0.287121
v -2.096772 2.310285 0.330647
v -2.049379 2.358457 0.349776
v -2.000934 2.408645 0.341596
v -1.958815 2.453209 0.307352
v -1.929433 2.485364 0.252259
v -1.917260 2.500216 0.184702
v -1.924152 2.495501 0.114968
v -1.949057 2.471940 0.053672
v -1.988186 2.433119 0.010146
v -2.036594 2.391914 -0.062694
v -1.899867 2.259199 -0.067235
v -1.962845 2.193955 -0.056601
v -2.017600 2.136021 -0.012084
v -2.055797 2.094219 0.059538
v -2.071621 2.074913 0.147361
v -2.062662 2.081040 0.238016
v -2.030284 2.111670 0.317701
v -1.979418 2.162138 0.374284
v -1.917806 2.224761 0.399152
v -1.854829 2.290006 0.388518
v -1.800073 2.347940 0.344001
v -1.761876 2.389741 0.272379
v -1.746053 2.409048 0.184556
v -1.755012 2.402920 0.093901
v -1.787389 2.372291 0.014216
v -1.838255 2.321822 -0.042367
v -2.099572 2.326670 -0.052060
v -2.154327 2.268737 -0.007544
v -2.192524 2.226935 0.064078
v -2.208348 2.207627 0.151902
v -2.199389 2.213757 0.242557
v -2.167012 2.244386 0.322241
v -2.116145 2.294853 0.378825
v -2.054533 2.357477 0.403692
v -1.991556 2.422722 0.393058
v -1.936800 2.480655 0.348542
v -1.898603 2.522456 0.276920
v -1.882779 2.541763 0.189096
v -1.891738 2.535635 0.098441
v -1.924116 2.505006 0.018757
v -1.974983 2.454537 -0.037827
v -1.534491 2.120237 -0.129670
v -1.435892 2.216293 0.031734
v -1.462390 2.192731 -0.077458
v -1.853287 1.787915 -0.015952
v -1.743189 1.906047 -0.153513
v -1.818658 1.827088 -0.118160
v -1.447392 2.194218 0.330699
v -1.557490 2.076086 0.468261
v -1.482020 2.155047 0.432908
v -1.766187 1.861897 0.444418
v -1.864786 1.765840 0.283014
v -1.838289 1.789402 0.392206
v -1.694139 2.466963 0.040310
v -1.792738 2.370907 -0.121094
v -1.720637 2.443401 -0.068882
v -2.001435 2.156717 -0.144937
v -2.111533 2.038585 -0.007375
v -2.076905 2.077757 -0.109584
v -1.815736 2.326756 0.476837
v -1.705638 2.444888 0.339275
v -1.740267 2.405716 0.441484
v -2.123032 2.016509 0.291590
v -2.024433 2.112566 0.452994
v -2.096535 2.040072 0.400782
v -2.618794 2.908614 -0.115707
v -2.594780 2.936048 -0.114550
v -2.676575 2.908179 -0.115667
v -2.640789 2.901120 -0.116007
v -2.705840 2.957956 -0.113495
v -2.694068 2.923464 -0.114991
v -2.677324 3.008168 -0.111363
v -2.701337 2.980734 -0.112519
v -2.619542 3.008602 -0.111403
v -2.655328 3.015660 -0.111062
v -2.590277 2.958825 -0.113575
v -2.602050 2.993319 -0.112078
v -2.594982 2.944648 -0.314365
v -2.618995 2.917215 -0.315522
v -2.640991 2.909721 -0.315822
v -2.676777 2.916781 -0.315482
v -2.694270 2.932064 -0.314806
v -2.706042 2.966557 -0.313310
v -2.701539 2.989334 -0.312334
v -2.677526 3.016768 -0.311178
v -2.655530 3.024262 -0.310877
v -2.619745 3.017202 -0.311217
v -2.602252 3.001919 -0.311893
v -2.590479 2.967425 -0.313389
v -2.567838 2.917650 -0.115369
v -2.596953 2.884389 -0.116771
v -2.643266 2.868610 -0.117404
v -2.686655 2.877170 -0.116992
v -2.723487 2.909351 -0.115569
v -2.737760 2.951171 -0.113755
v -2.728280 2.999131 -0.111700
v -2.699164 3.032393 -0.110298
v -2.652851 3.048172 -0.109666
v -2.609463 3.039613 -0.110078
v -2.572630 3.007432 -0.111500
v -2.558357 2.965611 -0.113315
v -2.596885 2.881496 -0.049546
v -2.567770 2.914757 -0.048143
v -2.686587 2.874276 -0.049766
v -2.643198 2.865717 -0.050178
v -2.737692 2.948278 -0.046529
v -2.723419 2.906457 -0.048343
v -2.699097 3.029499 -0.043072
v -2.728212 2.996238 -0.044474
v -2.609395 3.036719 -0.042852
v -2.652783 3.045279 -0.042440
v -2.558289 2.962717 -0.046089
v -2.572562 3.004539 -0.044274
v -2.600359 2.865605 0.289381
v -2.566645 2.904120 0.291005
v -2.689279 2.862338 0.289331
v -2.639039 2.852427 0.288853
v -2.736568 2.937640 0.292620
v -2.720041 2.889216 0.290519
v -2.694937 3.016210 0.295959
v -2.728650 2.977696 0.294336
v -2.606016 3.019478 0.296010
v -2.656257 3.029389 0.296487
v -2.558727 2.944175 0.292721
v -2.575255 2.992601 0.294822
v -2.566855 2.913034 0.083904
v -2.600568 2.874519 0.082280
v -2.639248 2.861341 0.081752
v -2.689488 2.871252 0.082229
v -2.720250 2.898129 0.083417
v -2.736778 2.946554 0.085518
v -2.728860 2.986610 0.087234
v -2.695146 3.025124 0.088858
v -2.656467 3.038303 0.089386
v -2.606226 3.028391 0.088909
v -2.575464 3.001515 0.087721
v -2.558937 2.953089 0.085620
vt 0.536160 0.045764
vt 0.532932 0.044427
vt 0.532666 0.045764
vt 0.057061 0.038700
vt 0.068931 0.044477
vt 0.057061 0.044477
vt 0.068931 0.038700
vt 0.080801 0.044477
vt 0.072826 0.049802
vt 0.084696 0.052546
vt 0.072826 0.052546
vt 0.080801 0.038700
vt 0.092671 0.044477
vt 0.096566 0.049802
vt 0.084696 0.049802
vt 0.104541 0.038700
vt 0.092671 0.038700
vt 0.108436 0.049802
vt 0.096566 0.052546
vt 0.116411 0.038700
vt 0.104541 0.044477
vt 0.128281 0.044477
vt 0.116411 0.044477
vt 0.084172 0.130312
vt 0.073261 0.103970
vt 0.099603 0.093058
vt 0.033321 0.038700
vt 0.045191 0.044477
vt 0.033321 0.044477
vt 0.045191 0.038700
vt 0.060956 0.052546
vt 0.049086 0.049802
vt 0.060956 0.049802
vt 0.078837 0.043236
vt 0.093081 0.039944
vt 0.093081 0.043236
vt 0.037216 0.052546
vt 0.049086 0.052546
vt 0.108436 0.052546
vt 0.128281 0.038700
vt 0.110514 0.103970
vt 0.110514 0.119401
vt 0.099603 0.130312
vt 0.073261 0.119401
vt 0.084172 0.093058
vt 0.078837 0.039944
vt 0.037216 0.049802
vt 0.355705 0.237792
vt 0.295105 0.328071
vt 0.280266 0.313231
vt 0.391665 0.201832
vt 0.425475 0.197701
vt 0.406504 0.216672
vt 0.458262 0.161182
vt 0.518862 0.070903
vt 0.533701 0.085743
vt 0.422302 0.197142
vt 0.388492 0.201273
vt 0.407462 0.182302
vt 0.557949 0.107683
vt 0.547523 0.053769
vt 0.583119 0.018173
vt 0.291933 0.327512
vt 0.352532 0.237233
vt 0.367372 0.252072
vt 0.557949 0.106662
vt 0.547523 0.052747
vt 0.583119 0.017152
vt 0.546801 0.055378
vt 0.582397 0.019782
vt 0.696705 0.119718
vt 0.546801 0.051138
vt 0.582397 0.015542
vt 0.696705 0.115478
vt 0.373685 0.219812
vt 0.388525 0.234652
vt 0.461435 0.161741
vt 0.428615 0.164882
vt 0.446595 0.146902
vt 0.443455 0.179721
vt 0.410635 0.182862
vt 0.440282 0.179162
vt 0.425442 0.164322
vt 0.385352 0.234092
vt 0.370512 0.219253
vt 0.403332 0.216113
vt 0.522034 0.071463
vt 0.370545 0.252632
vt 0.443422 0.146343
vt 0.697427 0.018173
vt 0.697427 0.118109
vt 0.583119 0.118109
vt 0.547523 0.082513
vt 0.557949 0.028599
vt 0.277093 0.312672
vt 0.697427 0.017152
vt 0.697427 0.117087
vt 0.583119 0.117087
vt 0.547523 0.081492
vt 0.557949 0.027577
vt 0.582397 0.119718
vt 0.557227 0.109292
vt 0.546801 0.084122
vt 0.557227 0.030208
vt 0.696705 0.019782
vt 0.582397 0.115478
vt 0.557227 0.105052
vt 0.546801 0.079883
vt 0.557227 0.025968
vt 0.696705 0.015542
vt 0.536874 0.086302
vt 0.962003 0.951947
vt 0.995228 0.927786
vt 0.995228 0.951947
vt 0.962003 0.973785
vt 0.995228 0.997947
vt 0.962003 0.997947
vt 0.962003 0.927786
vt 0.995228 0.973785
vt 0.929180 0.609372
vt 0.990595 0.621480
vt 0.929180 0.621480
vt 0.929181 0.745772
vt 0.990595 0.757879
vt 0.929181 0.757879
vt 0.929181 0.718492
vt 0.990595 0.730599
vt 0.929181 0.730599
vt 0.929181 0.691212
vt 0.990595 0.703319
vt 0.929181 0.703319
vt 0.929181 0.676040
vt 0.990595 0.663932
vt 0.990595 0.676040
vt 0.929180 0.648760
vt 0.990595 0.636652
vt 0.990595 0.648760
vt 0.961280 0.946844
vt 0.928054 0.922682
vt 0.961280 0.922682
vt 0.961280 0.830683
vt 0.928054 0.854844
vt 0.928054 0.830683
vt 0.961280 0.900844
vt 0.928054 0.876682
vt 0.961280 0.876682
vt 0.928054 0.784683
vt 0.961280 0.762844
vt 0.961280 0.784683
vt 0.928054 0.968682
vt 0.961280 0.968682
vt 0.961280 0.854844
vt 0.961280 0.808844
vt 0.928054 0.808844
vt 0.830149 0.564803
vt 0.835887 0.574741
vt 0.814149 0.566716
vt 0.826230 0.587641
vt 0.814149 0.544878
vt 0.929181 0.663932
vt 0.990595 0.594200
vt 0.929180 0.594200
vt 0.929180 0.636652
vt 0.830149 0.546791
vt 0.845142 0.513034
vt 0.835887 0.536853
vt 0.826230 0.523953
vt 0.888216 0.523953
vt 0.878559 0.536853
vt 0.862960 0.527848
vt 0.845142 0.598560
vt 0.851485 0.583746
vt 0.851485 0.527848
vt 0.869304 0.598560
vt 0.869304 0.513034
vt 0.862960 0.583746
vt 0.900297 0.566716
vt 0.888216 0.587641
vt 0.878559 0.574741
vt 0.900297 0.544878
vt 0.884296 0.546791
vt 0.884296 0.564803
vt 0.990595 0.609372
vt 0.990595 0.745772
vt 0.990595 0.718492
vt 0.990595 0.691212
vt 0.928054 0.946844
vt 0.928054 0.900844
vt 0.928054 0.762844
vt 0.414083 0.020191
vt 0.394006 0.009194
vt 0.414083 0.005200
vt 0.440583 0.031167
vt 0.463030 0.037589
vt 0.448707 0.043325
vt 0.440583 0.084166
vt 0.463030 0.077745
vt 0.463030 0.094766
vt 0.414084 0.095142
vt 0.394006 0.106139
vt 0.399742 0.092290
vt 0.379460 0.043325
vt 0.365137 0.057667
vt 0.365137 0.037589
vt 0.387584 0.031167
vt 0.399742 0.023043
vt 0.434161 0.009194
vt 0.463030 0.020567
vt 0.448707 0.072008
vt 0.463030 0.057667
vt 0.434161 0.106139
vt 0.414084 0.110133
vt 0.387584 0.084166
vt 0.365137 0.077745
vt 0.379460 0.072008
vt 0.365137 0.020567
vt 0.428425 0.023043
vt 0.451559 0.057667
vt 0.428425 0.092290
vt 0.360949 0.270723
vt 0.401924 0.282747
vt 0.387449 0.297222
vt 0.376608 0.057667
vt 0.365137 0.094766
vt 0.434161 0.010684
vt 0.434161 0.107629
vt 0.365137 0.079234
vt 0.312776 0.318896
vt 0.353472 0.331198
vt 0.339275 0.345396
vt 0.286543 0.345129
vt 0.325078 0.359593
vt 0.313042 0.371629
vt 0.298579 0.333093
vt 0.537138 0.094534
vt 0.541697 0.142974
vt 0.515198 0.116474
vt 0.464307 0.167365
vt 0.512746 0.171924
vt 0.490806 0.193865
vt 0.438073 0.193598
vt 0.450376 0.234295
vt 0.423876 0.207796
vt 0.389900 0.241772
vt 0.375425 0.256247
vt 0.326973 0.304699
vt 0.365508 0.319162
vt 0.500722 0.130949
vt 0.486247 0.145425
vt 0.452271 0.179401
vt 0.464573 0.220098
vt 0.411840 0.219831
vt 0.416399 0.268271
vt 0.339009 0.292663
vt 0.527222 0.157449
vt 0.478770 0.205901
vt 0.438340 0.246331
vt 0.365137 0.039078
vt 0.365137 0.022057
vt 0.394006 0.010684
vt 0.414084 0.006690
vt 0.463030 0.022057
vt 0.463030 0.039078
vt 0.463030 0.059156
vt 0.365137 0.059156
vt 0.463030 0.079234
vt 0.463030 0.096255
vt 0.414083 0.111622
vt 0.394006 0.107629
vt 0.365137 0.096255
vt 0.563638 0.121033
vt 0.703212 0.935314
vt 0.692293 0.968139
vt 0.669325 0.942270
vt 0.745623 0.945876
vt 0.816728 0.954138
vt 0.745623 0.954138
vt 0.745623 0.903415
vt 0.816728 0.911677
vt 0.745623 0.911677
vt 0.745623 0.890447
vt 0.816728 0.882185
vt 0.816728 0.890447
vt 0.745623 0.924646
vt 0.816728 0.932908
vt 0.745623 0.932908
vt 0.745623 0.967107
vt 0.816728 0.975368
vt 0.745623 0.975369
vt 0.745623 0.988337
vt 0.816728 0.869216
vt 0.745623 0.882185
vt 0.745623 0.869216
vt 0.816728 0.996599
vt 0.745623 0.996599
vt 0.673341 0.935314
vt 0.684260 0.929010
vt 0.692293 0.929010
vt 0.707228 0.942270
vt 0.707228 0.954879
vt 0.703212 0.961835
vt 0.684260 0.968139
vt 0.673341 0.961835
vt 0.669325 0.954879
vt 0.816728 0.945876
vt 0.816728 0.903415
vt 0.816728 0.924646
vt 0.816728 0.967107
vt 0.816728 0.988337
vt 0.580852 0.146243
vt 0.654403 0.833258
vt 0.628151 0.827709
vt 0.556250 0.098026
vt 0.676256 0.087072
vt 0.675217 0.091635
vt 0.557193 0.073165
vt 0.675612 0.059977
vt 0.674674 0.064508
vt 0.545290 0.056720
vt 0.545290 0.045764
vt 0.520640 0.032070
vt 0.531595 0.041199
vt 0.520640 0.041199
vt 0.531595 0.032070
vt 0.548517 0.028842
vt 0.549855 0.032070
vt 0.560810 0.041199
vt 0.549855 0.041199
vt 0.549855 0.025082
vt 0.560810 0.015953
vt 0.560810 0.025082
vt 0.557340 0.054040
vt 0.679987 0.048462
vt 0.679987 0.054040
vt 0.557124 0.053931
vt 0.679770 0.048875
vt 0.679746 0.054452
vt 0.556784 0.078691
vt 0.680912 0.075517
vt 0.680800 0.081157
vt 0.557105 0.078806
vt 0.681243 0.075104
vt 0.681154 0.080745
vt 0.532927 0.141943
vt 0.460758 0.829304
vt 0.434016 0.833977
vt 0.551144 0.078535
vt 0.550610 0.097870
vt 0.551762 0.053997
vt 0.670009 0.105863
vt 0.673857 0.105126
vt 0.672638 0.106952
vt 0.667164 0.105863
vt 0.663315 0.105126
vt 0.666735 0.103710
vt 0.676475 0.107745
vt 0.674649 0.108965
vt 0.670437 0.103710
vt 0.677892 0.111165
vt 0.675738 0.111594
vt 0.675738 0.114439
vt 0.677891 0.114867
vt 0.676475 0.118287
vt 0.674650 0.117068
vt 0.673858 0.120904
vt 0.672638 0.119079
vt 0.670438 0.122321
vt 0.670009 0.120168
vt 0.649919 0.016570
vt 0.647358 0.035606
vt 0.647358 0.016570
vt 0.652480 0.016570
vt 0.649919 0.035606
vt 0.655042 0.035606
vt 0.655042 0.016570
vt 0.657603 0.016570
vt 0.660164 0.035606
vt 0.660164 0.016570
vt 0.662725 0.016570
vt 0.665286 0.035606
vt 0.665286 0.016570
vt 0.667848 0.035606
vt 0.667848 0.016570
vt 0.670409 0.016570
vt 0.672970 0.035606
vt 0.672970 0.016570
vt 0.675531 0.016570
vt 0.678092 0.035606
vt 0.678092 0.016570
vt 0.680653 0.016570
vt 0.642236 0.035606
vt 0.639675 0.016570
vt 0.642236 0.016570
vt 0.644797 0.016570
vt 0.669494 0.037595
vt 0.673194 0.045317
vt 0.669494 0.045317
vt 0.676893 0.037595
vt 0.676893 0.045317
vt 0.680593 0.037595
vt 0.680593 0.045317
vt 0.621401 0.037595
vt 0.625101 0.045317
vt 0.621401 0.045317
vt 0.628800 0.037595
vt 0.628800 0.045317
vt 0.632500 0.045317
vt 0.632500 0.037595
vt 0.636199 0.045317
vt 0.636199 0.037595
vt 0.639899 0.045317
vt 0.639899 0.037595
vt 0.643598 0.045317
vt 0.643598 0.037595
vt 0.647298 0.045317
vt 0.647298 0.037595
vt 0.650997 0.045317
vt 0.654696 0.037595
vt 0.654696 0.045317
vt 0.658396 0.045317
vt 0.662095 0.037595
vt 0.662095 0.045317
vt 0.665795 0.045317
vt 0.665795 0.037595
vt 0.664535 0.106952
vt 0.660698 0.107744
vt 0.661435 0.111592
vt 0.662523 0.108963
vt 0.659281 0.114865
vt 0.659282 0.111164
vt 0.662524 0.117066
vt 0.661435 0.114437
vt 0.663316 0.120904
vt 0.660698 0.118286
vt 0.667164 0.120168
vt 0.664535 0.119078
vt 0.666736 0.122321
vt 0.531595 0.025082
vt 0.520640 0.028576
vt 0.520640 0.025082
vt 0.531595 0.028576
vt 0.532666 0.056720
vt 0.529173 0.045764
vt 0.560810 0.028576
vt 0.549855 0.028576
vt 0.548783 0.056720
vt 0.549855 0.044693
vt 0.560810 0.044693
vt 0.549855 0.070414
vt 0.532932 0.073642
vt 0.536160 0.056720
vt 0.579290 0.847266
vt 0.566549 0.865538
vt 0.691746 0.147570
vt 0.688723 0.858776
vt 0.676532 0.848430
vt 0.601776 0.832628
vt 0.678494 0.100209
vt 0.681646 0.102481
vt 0.678963 0.083255
vt 0.676003 0.096248
vt 0.678082 0.072920
vt 0.678212 0.056150
vt 0.675542 0.069053
vt 0.532932 0.028842
vt 0.536160 0.027505
vt 0.545290 0.027505
vt 0.548517 0.044427
vt 0.560810 0.032070
vt 0.549855 0.015953
vt 0.557340 0.048462
vt 0.557148 0.048354
vt 0.556896 0.073051
vt 0.397997 0.866867
vt 0.420752 0.139323
vt 0.521681 0.861431
vt 0.509466 0.850825
vt 0.487253 0.835220
vt 0.411098 0.848528
vt 0.551615 0.073122
vt 0.652480 0.035606
vt 0.657603 0.035606
vt 0.662725 0.035606
vt 0.670409 0.035606
vt 0.675531 0.035606
vt 0.680653 0.035606
vt 0.639675 0.035606
vt 0.644797 0.035606
vt 0.673194 0.037595
vt 0.625101 0.037595
vt 0.650997 0.037595
vt 0.658396 0.037595
vt 0.529173 0.056720
vt 0.548783 0.045764
vt 0.548517 0.058057
vt 0.549855 0.061285
vt 0.548517 0.073642
vt 0.545290 0.074979
vt 0.536160 0.074979
vt 0.531595 0.070414
vt 0.531595 0.061285
vt 0.532932 0.058057
vn -0.000000 -0.000000 1.000000
vn 0.386700 -0.922200 -0.000000
vn -0.378700 -0.925500 -0.000000
vn -0.922200 -0.386700 -0.000000
vn -0.925500 0.378700 -0.000000
vn -0.386700 0.922200 -0.000000
vn 0.378700 0.925500 -0.000000
vn 0.922200 0.386700 -0.000000
vn 0.925500 -0.378700 -0.000000
vn 0.695700 0.714000 0.079500
vn -0.717400 0.696300 0.023800
vn -0.717300 0.696300 0.023800
vn -0.038300 -0.073600 0.996600
vn -0.695700 -0.714000 -0.079500
vn 0.038300 0.073600 -0.996600
vn -0.396500 0.916500 0.052400
vn 0.368200 0.926100 0.082500
vn -0.917200 -0.393200 -0.064300
vn -0.929000 0.370100 -0.008400
vn -0.917200 -0.393100 -0.064300
vn 0.038400 0.073600 -0.996600
vn 0.368200 0.926100 0.082600
vn -0.001000 0.043000 -0.999100
vn 0.066800 -0.996800 -0.043000
vn 0.556700 -0.829900 -0.036300
vn 0.066800 -0.996800 -0.042900
vn -0.441100 -0.896700 -0.038100
vn -0.830700 -0.556200 -0.023100
vn 0.997800 0.066700 0.001900
vn -0.997800 -0.066700 -0.001900
vn -0.997800 -0.066800 -0.001900
vn -0.441100 -0.896700 -0.038200
vn -0.897500 0.440600 0.019900
vn -0.066800 0.996800 0.043000
vn -0.556700 0.829900 0.036300
vn 0.830700 0.556200 0.023100
vn 0.441100 0.896700 0.038100
vn 0.997800 0.066800 0.001900
vn 0.897500 -0.440600 -0.019900
vn 0.441100 0.896700 0.038200
vn 0.717300 -0.696300 -0.023800
vn 0.717400 -0.696300 -0.023800
vn -0.674800 -0.685900 -0.272400
vn 0.661300 0.691200 -0.291300
vn 0.633200 0.637300 0.439200
vn -0.689800 -0.714600 0.116500
vn 0.674800 0.685900 0.272400
vn -0.661300 -0.691200 0.291300
vn -0.633200 -0.637300 -0.439200
vn 0.689800 0.714600 -0.116500
vn -0.066700 0.996800 0.043000
vn -0.001100 0.043000 -0.999100
vn -0.001000 0.043100 -0.999100
vn -0.793700 0.032300 -0.607500
vn -0.034600 0.771700 0.635000
vn -0.026000 -0.975400 -0.219100
vn -0.992300 -0.069700 0.102800
vn -0.981100 -0.048300 -0.187400
vn 0.550800 -0.413500 0.725000
vn -0.606900 0.305800 0.733600
vn 0.348200 -0.621300 0.701900
vn -0.404300 0.513600 0.756800
vn -0.049100 0.871200 -0.488500
vn -0.348200 0.621300 -0.701900
vn 0.404400 -0.513600 -0.756800
vn -0.550800 0.413500 -0.725100
vn 0.037200 0.996800 -0.071000
vn 0.981100 0.048300 0.187400
vn 0.992300 0.069700 -0.102800
vn 0.009600 0.856700 -0.515700
vn 0.637900 0.642700 0.424300
vn 0.664800 0.694300 -0.275500
vn 0.664800 0.694400 -0.275500
vn -0.837900 -0.052700 0.543200
vn -0.637900 -0.642700 -0.424300
vn -0.664800 -0.694300 0.275500
vn -0.537600 0.590800 -0.601700
vn -0.662800 0.333300 -0.670500
vn -0.705100 0.417200 -0.573400
vn -0.373700 0.757300 -0.535500
vn -0.121200 0.883800 -0.451900
vn -0.278200 0.728000 -0.626600
vn -0.831800 0.154500 -0.533100
vn -0.850700 0.263100 -0.455000
vn -0.468400 0.534700 -0.703300
vn -0.949700 0.025500 -0.312000
vn -0.952400 0.151900 -0.264500
vn -0.994500 0.100500 -0.030800
vn -0.998600 -0.034100 -0.040900
vn -0.970900 -0.015200 0.238900
vn -0.970600 0.116800 0.210300
vn -0.871000 0.079300 0.484900
vn -0.884500 0.198300 0.422300
vn -0.714000 0.235100 0.659500
vn -0.749200 0.332600 0.572800
vn 0.301600 0.341200 -0.890300
vn 0.519000 0.556900 -0.648500
vn -0.152200 0.973100 -0.173100
vn 0.657400 0.687800 -0.307900
vn -0.170500 0.938000 0.301700
vn 0.628000 0.631500 0.454800
vn 0.464800 0.452800 0.760900
vn -0.417800 0.672700 0.610700
vn 0.230800 0.205200 0.951100
vn -0.585300 0.499100 0.639000
vn -0.301600 -0.341200 0.890300
vn -0.519000 -0.556900 0.648500
vn -0.657400 -0.687800 0.307900
vn -0.628000 -0.631500 -0.454800
vn -0.464800 -0.452800 -0.760900
vn -0.230800 -0.205200 -0.951100
vn -0.523800 0.428400 0.736300
vn -0.329400 0.629800 0.703400
vn -0.160400 0.808600 0.566000
vn -0.042500 0.937700 0.345000
vn 0.006400 0.997200 0.073900
vn -0.021300 0.978300 -0.205900
vn -0.238400 0.891600 -0.385000
vn -0.128400 0.989400 0.068100
vn -0.272100 0.826800 0.492300
vn 0.026000 0.975400 0.219100
vn 0.813000 -0.087300 0.575700
vn -0.091300 0.790400 0.605700
vn 0.049200 -0.871200 0.488400
vn -0.855100 0.006500 0.518500
vn 0.855100 -0.006500 -0.518500
vn 0.091300 -0.790400 -0.605700
vn -0.813000 0.087300 -0.575700
vn 0.606900 -0.305800 -0.733600
vn -0.037200 -0.996800 0.071100
usemtl SpacialRoverExploreralumWhite
f 1/4/2 11/5/2 9/6/2
f 2/7/3 14/8/3 11/5/3
f 12/9/3 26/10/3 27/11/3
f 3/12/4 16/13/4 14/8/4
f 15/14/4 26/10/4 13/15/4
f 5/16/5 16/13/5 4/17/5
f 18/18/5 28/19/5 15/14/5
f 6/20/6 17/21/6 5/16/6
f 6/20/7 22/22/7 19/23/7
f 2/24/1 8/25/1 6/26/1
f 7/27/8 24/28/8 22/29/8
f 8/30/9 9/6/9 24/28/9
f 30/31/9 23/32/9 10/33/9
f 29/34/7 21/35/7 31/36/7
f 30/31/2 12/9/2 27/11/2
f 31/37/8 23/32/8 32/38/8
f 1/4/2 2/7/2 11/5/2
f 2/7/3 3/12/3 14/8/3
f 12/9/3 13/15/3 26/10/3
f 3/12/4 4/17/4 16/13/4
f 15/14/4 28/19/4 26/10/4
f 5/16/5 17/21/5 16/13/5
f 18/18/5 25/39/5 28/19/5
f 6/20/6 19/23/6 17/21/6
f 6/20/7 7/40/7 22/22/7
f 6/26/1 5/41/1 4/42/1
f 4/42/1 3/43/1 2/24/1
f 2/24/1 1/44/1 8/25/1
f 8/25/1 7/45/1 6/26/1
f 6/26/1 4/42/1 2/24/1
f 7/27/8 8/30/8 24/28/8
f 8/30/9 1/4/9 9/6/9
f 30/31/9 32/38/9 23/32/9
f 29/34/7 20/46/7 21/35/7
f 30/31/2 10/33/2 12/9/2
f 31/37/8 21/47/8 23/32/8
f 93/48/10 82/49/10 84/50/10
f 92/51/11 95/52/11 99/53/12
f 105/54/10 86/55/10 88/56/10
f 104/57/11 107/58/12 111/59/11
f 100/60/13 95/61/13 96/62/13
f 87/63/14 108/64/14 101/65/14
f 112/66/13 107/67/13 108/68/13
f 104/69/15 105/70/15 87/71/15
f 92/72/15 93/73/15 83/74/15
f 99/53/16 94/75/16 92/51/16
f 100/76/17 93/48/17 94/75/17
f 96/77/18 91/78/18 89/79/18
f 97/80/19 90/81/19 91/78/19
f 111/59/16 106/82/16 104/57/16
f 112/83/17 105/54/17 106/82/17
f 108/64/20 103/84/20 101/65/20
f 109/85/19 102/86/19 103/84/19
f 83/87/14 96/77/14 89/79/14
f 93/48/10 98/88/10 82/49/10
f 92/51/11 90/81/11 95/52/11
f 105/54/10 110/89/10 86/55/10
f 104/57/11 102/86/12 107/58/12
f 96/62/13 81/90/13 82/91/13
f 82/91/13 98/92/13 100/60/13
f 100/60/13 99/93/13 95/61/13
f 95/61/13 97/94/13 96/62/13
f 96/62/13 82/91/13 100/60/13
f 87/63/14 85/95/14 108/64/14
f 108/68/13 85/96/13 86/97/13
f 86/97/13 110/98/13 112/66/13
f 112/66/13 111/99/13 107/67/13
f 107/67/13 109/100/13 108/68/13
f 108/68/13 86/97/13 112/66/13
f 87/71/15 101/101/21 103/102/15
f 103/102/15 102/103/15 104/69/15
f 104/69/15 106/104/15 105/70/15
f 105/70/15 88/105/15 87/71/15
f 87/71/15 103/102/15 104/69/15
f 83/74/15 89/106/15 91/107/15
f 91/107/15 90/108/15 92/72/15
f 92/72/15 94/109/15 93/73/15
f 93/73/15 84/110/15 83/74/15
f 83/74/15 91/107/15 92/72/15
f 99/53/16 100/76/16 94/75/16
f 100/76/17 98/88/17 93/48/17
f 96/77/18 97/80/20 91/78/18
f 97/80/19 95/52/19 90/81/19
f 111/59/16 112/83/16 106/82/16
f 112/83/17 110/89/22 105/54/17
f 108/64/20 109/85/20 103/84/20
f 109/85/19 107/58/19 102/86/19
f 83/87/14 81/111/14 96/77/14
f 263/112/24 273/113/25 276/114/26
f 264/115/27 278/116/28 265/117/28
f 276/114/26 264/115/27 263/112/24
f 263/112/24 262/118/25 273/113/25
f 264/115/27 275/119/27 278/116/28
f 276/114/26 275/119/27 264/115/27
usemtl SpacialRoverExploreralumGray
f 290/120/28 300/121/32 287/122/27
f 292/123/33 302/124/30 289/125/30
f 294/126/34 304/127/35 291/128/35
f 296/129/36 306/130/37 293/131/37
f 295/132/38 297/133/39 308/134/29
f 285/135/25 299/136/24 298/137/25
f 266/138/31 280/139/33 267/140/33
f 271/141/36 281/142/40 284/143/36
f 268/144/35 282/145/34 269/146/34
f 274/147/39 262/148/25 261/149/39
f 278/150/28 266/138/31 265/151/28
f 280/139/33 268/144/35 267/140/33
f 282/145/34 270/152/37 269/146/34
f 284/143/36 272/153/29 271/141/36
f 261/149/39 283/154/29 274/147/39
f 244/155/23 241/156/23 267/157/23
f 241/156/23 266/158/23 267/157/23
f 268/159/23 244/155/23 267/157/23
f 304/127/35 292/123/33 291/128/35
f 298/137/25 286/160/39 285/135/25
f 302/161/30 290/120/28 289/162/30
f 306/130/37 294/126/34 293/131/37
f 308/134/29 296/129/36 295/132/38
f 287/122/27 299/136/24 288/163/24
f 244/155/23 268/159/23 243/164/23
f 270/165/23 246/166/23 269/167/23
f 272/168/23 247/169/23 248/170/23
f 241/156/23 265/171/23 266/158/23
f 265/171/23 241/156/23 242/172/23
f 245/173/23 246/166/23 270/165/23
f 264/174/23 265/171/23 242/172/23
f 271/175/23 248/170/23 270/165/23
f 264/174/23 242/172/23 239/176/23
f 262/177/23 263/178/23 240/179/23
f 264/174/23 239/176/23 240/179/23
f 271/175/23 272/168/23 248/170/23
f 263/178/23 264/174/23 240/179/23
f 261/180/23 238/181/23 247/169/23
f 237/182/23 262/177/23 240/179/23
f 272/168/23 261/180/23 247/169/23
f 238/181/23 262/177/23 237/182/23
f 268/159/23 269/167/23 243/164/23
f 248/170/23 245/173/23 270/165/23
f 262/177/23 238/181/23 261/180/23
f 246/166/23 243/164/23 269/167/23
f 290/120/28 301/183/28 300/121/32
f 292/123/33 303/184/33 302/124/30
f 294/126/34 305/185/34 304/127/35
f 296/129/36 307/186/36 306/130/37
f 295/132/38 286/160/39 297/133/39
f 285/135/25 288/163/24 299/136/24
f 266/138/31 277/187/31 280/139/33
f 271/141/36 270/152/37 281/142/40
f 268/144/35 279/188/35 282/145/34
f 274/147/39 273/189/25 262/148/25
f 278/150/28 277/187/31 266/138/31
f 280/139/33 279/188/35 268/144/35
f 282/145/34 281/142/40 270/152/37
f 284/143/36 283/154/29 272/153/29
f 261/149/39 272/153/29 283/154/29
f 304/127/35 303/184/33 292/123/33
f 298/137/25 297/133/39 286/160/39
f 302/161/30 301/183/28 290/120/28
f 306/130/37 305/185/34 294/126/34
f 308/134/29 307/186/36 296/129/36
f 287/122/27 300/121/32 299/136/24
usemtl SpacialRoverExploreralumBlack
f 47/190/41 62/191/41 61/192/41
f 45/193/41 58/194/42 44/195/42
f 41/196/41 56/197/41 55/198/41
f 39/199/42 52/200/42 38/201/42
f 50/202/41 34/203/42 64/204/41
f 49/205/41 62/191/41 48/206/41
f 45/193/41 60/207/41 59/208/41
f 42/209/41 57/210/41 56/197/41
f 39/199/42 54/211/42 53/212/42
f 37/213/42 33/214/42 36/215/42
f 49/205/41 64/204/41 63/216/41
f 47/190/41 60/207/41 46/217/41
f 44/195/42 57/210/41 43/218/41
f 41/196/41 54/211/42 40/219/42
f 52/220/43 77/221/43 78/222/43
f 36/215/42 34/203/42 35/223/42
f 37/213/42 52/200/42 51/224/42
f 76/225/12 70/226/12 66/227/12
f 34/228/15 80/229/15 67/230/15
f 63/231/15 66/232/15 65/233/15
f 64/234/15 67/230/15 66/232/15
f 63/235/44 68/236/44 62/237/44
f 59/238/45 70/239/45 71/240/45
f 57/241/13 74/242/13 56/243/13
f 54/244/46 77/221/46 53/245/46
f 33/246/15 79/247/15 80/229/15
f 61/248/47 70/239/47 60/249/47
f 58/250/13 73/251/13 57/241/13
f 55/252/48 76/253/48 54/244/48
f 51/254/49 78/222/49 79/247/49
f 61/248/50 68/236/50 69/255/50
f 59/238/13 72/256/13 58/250/13
f 56/243/13 75/257/13 55/252/13
f 47/190/41 48/206/41 62/191/41
f 45/193/41 59/208/41 58/194/42
f 41/196/41 42/209/41 56/197/41
f 39/199/42 53/212/42 52/200/42
f 50/202/41 35/223/42 34/203/42
f 49/205/41 63/216/41 62/191/41
f 45/193/41 46/217/41 60/207/41
f 42/209/41 43/218/41 57/210/41
f 39/199/42 40/219/42 54/211/42
f 37/213/42 51/224/42 33/214/42
f 49/205/41 50/202/41 64/204/41
f 47/190/41 61/192/41 60/207/41
f 44/195/42 58/194/42 57/210/41
f 41/196/41 55/198/41 54/211/42
f 52/220/43 53/245/43 77/221/43
f 36/215/42 33/214/42 34/203/42
f 37/213/42 38/201/42 52/200/42
f 80/258/11 79/259/11 78/260/11
f 78/260/11 77/261/12 76/225/12
f 76/225/12 75/262/12 74/263/12
f 76/225/12 74/263/12 73/264/11
f 80/258/11 78/260/11 76/225/12
f 67/265/12 80/258/11 76/225/12
f 76/225/12 73/264/11 72/266/11
f 72/266/11 71/267/12 70/226/12
f 70/226/12 69/268/12 68/269/12
f 68/269/12 65/270/11 66/227/12
f 66/227/12 67/265/12 76/225/12
f 76/225/12 72/266/11 70/226/12
f 70/226/12 68/269/12 66/227/12
f 34/228/15 33/246/15 80/229/15
f 63/231/15 64/234/15 66/232/15
f 64/234/15 34/228/15 67/230/15
f 63/235/44 65/271/44 68/236/44
f 59/238/45 60/249/45 70/239/45
f 57/241/13 73/251/13 74/242/13
f 54/244/46 76/253/46 77/221/46
f 33/246/15 51/254/15 79/247/15
f 61/248/47 69/255/47 70/239/47
f 58/250/13 72/256/13 73/251/13
f 55/252/48 75/257/48 76/253/48
f 51/254/49 52/220/49 78/222/49
f 61/248/50 62/237/50 68/236/50
f 59/238/13 71/240/13 72/256/13
f 56/243/13 74/242/13 75/257/13
usemtl SpacialRoverExploreralumOrange
f 250/272/23 254/273/23 258/274/23
f 244/275/33 254/276/30 241/277/30
f 248/278/36 258/279/37 245/280/37
f 247/281/29 249/282/39 260/283/29
f 246/284/51 256/285/35 243/286/35
f 242/287/28 252/288/27 239/289/32
f 252/288/27 240/290/24 239/289/32
f 258/279/37 246/284/51 245/280/37
f 260/283/29 248/278/36 247/281/29
f 256/285/35 244/275/33 243/286/35
f 254/276/30 242/287/28 241/277/30
f 250/291/25 238/292/39 237/293/25
f 240/290/24 250/294/25 237/295/25
f 258/274/23 259/296/52 260/297/23
f 260/297/23 249/298/23 250/272/23
f 250/272/23 251/299/23 252/300/23
f 252/300/23 253/301/52 254/273/23
f 254/273/23 255/302/23 256/303/23
f 256/303/23 257/304/53 258/274/23
f 258/274/23 260/297/23 250/272/23
f 250/272/23 252/300/23 254/273/23
f 254/273/23 256/303/23 258/274/23
f 244/275/33 255/305/33 254/276/30
f 248/278/36 259/306/36 258/279/37
f 247/281/29 238/292/39 249/282/39
f 246/284/51 257/307/34 256/285/35
f 242/287/28 253/308/28 252/288/27
f 252/288/27 251/309/24 240/290/24
f 258/279/37 257/307/34 246/284/51
f 260/283/29 259/306/36 248/278/36
f 256/285/35 255/305/33 244/275/33
f 254/276/30 253/308/28 242/287/28
f 250/291/25 249/282/39 238/292/39
f 240/290/24 251/309/24 250/294/25
usemtl SpacialRoverExploreralumArm
f 145/310/54 123/311/15 121/312/15
f 144/313/55 127/314/13 126/315/13
f 147/316/54 133/317/15 131/318/15
f 216/319/56 234/1/57 229/320/58
f 220/321/59 235/322/60 222/323/61
f 231/324/62 227/325/63 229/320/58
f 226/326/64 217/327/65 228/328/66
f 225/329/67 219/330/68 214/331/69
f 141/332/70 120/333/71 119/334/72
f 143/335/70 114/336/71 113/337/73
f 146/338/74 115/339/75 116/340/76
f 148/341/74 117/342/75 118/343/76
f 148/344/74 136/345/13 138/346/13
f 145/347/54 144/313/55 143/348/70
f 147/316/54 142/349/55 141/332/70
f 166/350/77 198/351/78 165/352/79
f 180/353/80 211/354/81 212/355/82
f 165/352/79 199/356/83 167/357/84
f 180/353/80 181/358/85 166/350/77
f 167/357/84 200/359/86 168/360/87
f 169/361/88 200/359/86 201/362/89
f 169/361/88 202/363/90 170/364/91
f 170/364/91 203/365/92 171/366/93
f 171/366/93 204/367/94 172/368/95
f 164/369/96 166/370/77 149/371/15
f 163/372/97 180/373/80 164/369/96
f 178/374/98 163/372/97 162/375/99
f 161/376/10 178/374/98 162/375/99
f 176/377/100 161/376/10 160/378/101
f 159/379/102 176/377/100 160/378/101
f 174/380/103 159/379/102 158/381/104
f 173/382/105 158/381/104 157/383/13
f 156/384/106 173/382/105 157/383/13
f 171/385/93 156/384/106 155/386/107
f 154/387/108 171/385/93 155/386/107
f 169/388/88 154/387/108 153/389/14
f 152/390/109 169/388/88 153/389/14
f 167/391/84 152/392/109 151/393/110
f 150/394/111 167/391/84 151/393/110
f 166/370/77 150/394/111 149/371/15
f 182/395/15 198/396/78 181/397/85
f 198/396/78 184/398/110 199/399/83
f 199/399/83 185/400/109 200/401/86
f 185/402/109 201/403/89 200/404/86
f 201/403/89 187/405/108 202/406/90
f 187/405/108 203/407/92 202/406/90
f 188/408/107 204/409/94 203/407/92
f 189/410/106 205/411/112 204/409/94
f 190/412/13 206/413/113 205/411/112
f 191/414/104 207/415/114 206/413/113
f 192/416/102 208/417/115 207/415/114
f 208/417/115 194/418/10 209/419/116
f 194/418/10 210/420/117 209/419/116
f 210/420/117 196/421/97 211/422/81
f 196/421/97 212/423/82 211/422/81
f 197/424/96 181/397/85 212/423/82
f 179/425/118 210/426/117 211/354/81
f 177/427/119 210/426/117 178/428/98
f 177/427/119 208/429/115 209/430/116
f 175/431/120 208/429/115 176/432/100
f 175/431/120 206/433/113 207/434/114
f 173/435/105 206/433/113 174/436/103
f 173/435/105 204/367/94 205/437/112
f 232/438/121 221/439/122 219/440/68
f 233/441/123 220/321/59 221/439/122
f 234/1/57 224/442/124 236/3/125
f 224/442/124 235/443/60 236/3/125
f 225/329/67 215/444/126 227/445/63
f 215/444/126 226/326/64 227/445/63
f 229/320/58 218/446/127 216/319/56
f 230/447/128 217/327/65 218/448/127
f 213/449/129 221/450/122 223/451/130
f 124/452/15 115/453/75 145/310/54
f 145/310/54 143/454/70 113/455/73
f 145/310/54 113/455/73 125/456/15
f 122/457/15 124/452/15 145/310/54
f 121/312/15 122/457/15 145/310/54
f 145/310/54 125/456/15 123/311/15
f 130/458/13 114/459/71 144/313/55
f 144/313/55 146/338/74 116/340/76
f 144/313/55 116/340/76 129/460/13
f 128/461/13 130/458/13 144/313/55
f 126/315/13 128/461/13 144/313/55
f 144/313/55 129/460/13 127/314/13
f 134/462/15 117/342/75 147/316/54
f 147/316/54 141/332/70 119/334/72
f 147/316/54 119/334/72 135/463/15
f 132/464/15 134/462/15 147/316/54
f 131/318/15 132/464/15 147/316/54
f 147/316/54 135/463/15 133/317/15
f 216/319/56 223/451/130 234/1/57
f 220/321/59 231/324/62 235/322/60
f 229/320/58 234/1/57 236/2/125
f 236/2/125 235/322/60 231/324/62
f 231/324/62 233/465/123 232/466/121
f 232/466/121 225/467/67 227/325/63
f 227/325/63 226/326/64 228/328/66
f 228/328/66 230/468/128 229/320/58
f 229/320/58 236/2/125 231/324/62
f 231/324/62 232/466/121 227/325/63
f 227/325/63 228/328/66 229/320/58
f 226/326/64 213/469/129 217/327/65
f 225/329/67 232/470/121 219/330/68
f 141/332/70 142/471/55 120/333/71
f 143/335/70 144/472/55 114/336/71
f 146/338/74 145/473/54 115/339/75
f 148/341/74 147/316/54 117/342/75
f 120/474/71 142/475/55 148/344/74
f 148/344/74 118/476/76 140/477/13
f 148/344/74 140/477/13 137/478/13
f 139/479/13 120/474/71 148/344/74
f 138/346/13 139/479/13 148/344/74
f 148/344/74 137/478/13 136/345/13
f 145/347/54 146/338/74 144/313/55
f 147/316/54 148/480/74 142/349/55
f 166/350/77 181/358/85 198/351/78
f 180/353/80 179/425/118 211/354/81
f 165/352/79 198/351/78 199/356/83
f 180/353/80 212/355/82 181/358/85
f 167/357/84 199/356/83 200/359/86
f 169/361/88 168/360/87 200/359/86
f 169/361/88 201/362/89 202/363/90
f 170/364/91 202/363/90 203/365/92
f 171/366/93 203/365/92 204/367/94
f 164/369/96 180/373/80 166/370/77
f 163/372/97 179/481/118 180/373/80
f 178/374/98 179/481/118 163/372/97
f 161/376/10 177/482/119 178/374/98
f 176/377/100 177/482/119 161/376/10
f 159/379/102 175/483/120 176/377/100
f 174/380/103 175/483/120 159/379/102
f 173/382/105 174/380/103 158/381/104
f 156/384/106 172/484/95 173/382/105
f 171/385/93 172/484/95 156/384/106
f 154/387/108 170/485/91 171/385/93
f 169/388/88 170/485/91 154/387/108
f 152/390/109 168/486/87 169/388/88
f 167/391/84 168/487/87 152/392/109
f 150/394/111 165/488/79 167/391/84
f 166/370/77 165/488/79 150/394/111
f 182/395/15 183/489/111 198/396/78
f 198/396/78 183/489/111 184/398/110
f 199/399/83 184/398/110 185/400/109
f 185/402/109 186/490/14 201/403/89
f 201/403/89 186/490/14 187/405/108
f 187/405/108 188/408/107 203/407/92
f 188/408/107 189/410/106 204/409/94
f 189/410/106 190/412/13 205/411/112
f 190/412/13 191/414/104 206/413/113
f 191/414/104 192/416/102 207/415/114
f 192/416/102 193/491/101 208/417/115
f 208/417/115 193/491/101 194/418/10
f 194/418/10 195/492/99 210/420/117
f 210/420/117 195/492/99 196/421/97
f 196/421/97 197/424/96 212/423/82
f 197/424/96 182/395/15 181/397/85
f 179/425/118 178/428/98 210/426/117
f 177/427/119 209/430/116 210/426/117
f 177/427/119 176/432/100 208/429/115
f 175/431/120 207/434/114 208/429/115
f 175/431/120 174/436/103 206/433/113
f 173/435/105 205/437/112 206/433/113
f 173/435/105 172/368/95 204/367/94
f 232/438/121 233/441/123 221/439/122
f 233/441/123 231/324/62 220/321/59
f 234/1/57 223/451/130 224/442/124
f 224/442/124 222/493/61 235/443/60
f 225/329/67 214/331/69 215/444/126
f 215/444/126 213/469/129 226/326/64
f 229/320/58 230/494/128 218/446/127
f 230/447/128 228/328/66 217/327/65
f 223/451/130 216/319/56 218/495/127
f 218/495/127 217/496/65 213/449/129
f 213/449/129 215/497/126 214/498/69
f 214/498/69 219/499/68 221/450/122
f 221/450/122 220/500/59 222/501/61
f 222/501/61 224/502/124 223/451/130
f 223/451/130 218/495/127 213/449/129
f 213/449/129 214/498/69 221/450/122
f 221/450/122 222/501/61 223/451/130
