# Rover separado para OpenGL
# Punto de giro original: 1.701000 5.982000 -1.100000
mtllib RoverSeparado.mtl
o Brazo_01_Inferior
v 0.000154 0.283151 -0.311850
v 0.000154 0.283151 0.311848
v 0.108645 0.261571 -0.311850
v 0.108645 0.261571 0.311848
v 0.200619 0.200117 -0.311850
v 0.200619 0.200117 0.311848
v 0.262074 0.108142 -0.311850
v 0.262074 0.108141 0.311848
v 0.283654 -0.000349 -0.311850
v 0.283654 -0.000349 0.311848
v 0.262074 -0.203956 -0.311850
v 0.262074 -0.203956 0.311850
v 0.200619 -0.203956 -0.311850
v 0.200619 -0.203956 0.311850
v 0.108645 -0.203956 -0.311850
v 0.108645 -0.203956 0.311850
v 0.000154 -0.216349 -0.311850
v 0.000154 -0.216349 0.311850
v -0.108337 -0.203956 -0.311850
v -0.108337 -0.203956 0.311850
v -0.200311 -0.203956 -0.311850
v -0.200311 -0.203956 0.311850
v -0.261766 -0.203956 -0.311850
v -0.261766 -0.203956 0.311850
v -0.283346 -0.000349 -0.311850
v -0.283346 -0.000349 0.311848
v -0.261766 0.108142 -0.311850
v -0.261766 0.108142 0.311848
v -0.200311 0.200117 -0.311850
v -0.200311 0.200117 0.311848
v -0.108337 0.261571 -0.311850
v -0.108337 0.261571 0.311848
v 0.000154 0.215652 0.311848
v -0.215846 -0.000349 0.311848
v 0.216154 -0.000349 0.311848
v -0.199404 -0.083007 0.311850
v -0.152581 -0.153083 0.311850
v -0.199404 0.082311 0.311848
v -0.152581 0.152387 0.311848
v -0.082506 0.199211 0.311848
v 0.152889 0.152387 0.311848
v 0.082814 0.199210 0.311848
v -0.082506 -0.199907 0.311850
v 0.082814 -0.199907 0.311850
v 0.199712 0.082311 0.311848
v 0.199712 -0.083007 0.311850
v 0.152889 -0.153083 0.311850
v 0.082814 0.199210 -0.311850
v 0.199712 -0.083007 -0.311850
v -0.082506 -0.199907 -0.311850
v -0.199404 0.082311 -0.311850
v -0.082506 0.199211 -0.311850
v 0.000154 0.215652 -0.311850
v 0.082814 -0.199907 -0.311850
v 0.152889 0.152387 -0.311850
v 0.216154 -0.000349 -0.311850
v 0.199712 0.082311 -0.311850
v 0.152889 -0.153083 -0.311850
v -0.215846 -0.000349 -0.311850
v -0.152581 -0.153083 -0.311850
v -0.199404 -0.083007 -0.311850
v -0.152581 0.152387 -0.311850
v 0.000154 0.283151 -0.105925
v 0.108645 0.261571 -0.105925
v -0.261766 -0.203956 -0.105925
v -0.200311 -0.203956 -0.105925
v 0.200619 0.200117 -0.105925
v -0.283346 -0.000349 -0.105925
v 0.262074 0.108142 -0.105925
v -0.261766 0.108142 -0.105925
v 0.283654 -0.000349 -0.105925
v -0.200311 0.200117 -0.105925
v 0.262074 -0.203956 -0.105925
v -0.108337 0.261571 -0.105925
v 0.200619 -0.203956 -0.105925
v 0.108645 -0.203956 -0.105925
v 0.000154 -0.216349 -0.105925
v -0.108337 -0.203956 -0.105925
v 0.000154 0.283151 0.105924
v 0.108645 0.261571 0.105924
v -0.261766 -0.203956 0.105925
v -0.200311 -0.203956 0.105925
v 0.200619 0.200117 0.105924
v -0.283346 -0.000349 0.105924
v 0.262074 0.108142 0.105924
v -0.261766 0.108142 0.105924
v 0.283654 -0.000349 0.105924
v -0.200311 0.200117 0.105924
v 0.262074 -0.203956 0.105925
v -0.108337 0.261571 0.105924
v 0.200619 -0.203956 0.105925
v 0.108645 -0.203956 0.105925
v 0.000154 -0.216349 0.105925
v -0.108337 -0.203956 0.105925
v 0.082814 0.199210 -0.105925
v 0.199712 -0.083007 -0.105925
v 0.216154 -0.000349 -0.105925
v 0.082814 -0.199907 -0.105925
v 0.000154 0.215652 -0.105925
v -0.082506 0.199211 -0.105925
v -0.199404 -0.083007 -0.105925
v -0.152581 -0.153083 -0.105925
v 0.152889 0.152387 -0.105925
v -0.152581 0.152387 -0.105925
v 0.199712 0.082311 -0.105925
v 0.152889 -0.153083 -0.105925
v -0.082506 -0.199907 -0.105925
v -0.215846 -0.000349 -0.105925
v -0.199404 0.082311 -0.105925
v 0.082814 0.199210 0.105924
v 0.199712 -0.083007 0.105925
v 0.216154 -0.000349 0.105924
v 0.082814 -0.199907 0.105925
v 0.000154 0.215652 0.105924
v -0.082506 0.199211 0.105924
v -0.199404 -0.083007 0.105925
v -0.152581 -0.153083 0.105925
v 0.152889 0.152387 0.105924
v -0.152581 0.152387 0.105924
v 0.199712 0.082311 0.105924
v 0.152889 -0.153083 0.105925
v -0.082506 -0.199907 0.105925
v -0.215846 -0.000349 0.105924
v -0.199404 0.082311 0.105924
v 0.262074 -0.503955 -0.311850
v 0.200619 -0.503955 -0.311850
v 0.262074 -0.503955 0.311850
v 0.200619 -0.503955 0.311850
v 0.108645 -0.503955 -0.311850
v 0.108645 -0.503955 0.311850
v 0.000154 -0.503955 -0.311850
v 0.000154 -0.503955 0.311850
v -0.108337 -0.503955 -0.311850
v -0.108337 -0.503955 0.311850
v -0.200311 -0.503955 -0.311850
v -0.200311 -0.503955 0.311850
v -0.261766 -0.503955 -0.311850
v -0.261766 -0.503955 0.311850
v -0.261766 -0.503955 0.105925
v -0.200311 -0.503955 0.105925
v 0.262074 -0.503955 0.105925
v 0.200619 -0.503955 0.105925
v 0.108645 -0.503955 0.105925
v 0.000154 -0.503955 0.105925
v -0.108337 -0.503955 0.105925
v -0.261766 -0.503955 -0.105925
v -0.200311 -0.503955 -0.105925
v 0.262074 -0.503955 -0.105925
v 0.200619 -0.503955 -0.105925
v 0.108645 -0.503955 -0.105925
v 0.000154 -0.503955 -0.105925
v -0.108337 -0.503955 -0.105925
v -0.256747 -0.800349 0.499999
v -0.499846 -0.800349 0.256901
v -0.428644 -0.800349 0.428798
v -0.499846 -0.503985 0.256901
v -0.256747 -0.503985 0.499999
v -0.428644 -0.503985 0.428798
v -0.499846 -0.800349 -0.256901
v -0.256747 -0.800349 -0.500000
v -0.428644 -0.800349 -0.428798
v -0.256747 -0.503985 -0.500000
v -0.499846 -0.503985 -0.256901
v -0.428644 -0.503985 -0.428798
v 0.500154 -0.800349 0.256901
v 0.257055 -0.800349 0.499999
v 0.428952 -0.800349 0.428798
v 0.257055 -0.503985 0.499999
v 0.500154 -0.503985 0.256901
v 0.428952 -0.503985 0.428798
v 0.257055 -0.800349 -0.500000
v 0.500154 -0.800349 -0.256901
v 0.428952 -0.800349 -0.428798
v 0.500154 -0.503985 -0.256901
v 0.257055 -0.503985 -0.500000
v 0.428952 -0.503985 -0.428798
v 2.696742 2.921167 0.472958
v 2.555322 2.920558 0.472958
v 2.898920 2.579909 0.472958
v 2.898311 2.721329 0.472958
v 2.555322 2.920558 -0.472962
v 2.696742 2.921167 -0.472962
v 2.898311 2.721329 -0.472962
v 2.898920 2.579909 -0.472962
v 2.898920 2.579909 -0.331842
v 2.898311 2.721329 -0.331842
v 2.696742 2.921167 -0.331842
v 2.555322 2.920558 -0.331842
v 2.555322 2.920558 0.331838
v 2.696742 2.921167 0.331838
v 2.898311 2.721329 0.331838
v 2.898920 2.579909 0.331838
v 0.153546 -0.152424 -0.345601
v 0.153546 -0.152424 0.345600
v 0.083673 -0.199549 -0.345601
v 0.083673 -0.199549 0.345600
v 0.001085 -0.216345 -0.345601
v 0.001085 -0.216345 0.345600
v -0.081645 -0.200261 -0.345601
v -0.081645 -0.200261 0.345600
v -0.151922 -0.153741 -0.345601
v -0.151922 -0.153741 0.345600
v -0.199046 -0.083868 -0.345601
v -0.199046 -0.083868 0.345600
v -0.215844 -0.001279 -0.345601
v -0.215844 -0.001279 0.345598
v -0.199759 0.081450 -0.345601
v -0.199759 0.081450 0.345598
v -0.153238 0.151726 -0.345601
v -0.153238 0.151727 0.345598
v -0.083366 0.198852 -0.345601
v -0.083366 0.198852 0.345598
v -0.000777 0.215649 -0.345601
v -0.000777 0.215649 0.345598
v 0.081952 0.199564 -0.345601
v 0.081952 0.199564 0.345598
v 0.152229 0.153044 -0.345601
v 0.152229 0.153044 0.345598
v 0.199353 0.083170 -0.345601
v 0.199353 0.083170 0.345598
v 0.216151 0.000583 -0.345601
v 0.216151 0.000583 0.345598
v 0.200066 -0.082147 -0.345601
v 0.200066 -0.082147 0.345600
v 2.662567 2.429457 -0.540002
v 2.535517 2.376188 -0.540002
v 2.408011 2.428360 -0.540002
v 2.354742 2.555411 -0.540002
v 2.406914 2.682915 -0.540002
v 2.533964 2.736184 -0.540002
v 2.661470 2.684013 -0.540002
v 2.714739 2.556963 -0.540002
v 2.662567 2.429457 -0.331842
v 2.662567 2.429457 -0.472962
v 2.535517 2.376188 -0.331842
v 2.535517 2.376188 -0.472962
v 2.408011 2.428360 -0.331842
v 2.408011 2.428360 -0.472962
v 2.354742 2.555411 -0.331842
v 2.354742 2.555411 -0.472962
v 2.406914 2.682915 -0.331842
v 2.406914 2.682915 -0.472962
v 2.533964 2.736184 -0.331842
v 2.533964 2.736184 -0.472962
v 2.661470 2.684013 -0.472962
v 2.661470 2.684013 -0.331842
v 2.714739 2.556963 -0.472962
v 2.714739 2.556963 -0.331842
v -0.364026 -0.024071 0.472959
v -0.363417 -0.165491 0.472959
v -0.393011 -0.094906 0.472959
v -0.161848 -0.365328 0.472959
v -0.020428 -0.364719 0.472959
v -0.091012 -0.394313 0.472959
v -0.363416 -0.165491 -0.472960
v -0.364026 -0.024071 -0.472960
v -0.393010 -0.094906 -0.472960
v -0.020428 -0.364719 -0.472960
v -0.161848 -0.365328 -0.472960
v -0.091011 -0.394313 -0.472960
v -0.364026 -0.024071 -0.331840
v -0.363417 -0.165491 -0.331840
v -0.393011 -0.094906 -0.331840
v -0.161848 -0.365328 -0.331840
v -0.020428 -0.364719 -0.331840
v -0.091012 -0.394313 -0.331840
v -0.020428 -0.364719 0.331840
v -0.161848 -0.365328 0.331840
v -0.091012 -0.394313 0.331840
v -0.363417 -0.165491 0.331840
v -0.364026 -0.024071 0.331840
v -0.393011 -0.094906 0.331840
v 2.333361 2.876424 -0.321835
v 2.333361 2.876424 0.319044
v 2.539728 2.859563 -0.321835
v 2.539728 2.859563 0.319044
v 2.781739 2.348259 -0.321835
v 2.781739 2.348259 0.319044
v 2.663953 2.177971 -0.321835
v 2.663953 2.177971 0.319044
v 2.476803 2.089389 -0.321835
v 2.476803 2.089389 0.319044
v 2.270436 2.106249 -0.321835
v 2.270436 2.106249 0.319044
v 2.100147 2.224036 -0.321835
v 2.100147 2.224036 0.319044
v 2.011565 2.411185 -0.321835
v 2.011565 2.411185 0.319044
v 2.028425 2.617552 -0.321835
v 2.028425 2.617552 0.319043
v 2.146211 2.787842 -0.321835
v 2.146211 2.787842 0.319043
v 2.323525 2.343142 -0.321835
v 2.323525 2.343142 0.319044
v 2.421131 2.278530 -0.321835
v 2.421131 2.278530 0.319044
v 2.258074 2.440188 -0.321835
v 2.258074 2.440188 0.319044
v 2.406914 2.682915 -0.300002
v 2.408011 2.428360 -0.300002
v 2.354742 2.555411 -0.300002
v 2.533964 2.736184 -0.300002
v 2.234743 2.554893 -0.321835
v 2.234743 2.554893 0.319044
v 2.662567 2.429457 -0.300002
v 2.535517 2.376188 -0.300002
v 2.661470 2.684013 -0.300002
v 2.714739 2.556963 -0.300002
v 2.536033 2.256190 -0.321835
v 2.536033 2.256190 0.319044
v 2.257084 2.669795 -0.321835
v 2.257084 2.669795 0.319044
v 2.650740 2.279521 0.319043
v 2.650740 2.279521 -0.321835
v 2.747785 2.344971 -0.321835
v 2.747785 2.344971 0.319043
v 2.321696 2.767402 -0.321835
v 2.321696 2.767402 0.319044
v 2.418741 2.832853 0.319044
v 2.418741 2.832853 -0.321835
v 2.533447 2.856183 -0.321835
v 2.533447 2.856183 0.319044
v 2.014542 2.404894 0.319044
v 2.016317 2.401143 0.319044
v 3.450594 2.506415 -0.195650
v 3.427596 2.462266 0.402282
v 3.517063 2.410172 -0.200199
v 3.494065 2.366022 0.397732
v 3.541641 2.295972 -0.207687
v 3.518642 2.251822 0.390245
v 3.520585 2.181202 -0.216971
v 3.497587 2.137052 0.380960
v 3.457102 2.083334 -0.226639
v 3.434104 2.039184 0.371292
v 3.360855 2.017269 -0.235219
v 3.337857 1.973118 0.362712
v 3.246499 1.993063 -0.241405
v 3.223500 1.948912 0.356526
v 3.131441 2.014401 -0.244255
v 3.108443 1.970250 0.353676
v 3.033199 2.078037 -0.243335
v 3.010201 2.033886 0.354596
v 2.966730 2.174280 -0.238785
v 2.943732 2.130129 0.359146
v 2.942153 2.288479 -0.231298
v 2.919154 2.244330 0.366633
v 2.963208 2.403250 -0.222014
v 2.940209 2.359099 0.375918
v 3.026691 2.501117 -0.212345
v 3.003693 2.456967 0.385586
v 3.122938 2.567183 -0.203765
v 3.099939 2.523033 0.394166
v 3.237295 2.591389 -0.197579
v 3.214296 2.547239 0.400352
v 3.352352 2.570050 -0.194730
v 3.329354 2.525900 0.403202
vt 0.137046 0.774263
vt 0.174826 0.707327
vt 0.175448 0.773904
vt 0.133831 0.429874
vt 0.171612 0.362938
vt 0.172233 0.429515
vt 0.103558 0.561683
vt 0.126956 0.681827
vt 0.006396 0.660676
vt 0.135974 0.659467
vt 0.173755 0.592530
vt 0.174376 0.659108
vt 0.134902 0.544670
vt 0.172683 0.477734
vt 0.173305 0.544312
vt 0.136424 0.707685
vt 0.174601 0.683218
vt 0.136199 0.683576
vt 0.135127 0.568780
vt 0.173530 0.568421
vt 0.135353 0.592889
vt 0.134056 0.453983
vt 0.172458 0.453625
vt 0.134281 0.478093
vt 0.137271 0.798372
vt 0.175673 0.798014
vt 0.137496 0.822482
vt 0.271539 0.560115
vt 0.294936 0.680259
vt 0.133209 0.363296
vt 0.005774 0.594099
vt 0.014792 0.571738
vt 0.036981 0.562304
vt 0.125918 0.570701
vt 0.104768 0.691261
vt 0.038190 0.691882
vt 0.015830 0.682864
vt 0.175898 0.822123
vt 0.182773 0.570170
vt 0.204961 0.560736
vt 0.293899 0.569133
vt 0.303333 0.591321
vt 0.303955 0.657898
vt 0.272748 0.689693
vt 0.206171 0.690315
vt 0.183811 0.681296
vt 0.046828 0.461009
vt 0.046828 0.157667
vt 0.073616 0.164646
vt 0.083291 0.454278
vt 0.073442 0.164895
vt 0.083291 0.164895
vt 0.117058 0.164895
vt 0.126907 0.454278
vt 0.117058 0.454278
vt 0.083465 0.484522
vt 0.073616 0.464713
vt 0.083465 0.464713
vt 0.117232 0.454030
vt 0.127081 0.164646
vt 0.127081 0.454030
vt 0.083465 0.454030
vt 0.083465 0.164646
vt 0.127081 0.154776
vt 0.117232 0.134967
vt 0.127081 0.134967
vt 0.090269 0.461257
vt 0.083291 0.484771
vt 0.073442 0.464961
vt 0.083291 0.464961
vt 0.126907 0.125347
vt 0.117058 0.135216
vt 0.117058 0.125347
vt 0.117232 0.154777
vt 0.127081 0.125097
vt 0.117232 0.125097
vt 0.126907 0.155025
vt 0.126907 0.164895
vt 0.126907 0.135216
vt 0.087145 0.484830
vt 0.122878 0.480473
vt 0.122878 0.484830
vt 0.087145 0.480473
vt 0.122878 0.476116
vt 0.087145 0.476116
vt 0.122878 0.471759
vt 0.087145 0.471759
vt 0.122878 0.467402
vt 0.087145 0.467402
vt 0.122878 0.463045
vt 0.087145 0.532756
vt 0.122878 0.528399
vt 0.122878 0.532756
vt 0.087145 0.528399
vt 0.122878 0.524042
vt 0.087145 0.524042
vt 0.122878 0.519686
vt 0.087145 0.519685
vt 0.122878 0.515329
vt 0.087145 0.515329
vt 0.122878 0.510972
vt 0.087145 0.510972
vt 0.122878 0.506615
vt 0.087145 0.506615
vt 0.122878 0.502258
vt 0.087145 0.502258
vt 0.122878 0.497901
vt 0.087145 0.497901
vt 0.122878 0.493544
vt 0.087145 0.493544
vt 0.122878 0.489187
vt 0.087145 0.489187
vt 0.103538 0.052377
vt 0.091668 0.049633
vt 0.103538 0.049633
vt 0.091931 0.038640
vt 0.103801 0.044417
vt 0.091931 0.044417
vt 0.080061 0.044417
vt 0.080061 0.038640
vt 0.068191 0.044417
vt 0.068191 0.038640
vt 0.056321 0.044417
vt 0.056321 0.038640
vt 0.044451 0.044417
vt 0.044451 0.038640
vt 0.044188 0.052377
vt 0.032318 0.049633
vt 0.044188 0.049633
vt 0.032581 0.044417
vt 0.032581 0.038640
vt 0.127278 0.052377
vt 0.115408 0.049633
vt 0.127278 0.049633
vt 0.127541 0.038640
vt 0.115671 0.044417
vt 0.115671 0.038640
vt 0.103801 0.038640
vt 0.099740 0.129955
vt 0.073398 0.119043
vt 0.084309 0.092701
vt 0.073616 0.454030
vt 0.083465 0.459371
vt 0.073616 0.459371
vt 0.083291 0.495454
vt 0.073442 0.490112
vt 0.083291 0.490112
vt 0.073442 0.484771
vt 0.073616 0.495205
vt 0.083465 0.489863
vt 0.083465 0.495205
vt 0.073616 0.489864
vt 0.073442 0.454278
vt 0.083291 0.459620
vt 0.073442 0.459620
vt -0.002734 0.058292
vt 0.036350 0.070598
vt -0.002640 0.070889
vt -0.002546 0.083486
vt 0.036444 0.083195
vt -0.002452 0.096083
vt 0.036720 0.120310
vt 0.036725 0.120895
vt -0.002264 0.121276
vt 0.036599 0.134238
vt -0.002382 0.133870
vt -0.002501 0.146465
vt 0.036480 0.146832
vt -0.002620 0.159059
vt 0.089189 0.070066
vt 0.072594 0.086322
vt 0.067351 0.070066
vt 0.091668 0.052377
vt 0.079798 0.049633
vt 0.109182 0.142560
vt 0.090087 0.153675
vt 0.096666 0.145432
vt 0.115408 0.052377
vt 0.067928 0.052377
vt 0.079798 0.052377
vt 0.056058 0.052377
vt 0.067928 0.049633
vt 0.056058 0.049633
vt 0.083158 0.079933
vt 0.095363 0.078072
vt 0.037519 0.099898
vt 0.064188 0.120461
vt 0.037519 0.121736
vt 0.070578 0.131025
vt 0.048438 0.140649
vt 0.080524 0.138340
vt 0.067351 0.151569
vt 0.092512 0.141291
vt 0.089189 0.151569
vt 0.104717 0.139431
vt 0.108102 0.140649
vt 0.062328 0.108256
vt 0.065280 0.096268
vt 0.048438 0.080985
vt 0.107348 0.081034
vt 0.062737 0.113373
vt 0.065606 0.125928
vt 0.037181 0.098770
vt 0.064948 0.100694
vt 0.048982 0.079302
vt 0.071843 0.089826
vt 0.068937 0.068343
vt 0.091698 0.068830
vt 0.082372 0.082424
vt 0.094932 0.079615
vt 0.107611 0.081826
vt 0.083968 0.143279
vt 0.067309 0.153294
vt 0.047773 0.141575
vt 0.073061 0.136430
vt 0.036718 0.121644
vt 0.036242 0.172021
vt -0.002739 0.171653
vt 0.036240 0.055926
vt 0.036256 0.058001
vt 0.036232 0.172701
vt 0.111166 0.080631
vt 0.036538 0.095792
vt -0.002358 0.108680
vt 0.071572 0.458965
vt 0.066637 0.461009
vt 0.041893 0.458965
vt 0.039849 0.454030
vt 0.039849 0.164646
vt 0.066637 0.157667
vt 0.073616 0.484522
vt 0.117232 0.164646
vt 0.090270 0.157916
vt 0.110079 0.157916
vt 0.115013 0.459213
vt 0.110079 0.461257
vt 0.085335 0.459213
vt 0.117058 0.155025
vt 0.087145 0.463046
vt 0.032318 0.052377
vt 0.127541 0.044417
vt 0.099740 0.092701
vt 0.110652 0.103612
vt 0.110652 0.119043
vt 0.084309 0.129955
vt 0.073398 0.103612
vt 0.073442 0.495454
vt 0.036632 0.108389
vt 0.036361 0.159427
vt 0.110004 0.142616
vt 0.108102 0.080985
vt -0.002750 0.056217
vt -0.002750 0.172333
vt 0.215273 0.397490
vt 0.242840 0.382682
vt 0.242840 0.397490
vt 0.215273 0.382682
vt 0.242840 0.367874
vt 0.215273 0.367874
vt 0.242840 0.353066
vt 0.215273 0.353066
vt 0.242840 0.338258
vt 0.215273 0.338258
vt 0.242840 0.310849
vt 0.082749 0.751077
vt 0.097524 0.702885
vt 0.097524 0.751077
vt 0.094401 0.920835
vt 0.017398 0.891788
vt 0.097719 0.891788
vt 0.065510 0.748880
vt 0.047270 0.699360
vt 0.065946 0.699129
vt 0.107397 0.702885
vt 0.107396 0.751077
vt 0.096997 0.375052
vt 0.019051 0.342924
vt 0.019051 0.375052
vt 0.092912 0.920835
vt 0.015909 0.891788
vt 0.096229 0.891788
vt 0.215273 0.484131
vt 0.242840 0.456721
vt 0.242840 0.484131
vt 0.215273 0.456721
vt 0.242840 0.441913
vt 0.215273 0.441913
vt 0.242840 0.427105
vt 0.226645 0.920835
vt 0.204414 0.974506
vt 0.204171 0.942966
vt 0.096229 0.974506
vt 0.128612 0.974264
vt 0.150742 0.978666
vt 0.215273 0.427105
vt 0.242840 0.412298
vt 0.215273 0.412298
vt 0.181278 0.990960
vt 0.097719 0.974507
vt 0.152232 0.978666
vt 0.181278 0.850710
vt 0.222357 0.891788
vt 0.193124 0.879942
vt 0.096997 0.444365
vt 0.019051 0.432518
vt 0.019051 0.444365
vt 0.096997 0.432518
vt 0.019051 0.420672
vt 0.096997 0.408825
vt 0.019051 0.408825
vt 0.019051 0.396979
vt 0.096997 0.396979
vt 0.085027 0.698933
vt 0.084278 0.750914
vt 0.017398 0.949882
vt 0.017398 0.920835
vt 0.101299 0.698952
vt 0.098986 0.750931
vt 0.015909 0.867163
vt 0.096229 0.867163
vt 0.109196 0.698933
vt 0.110572 0.751919
vt 0.097719 0.949882
vt 0.019051 0.513677
vt 0.096997 0.491750
vt 0.019051 0.491750
vt 0.019051 0.479904
vt 0.096997 0.479904
vt 0.019051 0.468057
vt 0.096997 0.468057
vt 0.019051 0.456211
vt 0.096997 0.456211
vt 0.079580 0.751590
vt 0.055251 0.815956
vt 0.066445 0.815483
vt 0.053974 0.824672
vt 0.044816 0.812409
vt 0.082195 0.818889
vt 0.077076 0.810921
vt 0.085794 0.802407
vt 0.068339 0.824334
vt 0.040570 0.820096
vt 0.029537 0.811135
vt 0.036313 0.805365
vt 0.022103 0.798647
vt 0.030807 0.795544
vt 0.093983 0.808435
vt 0.091191 0.790388
vt 0.029214 0.783856
vt 0.019234 0.783620
vt 0.102150 0.793236
vt 0.091793 0.775964
vt 0.032028 0.770640
vt 0.021598 0.750802
vt 0.087012 0.761615
vt 0.039857 0.759217
vt 0.031889 0.750746
vt 0.051609 0.751543
vt 0.080104 0.751932
vt 0.047284 0.750838
vt 0.090932 0.751038
vt 0.097719 0.867163
vt 0.130101 0.867406
vt 0.047893 0.751077
vt 0.065321 0.749086
vt 0.052043 0.751728
vt 0.078600 0.751728
vt 0.033118 0.751077
vt 0.040786 0.759249
vt 0.023246 0.751077
vt 0.089857 0.759250
vt 0.082749 0.825860
vt 0.078600 0.815842
vt 0.089857 0.808321
vt 0.033264 0.770506
vt 0.097379 0.770507
vt 0.110863 0.783785
vt 0.019779 0.783785
vt 0.030623 0.783785
vt 0.100020 0.783785
vt 0.023246 0.801213
vt 0.107396 0.801213
vt 0.033264 0.797064
vt 0.097379 0.797064
vt 0.040786 0.808321
vt 0.033118 0.815988
vt 0.097524 0.815988
vt 0.047893 0.825860
vt 0.052043 0.815842
vt 0.065321 0.818484
vt 0.065321 0.829327
vt 0.015909 0.949882
vt 0.015909 0.920835
vt 0.082749 0.702885
vt 0.215273 0.524291
vt 0.031538 0.699549
vt 0.017398 0.867163
vt 0.047893 0.702885
vt 0.065321 0.702885
vt 0.096229 0.949882
vt 0.017398 0.850710
vt 0.097719 0.850710
vt 0.033118 0.702885
vt 0.096997 0.545806
vt 0.096997 0.513677
vt 0.096229 0.990960
vt 0.015909 0.974506
vt 0.215273 0.310849
vt 0.242840 0.270688
vt 0.097719 0.990960
vt 0.017398 0.974506
vt 0.015909 0.850710
vt 0.096229 0.850710
vt 0.179789 0.850710
vt 0.172873 0.867406
vt 0.150742 0.863004
vt 0.096997 0.342924
vt 0.208573 0.920835
vt 0.220868 0.949882
vt 0.191635 0.961727
vt 0.172873 0.974264
vt 0.179789 0.990960
vt 0.150742 0.996738
vt 0.097314 0.942966
vt 0.109850 0.961727
vt 0.210063 0.920835
vt 0.205660 0.898704
vt 0.228135 0.920835
vt 0.222357 0.949882
vt 0.205903 0.974506
vt 0.152231 0.996738
vt 0.205660 0.942966
vt 0.098803 0.942966
vt 0.111339 0.961727
vt 0.193124 0.961727
vt 0.130101 0.974264
vt 0.174362 0.974264
vt 0.174362 0.867406
vt 0.205903 0.867163
vt 0.096997 0.420672
vt 0.098803 0.898704
vt 0.152231 0.844932
vt 0.111339 0.879942
vt 0.152232 0.863004
vt 0.242840 0.524291
vt 0.021061 0.699659
vt 0.023246 0.702885
vt 0.019051 0.545806
vt 0.015909 0.990960
vt 0.215273 0.270688
vt 0.017398 0.990960
vt 0.097314 0.898704
vt 0.150742 0.844932
vt 0.109850 0.879942
vt 0.204414 0.867163
vt 0.220868 0.891788
vt 0.204171 0.898704
vt 0.128611 0.867406
vt 0.191635 0.879942
vt 0.607413 0.036614
vt 0.603145 0.014733
vt 0.607413 0.014733
vt 0.603145 0.036614
vt 0.598876 0.014733
vt 0.598876 0.036614
vt 0.594607 0.014733
vt 0.594607 0.036614
vt 0.590339 0.014733
vt 0.590339 0.036614
vt 0.586070 0.014733
vt 0.586070 0.036614
vt 0.581802 0.014733
vt 0.581802 0.036614
vt 0.577533 0.014733
vt 0.577533 0.036614
vt 0.573264 0.014733
vt 0.573264 0.036614
vt 0.568996 0.014733
vt 0.637294 0.036614
vt 0.633025 0.014733
vt 0.637294 0.014733
vt 0.633025 0.036614
vt 0.628757 0.014733
vt 0.628757 0.036614
vt 0.624488 0.014733
vt 0.624488 0.036614
vt 0.620219 0.014733
vt 0.620219 0.036614
vt 0.615951 0.014733
vt 0.615951 0.036614
vt 0.611682 0.014733
vt 0.611682 0.036614
vt 0.568996 0.036614
vt 0.945445 0.148636
vt 0.879277 0.880651
vt 0.862039 0.863413
vt 0.759513 0.880651
vt 0.759513 0.131398
vt 0.825680 0.148636
vt 0.862040 0.148636
vt 0.879278 0.131398
vt 0.928207 0.131398
vt 0.945444 0.863413
vt 0.940395 0.875602
vt 0.928206 0.880651
vt 0.867088 0.875602
vt 0.825680 0.863413
vt 0.820631 0.875602
vt 0.808442 0.880651
vt 0.747324 0.875602
vt 0.742275 0.863413
vt 0.742275 0.148636
vt 0.808442 0.131398
vt 0.629694 0.112102
vt 0.643987 0.102551
vt 0.653538 0.116845
vt 0.630084 0.112301
vt 0.644378 0.102750
vt 0.653929 0.117044
vt 0.651723 0.121227
vt 0.648369 0.124581
vt 0.643987 0.126396
vt 0.639244 0.126396
vt 0.634862 0.124581
vt 0.631509 0.121227
vt 0.629694 0.116845
vt 0.631509 0.107720
vt 0.634862 0.104366
vt 0.639244 0.102551
vt 0.648369 0.104366
vt 0.651723 0.107720
vt 0.653538 0.112102
vt 0.652114 0.121425
vt 0.648760 0.124779
vt 0.644378 0.126594
vt 0.639635 0.126594
vt 0.635253 0.124779
vt 0.631899 0.121425
vt 0.630084 0.117044
vt 0.631899 0.107919
vt 0.635253 0.104565
vt 0.639635 0.102750
vt 0.648760 0.104565
vt 0.652114 0.107919
vt 0.653929 0.112301
vn -0.000000 -0.000000 1.000000
vn 0.707100 0.707100 -0.000000
vn -0.707100 0.707100 -0.000000
vn -0.000000 1.000000 -0.000000
vn 1.000000 -0.000000 -0.000000
vn -0.000000 -1.000000 -0.000000
vn -0.000000 -0.000000 -1.000000
vn -1.000000 -0.000000 -0.000000
vn 0.195100 -0.000000 0.980800
vn 0.980800 -0.000000 -0.195100
vn 0.980800 -0.000000 0.195100
vn -0.980800 -0.000000 -0.195100
vn -0.195100 -0.000000 0.980800
vn -0.195100 -0.000000 -0.980800
vn -0.980800 -0.000000 0.195100
vn 0.195100 -0.000000 -0.980800
vn 0.923900 -0.000000 -0.382700
vn 0.382700 -0.000000 -0.923900
vn -0.382700 -0.000000 -0.923900
vn -0.923900 -0.000000 -0.382700
vn 0.923900 -0.000000 0.382700
vn 0.382700 -0.000000 0.923900
vn -0.382700 -0.000000 0.923900
vn -0.923900 -0.000000 0.382700
vn 0.923900 0.382700 -0.000000
vn 0.382700 0.923900 -0.000000
vn -0.382700 0.923900 -0.000000
vn -0.923900 0.382700 -0.000000
vn -0.000100 -0.000000 1.000000
vn -0.833900 0.552000 -0.000000
vn -0.710100 0.704100 -0.000000
vn 0.710100 -0.704100 -0.000000
vn 0.559200 -0.829100 -0.000000
vn -0.552000 -0.833900 -0.000000
vn -0.829100 -0.559100 -0.000000
vn -0.829100 -0.559200 -0.000000
vn 0.704100 0.710100 -0.000000
vn 0.704000 0.710200 -0.000000
vn -0.004300 1.000000 -0.000000
vn 1.000000 0.004300 -0.000000
vn 0.704100 0.710200 -0.000000
vn 0.710200 -0.704000 -0.000000
vn 0.386700 -0.922200 -0.000000
vn 0.004300 -1.000000 -0.000000
vn -0.378700 -0.925500 -0.000000
vn -0.704000 -0.710200 -0.000000
vn -0.704100 -0.710100 -0.000000
vn -0.922200 -0.386700 -0.000000
vn -1.000000 -0.004300 -0.000000
vn -0.925500 0.378700 -0.000000
vn -0.710200 0.704000 -0.000000
vn -0.386700 0.922200 -0.000000
vn 0.378700 0.925500 -0.000000
vn 0.922200 0.386700 -0.000000
vn 0.925500 -0.378700 -0.000000
vn 0.822400 -0.568900 -0.000000
vn 0.647200 -0.762300 -0.000000
vn 0.179300 -0.983800 -0.000000
vn -0.081400 -0.996700 -0.000000
vn -0.903900 -0.427800 -0.000000
vn -0.996700 0.081400 -0.000000
vn -0.941600 0.336600 -0.000000
vn -0.822400 0.568900 -0.000000
vn -0.427800 0.903900 -0.000000
vn -0.179300 0.983800 -0.000000
vn 0.081400 0.996700 -0.000000
vn -0.096400 0.995300 -0.000000
vn 0.473800 -0.880600 -0.000000
vn -0.568900 -0.822400 -0.000000
vn -0.762300 -0.647200 -0.000000
vn 0.999000 0.045400 -0.000000
vn 0.998600 -0.052800 -0.000000
vn -0.998600 -0.052800 -0.000000
vn -0.999000 0.045400 -0.000000
vn 0.000100 -0.000000 1.000000
vn 0.493600 0.483800 0.722700
vn 0.710000 0.342400 -0.615400
vn 0.544600 0.581700 -0.604100
vn 0.658900 0.244400 0.711400
vn 0.771100 0.058300 -0.634100
vn 0.720100 -0.039700 0.692800
vn 0.718700 -0.227200 -0.657100
vn 0.667700 -0.325100 0.669700
vn 0.560800 -0.470600 -0.681200
vn 0.509800 -0.568600 0.645600
vn 0.321400 -0.634900 -0.702500
vn 0.270400 -0.732900 0.624300
vn 0.037000 -0.695100 -0.717900
vn -0.014100 -0.793100 0.608900
vn -0.249200 -0.642100 -0.725000
vn -0.300300 -0.740000 0.601800
vn -0.493600 -0.483800 -0.722700
vn -0.544600 -0.581800 0.604100
vn -0.658900 -0.244400 -0.711400
vn -0.709900 -0.342400 0.615400
vn -0.720000 0.039700 -0.692800
vn -0.771100 -0.058300 0.634100
vn -0.667700 0.325100 -0.669700
vn -0.718700 0.227200 0.657200
vn -0.509800 0.568600 -0.645600
vn -0.560800 0.470600 0.681200
vn -0.270400 0.732900 -0.624300
vn -0.321400 0.634900 0.702500
vn 0.014100 0.793100 -0.608900
vn -0.037000 0.695200 0.717900
vn 0.300300 0.740000 -0.601800
vn 0.249200 0.642100 0.725000
usemtl SpacialRoverExploreralumWhite
f 168/1/9 153/2/13 166/3/9
f 174/4/10 165/5/11 172/6/10
f 162/7/4 158/8/4 169/9/4
f 156/10/15 159/11/12 154/12/15
f 162/13/14 171/14/16 160/15/14
f 157/16/13 155/17/23 153/2/13
f 158/18/24 154/12/15 155/17/24
f 160/15/14 164/19/19 162/13/14
f 161/20/20 163/21/12 164/19/20
f 172/6/10 176/22/17 174/4/10
f 173/23/18 175/24/16 176/22/18
f 166/3/9 170/25/22 168/1/9
f 167/26/21 169/27/11 170/25/21
f 171/28/6 167/29/6 154/12/6
f 168/1/9 157/16/13 153/2/13
f 174/4/10 169/30/11 165/5/11
f 169/9/4 174/31/4 176/32/4
f 176/32/4 175/33/4 162/7/4
f 162/7/4 164/34/4 163/21/4
f 163/21/4 156/10/4 158/8/4
f 158/8/4 157/35/4 168/36/4
f 168/36/4 170/37/4 169/9/4
f 169/9/4 176/32/4 162/7/4
f 162/7/4 163/21/4 158/8/4
f 158/8/4 168/36/4 169/9/4
f 156/10/15 163/21/12 159/11/12
f 162/13/14 175/24/16 171/14/16
f 157/16/13 158/18/23 155/17/23
f 158/18/24 156/10/15 154/12/15
f 160/15/14 161/20/19 164/19/19
f 161/20/20 159/11/12 163/21/12
f 172/6/10 173/23/17 176/22/17
f 173/23/18 171/14/16 175/24/16
f 166/3/9 167/26/22 170/25/22
f 167/26/21 165/38/11 169/27/11
f 154/12/6 159/11/6 161/39/6
f 161/39/6 160/40/6 171/28/6
f 171/28/6 173/41/6 172/42/6
f 172/42/6 165/43/6 167/29/6
f 167/29/6 166/44/6 153/45/6
f 153/45/6 155/46/6 154/12/6
f 154/12/6 161/39/6 171/28/6
f 171/28/6 172/42/6 167/29/6
f 167/29/6 153/45/6 154/12/6
f 264/47/1 186/48/1 188/49/1
f 271/50/30 178/51/31 189/52/31
f 192/53/32 253/54/33 267/55/33
f 259/56/34 262/57/35 255/58/36
f 258/59/33 185/60/32 265/61/33
f 256/62/30 188/49/31 181/63/31
f 186/64/37 182/65/38 187/66/38
f 192/53/7 270/67/7 271/50/7
f 268/68/34 250/69/35 270/70/36
f 178/71/39 190/72/39 189/73/39
f 185/60/40 183/74/40 186/64/40
f 188/75/39 182/65/39 181/76/39
f 192/53/40 180/77/40 179/78/40
f 180/77/37 190/72/41 177/79/38
f 194/80/42 195/81/43 193/82/42
f 196/83/43 197/84/44 195/81/43
f 198/85/44 199/86/45 197/84/44
f 200/87/45 201/88/46 199/86/45
f 202/89/47 203/90/48 201/88/46
f 204/91/48 205/92/49 203/93/48
f 206/94/49 207/95/50 205/92/49
f 208/96/50 209/97/51 207/95/50
f 210/98/51 211/99/52 209/97/51
f 212/100/52 213/101/39 211/99/52
f 214/102/39 215/103/53 213/101/39
f 216/104/53 217/105/37 215/103/53
f 218/106/37 219/107/54 217/105/37
f 220/108/54 221/109/40 219/107/54
f 222/110/40 223/111/55 221/109/40
f 224/112/55 193/82/42 223/111/55
f 305/113/43 235/114/43 233/115/43
f 226/116/43 234/117/43 236/118/43
f 226/116/45 238/119/45 227/120/45
f 227/120/48 240/121/48 228/122/48
f 228/122/50 242/123/50 229/124/50
f 229/124/52 244/125/52 230/126/52
f 302/127/53 246/128/53 243/129/53
f 230/126/53 245/130/53 231/131/53
f 307/132/54 248/133/54 246/134/54
f 231/135/54 247/136/54 232/137/54
f 225/138/55 247/136/55 234/117/55
f 227/139/7 229/140/7 231/141/7
f 261/142/30 257/143/50 263/144/50
f 263/144/48 255/58/36 262/57/35
f 267/145/33 254/146/43 269/147/43
f 269/147/45 252/148/34 268/68/34
f 265/149/33 260/150/43 258/151/33
f 266/152/45 259/56/34 260/150/45
f 249/153/30 272/154/50 251/155/50
f 251/155/48 270/70/36 250/69/35
f 277/156/56 280/157/57 279/158/57
f 280/157/57 281/159/58 279/158/57
f 282/160/58 283/161/59 281/159/58
f 324/162/60 323/163/60 287/164/60
f 287/164/61 290/165/62 289/166/62
f 290/165/62 291/167/63 289/166/62
f 292/168/64 273/169/65 291/167/64
f 273/170/7 311/171/7 291/172/7
f 306/173/45 237/174/45 235/114/45
f 322/175/1 274/176/1 319/177/1
f 305/113/55 248/133/55 308/178/55
f 301/179/48 237/174/48 300/180/48
f 299/181/50 239/182/50 301/179/50
f 302/127/52 241/183/52 299/181/52
f 317/184/7 273/170/7 320/185/7
f 287/186/7 293/187/7 285/188/7
f 285/188/7 295/189/7 283/190/7
f 283/190/7 309/191/7 281/192/7
f 281/192/7 314/193/7 279/194/7
f 279/194/7 315/195/7 277/196/7
f 315/195/7 279/194/7 314/193/7
f 314/193/7 281/192/7 309/191/7
f 309/191/7 283/190/7 295/189/7
f 295/189/7 285/188/7 293/187/7
f 293/187/7 287/186/7 297/197/7
f 291/172/7 311/171/7 303/198/7
f 303/198/7 297/197/7 289/199/7
f 297/197/7 287/186/7 289/199/7
f 289/199/7 291/172/7 303/198/7
f 311/171/7 273/170/7 317/184/7
f 273/170/7 321/200/7 320/185/7
f 323/163/1 298/201/1 304/202/1
f 298/201/1 286/203/1 294/204/1
f 294/204/1 284/205/1 296/206/1
f 296/206/1 284/205/1 282/207/1
f 282/207/1 280/208/1 310/209/1
f 310/209/1 280/208/1 313/210/1
f 313/210/1 280/208/1 316/211/1
f 310/209/1 296/206/1 282/207/1
f 284/205/1 294/204/1 286/203/1
f 286/203/1 298/201/1 324/162/1
f 319/177/1 274/176/1 318/212/1
f 318/212/1 274/176/1 292/213/1
f 292/213/1 290/214/1 312/215/1
f 288/216/1 304/202/1 290/214/1
f 304/202/1 312/215/1 290/214/1
f 312/215/1 318/212/1 292/213/1
f 273/169/65 276/217/66 275/218/66
f 277/156/67 316/219/67 278/220/67
f 322/221/68 275/218/68 276/217/68
f 316/211/1 280/208/1 278/222/1
f 284/223/69 285/224/70 283/161/69
f 188/49/1 261/142/1 263/225/1
f 263/225/1 262/226/1 264/47/1
f 264/47/1 266/227/1 265/228/1
f 265/228/1 185/229/1 186/48/1
f 186/48/1 187/230/1 188/49/1
f 188/49/1 263/225/1 264/47/1
f 264/47/1 265/228/1 186/48/1
f 271/50/30 249/153/30 178/51/31
f 192/53/32 179/78/32 253/54/33
f 259/56/34 264/231/34 262/57/35
f 258/59/33 184/232/32 185/60/32
f 256/62/30 261/142/30 188/49/31
f 186/64/37 183/74/37 182/65/38
f 271/50/7 189/52/7 190/233/7
f 190/233/7 191/234/7 192/53/7
f 192/53/7 267/55/7 269/235/7
f 269/235/7 268/236/7 270/67/7
f 270/67/7 272/237/7 271/50/7
f 271/50/7 190/233/7 192/53/7
f 192/53/7 269/235/7 270/67/7
f 268/68/34 252/148/34 250/69/35
f 178/71/39 177/79/39 190/72/39
f 185/60/40 184/232/40 183/74/40
f 188/75/39 187/66/39 182/65/39
f 192/53/40 191/238/40 180/77/40
f 180/77/37 191/238/37 190/72/41
f 194/80/42 196/83/43 195/81/43
f 196/83/43 198/85/44 197/84/44
f 198/85/44 200/87/45 199/86/45
f 200/87/45 202/89/47 201/88/46
f 202/89/47 204/239/48 203/90/48
f 204/91/48 206/94/49 205/92/49
f 206/94/49 208/96/50 207/95/50
f 208/96/50 210/98/51 209/97/51
f 210/98/51 212/100/52 211/99/52
f 212/100/52 214/102/39 213/101/39
f 214/102/39 216/104/53 215/103/53
f 216/104/53 218/106/37 217/105/37
f 218/106/37 220/108/54 219/107/54
f 220/108/54 222/110/40 221/109/40
f 222/110/40 224/112/55 223/111/55
f 224/112/55 194/80/42 193/82/42
f 305/113/43 306/173/43 235/114/43
f 226/116/43 225/138/43 234/117/43
f 226/116/45 236/118/45 238/119/45
f 227/120/48 238/119/48 240/121/48
f 228/122/50 240/121/50 242/123/50
f 229/124/52 242/123/52 244/125/52
f 302/127/53 307/240/53 246/128/53
f 230/126/53 244/125/53 245/130/53
f 307/132/54 308/178/54 248/133/54
f 231/135/54 245/241/54 247/136/54
f 225/138/55 232/137/55 247/136/55
f 231/141/7 232/242/7 225/243/7
f 225/243/7 226/244/7 227/139/7
f 227/139/7 228/245/7 229/140/7
f 229/140/7 230/246/7 231/141/7
f 231/141/7 225/243/7 227/139/7
f 261/142/30 256/62/30 257/143/50
f 263/144/48 257/143/48 255/58/36
f 267/145/33 253/247/33 254/146/43
f 269/147/45 254/146/45 252/148/34
f 265/149/33 266/152/43 260/150/43
f 266/152/45 264/231/34 259/56/34
f 249/153/30 271/50/30 272/154/50
f 251/155/48 272/154/48 270/70/36
f 277/156/56 278/220/56 280/157/57
f 280/157/57 282/160/58 281/159/58
f 282/160/58 284/223/59 283/161/59
f 287/164/60 285/224/70 286/248/70
f 287/164/60 286/248/70 324/162/60
f 323/163/60 288/216/60 287/164/60
f 287/164/61 288/216/61 290/165/62
f 290/165/62 292/168/63 291/167/63
f 292/168/64 274/249/65 273/169/65
f 306/173/45 300/180/45 237/174/45
f 322/175/1 276/250/1 274/176/1
f 305/113/55 233/115/55 248/133/55
f 301/179/48 239/182/48 237/174/48
f 299/181/50 241/183/50 239/182/50
f 302/127/52 243/129/52 241/183/52
f 273/170/7 275/251/7 321/200/7
f 323/163/1 324/162/1 298/201/1
f 288/216/1 323/163/1 304/202/1
f 273/169/65 274/249/65 276/217/66
f 277/156/67 315/252/67 316/219/67
f 322/221/68 321/253/68 275/218/68
f 284/223/69 286/248/70 285/224/70
usemtl SpacialRoverExploreralumGray
f 2/254/4 80/255/26 79/256/4
f 4/257/26 83/258/2 80/255/26
f 6/259/2 85/260/25 83/258/2
f 8/261/25 87/262/71 85/260/25
f 10/263/71 89/264/72 87/262/71
f 94/265/7 140/266/7 82/267/7
f 17/268/7 133/269/7 19/270/7
f 77/271/1 152/272/1 151/273/1
f 82/267/7 139/274/7 81/275/7
f 73/276/72 125/277/5 11/278/72
f 18/279/1 130/280/1 16/281/1
f 24/282/73 84/283/74 81/284/73
f 26/285/74 86/286/28 84/283/74
f 28/287/28 88/288/3 86/286/28
f 2/289/1 30/290/1 40/291/1
f 22/292/1 36/293/29 34/294/1
f 30/295/3 90/296/27 88/288/3
f 32/297/27 79/256/4 90/296/27
f 7/298/7 13/299/7 56/300/7
f 27/301/7 31/302/7 62/303/7
f 63/304/4 3/305/26 1/306/4
f 64/307/26 5/308/2 3/305/26
f 5/308/2 69/309/25 7/310/25
f 69/309/25 9/311/71 7/310/25
f 71/312/71 11/278/72 9/311/71
f 77/271/1 150/313/1 76/314/1
f 17/268/7 129/315/7 131/316/7
f 76/314/1 149/317/1 75/318/1
f 16/281/1 128/319/1 14/320/1
f 75/318/1 148/321/1 73/322/1
f 13/299/7 129/315/7 15/323/7
f 23/324/73 68/325/74 25/326/74
f 68/325/74 27/327/28 25/326/74
f 70/328/28 29/329/3 27/327/28
f 72/330/3 31/331/27 29/329/3
f 74/332/27 1/306/4 31/331/27
f 98/333/1 77/271/1 76/314/1
f 99/334/1 95/335/1 63/336/1
f 100/337/1 99/334/1 63/336/1
f 67/338/1 103/339/1 105/340/1
f 95/335/1 64/341/1 63/336/1
f 74/342/1 72/343/1 104/344/1
f 67/338/1 64/341/1 103/339/1
f 100/337/1 74/342/1 104/344/1
f 64/341/1 95/335/1 103/339/1
f 72/343/1 70/345/1 109/346/1
f 69/347/1 67/338/1 105/340/1
f 104/344/1 72/343/1 109/346/1
f 105/340/1 97/348/1 69/347/1
f 70/345/1 108/349/1 109/346/1
f 70/345/1 68/350/1 108/349/1
f 97/348/1 71/351/1 69/347/1
f 97/348/1 96/352/1 71/351/1
f 68/350/1 101/353/1 108/349/1
f 96/352/1 73/322/1 71/351/1
f 68/350/1 65/354/1 101/353/1
f 96/352/1 106/355/1 73/322/1
f 65/354/1 102/356/1 101/353/1
f 102/356/1 65/354/1 66/357/1
f 73/322/1 106/355/1 75/318/1
f 107/358/1 102/356/1 66/357/1
f 106/355/1 98/359/1 75/318/1
f 66/357/1 78/360/1 107/358/1
f 75/361/1 98/333/1 76/314/1
f 78/360/1 77/271/1 107/358/1
f 21/362/7 27/301/7 61/363/7
f 74/342/1 100/337/1 63/336/1
f 92/364/7 93/365/7 113/366/7
f 82/267/7 122/367/7 94/265/7
f 91/368/7 92/364/7 113/366/7
f 121/369/7 89/370/7 91/368/7
f 113/366/7 121/369/7 91/368/7
f 81/275/7 117/371/7 82/267/7
f 117/371/7 122/367/7 82/267/7
f 90/372/7 115/373/7 119/374/7
f 89/370/7 121/369/7 111/375/7
f 116/376/7 117/371/7 81/275/7
f 116/376/7 81/275/7 84/377/7
f 87/378/7 89/370/7 111/375/7
f 87/378/7 111/375/7 112/379/7
f 123/380/7 116/376/7 84/377/7
f 85/381/7 87/378/7 112/379/7
f 123/380/7 84/377/7 86/382/7
f 85/381/7 112/379/7 120/383/7
f 124/384/7 123/380/7 86/382/7
f 118/385/7 83/386/7 120/383/7
f 86/382/7 88/387/7 124/384/7
f 88/387/7 119/374/7 124/384/7
f 80/388/7 83/386/7 118/385/7
f 110/389/7 80/388/7 118/385/7
f 88/387/7 90/372/7 119/374/7
f 114/390/7 80/388/7 110/389/7
f 115/373/7 90/372/7 79/391/7
f 83/386/7 85/381/7 120/383/7
f 114/390/7 115/373/7 79/391/7
f 122/367/7 93/365/7 94/265/7
f 79/391/7 80/388/7 114/390/7
f 66/357/1 152/272/1 78/360/1
f 18/279/1 134/392/1 132/393/1
f 93/365/7 145/394/7 94/265/7
f 81/284/73 138/395/8 24/282/73
f 65/354/1 147/396/1 66/357/1
f 19/270/7 135/397/7 21/362/7
f 93/365/7 143/398/7 144/399/7
f 22/292/1 134/392/1 20/400/1
f 91/368/7 143/398/7 92/364/7
f 21/362/7 137/401/7 23/402/7
f 89/370/7 142/403/7 91/368/7
f 23/324/73 146/404/8 65/405/73
f 24/406/1 136/407/1 22/292/1
f 12/408/72 141/409/5 89/264/72
f 11/410/7 126/411/7 13/299/7
f 14/320/1 127/412/1 12/413/1
f 8/414/1 45/415/1 35/416/1
f 2/254/4 4/257/26 80/255/26
f 4/257/26 6/259/2 83/258/2
f 6/259/2 8/261/25 85/260/25
f 8/261/25 10/263/71 87/262/71
f 10/263/71 12/408/72 89/264/72
f 94/265/7 145/394/7 140/266/7
f 17/268/7 131/316/7 133/269/7
f 77/271/1 78/360/1 152/272/1
f 82/267/7 140/266/7 139/274/7
f 73/276/72 148/417/5 125/277/5
f 18/279/1 132/393/1 130/280/1
f 24/282/73 26/285/74 84/283/74
f 26/285/74 28/287/28 86/286/28
f 28/287/28 30/295/3 88/288/3
f 40/291/1 33/418/1 2/289/1
f 2/289/1 32/419/1 30/290/1
f 30/290/1 39/420/1 40/291/1
f 38/421/1 39/420/1 30/290/1
f 30/290/1 28/422/1 26/423/1
f 26/423/1 24/406/1 22/292/1
f 20/400/1 18/279/1 43/424/1
f 38/421/1 30/290/1 26/423/1
f 34/294/1 38/421/1 26/423/1
f 22/292/1 20/400/1 43/424/1
f 22/292/1 43/424/1 37/425/1
f 34/294/1 26/423/1 22/292/1
f 22/292/1 37/425/1 36/293/29
f 30/295/3 32/297/27 90/296/27
f 32/297/27 2/254/4 79/256/4
f 53/426/7 52/427/7 31/302/7
f 31/302/7 1/428/7 3/429/7
f 3/429/7 5/430/7 7/298/7
f 7/298/7 9/431/7 11/410/7
f 7/298/7 11/410/7 13/299/7
f 53/426/7 31/302/7 3/429/7
f 48/432/7 53/426/7 3/429/7
f 15/323/7 17/268/7 54/433/7
f 15/323/7 54/433/7 58/434/7
f 48/432/7 3/429/7 7/298/7
f 55/435/7 48/432/7 7/298/7
f 13/299/7 15/323/7 58/434/7
f 13/299/7 58/434/7 49/436/7
f 57/437/7 55/435/7 7/298/7
f 13/299/7 49/436/7 56/300/7
f 56/300/7 57/437/7 7/298/7
f 62/303/7 51/438/7 27/301/7
f 27/301/7 29/439/7 31/302/7
f 31/302/7 52/427/7 62/303/7
f 63/304/4 64/307/26 3/305/26
f 64/307/26 67/440/2 5/308/2
f 5/308/2 67/440/2 69/309/25
f 69/309/25 71/312/71 9/311/71
f 71/312/71 73/276/72 11/278/72
f 77/271/1 151/273/1 150/313/1
f 17/268/7 15/323/7 129/315/7
f 76/314/1 150/313/1 149/317/1
f 16/281/1 130/280/1 128/319/1
f 75/318/1 149/317/1 148/321/1
f 13/299/7 126/411/7 129/315/7
f 23/324/73 65/405/73 68/325/74
f 68/325/74 70/328/28 27/327/28
f 70/328/28 72/330/3 29/329/3
f 72/330/3 74/332/27 31/331/27
f 74/332/27 63/304/4 1/306/4
f 50/441/7 17/268/7 19/270/7
f 21/362/7 23/402/7 25/442/7
f 50/441/7 19/270/7 21/362/7
f 60/443/7 50/441/7 21/362/7
f 21/362/7 25/442/7 27/301/7
f 27/301/7 51/438/7 59/444/7
f 61/363/7 60/443/7 21/362/7
f 27/301/7 59/444/7 61/363/7
f 66/357/1 147/396/1 152/272/1
f 18/279/1 20/400/1 134/392/1
f 93/365/7 144/399/7 145/394/7
f 81/284/73 139/445/8 138/395/8
f 65/354/1 146/446/1 147/396/1
f 19/270/7 133/269/7 135/397/7
f 93/365/7 92/364/7 143/398/7
f 22/292/1 136/407/1 134/392/1
f 91/368/7 142/403/7 143/398/7
f 21/362/7 135/397/7 137/401/7
f 89/370/7 141/447/7 142/403/7
f 23/324/73 137/448/8 146/404/8
f 24/406/1 138/449/1 136/407/1
f 12/408/72 127/450/5 141/409/5
f 11/410/7 125/451/7 126/411/7
f 14/320/1 128/319/1 127/412/1
f 44/452/1 18/279/1 16/281/1
f 14/320/1 12/413/1 10/453/1
f 44/452/1 16/281/1 14/320/1
f 47/454/1 44/452/1 14/320/1
f 14/320/1 10/453/1 8/414/1
f 8/414/1 6/455/1 4/456/1
f 4/456/1 2/289/1 33/418/1
f 4/456/1 33/418/1 42/457/1
f 46/458/75 47/454/1 14/320/1
f 35/416/1 46/458/75 14/320/1
f 8/414/1 4/456/1 42/457/1
f 8/414/1 42/457/1 41/459/1
f 35/416/1 14/320/1 8/414/1
f 8/414/1 41/459/1 45/415/1
f 326/460/76 327/461/77 325/462/78
f 328/463/79 329/464/80 327/461/77
f 330/465/81 331/466/82 329/464/80
f 332/467/83 333/468/84 331/466/82
f 334/469/85 335/470/86 333/468/84
f 336/471/87 337/472/88 335/470/86
f 338/473/89 339/474/90 337/472/88
f 340/475/91 341/476/92 339/474/90
f 342/477/93 343/478/94 341/476/92
f 344/479/95 345/480/96 343/481/94
f 346/482/97 347/483/98 345/480/96
f 348/484/99 349/485/100 347/483/98
f 350/486/101 351/487/102 349/485/100
f 352/488/103 353/489/104 351/487/102
f 354/490/105 355/491/106 353/489/104
f 356/492/107 325/462/78 355/491/106
f 326/460/76 328/463/79 327/461/77
f 328/463/79 330/465/81 329/464/80
f 330/465/81 332/467/83 331/466/82
f 332/467/83 334/469/85 333/468/84
f 334/469/85 336/471/87 335/470/86
f 336/471/87 338/473/89 337/472/88
f 338/473/89 340/475/91 339/474/90
f 340/475/91 342/477/93 341/476/92
f 342/477/93 344/493/95 343/478/94
f 344/479/95 346/482/97 345/480/96
f 346/482/97 348/484/99 347/483/98
f 348/484/99 350/486/101 349/485/100
f 350/486/101 352/488/103 351/487/102
f 352/488/103 354/490/105 353/489/104
f 354/490/105 356/492/107 355/491/106
f 356/492/107 326/460/76 325/462/78
usemtl SpacialRoverExploreralumArm
f 184/494/7 255/495/7 256/496/7
f 252/497/1 180/498/1 178/499/1
f 256/496/7 181/500/7 182/501/7
f 182/501/7 183/502/7 184/494/7
f 184/494/7 258/503/7 260/504/7
f 260/504/7 259/505/7 255/495/7
f 255/495/7 257/506/7 256/496/7
f 256/496/7 182/501/7 184/494/7
f 184/494/7 260/504/7 255/495/7
f 178/499/1 249/507/1 251/508/1
f 251/508/1 250/509/1 252/497/1
f 252/497/1 254/510/1 253/511/1
f 253/511/1 179/512/1 180/498/1
f 180/498/1 177/513/1 178/499/1
f 178/499/1 251/508/1 252/497/1
f 252/497/1 253/511/1 180/498/1
f 346/514/97 338/515/89 330/516/81
f 339/517/90 347/518/98 355/519/106
f 330/516/81 328/520/79 326/521/76
f 326/521/76 356/522/107 354/523/105
f 354/523/105 352/524/103 350/525/101
f 350/525/101 348/526/99 346/514/97
f 346/514/97 344/527/95 342/528/93
f 342/528/93 340/529/91 338/515/89
f 338/515/89 336/530/87 334/531/85
f 334/531/85 332/532/83 330/516/81
f 330/516/81 326/521/76 354/523/105
f 354/523/105 350/525/101 346/514/97
f 346/514/97 342/528/93 338/515/89
f 338/515/89 334/531/85 330/516/81
f 330/516/81 354/523/105 346/514/97
f 355/519/106 325/533/78 327/534/77
f 327/534/77 329/535/80 331/536/82
f 331/536/82 333/537/84 335/538/86
f 335/538/86 337/539/88 339/517/90
f 339/517/90 341/540/92 343/541/94
f 343/541/94 345/542/96 347/518/98
f 347/518/98 349/543/100 351/544/102
f 351/544/102 353/545/104 355/519/106
f 355/519/106 327/534/77 331/536/82
f 331/536/82 335/538/86 339/517/90
f 339/517/90 343/541/94 347/518/98
f 347/518/98 351/544/102 355/519/106
f 355/519/106 331/536/82 339/517/90
