# Rover separado para OpenGL
# Punto de giro original: 1.588000 11.490000 -0.914000
mtllib RoverSeparado.mtl
o Brazo_03_Pinza
v -0.173286 0.002965 -0.099355
v 0.028387 -0.173240 -0.107143
v -0.173078 -0.005922 0.107093
v 0.028596 -0.182126 0.099305
v 0.026888 -0.172928 -0.167863
v 0.027219 -0.187032 0.159834
v -0.175435 0.003845 -0.160050
v -0.175103 -0.010260 0.167647
v 0.108584 0.302142 0.183649
v 0.108190 0.318906 -0.205825
v 0.298819 0.135931 0.176302
v 0.467437 0.139515 0.168463
v 0.467051 0.155916 -0.212621
v 0.298426 0.152694 -0.213171
v 0.334126 0.577016 -0.194944
v 0.334520 0.560262 0.194296
v 0.618693 0.311976 0.183322
v 0.618299 0.328729 -0.205918
v 0.592047 0.683710 0.086566
v 0.631191 0.648246 0.115028
v 0.598055 0.679044 0.072490
v 0.637199 0.643580 0.100952
v 0.899978 0.874483 -0.108722
v 0.939121 0.839019 -0.080260
v 0.905986 0.869818 -0.122798
v 0.945129 0.834353 -0.094337
v 0.721301 0.578649 -0.105116
v 0.682157 0.614114 -0.133578
v 0.715293 0.583315 -0.091040
v 0.676149 0.618779 -0.119502
v 0.304784 0.133394 0.112606
v 0.305176 0.130461 0.174057
v 0.304576 0.142279 -0.093843
v 0.304843 0.144638 -0.155318
v 0.102843 0.307233 0.182110
v 0.103111 0.309600 0.120394
v 0.102902 0.318485 -0.086055
v 0.102509 0.321430 -0.147744
v 0.885641 0.745927 0.084361
v 0.848679 0.776771 0.120172
v 0.337338 0.193858 -0.211261
v 0.407891 0.198578 -0.211129
v 0.841758 0.783371 0.107345
v 0.878719 0.752526 0.071533
v 0.720723 0.572029 0.063924
v 0.683761 0.602874 0.099736
v 0.727644 0.565429 0.076752
v 0.690682 0.596274 0.112563
v 0.337178 0.200653 -0.369115
v 0.407731 0.205372 -0.368983
v 0.564226 0.372940 -0.131828
v 0.596691 0.341421 -0.058261
v 0.453555 0.471116 -0.162685
v 0.518451 0.414419 -0.165280
v 0.375077 0.535023 -0.049090
v 0.407507 0.509846 -0.125253
v 0.407504 0.500526 0.095890
v 0.375038 0.532046 0.022323
v 0.518174 0.402351 0.126747
v 0.453278 0.459047 0.129342
v 0.596652 0.338444 0.013152
v 0.564222 0.363621 0.089315
v 0.766143 0.535003 -0.050100
v 0.733678 0.566523 -0.123667
v 0.687902 0.608002 -0.157120
v 0.623007 0.664699 -0.154525
v 0.576959 0.703428 -0.117092
v 0.544529 0.728605 -0.040930
v 0.544490 0.725630 0.030483
v 0.576955 0.694110 0.104051
v 0.622730 0.652631 0.137503
v 0.687626 0.595934 0.134908
v 0.733674 0.557204 0.097475
v 0.766104 0.532027 0.021313
v 0.699919 0.593934 -0.072903
v 0.717289 0.577069 -0.033541
v 0.638031 0.648885 -0.091367
v 0.672754 0.618549 -0.092755
v 0.593367 0.685328 -0.028413
v 0.610718 0.671858 -0.069164
v 0.610714 0.666699 0.053286
v 0.593343 0.683563 0.013925
v 0.672601 0.611748 0.071750
v 0.637879 0.642083 0.073138
v 0.717266 0.575305 0.008797
v 0.699914 0.588775 0.049547
v 0.860203 0.740335 -0.026659
v 0.842832 0.757199 -0.066021
v 0.842828 0.752042 0.056429
v 0.860180 0.738570 0.015679
v 0.780793 0.805349 0.080021
v 0.815514 0.775014 0.078633
v 0.736257 0.846829 0.020807
v 0.753628 0.829964 0.060169
v 0.753632 0.835123 -0.062281
v 0.736280 0.848593 -0.021531
v 0.815667 0.781815 -0.085873
v 0.780945 0.812151 -0.084484
v 0.513976 0.319771 -0.206020
v 0.511252 0.360448 -0.204267
v 0.213313 0.340518 -0.204823
v 0.216037 0.299841 -0.206577
v 0.449308 0.414570 -0.201875
v 0.398798 0.431621 -0.201090
v 0.315272 0.426033 -0.201246
v 0.267487 0.402406 -0.202214
v 0.398639 0.438413 -0.358944
v 0.449148 0.421364 -0.359729
v 0.267327 0.409200 -0.360068
v 0.315113 0.432827 -0.359100
v 0.511092 0.367243 -0.362121
v 0.513817 0.326565 -0.363874
v 0.215878 0.306635 -0.364431
v 0.213153 0.347312 -0.362677
v 0.956837 0.813569 -0.031290
v 0.935082 0.834689 -0.080585
v 0.898112 0.868191 -0.107604
v 0.854627 0.906181 -0.105865
v 0.817468 0.937435 -0.075658
v 0.795737 0.954305 -0.024624
v 0.795706 0.951905 0.032955
v 0.817460 0.930785 0.082251
v 0.854431 0.897283 0.109269
v 0.897916 0.859293 0.107530
v 0.935075 0.828040 0.077323
v 0.956805 0.811169 0.026289
v 0.918382 0.815610 -0.081390
v 0.940136 0.794489 -0.032094
v 0.881215 0.840214 0.106725
v 0.837730 0.878204 0.108464
v 0.779036 0.935225 -0.025428
v 0.800767 0.918356 -0.076462
v 0.940104 0.792089 0.025484
v 0.918374 0.808960 0.076519
v 0.800759 0.911706 0.081446
v 0.779005 0.932826 0.032151
v 0.837926 0.887102 -0.106669
v 0.881411 0.849111 -0.108408
v 0.916393 0.850471 -0.066878
v 0.939109 0.828418 -0.015405
v 0.853653 0.905848 -0.077730
v 0.899058 0.866179 -0.079546
v 0.813449 0.938194 -0.010205
v 0.836139 0.920578 -0.063494
v 0.836149 0.915004 0.068543
v 0.813434 0.937057 0.017070
v 0.898890 0.859627 0.079395
v 0.853484 0.899296 0.081211
v 0.939094 0.827281 0.011870
v 0.916403 0.844896 0.065159
v 0.939074 0.825828 0.046729
v 0.899761 0.825884 0.064357
v 0.922451 0.808268 0.011069
v 0.796791 0.918045 0.016268
v 0.819507 0.895991 0.067742
v 0.882416 0.847167 -0.080347
v 0.837010 0.886836 -0.078532
v 0.922466 0.809405 -0.016206
v 0.899751 0.831459 -0.067679
v 0.836842 0.880283 0.080410
v 0.882247 0.840614 0.078594
v 0.819497 0.901566 -0.064295
v 0.796806 0.919182 -0.011006
v 0.763789 0.638717 -0.088704
v 0.890625 0.783616 -0.082596
v 0.851481 0.819080 -0.111058
v 0.724645 0.674181 -0.117166
v 0.896633 0.778950 -0.096672
v 0.769797 0.634052 -0.102780
v 0.730653 0.669516 -0.131242
v 0.857489 0.814415 -0.125134
v 0.756675 0.645694 -0.098055
v 0.887768 0.795456 -0.091741
v 0.865848 0.815315 -0.107680
v 0.734754 0.665553 -0.113993
v 0.891133 0.792843 -0.099624
v 0.760039 0.643080 -0.105937
v 0.738119 0.662941 -0.121876
v 0.869212 0.812703 -0.115562
v 0.707637 0.804231 0.077768
v 0.746781 0.768767 0.106229
v 0.701629 0.808897 0.091844
v 0.740773 0.773433 0.120306
v 0.713773 0.798883 0.085433
v 0.833654 0.935837 0.091206
v 0.858706 0.913140 0.109421
v 0.829810 0.938823 0.100215
v 0.854861 0.916126 0.118430
v 0.734980 0.779172 0.112657
v 0.738825 0.776186 0.103648
v 0.709927 0.801869 0.094441
v 0.793790 0.711160 -0.021169
v 0.783835 0.720825 -0.043727
v 0.765114 0.737790 -0.057409
v 0.745214 0.755174 -0.056613
v 0.726405 0.770995 -0.041323
v 0.716461 0.778715 -0.017969
v 0.716445 0.777501 0.011165
v 0.726400 0.767835 0.033723
v 0.745121 0.750871 0.047405
v 0.765021 0.733486 0.046609
v 0.783830 0.717666 0.031319
v 0.793774 0.709945 0.007965
v 0.827021 0.770160 -0.041647
v 0.836976 0.760496 -0.019089
v 0.836960 0.759282 0.010045
v 0.827016 0.767002 0.033399
v 0.808207 0.782821 0.048689
v 0.788307 0.800207 0.049484
v 0.769586 0.817171 0.035803
v 0.759631 0.826835 0.013244
v 0.759647 0.828051 -0.015889
v 0.769591 0.820330 -0.039243
v 0.788400 0.804511 -0.054533
v 0.808299 0.787124 -0.055329
v 0.918382 0.815610 -0.081390
v 0.940136 0.794489 -0.032094
v 0.881215 0.840214 0.106725
v 0.837730 0.878204 0.108464
v 0.779036 0.935225 -0.025428
v 0.800767 0.918356 -0.076462
v 0.940104 0.792089 0.025484
v 0.918374 0.808960 0.076519
v 0.800759 0.911706 0.081446
v 0.779005 0.932826 0.032151
v 0.837926 0.887102 -0.106669
v 0.881411 0.849111 -0.108408
v 0.899761 0.825884 0.064357
v 0.922451 0.808268 0.011069
v 0.796791 0.918045 0.016268
v 0.819507 0.895991 0.067742
v 0.882416 0.847167 -0.080347
v 0.837010 0.886836 -0.078532
v 0.922466 0.809405 -0.016206
v 0.899751 0.831459 -0.067679
v 0.836842 0.880283 0.080410
v 0.882247 0.840614 0.078594
v 0.819497 0.901566 -0.064295
v 0.796806 0.919182 -0.011006
v 0.337258 0.197256 -0.290188
v 0.407811 0.201975 -0.290056
v 0.511172 0.363845 -0.283194
v 0.513896 0.323168 -0.284947
v 0.215958 0.303238 -0.285504
v 0.213233 0.343915 -0.283750
v 0.449228 0.417967 -0.280802
v 0.398719 0.435016 -0.280017
v 0.267407 0.405803 -0.281141
v 0.315192 0.429430 -0.280173
vt 0.818999 0.778579
vt 0.914116 0.629338
vt 0.914250 0.778493
vt 0.819558 0.776844
vt 0.797985 0.627646
vt 0.819560 0.626737
vt 0.914250 0.607743
vt 0.818864 0.629424
vt 0.818692 0.607829
vt 0.915119 0.626737
vt 0.819713 0.605144
vt 0.914965 0.605144
vt 0.891213 0.476628
vt 0.812319 0.505639
vt 0.812040 0.418794
vt 0.811243 0.242324
vt 0.890323 0.270676
vt 0.890586 0.328813
vt 0.949127 0.418229
vt 0.890991 0.418491
vt 0.987917 0.416256
vt 0.948723 0.328551
vt 0.987521 0.328509
vt 0.724791 0.329561
vt 0.672336 0.417680
vt 0.671940 0.329934
vt 0.811636 0.329170
vt 0.702434 0.776609
vt 0.702733 0.627455
vt 0.895523 0.477370
vt 0.939836 0.465060
vt 0.928300 0.509248
vt 0.797126 0.778598
vt 0.701562 0.778493
vt 0.680153 0.629259
vt 0.701730 0.628386
vt 0.680476 0.776565
vt 0.681162 0.626459
vt 0.797289 0.628491
vt 0.915121 0.776844
vt 0.626731 0.450373
vt 0.578989 0.473778
vt 0.578989 0.450373
vt 0.507357 0.230394
vt 0.494830 0.202378
vt 0.507357 0.202378
vt 0.517136 0.287214
vt 0.532565 0.270977
vt 0.532565 0.287214
vt 0.517136 0.217712
vt 0.532565 0.234161
vt 0.517136 0.234161
vt 0.517136 0.180764
vt 0.532565 0.164103
vt 0.532565 0.180764
vt 0.507357 0.173801
vt 0.494830 0.145344
vt 0.507357 0.145344
vt 0.507357 0.344240
vt 0.494830 0.315784
vt 0.507357 0.315784
vt 0.507357 0.116716
vt 0.494830 0.088480
vt 0.507357 0.088480
vt 0.517136 0.004110
vt 0.532565 0.020771
vt 0.517136 0.020771
vt 0.507357 0.059955
vt 0.494830 0.031939
vt 0.507357 0.031939
vt 0.507357 0.287155
vt 0.494830 0.258919
vt 0.507357 0.258919
vt 0.517136 0.057719
vt 0.532565 0.074168
vt 0.517136 0.074168
vt 0.638821 0.473778
vt 0.638821 0.450373
vt 0.756065 0.473778
vt 0.743975 0.450373
vt 0.756065 0.450373
vt 0.719595 0.473778
vt 0.703799 0.450373
vt 0.719595 0.450373
vt 0.494830 0.287155
vt 0.494830 0.116716
vt 0.507357 0.003361
vt 0.494830 0.003361
vt 0.494830 0.230394
vt 0.517136 0.110984
vt 0.532565 0.127221
vt 0.517136 0.127221
vt 0.532565 0.217712
vt 0.532565 0.324096
vt 0.532565 0.110984
vt 0.517136 0.164103
vt 0.517136 0.270977
vt 0.532565 0.057719
vt 0.489613 0.131072
vt 0.829839 0.948499
vt 0.844705 0.974433
vt 0.818216 0.955939
vt 0.829839 0.935019
vt 0.912270 0.918134
vt 0.912270 0.935361
vt 0.897404 0.909427
vt 0.923894 0.956377
vt 0.909606 0.981126
vt 0.897350 0.974683
vt 0.909657 0.983020
vt 0.897404 0.976677
vt 0.923894 0.958183
vt 0.912270 0.937263
vt 0.912270 0.950743
vt 0.923894 0.929727
vt 0.897351 0.911421
vt 0.909606 0.904978
vt 0.856818 0.891058
vt 0.885343 0.890970
vt 0.885975 0.904853
vt 0.885292 0.997290
vt 0.885921 0.983402
vt 0.818216 0.927483
vt 0.844759 0.909178
vt 0.856189 0.904945
vt 0.856135 0.983495
vt 0.818216 0.930165
vt 0.832453 0.905328
vt 0.844706 0.911671
vt 0.856767 0.997378
vt 0.832504 0.983370
vt 0.844759 0.976927
vt 0.829840 0.937605
vt 0.818216 0.958621
vt 0.829840 0.951085
vt 0.885292 0.888814
vt 0.885921 0.902702
vt 0.856135 0.902609
vt 0.856766 0.888726
vt 0.832504 0.902734
vt 0.856189 0.981159
vt 0.832453 0.980776
vt 0.885974 0.981251
vt 0.856818 0.995046
vt 0.885343 0.995134
vt 0.909657 0.903084
vt 0.912270 0.948841
vt 0.923894 0.927921
vt 0.663201 0.450373
vt 0.663201 0.473778
vt 0.678997 0.473778
vt 0.743975 0.473778
vt 0.558039 0.473778
vt 0.678997 0.450373
vt 0.703799 0.473778
vt 0.803807 0.450373
vt 0.803807 0.473778
vt 0.797685 0.776800
vt 0.865200 0.505469
vt 0.864095 0.242086
vt 0.725195 0.419186
vt 0.913902 0.509248
vt 0.902576 0.502709
vt 0.895483 0.490423
vt 0.902746 0.465036
vt 0.914112 0.458521
vt 0.928510 0.458521
vt 0.946929 0.477346
vt 0.946889 0.490400
vt 0.939666 0.502733
vt 0.679605 0.778412
vt 0.626731 0.473778
vt 0.494830 0.173801
vt 0.494830 0.344240
vt 0.532565 0.004110
vt 0.494830 0.059955
vt 0.517136 0.324096
vt 0.558039 0.450373
vt 0.908920 0.552420
vt 0.991114 0.582047
vt 0.908920 0.582047
vt 0.908920 0.589947
vt 0.582489 0.317517
vt 0.562160 0.244308
vt 0.582489 0.244308
vt 0.716648 0.317517
vt 0.696319 0.244308
vt 0.716648 0.244308
vt 0.671754 0.317517
vt 0.651774 0.244308
vt 0.671754 0.244308
vt 0.627253 0.317517
vt 0.607098 0.244308
vt 0.627253 0.244308
vt 0.805912 0.317517
vt 0.785932 0.244308
vt 0.805912 0.244308
vt 0.761412 0.317517
vt 0.741257 0.244308
vt 0.761411 0.244308
vt 0.608687 0.822261
vt 0.616587 0.851888
vt 0.608687 0.851888
vt 0.592237 0.963953
vt 0.628612 0.993580
vt 0.592237 0.993580
vt 0.652963 0.889415
vt 0.616587 0.859788
vt 0.652963 0.859788
vt 0.628612 0.918525
vt 0.592237 0.926426
vt 0.592237 0.918525
vt 0.616587 0.897316
vt 0.652963 0.897316
vt 0.803807 0.426967
vt 0.678997 0.426967
vt 0.578989 0.426967
vt 0.719595 0.426967
vt 0.743975 0.426967
vt 0.562160 0.317517
vt 0.537595 0.244308
vt 0.785932 0.317517
vt 0.741257 0.317517
vt 0.696319 0.317517
vt 0.651774 0.317517
vt 0.607098 0.317517
vt 0.695109 0.917171
vt 0.675457 0.894803
vt 0.700162 0.894726
vt 0.649450 0.981720
vt 0.637244 0.960729
vt 0.659301 0.953721
vt 0.680403 0.974121
vt 0.700055 0.996489
vt 0.675350 0.996566
vt 0.726062 0.909572
vt 0.708967 0.925115
vt 0.882102 0.885206
vt 0.836291 0.810139
vt 0.903840 0.799880
vt 0.663201 0.426967
vt 0.628612 0.956053
vt 0.628612 0.963953
vt 0.652963 0.851888
vt 0.628612 0.926426
vt 0.616587 0.822261
vt 0.660863 0.822261
vt 0.652963 0.822261
vt 0.991114 0.544519
vt 0.991114 0.552420
vt 0.908920 0.514892
vt 0.991114 0.514892
vt 0.901020 0.544519
vt 0.908920 0.544519
vt 0.680462 0.917217
vt 0.666605 0.925217
vt 0.695049 0.974075
vt 0.708907 0.966075
vt 0.649557 0.909756
vt 0.659301 0.937777
vt 0.738268 0.930563
vt 0.716210 0.937571
vt 0.637244 0.930930
vt 0.738268 0.960362
vt 0.716210 0.953515
vt 0.725955 0.981536
vt 0.666545 0.966177
vt 0.584336 0.963953
vt 0.584336 0.993580
vt 0.703799 0.426967
vt 0.756065 0.426967
vt 0.626731 0.426967
vt 0.638821 0.426967
vt 0.991114 0.589947
vt 0.616587 0.889415
vt 0.558039 0.426967
vt 0.537595 0.317517
vt 0.921617 0.817656
vt 0.921617 0.874948
vt 0.911358 0.885206
vt 0.864589 0.877952
vt 0.843545 0.856907
vt 0.836291 0.839395
vt 0.846549 0.799880
vt 0.592237 0.956053
vt 0.660863 0.851888
vt 0.901020 0.514892
vt 0.694918 0.553132
vt 0.687018 0.523505
vt 0.694918 0.523505
vt 0.694918 0.561032
vt 0.813426 0.590659
vt 0.694918 0.590659
vt 0.813426 0.553132
vt 0.813426 0.523505
vt 0.694918 0.598560
vt 0.813426 0.561032
vt 0.687018 0.501767
vt 0.785346 0.497342
vt 0.785346 0.501767
vt 0.785346 0.518358
vt 0.687018 0.522782
vt 0.687018 0.518358
vt 0.687018 0.480751
vt 0.785346 0.480751
vt 0.583686 0.914547
vt 0.598318 0.898963
vt 0.603200 0.901804
vt 0.574761 0.816516
vt 0.555477 0.907992
vt 0.555471 0.816517
vt 0.579910 0.907991
vt 0.579904 0.816516
vt 0.599193 0.816516
vt 0.687018 0.553132
vt 0.813426 0.598560
vt 0.687018 0.497342
vt 0.785346 0.522782
vt 0.574767 0.907991
vt 0.603987 0.816560
vt 0.611886 0.352316
vt 0.599433 0.416633
vt 0.599433 0.352316
vt 0.559724 0.352316
vt 0.547170 0.416633
vt 0.547170 0.352316
vt 0.664198 0.352316
vt 0.651846 0.416633
vt 0.651846 0.352316
vt 0.533454 0.352316
vt 0.521001 0.416633
vt 0.521001 0.352316
vt 0.638155 0.352316
vt 0.625601 0.416633
vt 0.625601 0.352316
vt 0.994395 0.872300
vt 0.962003 0.858007
vt 0.994395 0.858007
vt 0.994395 0.817689
vt 0.962003 0.803291
vt 0.994395 0.803291
vt 0.994395 0.790191
vt 0.962003 0.775898
vt 0.994395 0.775898
vt 0.994395 0.899799
vt 0.962003 0.885401
vt 0.994395 0.885401
vt 0.796537 0.803056
vt 0.780657 0.789351
vt 0.799488 0.789292
vt 0.994395 0.912876
vt 0.962003 0.927063
vt 0.962003 0.912876
vt 0.533454 0.416633
vt 0.638155 0.416633
vt 0.585766 0.352316
vt 0.585766 0.416633
vt 0.573415 0.416633
vt 0.573415 0.352316
vt 0.507335 0.352316
vt 0.611886 0.416633
vt 0.962003 0.830767
vt 0.994395 0.830767
vt 0.994395 0.762844
vt 0.962003 0.872300
vt 0.962003 0.790191
vt 0.962003 0.899799
vt 0.962003 0.844954
vt 0.773368 0.808991
vt 0.762840 0.799637
vt 0.783579 0.803096
vt 0.817305 0.799505
vt 0.806748 0.808909
vt 0.799412 0.862455
vt 0.796489 0.848710
vt 0.806700 0.842815
vt 0.766902 0.820111
vt 0.762763 0.852300
vt 0.753450 0.836284
vt 0.766902 0.831859
vt 0.813167 0.819946
vt 0.753450 0.815785
vt 0.826619 0.836021
vt 0.826619 0.815521
vt 0.813167 0.831695
vt 0.817229 0.852168
vt 0.773320 0.842897
vt 0.780580 0.862513
vt 0.783531 0.848750
vt 0.559724 0.416633
vt 0.664198 0.416633
vt 0.962003 0.817689
vt 0.994395 0.927063
vt 0.507335 0.416633
vt 0.962003 0.762844
vt 0.994395 0.844954
vn -0.001000 0.043000 -0.999100
vn 0.752700 -0.658000 -0.022000
vn -0.657700 -0.749400 -0.075700
vn -0.657600 -0.753200 0.012400
vn 0.066800 -0.996800 -0.043000
vn 0.066800 -0.996800 -0.042900
vn 0.011000 -0.059800 0.998100
vn 0.012000 -0.061600 0.998000
vn 0.001500 -0.042500 0.999100
vn -0.000200 0.041600 -0.999100
vn -0.000300 0.041700 -0.999100
vn -0.658300 -0.752100 -0.031700
vn 0.019200 -0.998900 -0.043000
vn 0.752700 -0.657700 -0.029100
vn 0.658300 0.752100 0.031700
vn 0.001000 -0.043000 0.999100
vn -0.752700 0.657700 0.029100
vn 0.752700 -0.657400 -0.036200
vn -0.752700 0.658000 0.022000
vn -0.752700 0.657400 0.036200
vn -0.000100 -0.045100 0.999000
vn -0.000200 -0.044900 0.999000
vn -0.000300 -0.044500 0.999000
vn -0.002000 0.040500 -0.999200
vn -0.002200 0.040900 -0.999200
vn 0.194200 -0.129000 -0.972400
vn 0.532700 -0.435700 -0.725600
vn 0.532600 -0.435700 -0.725600
vn -0.534300 0.496600 -0.684000
vn -0.197700 0.213400 -0.956800
vn -0.727200 0.646300 -0.231000
vn -0.727200 0.624600 0.284700
vn 0.727200 -0.624600 -0.284700
vn 0.727300 -0.646300 0.231000
vn -0.727300 0.646300 -0.231000
vn 0.534400 -0.496600 0.684000
vn 0.197700 -0.213400 0.956800
vn 0.727200 -0.646300 0.231000
vn -0.194300 0.129000 0.972400
vn -0.532700 0.435700 0.725600
vn -0.534400 0.496600 -0.684000
vn 0.534300 -0.496600 0.684000
vn 0.197600 -0.213400 0.956800
vn 0.997800 0.066700 0.001900
vn -0.997800 -0.066700 -0.001900
vn -0.997800 -0.066800 -0.001900
vn -0.609800 0.791800 0.034700
vn -0.260100 0.964700 0.041800
vn -0.194200 0.129000 0.972400
vn -0.532600 0.435700 0.725600
vn 0.658300 0.752100 0.031600
vn -0.656500 -0.753800 -0.029500
vn -0.656600 -0.753700 -0.029200
vn -0.655900 -0.754200 -0.030800
vn -0.655800 -0.754200 -0.032400
vn -0.655800 -0.754300 -0.031100
vn -0.655900 -0.754100 -0.032800
vn -0.656600 -0.753400 -0.034400
vn -0.656500 -0.753600 -0.034000
vn -0.658900 -0.751500 -0.034900
vn -0.657800 -0.752400 -0.034900
vn -0.657500 -0.752600 -0.035000
vn -0.657800 -0.752700 -0.028500
vn -0.657500 -0.752900 -0.028500
vn -0.659200 -0.751200 -0.034900
vn -0.659100 -0.751500 -0.028500
vn -0.660700 -0.749900 -0.032600
vn -0.660200 -0.750400 -0.033900
vn -0.660000 -0.750500 -0.034200
vn -0.658900 -0.751700 -0.028500
vn -0.660100 -0.750600 -0.029400
vn -0.660000 -0.750700 -0.029100
vn -0.660800 -0.749800 -0.032300
vn -0.660700 -0.750000 -0.030600
vn -0.660900 -0.749900 -0.031000
vn 0.498800 0.865900 0.036800
vn 0.129200 0.990700 0.042500
vn 0.048800 -0.128100 0.990600
vn 0.002600 0.036500 -0.999300
vn 0.658300 0.752100 0.030900
vn 0.752700 -0.657400 -0.036100
vn -0.000000 -0.045500 0.999000
vn -0.002000 0.040700 -0.999200
vn -0.002300 0.041500 -0.999100
vn -0.002100 0.040700 -0.999200
vn 0.997800 0.066800 0.001900
vn 0.375500 -0.291600 -0.879800
vn -0.652400 0.591100 -0.474300
vn -0.652400 0.591100 -0.474400
vn 0.658300 0.752100 0.031800
vn -0.375500 0.291600 0.879800
vn 0.652400 -0.591100 0.474300
vn 0.652400 -0.591100 0.474400
vn 0.652400 -0.591000 0.474400
vn 0.432600 -0.412400 0.801700
vn -0.432600 0.412500 -0.801700
vn 0.616000 -0.514100 -0.596800
vn 0.616000 -0.514100 -0.596900
vn -0.616000 0.514100 0.596900
vn -0.616000 0.514100 0.596800
vn -0.652400 0.591000 -0.474400
vn 0.652300 -0.591000 0.474500
vn -0.375500 0.291600 0.879700
vn 0.658400 0.752000 0.031600
vn 0.652500 -0.591100 0.474200
vn -0.652500 0.591200 -0.474000
vn 0.375500 -0.291600 -0.879700
vn -0.652100 0.590800 -0.475100
vn 0.655800 0.754300 0.032700
vn 0.655700 0.754400 0.030900
vn 0.656400 0.753900 0.029300
vn 0.656400 0.753800 0.029300
vn 0.655700 0.754400 0.030800
vn 0.656500 0.753600 0.034300
vn 0.656400 0.753600 0.034200
vn 0.660900 0.749800 0.032500
vn 0.660200 0.750300 0.034100
vn 0.657700 0.752800 0.028300
vn 0.660200 0.750600 0.029100
vn 0.659000 0.751600 0.028400
vn 0.659000 0.751600 0.028300
vn 0.657700 0.752500 0.035100
vn 0.657600 0.752800 0.028400
vn 0.659000 0.751300 0.035100
vn 0.657600 0.752500 0.035100
vn 0.660200 0.750300 0.034200
vn 0.660200 0.750500 0.029100
vn 0.660900 0.749900 0.030700
usemtl SpacialRoverExploreralumWhite
f 31/1/1 3/2/1 36/3/1
f 34/4/2 2/5/2 5/6/2
f 8/7/3 4/8/3 6/9/3
f 7/10/4 2/11/4 1/12/4
f 11/13/7 17/14/8 16/15/9
f 18/16/10 14/17/11 10/18/1
f 10/18/12 11/19/12 9/20/12
f 12/21/13 14/22/13 13/23/13
f 18/24/14 12/25/14 13/26/14
f 16/15/15 18/24/15 15/27/15
f 2/5/16 37/28/16 1/29/16
f 195/30/15 199/31/15 203/32/15
f 10/18/17 16/15/17 15/27/17
f 32/33/18 4/8/18 31/1/18
f 35/34/19 3/35/19 8/36/19
f 1/29/20 38/37/20 7/38/20
f 32/33/21 8/36/22 6/39/23
f 34/4/24 7/10/25 38/40/24
f 243/41/14 42/42/14 241/43/14
f 138/44/26 116/45/27 127/46/27
f 145/47/28 160/48/26 155/49/28
f 150/50/29 161/51/30 147/52/30
f 149/53/31 158/54/32 153/55/31
f 128/56/33 126/57/34 133/58/34
f 136/59/32 120/60/35 131/61/35
f 134/62/36 124/63/37 129/64/37
f 146/65/33 163/66/38 143/67/38
f 130/68/39 122/69/40 135/70/40
f 132/71/41 118/72/30 137/73/30
f 144/74/42 157/75/37 141/76/43
f 100/77/44 243/41/44 242/78/44
f 102/79/45 245/80/46 244/81/46
f 106/82/47 249/83/48 248/84/47
f 116/45/27 128/56/33 127/46/27
f 124/63/37 130/68/39 129/64/37
f 131/61/35 119/85/41 132/71/41
f 134/62/36 126/57/34 125/86/36
f 136/87/32 122/69/40 121/88/32
f 138/44/26 118/72/30 117/89/26
f 142/90/49 159/91/50 139/92/50
f 150/50/29 153/55/31 152/93/41
f 154/94/33 145/47/28 155/49/28
f 156/95/49 141/76/43 157/75/37
f 159/91/50 140/96/32 139/92/50
f 161/51/30 148/97/26 147/52/30
f 143/67/38 162/98/36 144/74/42
f 126/57/15 151/99/15 125/86/15
f 143/100/15 144/101/15 120/102/15
f 146/103/15 143/100/15 120/102/15
f 151/104/15 149/105/15 150/106/15
f 115/107/15 116/108/15 139/109/51
f 221/110/52 238/111/53 220/112/54
f 230/113/55 220/112/54 239/114/56
f 225/115/57 230/113/55 231/116/58
f 220/112/54 230/113/55 225/115/57
f 224/117/59 225/115/57 231/116/58
f 218/118/60 219/119/61 236/120/62
f 231/116/58 236/120/62 224/117/59
f 226/121/63 233/122/64 221/110/52
f 146/103/15 121/123/15 145/124/15
f 238/111/53 239/114/56 220/112/54
f 237/125/65 218/118/60 236/120/62
f 232/126/66 233/122/64 226/121/63
f 222/127/67 223/128/68 228/129/69
f 232/126/66 226/121/63 227/130/70
f 223/128/68 218/118/60 237/125/65
f 232/126/66 227/130/70 216/131/71
f 223/128/68 237/125/65 228/129/69
f 235/132/72 232/126/66 216/131/71
f 229/133/73 222/127/67 228/129/69
f 216/131/71 217/134/74 235/132/72
f 236/120/62 219/119/61 224/117/59
f 233/122/64 238/111/53 221/110/52
f 222/127/67 229/133/73 234/135/75
f 222/127/67 234/135/75 217/134/74
f 217/134/74 234/135/75 235/132/72
f 124/136/15 147/137/15 148/138/15
f 123/139/15 148/138/15 122/140/15
f 144/101/15 141/141/15 119/142/15
f 144/101/15 119/142/15 120/102/15
f 123/139/15 124/136/15 148/138/15
f 142/143/15 118/144/15 141/141/15
f 148/138/15 145/124/15 122/140/15
f 142/143/15 117/145/15 118/144/15
f 125/146/15 147/137/15 124/136/15
f 142/143/15 116/108/15 117/145/15
f 125/146/15 150/106/15 147/137/15
f 139/109/51 116/108/15 142/143/15
f 125/146/15 151/104/15 150/106/15
f 140/147/15 115/107/15 139/109/51
f 121/123/15 122/140/15 145/124/15
f 141/141/15 118/144/15 119/142/15
f 126/148/15 149/105/15 151/104/15
f 126/148/15 140/147/15 149/105/15
f 126/148/15 115/107/15 140/147/15
f 146/103/15 120/102/15 121/123/15
f 100/77/15 246/149/76 103/150/76
f 246/149/76 104/151/77 103/150/76
f 101/152/17 248/84/47 245/80/17
f 41/153/6 241/43/6 42/42/6
f 247/154/77 105/155/48 104/151/77
f 102/79/12 240/156/12 41/157/12
f 31/1/1 4/8/1 3/2/1
f 34/4/2 33/158/2 2/5/2
f 8/7/3 3/2/3 4/8/3
f 7/10/4 5/6/4 2/11/4
f 16/15/9 9/20/9 11/13/7
f 11/13/7 12/159/78 17/14/8
f 10/18/1 15/27/1 18/16/10
f 18/16/10 13/160/79 14/17/11
f 10/18/12 14/22/12 11/19/12
f 12/21/13 11/19/13 14/22/13
f 18/24/14 17/161/14 12/25/14
f 16/15/15 17/161/15 18/24/15
f 2/5/16 33/158/16 37/28/16
f 203/32/15 192/162/15 193/163/15
f 193/163/15 194/164/80 195/30/15
f 195/30/15 196/165/15 197/166/15
f 197/166/15 198/167/15 199/31/15
f 199/31/15 200/168/15 201/169/15
f 201/169/15 202/170/15 203/32/15
f 203/32/15 193/163/15 195/30/15
f 195/30/15 197/166/15 199/31/15
f 199/31/15 201/169/15 203/32/15
f 10/18/17 9/20/17 16/15/17
f 32/33/81 6/39/81 4/8/81
f 35/34/19 36/171/19 3/35/19
f 1/29/20 37/28/20 38/37/20
f 32/33/21 35/34/82 8/36/22
f 34/4/83 5/6/84 7/10/85
f 243/41/14 99/172/14 42/42/14
f 138/44/26 117/89/26 116/45/27
f 145/47/28 148/97/26 160/48/26
f 150/50/29 152/93/41 161/51/30
f 149/53/31 140/96/32 158/54/32
f 128/56/33 115/173/33 126/57/34
f 136/59/32 121/174/32 120/60/35
f 134/62/36 125/86/36 124/63/37
f 146/65/33 154/175/33 163/66/38
f 130/68/39 123/176/39 122/69/40
f 132/71/41 119/85/41 118/72/30
f 144/74/42 162/98/36 157/75/37
f 100/77/44 99/172/44 243/41/44
f 102/79/45 101/152/45 245/80/46
f 106/82/47 105/155/48 249/83/48
f 116/45/27 115/173/33 128/56/33
f 124/63/37 123/176/39 130/68/39
f 131/61/35 120/60/35 119/85/41
f 134/62/36 133/58/34 126/57/34
f 136/87/32 135/70/40 122/69/40
f 138/44/26 137/73/30 118/72/30
f 142/90/49 156/95/49 159/91/50
f 150/50/29 149/53/31 153/55/31
f 154/94/33 146/177/33 145/47/28
f 156/95/49 142/90/49 141/76/43
f 159/91/50 158/54/32 140/96/32
f 161/51/30 160/48/26 148/97/26
f 143/67/38 163/66/38 162/98/36
f 100/77/15 242/78/15 246/149/76
f 246/149/76 247/154/77 104/151/77
f 101/152/17 106/82/47 248/84/47
f 41/153/5 240/178/5 241/43/5
f 247/154/77 249/83/48 105/155/48
f 102/79/12 244/81/12 240/156/12
usemtl SpacialRoverExploreralumGray
f 181/179/87 21/180/87 180/181/87
f 21/180/88 182/182/89 180/181/89
f 61/183/34 63/184/33 74/185/34
f 55/186/35 69/187/32 68/188/31
f 57/189/40 71/190/49 70/191/40
f 59/192/37 73/193/36 72/194/37
f 51/195/27 65/196/26 64/197/27
f 53/198/30 67/199/41 66/200/30
f 25/201/90 24/202/15 26/203/15
f 167/204/91 29/205/91 164/206/91
f 171/207/87 26/208/87 168/209/87
f 29/210/92 169/211/92 164/212/93
f 23/213/88 171/207/88 166/214/89
f 244/81/12 49/215/12 240/156/12
f 107/216/77 249/83/48 247/154/77
f 240/178/5 50/217/5 241/43/5
f 245/80/17 109/218/47 114/219/17
f 52/220/33 64/221/27 63/184/33
f 66/200/30 54/222/26 53/198/30
f 68/188/31 56/223/29 55/186/35
f 70/191/40 58/224/32 57/189/40
f 72/194/37 60/225/49 59/192/37
f 74/185/34 62/226/36 61/183/34
f 82/227/15 68/228/15 69/229/15
f 64/230/15 65/231/15 78/232/15
f 76/233/15 74/234/15 63/235/15
f 70/236/15 81/237/15 69/229/15
f 109/238/1 111/239/1 50/240/1
f 108/241/76 247/154/77 246/149/76
f 242/78/15 108/241/76 246/149/76
f 167/204/89 28/242/89 30/243/89
f 165/244/94 26/208/92 24/202/92
f 28/242/87 169/211/87 27/245/87
f 23/246/91 165/244/91 24/202/91
f 171/247/12 165/244/12 166/248/12
f 181/179/93 20/249/92 22/250/92
f 20/249/91 182/251/91 19/252/91
f 181/253/15 182/251/15 183/254/15
f 79/255/15 80/256/15 68/228/15
f 74/234/15 85/257/15 86/258/15
f 67/259/15 80/256/15 77/260/15
f 70/236/15 71/261/15 84/262/15
f 81/237/15 70/236/15 84/262/15
f 66/263/15 67/259/15 77/260/15
f 72/264/15 84/262/15 71/261/15
f 77/260/15 78/232/15 66/263/15
f 72/264/15 83/265/15 84/262/15
f 72/264/15 73/266/15 83/265/15
f 75/267/15 64/230/15 78/232/15
f 63/235/15 64/230/15 75/267/15
f 80/256/15 67/259/15 68/228/15
f 73/266/15 74/234/15 86/258/15
f 76/233/15 63/235/15 75/267/15
f 78/232/15 65/231/15 66/263/15
f 73/266/15 86/258/15 83/265/15
f 74/234/15 76/233/15 85/257/15
f 81/237/15 82/227/15 69/229/15
f 68/228/15 82/227/15 79/255/15
f 170/268/90 164/206/15 169/269/15
f 248/84/47 110/270/48 109/218/47
f 244/81/46 114/219/46 113/271/46
f 242/78/44 112/272/86 111/273/86
f 112/272/14 241/43/14 50/217/14
f 181/179/87 22/250/87 21/180/87
f 21/180/88 19/274/88 182/182/89
f 61/183/34 52/220/33 63/184/33
f 55/186/35 58/224/32 69/187/32
f 57/189/40 60/225/49 71/190/49
f 59/192/37 62/226/36 73/193/36
f 51/195/27 54/222/26 65/196/26
f 53/198/30 56/223/29 67/199/41
f 25/201/90 23/246/90 24/202/15
f 167/204/91 30/243/91 29/205/91
f 171/207/87 25/275/87 26/208/87
f 29/210/92 27/245/92 169/211/92
f 23/213/88 25/275/88 171/207/88
f 244/81/12 113/271/12 49/215/12
f 107/216/77 110/270/48 249/83/48
f 240/178/5 49/276/5 50/217/5
f 245/80/17 248/84/47 109/218/47
f 52/220/33 51/277/27 64/221/27
f 66/200/30 65/196/26 54/222/26
f 68/188/31 67/199/41 56/223/29
f 70/191/40 69/187/32 58/224/32
f 72/194/37 71/190/49 60/225/49
f 74/185/34 73/193/36 62/226/36
f 50/240/1 49/278/1 113/279/1
f 113/279/1 114/280/1 109/238/1
f 109/238/1 110/281/1 107/282/1
f 107/282/1 108/283/1 111/239/1
f 111/239/1 112/284/1 50/240/1
f 50/240/1 113/279/1 109/238/1
f 109/238/1 107/282/1 111/239/1
f 108/241/76 107/216/77 247/154/77
f 242/78/15 111/273/15 108/241/76
f 167/204/89 170/285/88 28/242/89
f 165/244/94 168/209/94 26/208/92
f 28/242/87 170/285/87 169/211/87
f 23/246/91 166/248/91 165/244/91
f 171/247/12 168/286/12 165/244/12
f 181/179/93 183/254/93 20/249/92
f 20/249/91 183/254/91 182/251/91
f 181/253/15 180/287/15 182/251/15
f 170/268/90 167/204/90 164/206/15
f 248/84/47 249/83/48 110/270/48
f 244/81/46 245/80/46 114/219/46
f 242/78/44 243/41/44 112/272/86
f 112/272/14 243/41/14 241/43/14
usemtl SpacialRoverExploreralumBlack
f 43/288/15 39/289/15 44/290/15
f 40/291/95 47/292/95 39/293/95
f 46/294/96 44/290/96 45/295/96
f 47/292/97 44/296/98 39/293/98
f 40/291/99 46/294/99 48/297/100
f 174/298/89 178/299/101 175/300/101
f 172/301/102 176/302/93 173/303/93
f 178/299/87 176/304/87 177/305/87
f 173/303/103 175/300/91 172/301/91
f 188/306/15 185/307/104 187/308/104
f 189/309/91 187/310/91 191/311/91
f 186/312/105 189/309/92 190/313/92
f 184/314/89 187/308/106 185/307/101
f 186/312/107 184/314/107 185/307/107
f 43/288/15 40/315/15 39/289/15
f 40/291/95 48/297/95 47/292/95
f 46/294/96 43/288/96 44/290/96
f 47/292/97 45/316/97 44/296/98
f 40/291/99 43/288/99 46/294/99
f 174/298/89 179/317/89 178/299/101
f 172/301/102 177/318/102 176/302/93
f 178/299/87 179/317/87 176/304/87
f 173/303/103 174/298/103 175/300/91
f 188/306/15 186/312/15 185/307/104
f 189/309/91 188/319/91 187/310/91
f 186/312/105 188/319/105 189/309/92
f 184/314/89 191/320/108 187/308/106
f 186/312/87 190/313/87 184/314/87
usemtl SpacialRoverExploreralumOrange
f 80/321/41 98/322/30 77/323/30
f 76/324/33 90/325/34 85/326/38
f 84/327/49 94/328/40 81/329/40
f 86/330/36 92/331/37 83/332/37
f 82/333/32 96/334/31 79/335/35
f 213/336/42 195/337/37 214/338/37
f 205/339/32 203/340/31 206/341/35
f 207/342/41 201/343/30 208/344/30
f 211/345/33 197/346/34 212/347/38
f 211/348/109 96/349/110 93/350/109
f 210/351/27 200/352/26 199/353/27
f 86/330/36 90/325/34 89/354/36
f 82/333/32 94/328/40 93/355/32
f 78/356/26 98/322/30 97/357/26
f 88/358/27 76/324/33 75/359/27
f 92/331/37 84/360/49 83/332/37
f 79/335/35 95/361/41 80/321/41
f 78/356/26 88/358/27 75/359/27
f 193/362/40 205/339/32 204/363/40
f 201/343/30 209/364/26 208/344/30
f 212/347/38 196/365/36 213/336/42
f 207/342/41 203/340/31 202/366/41
f 211/345/33 199/353/27 198/367/33
f 194/368/49 214/338/37 195/337/37
f 204/363/40 194/368/49 193/362/40
f 213/369/111 95/370/112 96/349/110
f 96/349/110 211/348/109 212/371/113
f 94/372/114 210/373/115 93/350/109
f 212/371/113 213/369/111 96/349/110
f 90/374/116 206/375/116 207/376/117
f 95/370/112 213/369/111 214/377/118
f 88/378/119 97/379/120 215/380/121
f 210/373/115 94/372/114 209/381/122
f 98/382/123 95/370/112 214/377/118
f 92/383/124 209/381/122 91/384/125
f 214/377/118 215/380/121 98/382/123
f 92/383/124 208/385/124 209/381/122
f 92/383/124 89/386/126 208/385/124
f 204/387/127 88/378/119 215/380/121
f 87/388/128 88/378/119 204/387/127
f 94/372/114 91/384/125 209/381/122
f 89/386/126 90/374/116 207/376/117
f 205/389/128 87/388/128 204/387/127
f 215/380/121 97/379/120 98/382/123
f 89/386/126 207/376/117 208/385/124
f 205/389/128 90/374/116 87/388/128
f 210/373/115 211/348/109 93/350/109
f 90/374/116 205/389/128 206/375/116
f 80/321/41 95/361/41 98/322/30
f 76/324/33 87/390/33 90/325/34
f 84/327/49 91/391/49 94/328/40
f 86/330/36 89/354/36 92/331/37
f 82/333/32 93/355/32 96/334/31
f 213/336/42 196/365/36 195/337/37
f 205/339/32 192/392/32 203/340/31
f 207/342/41 202/366/41 201/343/30
f 211/345/33 198/367/33 197/346/34
f 210/351/27 209/393/26 200/352/26
f 86/330/36 85/326/38 90/325/34
f 82/333/32 81/329/40 94/328/40
f 78/356/26 77/323/30 98/322/30
f 88/358/27 87/390/33 76/324/33
f 92/331/37 91/394/49 84/360/49
f 79/335/35 96/334/31 95/361/41
f 78/356/26 97/357/26 88/358/27
f 193/362/40 192/392/32 205/339/32
f 201/343/30 200/395/26 209/364/26
f 212/347/38 197/346/34 196/365/36
f 207/342/41 206/341/35 203/340/31
f 211/345/33 210/351/27 199/353/27
f 194/368/49 215/396/49 214/338/37
f 204/363/40 215/396/49 194/368/49
