# Holocron original con UV y textura de logos
mtllib holocron_simple.mtl
o holocron_simple
v -2.517274 -2.579095 0.002115
v -1.185055 -2.530499 -1.198261
v 0.049649 2.440128 -2.417217
v 0.051152 2.399781 2.545043
v -2.646786 -0.139047 2.493757
v -1.328995 -2.578386 1.297838
v 2.593003 -0.085222 2.505755
v 1.385028 -2.549476 1.308677
v -0.140696 -2.601934 2.558561
v 2.534944 -0.061146 -2.580280
v 1.344182 -2.542571 -1.294387
v 0.081432 -2.513204 -2.426005
v -2.453980 -0.063388 -2.477451
v 2.632201 -2.553892 0.007226
v 2.521206 2.448241 0.063388
v -2.451372 2.421759 0.077538
vt 0.24886772 0.42288384
vt 0.24561066 0.29506838
vt 0.32065952 0.29363674
vt 0.16096842 0.89546653
vt 0.34296795 0.71201269
vt 0.34605376 0.89509500
vt 0.38624786 0.42395457
vt 0.46922082 0.28409778
vt 0.54247152 0.42350241
vt 0.39399967 0.64443833
vt 0.46864619 0.51042747
vt 0.54702648 0.64345505
vt 0.78525585 0.66268011
vt 0.58618304 0.88141437
vt 0.57762279 0.66268011
vt 0.60623395 0.65388480
vt 0.66930845 0.52487707
vt 0.74935490 0.65277760
vt 0.77007439 0.62502149
vt 0.86101010 0.47449847
vt 0.94327533 0.62795684
vt 0.30873604 0.40394022
vt 0.30918695 0.29824413
vt 0.36982859 0.29716209
vt 0.67514280 0.44420556
vt 0.67284152 0.32890769
vt 0.74217496 0.32672269
vt 0.87936347 0.46200386
vt 0.87892669 0.32094679
vt 0.95763959 0.32107564
vt 0.36448326 0.68322800
vt 0.57379474 0.89695119
vt 0.36076073 0.89278751
vt 0.24085383 0.15866948
vt 0.23977939 0.09015456
vt 0.31122270 0.09043267
vt 0.98488673 0.69418826
vt 0.77165400 0.90518855
vt 0.77429810 0.69418826
vt 0.15564658 0.69749336
vt 0.38384146 0.46621343
vt 0.38490407 0.69547793
vt 0.15564658 0.69749336
vt 0.15373877 0.46621343
vt 0.38384146 0.46621343
vt 0.36448326 0.68322800
vt 0.57732230 0.68322800
vt 0.57379474 0.89695119
vt 0.98488673 0.69418826
vt 0.99013562 0.90960490
vt 0.77165400 0.90518855
vt 0.78525585 0.66268011
vt 0.79621632 0.88196512
vt 0.58618304 0.88141437
vt 0.16096842 0.89546653
vt 0.16174745 0.71201269
vt 0.34296795 0.71201269
vt 0.24886772 0.42288384
vt 0.17182594 0.29703232
vt 0.24561066 0.29506838
vt 0.30873604 0.40394022
vt 0.24764450 0.29815077
vt 0.30918695 0.29824413
vt 0.67514280 0.44420556
vt 0.59705397 0.32429472
vt 0.67284152 0.32890769
vt 0.87936347 0.46200386
vt 0.79396312 0.31864052
vt 0.87892669 0.32094679
vt 0.31122270 0.09043267
vt 0.34250140 0.12453748
vt 0.30742869 0.15614844
vt 0.30742869 0.15614844
vt 0.27408958 0.18846727
vt 0.24085383 0.15866948
vt 0.24085383 0.15866948
vt 0.20695100 0.12440466
vt 0.23977939 0.09015456
vt 0.23977939 0.09015456
vt 0.27994608 0.05723932
vt 0.31122270 0.09043267
vt 0.31122270 0.09043267
vt 0.30742869 0.15614844
vt 0.24085383 0.15866948
vn -0.5055 -0.6014 -0.6187
vn -0.5056 -0.6014 -0.6187
vn -0.4910 -0.6002 -0.6313
vn -0.9999 0.0012 0.0165
vn -0.9999 0.0019 0.0170
vn -0.9999 0.0019 0.0169
vn 0.5667 0.5876 -0.5776
vn 0.5666 0.5876 -0.5776
vn 0.5666 0.5877 -0.5775
vn -0.5776 0.5876 -0.5666
vn -0.5776 0.5876 -0.5667
vn -0.5776 0.5877 -0.5666
vn 0.0006 0.0170 0.9999
vn 0.0008 0.0171 0.9999
vn 0.0009 0.0171 0.9999
vn -0.5667 0.5874 0.5777
vn -0.5666 0.5876 0.5777
vn -0.5668 0.5873 0.5777
vn 0.5788 0.5849 0.5682
vn 0.5789 0.5850 0.5681
vn -0.6176 -0.5877 0.5227
vn -0.6176 -0.5876 0.5228
vn -0.6166 -0.5880 0.5235
vn 0.5565 -0.5649 0.6092
vn 0.5564 -0.5650 0.6093
vn 0.5865 -0.5652 0.5801
vn 0.5585 -0.5875 -0.5856
vn 0.5582 -0.5875 -0.5859
vn 0.5377 -0.5876 -0.6046
vn -0.0011 0.0174 -0.9998
vn -0.0011 0.0175 -0.9998
vn -0.0044 -0.9998 0.0200
vn 0.0033 -0.9997 0.0224
vn 0.0063 -0.9999 0.0136
vn 0.9992 0.0358 0.0171
vn 0.9992 0.0359 0.0171
vn -0.0012 0.9999 0.0170
vn -0.0010 0.9999 0.0170
vn -0.0015 0.9999 0.0168
vn -0.0015 0.9999 0.0170
vn 0.9992 0.0364 0.0167
vn 0.0008 0.0170 0.9999
vn -0.9999 0.0018 0.0169
vn -0.5208 -0.6020 -0.6052
vn -0.6185 -0.5876 0.5216
vn 0.5263 -0.5634 0.6368
vn 0.5779 -0.5873 -0.5667
vn 0.0172 -0.9998 0.0128
vn -0.0022 -0.9999 0.0119
vn -0.0082 -0.9999 0.0114
vn -0.0092 -0.9996 0.0283
vn 0.0078 -1.0000 0.0019
usemtl LogosHolocron
s off
f 13/1/1 2/2/2 1/3/3
f 13/4/4 5/5/5 16/6/6
f 15/7/7 10/8/8 3/9/9
f 3/10/10 13/11/11 16/12/12
f 9/13/13 4/14/14 5/15/15
f 16/16/16 5/17/17 4/18/18
f 4/19/19 7/20/20 15/21/19
f 5/22/21 6/23/22 9/24/23
f 7/25/24 8/26/25 14/27/26
f 10/28/27 11/29/28 12/30/29
f 12/31/30 3/32/30 10/33/31
f 11/34/32 8/35/33 6/36/34
f 14/37/35 15/38/35 7/39/36
f 3/40/37 4/41/38 15/42/39
f 3/43/37 16/44/40 4/45/38
f 12/46/30 13/47/30 3/48/30
f 14/49/35 10/50/41 15/51/35
f 9/52/13 7/53/42 4/54/14
f 13/55/4 1/56/43 5/57/5
f 13/58/1 12/59/44 2/60/2
f 5/61/21 1/62/45 6/63/22
f 7/64/24 9/65/46 8/66/25
f 10/67/27 14/68/47 11/69/28
f 6/70/34 1/71/48 2/72/49
f 2/73/49 12/74/50 11/75/32
f 11/76/32 14/77/51 8/78/33
f 8/79/33 9/80/52 6/81/34
f 6/82/34 2/83/49 11/84/32
